# Blender 5.2.0 LTS
# www.blender.org
mtllib aero_machine.mtl
o Cube.003
v 0.153333 0.106667 1.824000
v 0.153333 -0.106667 1.824000
v 0.306350 0.081454 -1.876300
v 0.306350 -0.081455 -1.876300
v 0.000000 0.133333 1.856000
v -0.000000 -0.133333 1.856000
v 0.000000 0.085333 -1.889600
v -0.000000 -0.085333 -1.889600
v 0.569317 -0.017891 -1.883900
v 0.569317 0.017891 -1.883900
v 0.244445 0.195555 1.054400
v 0.000000 0.293333 1.054400
v -0.000000 -0.293333 1.054400
v 0.244444 -0.195556 1.054400
v 0.000000 0.277333 -1.222400
v 0.266456 -0.184889 -1.223667
v 0.266456 0.184889 -1.223667
v -0.000000 -0.277333 -1.222400
v 0.236963 0.042957 0.409467
v 0.422622 0.027248 0.406800
v 0.422622 -0.027249 0.406800
v 0.236963 -0.042958 0.409467
v 0.464211 0.020557 -1.371534
v 0.464211 -0.020558 -1.371534
v -0.153333 0.106667 1.824000
v -0.153333 -0.106667 1.824000
v -0.306350 0.081455 -1.876300
v -0.306350 -0.081454 -1.876300
v -0.569317 -0.017891 -1.883900
v -0.569317 0.017891 -1.883900
v -0.244444 0.195556 1.054400
v -0.244445 -0.195555 1.054400
v -0.266456 -0.184889 -1.223667
v -0.266456 0.184889 -1.223667
v -0.236963 0.042958 0.409467
v -0.422622 0.027249 0.406800
v -0.422622 -0.027248 0.406800
v -0.236963 -0.042958 0.409467
v -0.464211 0.020558 -1.371534
v -0.464211 -0.020557 -1.371534
v 0.140804 0.085338 -1.889312
v 0.246432 0.085374 -1.887295
v 0.293723 0.084782 -1.882347
v 0.293723 -0.084782 -1.882347
v 0.246432 -0.085374 -1.887296
v 0.140804 -0.085338 -1.889312
v 0.127655 0.119312 1.838689
v 0.089784 0.128951 1.850519
v 0.046223 0.132785 1.855315
v 0.046223 -0.132786 1.855315
v 0.089784 -0.128951 1.850519
v 0.127655 -0.119312 1.838688
v 0.156465 0.062603 1.838003
v 0.157901 -0.000000 1.845037
v 0.156465 -0.062603 1.838003
v 0.346302 -0.054896 -1.883763
v 0.412579 -0.028247 -1.888844
v 0.495777 -0.018226 -1.888077
v 0.682668 -0.017803 -1.890063
v 0.897415 -0.017122 -1.894948
v 1.214377 -0.017765 -1.896919
v 1.214377 0.017764 -1.896919
v 0.897415 0.017122 -1.894948
v 0.682668 0.017803 -1.890063
v 0.495777 0.018226 -1.888077
v 0.412579 0.028247 -1.888844
v 0.346302 0.054896 -1.883763
v -0.000000 -0.040667 -1.906700
v -0.000000 -0.000000 -1.912400
v 0.000000 0.040667 -1.906700
v -0.000000 -0.069167 1.892000
v 0.000000 0.000000 1.904000
v 0.000000 0.069167 1.892000
v 0.224209 0.179035 1.427307
v 0.199228 0.156728 1.655652
v 0.173349 0.130215 1.775913
v 0.000000 0.238333 -1.565375
v 0.000000 0.189333 -1.760600
v 0.000000 0.136333 -1.853525
v -0.000000 -0.268333 1.427825
v -0.000000 -0.233333 1.659800
v -0.000000 -0.188333 1.789475
v 0.267023 -0.159338 -1.567432
v 0.272107 -0.129818 -1.761541
v 0.285861 -0.102227 -1.849602
v 0.266230 0.201055 -0.709909
v 0.263863 0.207555 -0.096758
v 0.257288 0.205389 0.522455
v 0.000000 0.188333 1.789475
v 0.000000 0.233333 1.659800
v 0.000000 0.268333 1.427825
v -0.000000 -0.301583 -0.709375
v -0.000000 -0.311333 -0.096600
v -0.000000 -0.308083 0.522475
v 0.173349 -0.130215 1.775913
v 0.199228 -0.156728 1.655652
v 0.224209 -0.179036 1.427307
v 0.199375 -0.252083 1.054400
v 0.140555 -0.281111 1.054400
v 0.072569 -0.291806 1.054400
v 0.271944 -0.106945 1.054400
v 0.281111 -0.000000 1.054400
v 0.271944 0.106944 1.054400
v 0.072570 0.291806 1.054400
v 0.140556 0.281111 1.054400
v 0.199375 0.252083 1.054400
v 0.000000 0.308083 0.522475
v 0.000000 0.311333 -0.096600
v 0.000000 0.301583 -0.709375
v 0.257288 -0.205389 0.522455
v 0.263862 -0.207556 -0.096758
v 0.266230 -0.201056 -0.709909
v 0.285861 0.102226 -1.849602
v 0.272107 0.129818 -1.761541
v 0.267024 0.159338 -1.567432
v -0.000000 -0.136333 -1.853525
v -0.000000 -0.189333 -1.760600
v -0.000000 -0.238333 -1.565375
v 0.079163 0.275889 -1.222420
v 0.153307 0.265778 -1.222558
v 0.217411 0.238333 -1.222934
v 0.217411 -0.238333 -1.222935
v 0.153307 -0.265778 -1.222558
v 0.079163 -0.275889 -1.222420
v 0.296284 -0.101111 -1.224696
v 0.306192 -0.000000 -1.225250
v 0.296284 0.101111 -1.224696
v 0.234154 0.028097 0.831035
v 0.304460 0.028218 0.678642
v 0.234154 -0.028098 0.831035
v 0.304459 -0.028218 0.678642
v 0.279078 -0.050376 0.407925
v 0.329848 -0.048267 0.407133
v 0.380590 -0.039576 0.406842
v 0.448710 -0.013797 0.406800
v 0.457406 -0.000000 0.406800
v 0.448710 0.013797 0.406800
v 0.380590 0.039576 0.406842
v 0.329848 0.048267 0.407133
v 0.279078 0.050376 0.407925
v 0.499687 0.017237 -1.641418
v 0.525908 0.016249 -1.793061
v 0.550500 0.017315 -1.862419
v 0.499687 -0.017237 -1.641418
v 0.525908 -0.016250 -1.793061
v 0.550500 -0.017316 -1.862419
v 0.289410 0.037944 0.001126
v 0.351147 0.031867 -0.482958
v 0.412604 0.025735 -0.966080
v 0.598592 0.025578 -0.005600
v 0.831611 0.023555 -0.528100
v 1.122951 0.021499 -1.120972
v 0.598592 -0.025578 -0.005600
v 0.831611 -0.023556 -0.528100
v 1.122951 -0.021500 -1.120972
v 0.289410 -0.037944 0.001126
v 0.351147 -0.031867 -0.482958
v 0.412604 -0.025735 -0.966080
v 0.366283 -0.011297 -1.370504
v 0.333675 -0.000000 -1.369950
v 0.366283 0.011297 -1.370504
v 0.626752 -0.026139 -1.376778
v 0.849728 -0.027974 -1.408742
v 1.132664 -0.026232 -1.503049
v 1.132664 0.026231 -1.503049
v 0.849728 0.027973 -1.408742
v 0.626752 0.026139 -1.376778
v -0.140804 0.085338 -1.889312
v -0.246432 0.085374 -1.887296
v -0.293723 0.084782 -1.882347
v -0.293723 -0.084782 -1.882347
v -0.246432 -0.085374 -1.887295
v -0.140804 -0.085338 -1.889312
v -0.127655 0.119312 1.838689
v -0.089784 0.128951 1.850519
v -0.046223 0.132786 1.855315
v -0.046223 -0.132785 1.855315
v -0.089784 -0.128951 1.850519
v -0.127655 -0.119312 1.838688
v -0.156465 0.062603 1.838003
v -0.157901 0.000000 1.845037
v -0.156465 -0.062603 1.838003
v -0.346302 -0.054896 -1.883763
v -0.412579 -0.028247 -1.888844
v -0.495777 -0.018226 -1.888077
v -0.682668 -0.017803 -1.890063
v -0.897415 -0.017122 -1.894948
v -1.214377 -0.017764 -1.896919
v -1.214377 0.017765 -1.896919
v -0.897415 0.017122 -1.894948
v -0.682668 0.017803 -1.890063
v -0.495777 0.018226 -1.888077
v -0.412579 0.028247 -1.888844
v -0.346302 0.054896 -1.883763
v -0.224209 0.179036 1.427307
v -0.199228 0.156728 1.655652
v -0.173349 0.130215 1.775913
v -0.267024 -0.159338 -1.567432
v -0.272107 -0.129818 -1.761541
v -0.285861 -0.102226 -1.849602
v -0.266230 0.201056 -0.709909
v -0.263862 0.207556 -0.096758
v -0.257288 0.205389 0.522455
v -0.173349 -0.130215 1.775913
v -0.199228 -0.156728 1.655652
v -0.224209 -0.179035 1.427307
v -0.199375 -0.252083 1.054400
v -0.140556 -0.281111 1.054400
v -0.072570 -0.291806 1.054400
v -0.271944 -0.106944 1.054400
v -0.281111 0.000000 1.054400
v -0.271944 0.106945 1.054400
v -0.072569 0.291806 1.054400
v -0.140555 0.281111 1.054400
v -0.199375 0.252083 1.054400
v -0.257288 -0.205389 0.522455
v -0.263863 -0.207555 -0.096758
v -0.266230 -0.201055 -0.709909
v -0.285861 0.102227 -1.849602
v -0.272107 0.129818 -1.761541
v -0.267023 0.159338 -1.567432
v -0.079163 0.275889 -1.222420
v -0.153307 0.265778 -1.222558
v -0.217411 0.238333 -1.222934
v -0.217411 -0.238333 -1.222934
v -0.153307 -0.265778 -1.222558
v -0.079163 -0.275889 -1.222420
v -0.296284 -0.101111 -1.224696
v -0.306192 0.000000 -1.225250
v -0.296284 0.101111 -1.224696
v -0.234154 0.028097 0.831035
v -0.304460 0.028218 0.678642
v -0.234154 -0.028097 0.831035
v -0.304460 -0.028218 0.678642
v -0.279079 -0.050376 0.407925
v -0.329848 -0.048267 0.407133
v -0.380590 -0.039576 0.406842
v -0.448710 -0.013797 0.406800
v -0.457406 0.000000 0.406800
v -0.448710 0.013797 0.406800
v -0.380590 0.039576 0.406842
v -0.329848 0.048267 0.407133
v -0.279078 0.050376 0.407925
v -0.499687 0.017237 -1.641418
v -0.525908 0.016250 -1.793061
v -0.550500 0.017316 -1.862419
v -0.499687 -0.017237 -1.641418
v -0.525908 -0.016249 -1.793061
v -0.550500 -0.017315 -1.862419
v -0.289410 0.037944 0.001126
v -0.351147 0.031867 -0.482958
v -0.412604 0.025735 -0.966080
v -0.598592 0.025578 -0.005600
v -0.831611 0.023556 -0.528100
v -1.122951 0.021500 -1.120972
v -0.598592 -0.025578 -0.005600
v -0.831611 -0.023555 -0.528100
v -1.122951 -0.021499 -1.120972
v -0.289410 -0.037944 0.001126
v -0.351147 -0.031867 -0.482958
v -0.412604 -0.025735 -0.966080
v -0.366283 -0.011297 -1.370504
v -0.333675 0.000000 -1.369950
v -0.366283 0.011297 -1.370504
v -0.626752 -0.026139 -1.376778
v -0.849728 -0.027973 -1.408742
v -1.132664 -0.026231 -1.503049
v -1.132664 0.026232 -1.503049
v -0.849728 0.027974 -1.408742
v -0.626752 0.026139 -1.376778
v 0.182921 0.230704 1.427453
v 0.128969 0.257189 1.427696
v 0.066590 0.266940 1.427809
v 0.162900 0.201364 1.656819
v 0.114946 0.223904 1.658763
v 0.059368 0.232155 1.659671
v 0.142818 0.164534 1.780182
v 0.100939 0.181329 1.786327
v 0.052149 0.187458 1.789082
v 0.042649 0.068907 1.891132
v 0.041497 -0.000000 1.903074
v 0.042649 -0.068907 1.891132
v 0.083692 0.067091 1.885056
v 0.081975 -0.000000 1.896593
v 0.083692 -0.067091 1.885056
v 0.121716 0.063269 1.868834
v 0.120679 -0.000000 1.879037
v 0.121716 -0.063269 1.868834
v 0.568105 -0.000000 -1.913264
v 1.164074 0.009826 -1.909754
v 1.124619 -0.000000 -1.914247
v 1.164074 -0.009827 -1.909754
v 0.801615 -0.010947 -1.907510
v 0.598572 -0.015737 -1.900599
v 0.480295 -0.022279 -1.903383
v 0.370326 -0.048592 -1.897074
v 0.342272 -0.042828 -1.904258
v 0.195384 -0.040866 -1.906454
v 0.235436 -0.000000 -1.912499
v 0.195385 0.040865 -1.906453
v 0.342272 0.042827 -1.904258
v 0.370326 0.048592 -1.897074
v 0.480295 0.022279 -1.903383
v 0.598572 0.015736 -1.900599
v 0.801615 0.010946 -1.907510
v 0.066590 -0.266940 1.427809
v 0.128969 -0.257189 1.427696
v 0.182921 -0.230704 1.427452
v 0.059368 -0.232155 1.659671
v 0.114946 -0.223904 1.658763
v 0.162900 -0.201364 1.656819
v 0.052149 -0.187458 1.789082
v 0.100938 -0.181329 1.786327
v 0.142818 -0.164534 1.780182
v 0.678411 0.022462 -1.646043
v 0.921101 0.025191 -1.669518
v 1.219056 0.025749 -1.729461
v 0.705681 0.020476 -1.796269
v 0.948097 0.023282 -1.805734
v 1.243400 0.025193 -1.825561
v 0.711960 0.019460 -1.865472
v 0.941731 0.020987 -1.869434
v 1.241071 0.022788 -1.873111
v 0.079062 -0.300013 -0.709383
v 0.153122 -0.289017 -0.709442
v 0.217179 -0.259173 -0.709601
v 0.078342 -0.309712 -0.096603
v 0.151733 -0.298361 -0.096620
v 0.215223 -0.267552 -0.096667
v 0.076383 -0.306479 0.522475
v 0.147942 -0.295247 0.522473
v 0.209852 -0.264759 0.522467
v 0.189264 0.072215 1.779788
v 0.193891 -0.000000 1.783179
v 0.189264 -0.072215 1.779788
v 0.220741 0.085876 1.656689
v 0.227670 -0.000000 1.657726
v 0.220741 -0.085876 1.656689
v 0.249320 0.097931 1.427436
v 0.257660 -0.000000 1.427566
v 0.249320 -0.097931 1.427436
v 0.217179 0.259173 -0.709601
v 0.153123 0.289017 -0.709442
v 0.079062 0.300013 -0.709383
v 0.215223 0.267552 -0.096667
v 0.151733 0.298361 -0.096620
v 0.078342 0.309712 -0.096602
v 0.209852 0.264759 0.522467
v 0.147942 0.295246 0.522473
v 0.076384 0.306479 0.522475
v 0.248822 0.123983 -1.850238
v 0.192189 0.132901 -1.852371
v 0.105117 0.135904 -1.853381
v 0.226552 0.164957 -1.760431
v 0.164753 0.182202 -1.760479
v 0.086844 0.188442 -1.760585
v 0.218495 0.205099 -1.566172
v 0.154720 0.228497 -1.565602
v 0.080121 0.237104 -1.565403
v 0.105117 -0.135904 -1.853381
v 0.192188 -0.132902 -1.852371
v 0.248822 -0.123983 -1.850238
v 0.086844 -0.188442 -1.760585
v 0.164753 -0.182202 -1.760479
v 0.226551 -0.164957 -1.760431
v 0.080121 -0.237104 -1.565404
v 0.154720 -0.228498 -1.565603
v 0.218495 -0.205099 -1.566172
v 0.286231 0.112322 0.522439
v 0.295878 -0.000000 0.522430
v 0.286231 -0.112322 0.522439
v 0.293529 0.113507 -0.096887
v 0.303413 -0.000000 -0.096956
v 0.293529 -0.113507 -0.096887
v 0.296119 0.109952 -0.710344
v 0.306067 -0.000000 -0.710577
v 0.296119 -0.109952 -0.710344
v 0.221914 -0.041128 0.831228
v 0.281094 -0.041389 0.678730
v 0.252869 -0.050932 0.679192
v 0.224658 -0.053565 0.680403
v 0.241295 0.014154 0.831239
v 0.243492 -0.000000 0.831443
v 0.241295 -0.014155 0.831239
v 0.318903 0.014192 0.678668
v 0.323695 -0.000000 0.678693
v 0.318903 -0.014193 0.678667
v 0.221914 0.041128 0.831228
v 0.224658 0.053565 0.680403
v 0.252869 0.050932 0.679192
v 0.281094 0.041389 0.678730
v 1.219056 -0.025750 -1.729461
v 0.921101 -0.025191 -1.669518
v 0.678411 -0.022462 -1.646043
v 1.243400 -0.025194 -1.825561
v 0.948097 -0.023282 -1.805734
v 0.705682 -0.020476 -1.796269
v 1.241071 -0.022788 -1.873111
v 0.941731 -0.020988 -1.869434
v 0.711960 -0.019460 -1.865472
v 0.330842 0.014371 -0.965612
v 0.303602 -0.000000 -0.965360
v 0.330842 -0.014371 -0.965612
v 0.288745 0.018012 -0.482559
v 0.267946 -0.000000 -0.482344
v 0.288745 -0.018012 -0.482559
v 0.246536 0.021620 0.002056
v 0.246536 -0.021620 0.002056
v 0.336533 -0.000000 -1.797251
v 0.297126 0.087303 -1.570257
v 0.308222 -0.000000 -1.574019
v 0.297126 -0.087303 -1.570257
v 0.304333 -0.072991 -1.767974
v 0.320963 -0.063335 -1.854329
v 0.368107 -0.026603 -1.861606
v 0.441633 -0.015753 -1.862201
v 0.410039 -0.010425 -1.792641
v 0.390535 -0.009452 -1.639989
v 0.351588 -0.000000 -1.640199
v 0.390535 0.009451 -1.639989
v 0.410039 0.010424 -1.792641
v 0.441633 0.015752 -1.862201
v 0.368107 0.026603 -1.861606
v 0.320963 0.063334 -1.854329
v 0.304333 0.072991 -1.767974
v 0.527998 -0.036443 -0.003378
v 0.442748 -0.043671 -0.001004
v 0.358568 -0.044944 0.000323
v 0.718299 -0.032647 -0.510458
v 0.581174 -0.038101 -0.492414
v 0.452706 -0.038361 -0.484371
v 0.937582 -0.028875 -1.049720
v 0.727434 -0.032512 -0.992531
v 0.547389 -0.031722 -0.969657
v 0.641367 0.013118 -0.006476
v 0.655205 -0.000000 -0.006550
v 0.641367 -0.013119 -0.006476
v 0.893614 0.012298 -0.535106
v 0.910917 -0.000000 -0.535700
v 0.893614 -0.012298 -0.535106
v 1.197954 0.011451 -1.142213
v 1.211946 -0.000000 -1.142763
v 1.197954 -0.011452 -1.142213
v 0.358568 0.044944 0.000323
v 0.442748 0.043671 -0.001004
v 0.527998 0.036442 -0.003378
v 0.452706 0.038361 -0.484371
v 0.581174 0.038101 -0.492414
v 0.718299 0.032647 -0.510458
v 0.547389 0.031722 -0.969657
v 0.727434 0.032511 -0.992531
v 0.937582 0.028875 -1.049720
v -0.182921 0.230704 1.427452
v -0.162900 0.201364 1.656819
v -0.142818 0.164534 1.780182
v -0.128969 0.257189 1.427695
v -0.114946 0.223904 1.658763
v -0.100938 0.181329 1.786327
v -0.066590 0.266940 1.427809
v -0.059368 0.232155 1.659671
v -0.052149 0.187458 1.789082
v -0.042649 0.068907 1.891132
v -0.083692 0.067091 1.885056
v -0.121716 0.063269 1.868834
v -0.041497 0.000000 1.903074
v -0.081975 0.000000 1.896593
v -0.120679 0.000000 1.879037
v -0.042649 -0.068907 1.891132
v -0.083692 -0.067091 1.885056
v -0.121716 -0.063269 1.868834
v -0.568105 0.000000 -1.913264
v -1.164074 0.009827 -1.909754
v -0.801615 0.010947 -1.907510
v -0.598572 0.015737 -1.900599
v -0.480295 0.022279 -1.903383
v -0.370326 0.048592 -1.897074
v -0.342272 0.042828 -1.904258
v -0.195384 0.040866 -1.906453
v -0.235436 0.000000 -1.912499
v -0.195384 -0.040865 -1.906453
v -0.342272 -0.042827 -1.904258
v -0.370326 -0.048592 -1.897074
v -0.480295 -0.022279 -1.903383
v -0.598572 -0.015736 -1.900599
v -0.801615 -0.010946 -1.907510
v -1.164074 -0.009826 -1.909754
v -1.124619 0.000000 -1.914247
v -0.066590 -0.266940 1.427809
v -0.059368 -0.232155 1.659671
v -0.052149 -0.187458 1.789082
v -0.128969 -0.257189 1.427696
v -0.114946 -0.223904 1.658763
v -0.100939 -0.181329 1.786327
v -0.182921 -0.230704 1.427452
v -0.162900 -0.201364 1.656819
v -0.142818 -0.164534 1.780182
v -0.678411 0.022462 -1.646043
v -0.705681 0.020476 -1.796270
v -0.711960 0.019460 -1.865472
v -0.921101 0.025191 -1.669518
v -0.948097 0.023282 -1.805734
v -0.941731 0.020988 -1.869434
v -1.219056 0.025750 -1.729461
v -1.243400 0.025194 -1.825561
v -1.241071 0.022788 -1.873111
v -0.079062 -0.300013 -0.709383
v -0.078342 -0.309712 -0.096603
v -0.076384 -0.306479 0.522475
v -0.153123 -0.289017 -0.709442
v -0.151733 -0.298361 -0.096620
v -0.147942 -0.295247 0.522473
v -0.217179 -0.259173 -0.709601
v -0.215223 -0.267552 -0.096667
v -0.209852 -0.264759 0.522467
v -0.189264 0.072215 1.779789
v -0.220741 0.085876 1.656689
v -0.249320 0.097931 1.427436
v -0.193891 0.000000 1.783179
v -0.227670 0.000000 1.657726
v -0.257660 0.000000 1.427566
v -0.189264 -0.072215 1.779788
v -0.220741 -0.085876 1.656689
v -0.249320 -0.097931 1.427436
v -0.217179 0.259173 -0.709601
v -0.215223 0.267552 -0.096667
v -0.209852 0.264759 0.522467
v -0.153122 0.289017 -0.709442
v -0.151733 0.298361 -0.096620
v -0.147942 0.295247 0.522473
v -0.079062 0.300013 -0.709383
v -0.078341 0.309712 -0.096602
v -0.076383 0.306479 0.522475
v -0.248822 0.123983 -1.850238
v -0.226551 0.164957 -1.760431
v -0.218495 0.205099 -1.566172
v -0.192188 0.132902 -1.852371
v -0.164753 0.182202 -1.760479
v -0.154720 0.228498 -1.565602
v -0.105117 0.135904 -1.853381
v -0.086844 0.188442 -1.760585
v -0.080121 0.237104 -1.565403
v -0.105117 -0.135904 -1.853381
v -0.086844 -0.188442 -1.760585
v -0.080121 -0.237104 -1.565403
v -0.192189 -0.132901 -1.852371
v -0.164753 -0.182202 -1.760479
v -0.154720 -0.228497 -1.565603
v -0.248822 -0.123983 -1.850238
v -0.226552 -0.164957 -1.760431
v -0.218495 -0.205099 -1.566172
v -0.286231 0.112322 0.522439
v -0.293529 0.113507 -0.096887
v -0.296119 0.109952 -0.710344
v -0.295878 0.000000 0.522430
v -0.303413 0.000000 -0.096956
v -0.306067 0.000000 -0.710577
v -0.286231 -0.112322 0.522439
v -0.293529 -0.113507 -0.096887
v -0.296119 -0.109952 -0.710344
v -0.221914 -0.041128 0.831228
v -0.281094 -0.041389 0.678730
v -0.252869 -0.050932 0.679192
v -0.224658 -0.053565 0.680403
v -0.241295 0.014155 0.831239
v -0.318903 0.014193 0.678667
v -0.243492 0.000000 0.831443
v -0.323695 0.000000 0.678693
v -0.241295 -0.014154 0.831239
v -0.318903 -0.014192 0.678667
v -0.224658 0.053565 0.680403
v -0.252869 0.050932 0.679192
v -0.221914 0.041128 0.831228
v -0.281093 0.041389 0.678730
v -1.219056 -0.025749 -1.729461
v -1.243400 -0.025193 -1.825561
v -1.241071 -0.022788 -1.873111
v -0.921101 -0.025191 -1.669518
v -0.948097 -0.023282 -1.805734
v -0.941731 -0.020987 -1.869434
v -0.678411 -0.022462 -1.646043
v -0.705681 -0.020476 -1.796269
v -0.711960 -0.019460 -1.865472
v -0.330842 0.014371 -0.965612
v -0.288745 0.018012 -0.482559
v -0.246536 0.021620 0.002056
v -0.303602 0.000000 -0.965360
v -0.267946 0.000000 -0.482344
v -0.330842 -0.014371 -0.965612
v -0.288745 -0.018012 -0.482559
v -0.246536 -0.021620 0.002056
v -0.336533 0.000000 -1.797251
v -0.297126 0.087303 -1.570257
v -0.304333 0.072991 -1.767974
v -0.320963 0.063335 -1.854329
v -0.368107 0.026603 -1.861606
v -0.441633 0.015753 -1.862201
v -0.410039 0.010425 -1.792641
v -0.390535 0.009452 -1.639989
v -0.351588 0.000000 -1.640199
v -0.390535 -0.009451 -1.639989
v -0.410039 -0.010424 -1.792641
v -0.441633 -0.015752 -1.862201
v -0.368107 -0.026603 -1.861606
v -0.320963 -0.063334 -1.854329
v -0.304333 -0.072991 -1.767974
v -0.297126 -0.087303 -1.570257
v -0.308222 0.000000 -1.574019
v -0.527998 -0.036442 -0.003378
v -0.718299 -0.032647 -0.510458
v -0.937582 -0.028875 -1.049721
v -0.442748 -0.043671 -0.001004
v -0.581174 -0.038101 -0.492414
v -0.727434 -0.032511 -0.992531
v -0.358568 -0.044944 0.000323
v -0.452706 -0.038361 -0.484371
v -0.547389 -0.031722 -0.969657
v -0.641367 0.013119 -0.006476
v -0.893614 0.012298 -0.535106
v -1.197954 0.011452 -1.142213
v -0.655205 0.000000 -0.006550
v -0.910917 0.000000 -0.535700
v -1.211946 0.000000 -1.142763
v -0.641367 -0.013118 -0.006476
v -0.893614 -0.012298 -0.535106
v -1.197954 -0.011451 -1.142213
v -0.358568 0.044944 0.000323
v -0.452706 0.038361 -0.484371
v -0.547389 0.031722 -0.969657
v -0.442748 0.043671 -0.001004
v -0.581174 0.038101 -0.492414
v -0.727434 0.032512 -0.992531
v -0.527998 0.036443 -0.003378
v -0.718299 0.032647 -0.510458
v -0.937582 0.028875 -1.049720
v 1.529600 0.010487 -1.909984
v 1.529600 0.018056 -1.898955
v 1.529600 0.019135 -1.897156
v 1.529600 -0.000001 -1.914292
v 1.529600 0.009127 -1.910614
v 1.529600 -0.018057 -1.898955
v 1.529600 -0.019136 -1.897156
v 1.529600 -0.010488 -1.909984
v 1.529600 -0.009128 -1.910614
v 1.529600 -0.000001 -1.914292
v 1.529600 0.024931 -1.807223
v 1.529600 0.019649 -1.794685
v 1.529600 0.024916 -1.819322
v 1.529600 0.026567 -1.838471
v 1.529600 0.026496 -1.848590
v 1.529600 0.024899 -1.869030
v 1.529600 0.024547 -1.876037
v 1.529600 0.019973 -1.893088
v 1.529600 -0.019650 -1.794685
v 1.529600 -0.019695 -1.802384
v 1.529600 -0.024917 -1.819322
v 1.529600 -0.023889 -1.879300
v 1.529600 -0.024548 -1.876037
v 1.529600 -0.026222 -1.854069
v 1.529600 -0.026497 -1.848590
v 1.529600 -0.024877 -1.826573
v 1.529600 -0.019471 -1.781004
v 1.529600 -0.019042 -1.776545
v 1.529600 -0.010629 -1.775582
v 1.529600 -0.010308 -1.774844
v 1.529600 -0.000001 -1.774677
v 1.529600 -0.000001 -1.774677
v 1.529600 0.000241 -1.775252
v 1.529600 0.010628 -1.775581
v 1.529600 0.010847 -1.778284
v 1.529600 0.019470 -1.781004
v 1.529600 0.019634 -1.786826
v -1.529600 0.019136 -1.897156
v -1.529600 0.018057 -1.898955
v -1.529600 0.010488 -1.909984
v -1.529600 0.009128 -1.910614
v -1.529600 0.000000 -1.914292
v -1.529600 0.000000 -1.914292
v -1.529600 -0.018056 -1.898955
v -1.529600 -0.010487 -1.909984
v -1.529600 -0.019135 -1.897156
v -1.529600 -0.009127 -1.910614
v -1.529600 0.019974 -1.893088
v -1.529600 0.024548 -1.876037
v -1.529600 0.024900 -1.869030
v -1.529600 0.026497 -1.848591
v -1.529600 0.026568 -1.838472
v -1.529600 0.024917 -1.819322
v -1.529600 0.024932 -1.807222
v -1.529600 0.019650 -1.794685
v -1.529600 -0.019694 -1.802384
v -1.529600 -0.024916 -1.819322
v -1.529600 -0.019649 -1.794685
v -1.529600 -0.024876 -1.826573
v -1.529600 -0.026496 -1.848591
v -1.529600 -0.026221 -1.854069
v -1.529600 -0.024547 -1.876037
v -1.529600 -0.023888 -1.879301
v -1.529600 -0.019470 -1.781004
v -1.529600 0.010848 -1.778284
v -1.529600 0.019471 -1.781004
v -1.529600 0.010629 -1.775581
v -1.529600 0.000242 -1.775252
v -1.529600 0.000000 -1.774676
v -1.529600 0.000000 -1.774676
v -1.529600 -0.010307 -1.774844
v -1.529600 -0.010629 -1.775581
v -1.529600 -0.019041 -1.776545
v -1.529600 0.019635 -1.786826
v -1.542400 -0.256000 -1.747200
v -1.542400 0.256000 -1.747200
v -1.542400 -0.256000 -1.932800
v -1.542400 0.256000 -1.932800
v -1.529600 -0.256000 -1.747200
v -1.529600 0.256000 -1.747200
v -1.529600 -0.256000 -1.932800
v -1.529600 0.256000 -1.932800
v -1.542400 0.000000 -1.651200
v -1.542400 0.000000 -1.932800
v -1.529600 0.000000 -1.932800
v -1.529600 0.000000 -1.651200
v 1.542400 -0.256001 -1.747200
v 1.542400 0.255999 -1.747200
v 1.542400 -0.256001 -1.932800
v 1.542400 0.255999 -1.932800
v 1.529600 -0.256001 -1.747200
v 1.529600 0.255999 -1.747200
v 1.529600 -0.256001 -1.932800
v 1.529600 0.255999 -1.932800
v 1.542400 -0.000001 -1.651200
v 1.542400 -0.000001 -1.932800
v 1.529600 -0.000001 -1.932800
v 1.529600 -0.000001 -1.651200
vn 0.6207 0.7760 0.1123
vn 0.2979 0.9480 0.1118
vn 0.2850 0.9270 0.2438
vn 0.6007 0.7641 0.2351
vn 0.0869 0.9902 0.1090
vn 0.0830 0.9667 0.2419
vn 0.2653 0.8231 0.5022
vn 0.5460 0.6987 0.4624
vn 0.0791 0.8606 0.5030
vn 0.8824 0.4679 0.0492
vn 0.6260 0.7782 0.0515
vn 0.8783 0.4664 0.1050
vn 0.3017 0.9521 0.0499
vn 0.0882 0.9950 0.0478
vn -0.0000 0.9989 0.0473
vn -0.0000 0.9941 0.1081
vn -0.0000 0.9706 0.2407
vn -0.0000 0.8661 0.4999
vn -0.0000 0.6262 0.7797
vn 0.0801 0.6181 0.7820
vn 0.2577 0.5825 0.7709
vn 0.4964 0.4969 0.7118
vn 0.8054 0.4340 0.4037
vn 0.7141 0.3738 0.5919
vn 0.8619 0.4603 0.2126
vn 0.0844 0.3153 0.9452
vn 0.0860 -0.0000 0.9963
vn 0.2671 -0.0000 0.9637
vn 0.2643 0.2948 0.9183
vn 0.0844 -0.3153 0.9452
vn 0.2643 -0.2948 0.9183
vn 0.5191 -0.0000 0.8547
vn 0.5076 0.2474 0.8253
vn 0.5076 -0.2474 0.8253
vn -0.0000 0.3211 0.9470
vn -0.0000 -0.0000 1.0000
vn -0.0000 -0.3211 0.9470
vn -0.0000 -0.6262 0.7797
vn 0.0801 -0.6181 0.7820
vn 0.2578 -0.5825 0.7709
vn 0.4964 -0.4969 0.7118
vn 0.7141 -0.3738 0.5919
vn 0.7433 -0.1861 0.6425
vn 0.7607 -0.0000 0.6491
vn 0.7433 0.1861 0.6425
vn -0.0016 0.6367 -0.7711
vn -0.0027 -0.0000 -1.0000
vn 0.0175 -0.0000 -0.9998
vn -0.0004 0.7082 -0.7060
vn -0.0016 -0.6367 -0.7711
vn -0.0004 -0.7082 -0.7060
vn 0.0101 -0.8493 -0.5278
vn 0.1120 -0.9175 -0.3817
vn 0.2481 -0.9240 -0.2911
vn 0.0429 -0.3653 -0.9299
vn 0.0050 -0.2613 -0.9653
vn 0.0017 -0.0000 -1.0000
vn 0.0050 0.2613 -0.9653
vn 0.0429 0.3653 -0.9299
vn 0.2481 0.9240 -0.2911
vn 0.1120 0.9175 -0.3817
vn 0.0101 0.8493 -0.5278
vn -0.0043 0.9279 -0.3729
vn 0.6622 0.6889 -0.2948
vn 0.6687 0.6264 -0.4006
vn 0.5585 0.5106 -0.6537
vn 0.5616 0.3299 -0.7588
vn 0.3391 -0.0000 -0.9407
vn -0.0031 0.9521 -0.3058
vn 0.6687 -0.6264 -0.4006
vn 0.6665 -0.6853 -0.2933
vn -0.0044 -0.9279 -0.3729
vn 0.5585 -0.5106 -0.6537
vn -0.0032 -0.9521 -0.3058
vn 0.6658 -0.2974 -0.6843
vn 0.5616 -0.3299 -0.7588
vn -0.0039 -0.9983 -0.0573
vn 0.0476 -0.9899 0.1336
vn -0.0022 -0.9804 -0.1972
vn 0.2378 -0.8644 0.4429
vn 0.5647 -0.8249 0.0247
vn 0.2584 -0.7415 -0.6193
vn 0.4916 -0.8075 0.3259
vn 0.0519 -0.5275 -0.8480
vn -0.0000 -0.4654 -0.8851
vn -0.0000 -0.2478 -0.9688
vn 0.0090 -0.4739 -0.8805
vn -0.0000 -0.0000 -1.0000
vn -0.0000 0.4654 -0.8851
vn 0.0090 0.4739 -0.8805
vn -0.0000 0.2478 -0.9688
vn 0.0519 0.5275 -0.8480
vn 0.5647 0.8249 0.0247
vn 0.4916 0.8075 0.3259
vn 0.2584 0.7415 -0.6193
vn 0.2378 0.8644 0.4429
vn -0.0039 0.9983 -0.0573
vn -0.0022 0.9804 -0.1972
vn 0.0477 0.9899 0.1336
vn 0.0869 -0.9902 0.1090
vn 0.2979 -0.9480 0.1118
vn 0.2850 -0.9270 0.2438
vn 0.0830 -0.9667 0.2419
vn 0.6207 -0.7760 0.1123
vn 0.6007 -0.7641 0.2351
vn 0.2653 -0.8231 0.5022
vn 0.0791 -0.8606 0.5030
vn 0.5460 -0.6987 0.4624
vn -0.0000 -0.9989 0.0473
vn 0.0882 -0.9950 0.0478
vn -0.0000 -0.9941 0.1081
vn 0.3017 -0.9521 0.0499
vn 0.6260 -0.7782 0.0515
vn 0.8824 -0.4679 0.0492
vn 0.8783 -0.4664 0.1050
vn 0.8619 -0.4603 0.2126
vn 0.8054 -0.4340 0.4037
vn -0.0000 -0.8661 0.4999
vn -0.0000 -0.9706 0.2407
vn -0.0205 0.9997 -0.0158
vn -0.0069 0.9999 -0.0120
vn -0.0088 0.9997 -0.0232
vn -0.0168 0.9998 -0.0145
vn 0.0070 1.0000 0.0063
vn -0.0050 0.9997 -0.0245
vn -0.0070 0.9956 -0.0937
vn -0.0097 0.9989 -0.0467
vn -0.0068 0.9916 -0.1288
vn -0.0667 0.9976 -0.0197
vn -0.0225 0.9996 -0.0167
vn -0.0503 0.9986 -0.0150
vn -0.0018 0.9999 -0.0100
vn 0.0169 0.9998 0.0047
vn 0.7045 0.7097 0.0108
vn 0.6925 0.7212 0.0177
vn 0.7157 0.6982 0.0194
vn 0.7008 0.7131 -0.0196
vn 0.7072 0.7070 0.0059
vn 0.6877 0.7186 -0.1032
vn 0.7040 0.7090 -0.0410
vn 0.6992 0.6969 -0.1592
vn -0.0164 0.9997 0.0195
vn -0.0346 0.9994 0.0024
vn 0.0826 -0.9961 -0.0310
vn 0.2847 -0.9582 -0.0282
vn 0.2963 -0.9551 -0.0035
vn 0.0864 -0.9962 -0.0050
vn 0.6033 -0.7973 -0.0203
vn 0.6191 -0.7853 0.0002
vn 0.3010 -0.9535 0.0181
vn 0.0880 -0.9960 0.0168
vn 0.6252 -0.7802 0.0199
vn -0.0000 -0.9968 -0.0799
vn 0.0752 -0.9941 -0.0787
vn -0.0000 -0.9995 -0.0315
vn 0.2619 -0.9624 -0.0724
vn 0.5712 -0.8190 -0.0549
vn 0.8520 -0.5229 -0.0278
vn 0.8708 -0.4915 -0.0089
vn 0.8794 -0.4761 0.0045
vn 0.8825 -0.4699 0.0204
vn -0.0000 -0.9999 0.0165
vn -0.0000 -1.0000 -0.0053
vn 0.9069 0.1701 0.3855
vn 0.9200 -0.0000 0.3919
vn 0.9809 -0.0000 0.1947
vn 0.9628 0.1847 0.1971
vn 0.9069 -0.1701 0.3855
vn 0.9628 -0.1847 0.1971
vn 0.9954 -0.0000 0.0957
vn 0.9769 0.1903 0.0976
vn 0.9769 -0.1903 0.0976
vn 0.9803 -0.1919 0.0461
vn 0.9990 -0.0000 0.0452
vn 0.9803 0.1919 0.0461
vn 0.6033 0.7973 -0.0203
vn 0.2847 0.9582 -0.0282
vn 0.2963 0.9551 -0.0035
vn 0.6191 0.7853 0.0002
vn 0.0826 0.9961 -0.0310
vn 0.0864 0.9962 -0.0050
vn 0.3010 0.9535 0.0181
vn 0.6252 0.7802 0.0199
vn 0.0880 0.9960 0.0168
vn 0.8520 0.5229 -0.0278
vn 0.5712 0.8190 -0.0549
vn 0.8708 0.4915 -0.0089
vn 0.2619 0.9624 -0.0724
vn 0.0752 0.9941 -0.0787
vn -0.0000 0.9968 -0.0799
vn -0.0000 0.9995 -0.0315
vn -0.0000 1.0000 -0.0053
vn -0.0000 0.9999 0.0165
vn 0.8825 0.4699 0.0204
vn 0.8794 0.4761 0.0045
vn 0.3062 0.8196 -0.4842
vn 0.0900 0.7662 -0.6363
vn 0.1606 0.9302 -0.3302
vn 0.4271 0.8726 -0.2368
vn 0.0196 0.7345 -0.6783
vn 0.0407 0.9293 -0.3672
vn 0.2222 0.9620 -0.1585
vn 0.5151 0.8489 -0.1181
vn 0.0616 0.9827 -0.1747
vn 0.6379 0.7584 -0.1340
vn -0.0000 0.7275 -0.6861
vn -0.0000 0.9269 -0.3754
vn -0.0000 0.9840 -0.1784
vn 0.8142 0.5780 -0.0553
vn 0.7454 0.6608 -0.0881
vn 0.0196 -0.7345 -0.6783
vn 0.0900 -0.7662 -0.6363
vn 0.1606 -0.9302 -0.3302
vn 0.0407 -0.9293 -0.3672
vn 0.3062 -0.8196 -0.4842
vn 0.4271 -0.8726 -0.2368
vn 0.2222 -0.9620 -0.1585
vn 0.0616 -0.9827 -0.1747
vn 0.5151 -0.8489 -0.1181
vn -0.0000 -0.7275 -0.6861
vn 0.6379 -0.7584 -0.1340
vn 0.7454 -0.6608 -0.0881
vn 0.8142 -0.5780 -0.0553
vn -0.0000 -0.9840 -0.1784
vn -0.0000 -0.9269 -0.3754
vn 0.9810 0.1930 0.0200
vn 0.9998 -0.0000 0.0199
vn 1.0000 -0.0000 0.0080
vn 0.9805 0.1962 0.0073
vn 0.9810 -0.1930 0.0200
vn 0.9805 -0.1962 0.0073
vn 1.0000 -0.0000 0.0017
vn 0.9789 0.2045 -0.0007
vn 0.9789 -0.2045 -0.0007
vn 0.9745 -0.2241 -0.0063
vn 1.0000 -0.0000 0.0007
vn 0.9745 0.2241 -0.0063
vn 0.1321 -0.9908 0.0304
vn 0.0600 -0.9982 0.0038
vn -0.0178 -0.9998 -0.0126
vn 0.1092 -0.9937 0.0234
vn 0.3965 -0.9051 0.1537
vn 0.2291 -0.9703 0.0780
vn 0.5672 -0.7835 0.2537
vn 0.3707 -0.9155 0.1565
vn 0.6569 -0.6916 0.3003
vn 0.5758 -0.7799 0.2455
vn 0.8161 0.4077 0.4097
vn 0.8883 -0.0000 0.4592
vn 0.8944 -0.0000 0.4473
vn 0.7691 0.5170 0.3757
vn 0.8161 -0.4077 0.4097
vn 0.7691 -0.5170 0.3757
vn 0.6377 -0.7102 0.2982
vn 0.9023 -0.0000 0.4311
vn 0.6377 0.7102 0.2982
vn 0.5672 0.7835 0.2537
vn 0.3707 0.9155 0.1565
vn 0.6569 0.6916 0.3003
vn 0.5758 0.7799 0.2455
vn 0.3965 0.9051 0.1537
vn 0.2291 0.9703 0.0780
vn 0.1321 0.9908 0.0304
vn 0.1092 0.9937 0.0234
vn 0.0600 0.9982 0.0038
vn -0.0178 0.9998 -0.0126
vn 0.0076 -1.0000 0.0063
vn -0.0069 -0.9999 -0.0120
vn -0.0088 -0.9997 -0.0232
vn -0.0048 -0.9997 -0.0245
vn -0.0205 -0.9997 -0.0158
vn -0.0168 -0.9998 -0.0145
vn -0.0070 -0.9956 -0.0937
vn -0.0071 -0.9916 -0.1288
vn -0.0097 -0.9989 -0.0467
vn 0.0170 -0.9998 0.0047
vn 0.6881 -0.7255 0.0111
vn 0.7162 -0.6977 0.0194
vn 0.7162 -0.6977 0.0172
vn -0.0018 -0.9999 -0.0100
vn -0.0225 -0.9996 -0.0167
vn -0.0667 -0.9976 -0.0197
vn -0.0503 -0.9986 -0.0150
vn -0.0346 -0.9994 0.0024
vn -0.0164 -0.9997 0.0195
vn 0.6990 -0.6971 -0.1593
vn 0.6940 -0.7126 -0.1024
vn 0.7039 -0.7091 -0.0410
vn 0.6972 -0.7166 -0.0197
vn 0.7075 -0.7067 0.0059
vn -0.3146 0.9486 -0.0341
vn -0.9962 -0.0000 -0.0872
vn -0.9963 -0.0000 -0.0858
vn -0.3447 0.9379 -0.0394
vn -0.3146 -0.9486 -0.0341
vn -0.3447 -0.9379 -0.0394
vn -0.2182 0.9756 -0.0255
vn -0.0944 0.9953 -0.0230
vn -0.9960 -0.0000 -0.0895
vn -0.2182 -0.9756 -0.0255
vn -0.0944 -0.9953 -0.0230
vn -0.1447 -0.9891 -0.0288
vn -0.1654 -0.9857 -0.0332
vn -0.2758 -0.9604 -0.0392
vn -0.1447 0.9891 -0.0288
vn -0.2758 0.9604 -0.0392
vn -0.1654 0.9857 -0.0332
vn 0.9568 0.2906 0.0076
vn 0.9992 -0.0000 0.0401
vn 0.9166 -0.0000 0.3999
vn 0.9018 0.4256 0.0751
vn 0.9568 -0.2906 0.0076
vn 0.9018 -0.4256 0.0751
vn 0.7301 -0.6413 0.2360
vn 0.3896 -0.8380 0.3821
vn 0.0393 -0.9817 0.1865
vn -0.0681 -0.9953 0.0695
vn -0.1494 -0.9887 -0.0130
vn -0.9986 -0.0000 -0.0535
vn -0.1494 0.9887 -0.0130
vn -0.0681 0.9953 0.0695
vn 0.0393 0.9817 0.1865
vn 0.3896 0.8380 0.3821
vn 0.7301 0.6413 0.2360
vn 0.1239 -0.9915 0.0387
vn 0.0530 -0.9986 0.0055
vn 0.0234 -0.9997 -0.0031
vn 0.0660 -0.9976 0.0189
vn -0.0427 -0.9989 -0.0189
vn -0.0313 -0.9994 -0.0177
vn 0.0073 -0.9999 -0.0076
vn 0.0344 -0.9994 0.0085
vn -0.0254 -0.9995 -0.0171
vn 0.2252 -0.9698 0.0937
vn -0.1291 -0.9911 -0.0336
vn 0.1161 -0.9916 0.0571
vn 0.7232 -0.6903 0.0203
vn 0.1426 -0.9879 0.0618
vn 0.4966 0.8366 0.2314
vn 0.9031 -0.0000 0.4295
vn 0.8980 -0.0000 0.4400
vn 0.4100 0.8904 0.1978
vn 0.4966 -0.8366 0.2314
vn 0.4100 -0.8904 0.1978
vn 0.8917 -0.0001 0.4526
vn 0.4797 0.8418 0.2476
vn 0.4792 -0.8420 0.2477
vn 0.2252 0.9698 0.0937
vn 0.7954 -0.5984 0.0963
vn 0.8245 -0.5514 0.1274
vn 0.9382 -0.2705 0.2161
vn 0.9415 0.1095 0.3186
vn 0.9383 0.2703 0.2159
vn 0.7091 0.6744 0.2061
vn 0.7958 0.5979 0.0962
vn 0.5383 0.8415 0.0457
vn 0.1162 0.9916 0.0571
vn 0.1426 0.9879 0.0618
vn -0.0427 0.9989 -0.0189
vn 0.0530 0.9986 0.0055
vn 0.0234 0.9997 -0.0031
vn -0.0313 0.9994 -0.0177
vn 0.1239 0.9915 0.0387
vn 0.0660 0.9976 0.0189
vn 0.0073 0.9999 -0.0076
vn -0.0254 0.9995 -0.0171
vn 0.0344 0.9994 0.0085
vn -0.1291 0.9911 -0.0336
vn 0.7183 0.6957 0.0092
vn -0.6207 0.7760 0.1123
vn -0.6007 0.7641 0.2351
vn -0.2850 0.9270 0.2438
vn -0.2979 0.9480 0.1118
vn -0.5460 0.6987 0.4624
vn -0.2653 0.8231 0.5022
vn -0.0830 0.9667 0.2419
vn -0.0869 0.9902 0.1090
vn -0.0791 0.8606 0.5030
vn -0.8824 0.4679 0.0492
vn -0.8783 0.4664 0.1050
vn -0.6260 0.7782 0.0515
vn -0.8619 0.4603 0.2126
vn -0.8054 0.4340 0.4037
vn -0.7141 0.3738 0.5919
vn -0.4964 0.4969 0.7118
vn -0.2577 0.5825 0.7709
vn -0.0801 0.6181 0.7820
vn -0.0882 0.9950 0.0478
vn -0.3017 0.9521 0.0499
vn -0.0844 0.3153 0.9452
vn -0.2643 0.2948 0.9183
vn -0.2671 -0.0000 0.9637
vn -0.0860 -0.0000 0.9963
vn -0.5076 0.2474 0.8253
vn -0.5191 -0.0000 0.8547
vn -0.2643 -0.2948 0.9183
vn -0.0844 -0.3153 0.9452
vn -0.5076 -0.2474 0.8253
vn -0.7433 0.1861 0.6425
vn -0.7607 -0.0000 0.6491
vn -0.7433 -0.1861 0.6425
vn -0.7141 -0.3738 0.5919
vn -0.4964 -0.4969 0.7118
vn -0.2578 -0.5825 0.7709
vn -0.0801 -0.6181 0.7820
vn 0.0016 0.6367 -0.7711
vn 0.0004 0.7082 -0.7060
vn -0.0175 -0.0000 -0.9998
vn 0.0027 -0.0000 -1.0000
vn -0.0101 0.8493 -0.5278
vn -0.1120 0.9175 -0.3817
vn -0.2481 0.9240 -0.2911
vn -0.0429 0.3653 -0.9299
vn -0.0050 0.2613 -0.9653
vn -0.0017 -0.0000 -1.0000
vn -0.0050 -0.2613 -0.9653
vn -0.0429 -0.3653 -0.9299
vn -0.2481 -0.9240 -0.2911
vn -0.1120 -0.9175 -0.3817
vn -0.0101 -0.8493 -0.5278
vn 0.0004 -0.7082 -0.7060
vn 0.0016 -0.6367 -0.7711
vn 0.0043 0.9279 -0.3729
vn -0.5585 0.5106 -0.6537
vn -0.6687 0.6264 -0.4006
vn -0.6622 0.6889 -0.2948
vn 0.0031 0.9521 -0.3058
vn -0.5149 -0.0000 -0.8573
vn -0.5616 0.3298 -0.7588
vn 0.0039 0.9983 -0.0573
vn -0.0477 0.9899 0.1336
vn 0.0022 0.9804 -0.1972
vn -0.2378 0.8644 0.4429
vn -0.5647 0.8249 0.0247
vn -0.2584 0.7415 -0.6193
vn -0.4916 0.8075 0.3259
vn -0.0519 0.5275 -0.8480
vn -0.0090 0.4739 -0.8805
vn -0.0090 -0.4739 -0.8805
vn -0.0519 -0.5275 -0.8480
vn -0.5647 -0.8249 0.0247
vn -0.4916 -0.8075 0.3259
vn -0.2584 -0.7415 -0.6193
vn -0.2378 -0.8644 0.4429
vn 0.0039 -0.9983 -0.0573
vn 0.0022 -0.9804 -0.1972
vn -0.0477 -0.9899 0.1336
vn 0.0031 -0.9521 -0.3058
vn 0.0044 -0.9279 -0.3729
vn -0.6665 -0.6853 -0.2933
vn -0.6687 -0.6264 -0.4006
vn -0.5585 -0.5106 -0.6537
vn -0.5616 -0.3299 -0.7588
vn -0.0869 -0.9902 0.1090
vn -0.0830 -0.9667 0.2419
vn -0.2850 -0.9270 0.2438
vn -0.2979 -0.9480 0.1118
vn -0.0791 -0.8606 0.5030
vn -0.2653 -0.8231 0.5022
vn -0.6007 -0.7641 0.2351
vn -0.6207 -0.7760 0.1123
vn -0.5460 -0.6987 0.4624
vn -0.0882 -0.9950 0.0478
vn -0.8054 -0.4340 0.4037
vn -0.8619 -0.4603 0.2126
vn -0.8783 -0.4664 0.1050
vn -0.6260 -0.7782 0.0515
vn -0.8824 -0.4679 0.0492
vn -0.3017 -0.9521 0.0499
vn 0.0205 0.9997 -0.0158
vn 0.0168 0.9998 -0.0145
vn 0.0088 0.9997 -0.0232
vn 0.0069 0.9999 -0.0120
vn 0.0097 0.9989 -0.0467
vn 0.0070 0.9956 -0.0937
vn 0.0050 0.9997 -0.0245
vn -0.0070 1.0000 0.0063
vn 0.0068 0.9916 -0.1288
vn 0.0667 0.9976 -0.0197
vn 0.0503 0.9986 -0.0150
vn 0.0225 0.9996 -0.0167
vn 0.0346 0.9994 0.0024
vn 0.0164 0.9997 0.0195
vn -0.6992 0.6969 -0.1592
vn -0.6877 0.7186 -0.1032
vn -0.7040 0.7090 -0.0410
vn -0.7008 0.7131 -0.0196
vn -0.7072 0.7070 0.0059
vn -0.7045 0.7097 0.0108
vn -0.0169 0.9998 0.0047
vn -0.7157 0.6982 0.0194
vn -0.6925 0.7212 0.0177
vn 0.0018 0.9999 -0.0100
vn -0.0826 -0.9961 -0.0310
vn -0.0864 -0.9962 -0.0050
vn -0.2963 -0.9551 -0.0035
vn -0.2847 -0.9582 -0.0282
vn -0.0880 -0.9960 0.0168
vn -0.3010 -0.9535 0.0181
vn -0.6191 -0.7853 0.0002
vn -0.6033 -0.7973 -0.0203
vn -0.6252 -0.7802 0.0199
vn -0.0752 -0.9941 -0.0787
vn -0.8825 -0.4699 0.0204
vn -0.8794 -0.4761 0.0045
vn -0.8708 -0.4915 -0.0089
vn -0.5712 -0.8190 -0.0549
vn -0.8520 -0.5229 -0.0278
vn -0.2619 -0.9624 -0.0724
vn -0.9069 0.1701 0.3855
vn -0.9628 0.1847 0.1971
vn -0.9809 -0.0000 0.1947
vn -0.9200 -0.0000 0.3919
vn -0.9769 0.1903 0.0976
vn -0.9954 -0.0000 0.0957
vn -0.9628 -0.1847 0.1971
vn -0.9069 -0.1701 0.3855
vn -0.9769 -0.1903 0.0976
vn -0.9803 0.1919 0.0461
vn -0.9990 -0.0000 0.0452
vn -0.9803 -0.1919 0.0461
vn -0.6033 0.7973 -0.0203
vn -0.6191 0.7853 0.0002
vn -0.2963 0.9551 -0.0035
vn -0.2847 0.9582 -0.0282
vn -0.6252 0.7802 0.0199
vn -0.3010 0.9535 0.0181
vn -0.0864 0.9962 -0.0050
vn -0.0826 0.9961 -0.0310
vn -0.0880 0.9960 0.0168
vn -0.8520 0.5229 -0.0278
vn -0.8708 0.4915 -0.0089
vn -0.5712 0.8190 -0.0549
vn -0.8794 0.4761 0.0045
vn -0.8825 0.4699 0.0204
vn -0.0752 0.9941 -0.0787
vn -0.2619 0.9624 -0.0724
vn -0.3062 0.8196 -0.4842
vn -0.4271 0.8726 -0.2368
vn -0.1606 0.9302 -0.3302
vn -0.0900 0.7662 -0.6363
vn -0.5151 0.8489 -0.1181
vn -0.2222 0.9620 -0.1585
vn -0.0407 0.9293 -0.3672
vn -0.0196 0.7345 -0.6783
vn -0.0616 0.9827 -0.1747
vn -0.6379 0.7584 -0.1340
vn -0.7454 0.6608 -0.0881
vn -0.8142 0.5780 -0.0553
vn -0.0196 -0.7345 -0.6783
vn -0.0407 -0.9293 -0.3672
vn -0.1606 -0.9302 -0.3302
vn -0.0900 -0.7662 -0.6363
vn -0.0616 -0.9827 -0.1747
vn -0.2222 -0.9620 -0.1585
vn -0.4271 -0.8726 -0.2368
vn -0.3062 -0.8196 -0.4842
vn -0.5151 -0.8489 -0.1181
vn -0.8142 -0.5780 -0.0553
vn -0.7454 -0.6608 -0.0881
vn -0.6379 -0.7584 -0.1340
vn -0.9810 0.1930 0.0200
vn -0.9805 0.1962 0.0073
vn -1.0000 -0.0000 0.0080
vn -0.9998 -0.0000 0.0199
vn -0.9789 0.2045 -0.0007
vn -1.0000 -0.0000 0.0017
vn -0.9805 -0.1962 0.0073
vn -0.9810 -0.1930 0.0200
vn -0.9789 -0.2045 -0.0007
vn -0.9745 0.2241 -0.0063
vn -1.0000 -0.0000 0.0007
vn -0.9745 -0.2241 -0.0063
vn -0.6569 -0.6916 0.3003
vn -0.5672 -0.7835 0.2537
vn -0.3965 -0.9051 0.1537
vn -0.5758 -0.7798 0.2455
vn -0.3707 -0.9155 0.1565
vn -0.2291 -0.9703 0.0780
vn -0.1092 -0.9937 0.0234
vn -0.1321 -0.9908 0.0304
vn 0.0178 -0.9998 -0.0126
vn -0.0600 -0.9982 0.0038
vn -0.8161 0.4077 0.4097
vn -0.7691 0.5170 0.3757
vn -0.8944 -0.0000 0.4473
vn -0.8883 -0.0000 0.4592
vn -0.7691 -0.5170 0.3757
vn -0.8161 -0.4077 0.4097
vn -0.6569 0.6916 0.3003
vn -0.5672 0.7835 0.2537
vn -0.3707 0.9155 0.1565
vn -0.6377 0.7102 0.2982
vn -0.9023 -0.0000 0.4311
vn -0.6377 -0.7102 0.2982
vn -0.0600 0.9982 0.0038
vn 0.0178 0.9998 -0.0126
vn -0.1092 0.9937 0.0234
vn -0.1321 0.9908 0.0304
vn -0.2291 0.9703 0.0780
vn -0.3965 0.9051 0.1537
vn -0.5758 0.7799 0.2455
vn -0.0076 -1.0000 0.0063
vn 0.0048 -0.9997 -0.0245
vn 0.0088 -0.9997 -0.0232
vn 0.0069 -0.9999 -0.0120
vn 0.0071 -0.9916 -0.1288
vn 0.0070 -0.9956 -0.0937
vn 0.0168 -0.9998 -0.0145
vn 0.0205 -0.9997 -0.0158
vn 0.0097 -0.9989 -0.0467
vn -0.0170 -0.9998 0.0047
vn -0.7162 -0.6977 0.0172
vn -0.7162 -0.6977 0.0194
vn -0.6881 -0.7255 0.0111
vn -0.7075 -0.7067 0.0059
vn -0.6972 -0.7166 -0.0197
vn -0.7039 -0.7091 -0.0410
vn -0.6940 -0.7126 -0.1024
vn -0.6990 -0.6971 -0.1593
vn 0.0164 -0.9997 0.0195
vn 0.0346 -0.9994 0.0024
vn 0.0503 -0.9986 -0.0150
vn 0.0225 -0.9996 -0.0167
vn 0.0667 -0.9976 -0.0197
vn 0.0018 -0.9999 -0.0100
vn 0.3146 0.9486 -0.0341
vn 0.3447 0.9379 -0.0394
vn 0.9963 -0.0000 -0.0858
vn 0.9962 -0.0000 -0.0872
vn 0.3447 -0.9379 -0.0394
vn 0.3146 -0.9486 -0.0341
vn 0.0944 0.9953 -0.0230
vn 0.2182 0.9756 -0.0255
vn 0.1447 0.9891 -0.0288
vn 0.1654 0.9857 -0.0332
vn 0.2758 0.9604 -0.0392
vn 0.2758 -0.9604 -0.0392
vn 0.1654 -0.9857 -0.0332
vn 0.1447 -0.9891 -0.0288
vn 0.0944 -0.9953 -0.0230
vn 0.2182 -0.9756 -0.0255
vn 0.9960 -0.0000 -0.0895
vn -0.9568 0.2906 0.0076
vn -0.9018 0.4256 0.0751
vn -0.9166 -0.0000 0.3999
vn -0.9992 -0.0000 0.0401
vn -0.7301 0.6413 0.2360
vn -0.3896 0.8380 0.3821
vn -0.0393 0.9817 0.1865
vn 0.0681 0.9953 0.0695
vn 0.1494 0.9887 -0.0130
vn 0.9986 -0.0000 -0.0535
vn 0.1494 -0.9887 -0.0130
vn 0.0681 -0.9953 0.0695
vn -0.0393 -0.9817 0.1865
vn -0.3896 -0.8380 0.3821
vn -0.7301 -0.6413 0.2360
vn -0.9018 -0.4256 0.0751
vn -0.9568 -0.2906 0.0076
vn -0.1239 -0.9915 0.0387
vn -0.0660 -0.9976 0.0189
vn -0.0234 -0.9997 -0.0031
vn -0.0530 -0.9986 0.0055
vn -0.0344 -0.9994 0.0085
vn -0.0073 -0.9999 -0.0076
vn 0.0313 -0.9994 -0.0177
vn 0.0427 -0.9989 -0.0189
vn 0.0254 -0.9995 -0.0171
vn -0.2252 -0.9698 0.0937
vn -0.1426 -0.9879 0.0618
vn -0.1161 -0.9916 0.0571
vn -0.7232 -0.6903 0.0203
vn 0.1291 -0.9911 -0.0336
vn -0.4966 0.8366 0.2314
vn -0.4100 0.8904 0.1978
vn -0.8980 -0.0000 0.4400
vn -0.9031 -0.0000 0.4295
vn -0.4797 0.8418 0.2476
vn -0.8917 -0.0001 0.4526
vn -0.4100 -0.8904 0.1978
vn -0.4966 -0.8366 0.2314
vn -0.4792 -0.8420 0.2477
vn -0.2252 0.9698 0.0937
vn -0.1426 0.9879 0.0618
vn -0.1162 0.9916 0.0571
vn -0.5383 0.8415 0.0457
vn -0.7958 0.5979 0.0962
vn -0.7091 0.6744 0.2061
vn -0.9383 0.2703 0.2159
vn -0.9415 0.1063 0.3199
vn -0.9382 -0.2705 0.2161
vn -0.8245 -0.5514 0.1274
vn -0.7954 -0.5984 0.0963
vn 0.0427 0.9989 -0.0189
vn 0.0313 0.9994 -0.0177
vn -0.0234 0.9997 -0.0031
vn -0.0530 0.9986 0.0055
vn 0.0254 0.9995 -0.0171
vn -0.0073 0.9999 -0.0076
vn -0.0660 0.9976 0.0189
vn -0.1239 0.9915 0.0387
vn -0.0344 0.9994 0.0085
vn 0.1291 0.9911 -0.0336
vn -0.7183 0.6957 0.0092
vn -1.0000 -0.0000 -0.0000
vn 1.0000 -0.0000 -0.0000
vn -0.0000 0.3511 0.9363
vn -0.0000 -1.0000 -0.0000
vn -0.0000 1.0000 -0.0000
vn -0.0000 -0.3511 0.9363
vt 0.187500 0.732924
vt 0.250000 0.729895
vt 0.250000 0.740790
vt 0.187500 0.741715
vt 0.312500 0.732924
vt 0.312500 0.741715
vt 0.250000 0.746505
vt 0.187500 0.746621
vt 0.312500 0.746621
vt 0.125000 0.737500
vt 0.187500 0.713079
vt 0.125000 0.740625
vt 0.250000 0.707899
vt 0.312500 0.713079
vt 0.375000 0.737500
vt 0.375000 0.740625
vt 0.375000 0.743750
vt 0.375000 0.746875
vt 0.375000 0.750000
vt 0.312500 0.750000
vt 0.250000 0.750000
vt 0.187500 0.750000
vt 0.125000 0.746875
vt 0.125000 0.750000
vt 0.125000 0.743750
vt 0.437500 0.812500
vt 0.500000 0.812500
vt 0.500000 0.875000
vt 0.437500 0.875000
vt 0.562500 0.812500
vt 0.562500 0.875000
vt 0.500000 0.937500
vt 0.437500 0.937500
vt 0.562500 0.937500
vt 0.437500 0.750000
vt 0.375000 0.812500
vt 0.500000 0.750000
vt 0.562500 0.750000
vt 0.625000 0.750000
vt 0.625000 0.812500
vt 0.625000 0.875000
vt 0.625000 0.937500
vt 0.625000 1.000000
vt 0.562500 1.000000
vt 0.500000 1.000000
vt 0.437500 1.000000
vt 0.375000 0.937500
vt 0.375000 1.000000
vt 0.375000 0.875000
vt 0.493559 0.267545
vt 0.500000 0.274081
vt 0.500000 0.314791
vt 0.488185 0.279078
vt 0.506441 0.267545
vt 0.511816 0.279078
vt 0.522914 0.273590
vt 0.535104 0.288411
vt 0.573736 0.302468
vt 0.565642 0.353780
vt 0.562776 0.423749
vt 0.500000 0.415568
vt 0.437224 0.423749
vt 0.434358 0.353780
vt 0.426264 0.302468
vt 0.464896 0.288411
vt 0.477086 0.273590
vt 0.488756 0.258197
vt 0.491843 0.250051
vt 0.492350 0.250339
vt 0.495508 0.252119
vt 0.496115 0.252255
vt 0.500000 0.253129
vt 0.483870 0.263464
vt 0.507651 0.250339
vt 0.508157 0.250051
vt 0.511244 0.258197
vt 0.504493 0.252119
vt 0.516130 0.263464
vt 0.500000 0.253129
vt 0.503886 0.252255
vt 0.525547 0.258066
vt 0.528704 0.262097
vt 0.522288 0.261752
vt 0.543062 0.266858
vt 0.625000 0.250000
vt 0.625000 0.312500
vt 0.577826 0.267539
vt 0.625000 0.375000
vt 0.625000 0.500000
vt 0.562500 0.500000
vt 0.625000 0.437500
vt 0.500000 0.500000
vt 0.375000 0.500000
vt 0.375000 0.437500
vt 0.437500 0.500000
vt 0.375000 0.375000
vt 0.375000 0.250000
vt 0.422174 0.267539
vt 0.375000 0.312500
vt 0.456938 0.266858
vt 0.474454 0.258066
vt 0.477712 0.261752
vt 0.471297 0.262097
vt 0.687500 0.732924
vt 0.750000 0.729895
vt 0.750000 0.740790
vt 0.687500 0.741715
vt 0.812500 0.732924
vt 0.812500 0.741715
vt 0.750000 0.746505
vt 0.687500 0.746621
vt 0.812500 0.746621
vt 0.625000 0.737500
vt 0.687500 0.713079
vt 0.625000 0.740625
vt 0.750000 0.707899
vt 0.812500 0.713079
vt 0.875000 0.737500
vt 0.875000 0.740625
vt 0.875000 0.743750
vt 0.875000 0.746875
vt 0.875000 0.750000
vt 0.812500 0.750000
vt 0.750000 0.750000
vt 0.687500 0.750000
vt 0.625000 0.746875
vt 0.625000 0.743750
vt 0.478631 0.237541
vt 0.480912 0.235538
vt 0.481112 0.245048
vt 0.478972 0.245476
vt 0.485096 0.237948
vt 0.484959 0.245139
vt 0.481788 0.253246
vt 0.478085 0.252793
vt 0.486004 0.251061
vt 0.473658 0.241094
vt 0.477101 0.222691
vt 0.480248 0.241705
vt 0.480675 0.218947
vt 0.485484 0.223134
vt 0.489901 0.243472
vt 0.492165 0.241852
vt 0.491169 0.242679
vt 0.489049 0.245500
vt 0.489352 0.244801
vt 0.489666 0.247739
vt 0.489509 0.247165
vt 0.491424 0.249602
vt 0.476544 0.251919
vt 0.480095 0.246169
vt 0.687500 0.575750
vt 0.750000 0.578673
vt 0.750000 0.624696
vt 0.687500 0.624693
vt 0.812500 0.575750
vt 0.812500 0.624694
vt 0.750000 0.670735
vt 0.687500 0.673648
vt 0.812500 0.673648
vt 0.625000 0.511875
vt 0.687500 0.536367
vt 0.625000 0.568281
vt 0.750000 0.541562
vt 0.812500 0.536367
vt 0.875000 0.511875
vt 0.875000 0.568281
vt 0.875000 0.624687
vt 0.875000 0.681094
vt 0.625000 0.681094
vt 0.625000 0.624687
vt 0.437500 0.003379
vt 0.500000 0.003495
vt 0.500000 0.009210
vt 0.437500 0.008285
vt 0.562500 0.003379
vt 0.562500 0.008285
vt 0.500000 0.020105
vt 0.437500 0.017076
vt 0.562500 0.017076
vt 0.375000 0.000000
vt 0.437500 0.000000
vt 0.375000 0.003125
vt 0.500000 0.000000
vt 0.562500 0.000000
vt 0.625000 0.000000
vt 0.625000 0.003125
vt 0.625000 0.006250
vt 0.625000 0.009375
vt 0.625000 0.012500
vt 0.562500 0.036921
vt 0.500000 0.042101
vt 0.437500 0.036921
vt 0.375000 0.009375
vt 0.375000 0.012500
vt 0.375000 0.006250
vt 0.187500 0.575750
vt 0.250000 0.578673
vt 0.250000 0.624696
vt 0.187500 0.624693
vt 0.312500 0.575750
vt 0.312500 0.624694
vt 0.250000 0.670735
vt 0.187500 0.673648
vt 0.312500 0.673648
vt 0.125000 0.511875
vt 0.187500 0.536367
vt 0.125000 0.568281
vt 0.250000 0.541562
vt 0.312500 0.536367
vt 0.375000 0.511875
vt 0.375000 0.568281
vt 0.375000 0.624687
vt 0.375000 0.681094
vt 0.125000 0.681094
vt 0.125000 0.624687
vt 0.187500 0.503224
vt 0.250000 0.503340
vt 0.250000 0.508906
vt 0.187500 0.507979
vt 0.312500 0.503224
vt 0.312500 0.507979
vt 0.250000 0.519668
vt 0.187500 0.516630
vt 0.312500 0.516630
vt 0.125000 0.500000
vt 0.187500 0.500000
vt 0.125000 0.502969
vt 0.250000 0.500000
vt 0.312500 0.500000
vt 0.375000 0.502969
vt 0.375000 0.505937
vt 0.375000 0.508906
vt 0.125000 0.508906
vt 0.125000 0.505938
vt 0.687500 0.503224
vt 0.750000 0.503340
vt 0.750000 0.508906
vt 0.687500 0.507979
vt 0.812500 0.503224
vt 0.812500 0.507979
vt 0.750000 0.519668
vt 0.687500 0.516630
vt 0.812500 0.516630
vt 0.687500 0.500000
vt 0.625000 0.502969
vt 0.750000 0.500000
vt 0.812500 0.500000
vt 0.875000 0.500000
vt 0.875000 0.502969
vt 0.875000 0.505938
vt 0.875000 0.508906
vt 0.625000 0.508906
vt 0.625000 0.505937
vt 0.437500 0.076354
vt 0.500000 0.079268
vt 0.500000 0.125324
vt 0.437500 0.125321
vt 0.562500 0.076354
vt 0.562500 0.125321
vt 0.500000 0.171397
vt 0.437500 0.174298
vt 0.562500 0.174298
vt 0.375000 0.068906
vt 0.625000 0.068906
vt 0.625000 0.125313
vt 0.625000 0.181719
vt 0.625000 0.238125
vt 0.562500 0.213746
vt 0.500000 0.208602
vt 0.437500 0.213746
vt 0.375000 0.181719
vt 0.375000 0.238125
vt 0.375000 0.125313
vt 0.522521 0.079175
vt 0.528254 0.075506
vt 0.527827 0.090468
vt 0.522162 0.096296
vt 0.516881 0.080571
vt 0.516645 0.098238
vt 0.511273 0.080770
vt 0.511148 0.098516
vt 0.511337 0.070518
vt 0.516997 0.070448
vt 0.494329 0.070518
vt 0.500000 0.070518
vt 0.500000 0.080770
vt 0.494355 0.080770
vt 0.505671 0.070518
vt 0.505645 0.080770
vt 0.505594 0.098516
vt 0.500000 0.098516
vt 0.494406 0.098516
vt 0.488727 0.080770
vt 0.488852 0.098516
vt 0.488663 0.070518
vt 0.483003 0.070448
vt 0.483119 0.080571
vt 0.483355 0.098238
vt 0.477479 0.079175
vt 0.477838 0.096296
vt 0.471746 0.075506
vt 0.472173 0.090468
vt 0.514904 0.237948
vt 0.519088 0.235538
vt 0.518889 0.245048
vt 0.515041 0.245139
vt 0.521370 0.237541
vt 0.521028 0.245476
vt 0.518212 0.253246
vt 0.513996 0.251061
vt 0.521916 0.252793
vt 0.514516 0.223134
vt 0.510099 0.243472
vt 0.508375 0.242358
vt 0.507835 0.241852
vt 0.519325 0.218947
vt 0.522899 0.222691
vt 0.526342 0.241094
vt 0.519753 0.241705
vt 0.519905 0.246169
vt 0.523456 0.251919
vt 0.509998 0.248100
vt 0.510334 0.247739
vt 0.510828 0.245954
vt 0.510951 0.245500
vt 0.510290 0.243980
vt 0.485860 0.198976
vt 0.500000 0.199061
vt 0.500000 0.158661
vt 0.484892 0.157981
vt 0.514140 0.198976
vt 0.515108 0.157981
vt 0.486829 0.241094
vt 0.471721 0.198789
vt 0.500000 0.241094
vt 0.513171 0.241094
vt 0.528279 0.198789
vt 0.530217 0.156484
vt 0.532154 0.114180
vt 0.516050 0.119855
vt 0.469784 0.156484
vt 0.483950 0.119855
vt 0.467846 0.114180
vt 0.437224 0.233754
vt 0.500000 0.230999
vt 0.500000 0.244966
vt 0.434352 0.243540
vt 0.562776 0.233754
vt 0.565648 0.243540
vt 0.573762 0.251609
vt 0.535382 0.253405
vt 0.523873 0.252790
vt 0.514344 0.246579
vt 0.511686 0.243120
vt 0.500000 0.243109
vt 0.488315 0.243120
vt 0.485656 0.246579
vt 0.476127 0.252790
vt 0.464618 0.253405
vt 0.426238 0.251609
vt 0.375000 0.241094
vt 0.375000 0.244063
vt 0.625000 0.241094
vt 0.625000 0.244063
vt 0.625000 0.247031
vt 0.375000 0.247031
vt 0.516251 0.125030
vt 0.521519 0.123549
vt 0.520708 0.157064
vt 0.515684 0.158234
vt 0.526805 0.119964
vt 0.525523 0.156553
vt 0.519905 0.191153
vt 0.514979 0.193533
vt 0.524246 0.193206
vt 0.510927 0.125365
vt 0.534091 0.071875
vt 0.509721 0.197980
vt 0.507654 0.240951
vt 0.510510 0.159382
vt 0.494504 0.125422
vt 0.500000 0.125426
vt 0.500000 0.159876
vt 0.494731 0.159838
vt 0.505496 0.125422
vt 0.505269 0.159838
vt 0.500000 0.199399
vt 0.495179 0.199363
vt 0.504821 0.199363
vt 0.489073 0.125365
vt 0.506028 0.240675
vt 0.504161 0.240598
vt 0.503955 0.240554
vt 0.500000 0.240539
vt 0.499844 0.240573
vt 0.495839 0.240598
vt 0.494965 0.240766
vt 0.492346 0.240951
vt 0.490279 0.197980
vt 0.489490 0.159382
vt 0.473195 0.119964
vt 0.478481 0.123549
vt 0.479292 0.157064
vt 0.474477 0.156553
vt 0.483749 0.125030
vt 0.484316 0.158234
vt 0.480096 0.191153
vt 0.475754 0.193206
vt 0.485021 0.193533
vt 0.465909 0.071875
vt 0.492269 0.241334
vt 0.187500 0.732924
vt 0.187500 0.741715
vt 0.250000 0.740790
vt 0.250000 0.729895
vt 0.187500 0.746621
vt 0.250000 0.746505
vt 0.312500 0.746621
vt 0.187500 0.713079
vt 0.312500 0.713079
vt 0.437500 0.812500
vt 0.437500 0.875000
vt 0.500000 0.812500
vt 0.437500 0.937500
vt 0.500000 0.937500
vt 0.562500 0.812500
vt 0.562500 0.937500
vt 0.493559 0.267545
vt 0.488185 0.279078
vt 0.500000 0.314791
vt 0.500000 0.274081
vt 0.477086 0.273590
vt 0.464896 0.288411
vt 0.426265 0.302468
vt 0.434358 0.353780
vt 0.437224 0.423749
vt 0.500000 0.415568
vt 0.562776 0.423749
vt 0.565642 0.353780
vt 0.573736 0.302468
vt 0.511816 0.279078
vt 0.506441 0.267545
vt 0.488756 0.258197
vt 0.495508 0.252119
vt 0.492350 0.250339
vt 0.491843 0.250051
vt 0.483870 0.263464
vt 0.500000 0.253129
vt 0.496115 0.252255
vt 0.474454 0.258066
vt 0.477712 0.261752
vt 0.456938 0.266858
vt 0.422174 0.267539
vt 0.375000 0.375000
vt 0.625000 0.375000
vt 0.577826 0.267539
vt 0.543062 0.266858
vt 0.525547 0.258066
vt 0.522288 0.261752
vt 0.528703 0.262097
vt 0.516130 0.263464
vt 0.511244 0.258197
vt 0.508158 0.250051
vt 0.687500 0.741715
vt 0.750000 0.740790
vt 0.750000 0.729895
vt 0.687500 0.746621
vt 0.750000 0.746505
vt 0.812500 0.741715
vt 0.812500 0.732924
vt 0.812500 0.746621
vt 0.812500 0.713079
vt 0.478972 0.245476
vt 0.481112 0.245048
vt 0.478085 0.252793
vt 0.481788 0.253246
vt 0.484959 0.245139
vt 0.485096 0.237948
vt 0.486004 0.251061
vt 0.480248 0.241705
vt 0.477101 0.222691
vt 0.491424 0.249601
vt 0.489666 0.247739
vt 0.489509 0.247165
vt 0.489049 0.245500
vt 0.489352 0.244801
vt 0.489901 0.243472
vt 0.485484 0.223134
vt 0.491169 0.242679
vt 0.492165 0.241852
vt 0.480675 0.218947
vt 0.750000 0.670735
vt 0.812500 0.624693
vt 0.812500 0.575750
vt 0.812500 0.673648
vt 0.437500 0.003379
vt 0.437500 0.008285
vt 0.437500 0.017076
vt 0.562500 0.017076
vt 0.437500 0.036921
vt 0.500000 0.042101
vt 0.562500 0.036921
vt 0.187500 0.575750
vt 0.187500 0.624693
vt 0.187500 0.673648
vt 0.250000 0.670735
vt 0.312500 0.673648
vt 0.187500 0.536367
vt 0.187500 0.503224
vt 0.187500 0.507979
vt 0.187500 0.516630
vt 0.250000 0.519668
vt 0.687500 0.503224
vt 0.687500 0.516630
vt 0.750000 0.519668
vt 0.812500 0.507979
vt 0.812500 0.503224
vt 0.437500 0.076354
vt 0.437500 0.125321
vt 0.500000 0.079268
vt 0.437500 0.174298
vt 0.562500 0.125321
vt 0.562500 0.076354
vt 0.562500 0.174298
vt 0.437500 0.213746
vt 0.562500 0.213746
vt 0.511337 0.070518
vt 0.511273 0.080770
vt 0.516881 0.080571
vt 0.516997 0.070448
vt 0.511148 0.098516
vt 0.516645 0.098238
vt 0.522162 0.096296
vt 0.527827 0.090468
vt 0.528254 0.075506
vt 0.494329 0.070518
vt 0.494355 0.080770
vt 0.500000 0.070518
vt 0.505645 0.080770
vt 0.488663 0.070518
vt 0.488727 0.080770
vt 0.488852 0.098516
vt 0.494406 0.098516
vt 0.500000 0.098516
vt 0.505594 0.098516
vt 0.471746 0.075506
vt 0.472173 0.090468
vt 0.483355 0.098238
vt 0.483119 0.080571
vt 0.483003 0.070448
vt 0.518889 0.245048
vt 0.519088 0.235538
vt 0.518212 0.253246
vt 0.521028 0.245476
vt 0.514516 0.223134
vt 0.507835 0.241852
vt 0.508375 0.242358
vt 0.510099 0.243472
vt 0.510290 0.243980
vt 0.510951 0.245500
vt 0.510828 0.245954
vt 0.510334 0.247739
vt 0.523456 0.251919
vt 0.519905 0.246169
vt 0.519753 0.241705
vt 0.519325 0.218947
vt 0.485860 0.198976
vt 0.500000 0.158661
vt 0.500000 0.199061
vt 0.515108 0.157981
vt 0.483950 0.119855
vt 0.437224 0.233754
vt 0.500000 0.230999
vt 0.476127 0.252790
vt 0.485656 0.246579
vt 0.488315 0.243120
vt 0.500000 0.243108
vt 0.511686 0.243120
vt 0.514344 0.246579
vt 0.523873 0.252790
vt 0.535382 0.253405
vt 0.573762 0.251609
vt 0.562776 0.233754
vt 0.516251 0.125030
vt 0.520708 0.157064
vt 0.514979 0.193533
vt 0.519905 0.191153
vt 0.525523 0.156553
vt 0.524246 0.193206
vt 0.510927 0.125365
vt 0.509721 0.197980
vt 0.507654 0.240951
vt 0.494504 0.125422
vt 0.494731 0.159838
vt 0.500000 0.159876
vt 0.500000 0.125426
vt 0.500000 0.199399
vt 0.505269 0.159838
vt 0.505496 0.125422
vt 0.504821 0.199363
vt 0.489490 0.159382
vt 0.490279 0.197980
vt 0.492346 0.240951
vt 0.494965 0.240766
vt 0.495839 0.240598
vt 0.499844 0.240573
vt 0.500000 0.240539
vt 0.503955 0.240554
vt 0.504161 0.240598
vt 0.506028 0.240675
vt 0.473195 0.119964
vt 0.474477 0.156553
vt 0.478481 0.123549
vt 0.475754 0.193206
vt 0.480096 0.191153
vt 0.483749 0.125030
vt 0.485021 0.193533
vt 0.492269 0.241334
vt 0.509344 0.533571
vt 0.508817 0.531839
vt 0.505121 0.521223
vt 0.504457 0.520546
vt 0.500000 0.516431
vt 0.500000 0.640380
vt 0.500118 0.639923
vt 0.505190 0.641975
vt 0.505297 0.639600
vt 0.509507 0.639097
vt 0.509587 0.633859
vt 0.509594 0.626738
vt 0.512174 0.616416
vt 0.512166 0.605357
vt 0.512973 0.588109
vt 0.512938 0.578816
vt 0.512158 0.559865
vt 0.511986 0.553405
vt 0.509753 0.537355
vt 0.495543 0.520546
vt 0.494879 0.521223
vt 0.491183 0.531839
vt 0.490656 0.533571
vt 0.488336 0.550343
vt 0.488014 0.553405
vt 0.487197 0.573752
vt 0.487062 0.578816
vt 0.487853 0.598720
vt 0.487834 0.605357
vt 0.490384 0.619765
vt 0.490406 0.626738
vt 0.490493 0.639096
vt 0.490702 0.643035
vt 0.494810 0.641975
vt 0.494967 0.642563
vt 0.500000 0.640380
vt 0.500118 0.639922
vt 0.500000 0.640380
vt 0.500000 0.516431
vt 0.505121 0.521223
vt 0.508817 0.531839
vt 0.509344 0.533571
vt 0.509753 0.537355
vt 0.511986 0.553405
vt 0.512938 0.578817
vt 0.512973 0.588109
vt 0.512174 0.616416
vt 0.509587 0.633859
vt 0.509507 0.639096
vt 0.505297 0.639600
vt 0.505190 0.641975
vt 0.494810 0.641975
vt 0.490702 0.643035
vt 0.490493 0.639096
vt 0.490406 0.626738
vt 0.490384 0.619765
vt 0.487834 0.605357
vt 0.487853 0.598720
vt 0.487062 0.578817
vt 0.487197 0.573752
vt 0.488014 0.553405
vt 0.488336 0.550343
vt 0.490656 0.533571
vt 0.491183 0.531839
vt 0.494967 0.642563
vt 0.500000 0.000000
vt 0.625000 0.000000
vt 0.500000 0.250000
vt 0.625000 1.000000
vt 0.500000 1.000000
vt 0.125000 0.500000
vt 0.125000 0.750000
vt 0.875000 0.500000
vt 0.875000 0.750000
vt 0.375000 1.000000
vt 0.375000 0.000000
s 1
usemtl Material
f 271/1/1 272/2/2 275/3/3 274/4/4
f 272/2/2 273/5/5 276/6/6 275/3/3
f 274/4/4 275/3/3 278/7/7 277/8/8
f 275/3/3 276/6/6 279/9/9 278/7/7
f 11/10/10 106/11/11 271/1/1 74/12/12
f 106/11/11 105/13/13 272/2/2 271/1/1
f 105/13/13 104/14/14 273/5/5 272/2/2
f 104/14/14 12/15/15 91/16/16 273/5/5
f 273/5/5 91/16/16 90/17/17 276/6/6
f 276/6/6 90/17/17 89/18/18 279/9/9
f 279/9/9 89/18/18 5/19/19 49/20/20
f 278/7/7 279/9/9 49/20/20 48/21/21
f 277/8/8 278/7/7 48/21/21 47/22/22
f 76/23/23 277/8/8 47/22/22 1/24/24
f 75/25/25 274/4/4 277/8/8 76/23/23
f 74/12/12 271/1/1 274/4/4 75/25/25
f 280/26/26 281/27/27 284/28/28 283/29/29
f 281/27/27 282/30/30 285/31/31 284/28/28
f 283/29/29 284/28/28 287/32/32 286/33/33
f 284/28/28 285/31/31 288/34/34 287/32/32
f 5/19/19 73/35/35 280/26/26 49/36/20
f 73/35/35 72/37/36 281/27/27 280/26/26
f 72/37/36 71/38/37 282/30/30 281/27/27
f 71/38/37 6/39/38 50/40/39 282/30/30
f 282/30/30 50/40/39 51/41/40 285/31/31
f 285/31/31 51/41/40 52/42/41 288/34/34
f 288/34/34 52/42/41 2/43/42 55/44/43
f 287/32/32 288/34/34 55/44/43 54/45/44
f 286/33/33 287/32/32 54/45/44 53/46/45
f 47/47/22 286/33/33 53/46/45 1/48/24
f 48/49/21 283/29/29 286/33/33 47/47/22
f 49/36/20 280/26/26 283/29/29 48/49/21
f 290/50/46 291/51/47 289/52/48 305/53/49
f 292/54/50 293/55/51 289/52/48 291/51/47
f 294/56/52 295/57/53 289/52/48 293/55/51
f 296/58/54 297/59/55 289/52/48 295/57/53
f 298/60/56 299/61/57 289/52/48 297/59/55
f 300/62/58 301/63/59 289/52/48 299/61/57
f 302/64/60 303/65/61 289/52/48 301/63/59
f 304/66/62 305/53/49 289/52/48 303/65/61
f 290/50/46 62/67/63 637/68/64 636/69/65 635/70/66
f 291/51/47 290/50/46 635/70/66 639/71/67 638/72/68
f 62/67/63 290/50/46 305/53/49 63/73/69
f 640/74/70 641/75/71 61/76/72 292/54/50 642/77/73
f 61/76/72 60/78/74 293/55/51 292/54/50
f 642/77/73 292/54/50 291/51/47 638/72/68 644/79/75 643/80/76
f 9/81/77 58/82/78 294/56/52 59/83/79
f 58/82/78 57/84/80 295/57/53 294/56/52
f 59/83/79 294/56/52 293/55/51 60/78/74
f 4/85/81 44/86/82 296/58/54 56/87/83
f 44/86/82 45/88/84 297/59/55 296/58/54
f 56/87/83 296/58/54 295/57/53 57/84/80
f 8/89/85 68/90/86 298/60/56 46/91/87
f 68/90/86 69/92/88 299/61/57 298/60/56
f 46/91/87 298/60/56 297/59/55 45/88/84
f 7/93/89 41/94/90 300/62/58 70/95/91
f 41/94/90 42/96/92 301/63/59 300/62/58
f 70/95/91 300/62/58 299/61/57 69/92/88
f 3/97/93 67/98/94 302/64/60 43/99/95
f 67/98/94 66/100/96 303/65/61 302/64/60
f 43/99/95 302/64/60 301/63/59 42/96/92
f 10/101/97 64/102/98 304/66/62 65/103/99
f 64/102/98 63/73/69 305/53/49 304/66/62
f 65/103/99 304/66/62 303/65/61 66/100/96
f 306/104/100 307/105/101 310/106/102 309/107/103
f 307/105/101 308/108/104 311/109/105 310/106/102
f 309/107/103 310/106/102 313/110/106 312/111/107
f 310/106/102 311/109/105 314/112/108 313/110/106
f 13/113/109 100/114/110 306/104/100 80/115/111
f 100/114/110 99/116/112 307/105/101 306/104/100
f 99/116/112 98/117/113 308/108/104 307/105/101
f 98/117/113 14/118/114 97/119/115 308/108/104
f 308/108/104 97/119/115 96/120/116 311/109/105
f 311/109/105 96/120/116 95/121/117 314/112/108
f 314/112/108 95/121/117 2/122/42 52/123/41
f 313/110/106 314/112/108 52/123/41 51/124/40
f 312/111/107 313/110/106 51/124/40 50/125/39
f 82/126/118 312/111/107 50/125/39 6/39/38
f 81/127/119 309/107/103 312/111/107 82/126/118
f 80/115/111 306/104/100 309/107/103 81/127/119
f 315/128/120 316/129/121 319/130/122 318/131/123
f 316/129/121 317/132/124 320/133/125 319/130/122
f 318/131/123 319/130/122 322/134/126 321/135/127
f 319/130/122 320/133/125 323/136/128 322/134/126
f 23/137/129 167/138/130 315/128/120 141/139/131
f 167/138/130 166/140/132 316/129/121 315/128/120
f 166/140/132 165/141/133 317/132/124 316/129/121
f 647/142/134 317/132/124 165/141/133 646/143/135 645/144/136
f 649/145/137 320/133/125 317/132/124 647/142/134 648/146/138
f 651/147/139 323/136/128 320/133/125 649/145/137 650/148/140
f 323/136/128 651/147/139 652/149/141 637/68/64 62/67/63
f 322/134/126 323/136/128 62/67/63 63/73/69
f 321/135/127 322/134/126 63/73/69 64/102/98
f 143/150/142 321/135/127 64/102/98 10/101/97
f 142/151/143 318/131/123 321/135/127 143/150/142
f 141/139/131 315/128/120 318/131/123 142/151/143
f 324/152/144 325/153/145 328/154/146 327/155/147
f 325/153/145 326/156/148 329/157/149 328/154/146
f 327/155/147 328/154/146 331/158/150 330/159/151
f 328/154/146 329/157/149 332/160/152 331/158/150
f 18/161/153 124/162/154 324/152/144 92/163/155
f 124/162/154 123/164/156 325/153/145 324/152/144
f 123/164/156 122/165/157 326/156/148 325/153/145
f 122/165/157 16/166/158 112/167/159 326/156/148
f 326/156/148 112/167/159 111/168/160 329/157/149
f 329/157/149 111/168/160 110/169/161 332/160/152
f 332/160/152 110/169/161 14/118/114 98/117/113
f 331/158/150 332/160/152 98/117/113 99/116/112
f 330/159/151 331/158/150 99/116/112 100/114/110
f 94/170/162 330/159/151 100/114/110 13/113/109
f 93/171/163 327/155/147 330/159/151 94/170/162
f 92/163/155 324/152/144 327/155/147 93/171/163
f 333/172/164 334/173/165 337/174/166 336/175/167
f 334/173/165 335/176/168 338/177/169 337/174/166
f 336/175/167 337/174/166 340/178/170 339/179/171
f 337/174/166 338/177/169 341/180/172 340/178/170
f 1/181/24 53/182/45 333/172/164 76/183/23
f 53/182/45 54/184/44 334/173/165 333/172/164
f 54/184/44 55/185/43 335/176/168 334/173/165
f 55/185/43 2/186/42 95/187/117 335/176/168
f 335/176/168 95/187/117 96/188/116 338/177/169
f 338/177/169 96/188/116 97/189/115 341/180/172
f 341/180/172 97/189/115 14/190/114 101/191/173
f 340/178/170 341/180/172 101/191/173 102/192/174
f 339/179/171 340/178/170 102/192/174 103/193/175
f 74/194/12 339/179/171 103/193/175 11/195/10
f 75/196/25 336/175/167 339/179/171 74/194/12
f 76/183/23 333/172/164 336/175/167 75/196/25
f 342/197/176 343/198/177 346/199/178 345/200/179
f 343/198/177 344/201/180 347/202/181 346/199/178
f 345/200/179 346/199/178 349/203/182 348/204/183
f 346/199/178 347/202/181 350/205/184 349/203/182
f 17/206/185 121/207/186 342/197/176 86/208/187
f 121/207/186 120/209/188 343/198/177 342/197/176
f 120/209/188 119/210/189 344/201/180 343/198/177
f 119/210/189 15/211/190 109/212/191 344/201/180
f 344/201/180 109/212/191 108/213/192 347/202/181
f 347/202/181 108/213/192 107/214/193 350/205/184
f 350/205/184 107/214/193 12/15/15 104/14/14
f 349/203/182 350/205/184 104/14/14 105/13/13
f 348/204/183 349/203/182 105/13/13 106/11/11
f 88/215/194 348/204/183 106/11/11 11/10/10
f 87/216/195 345/200/179 348/204/183 88/215/194
f 86/208/187 342/197/176 345/200/179 87/216/195
f 351/217/196 352/218/197 355/219/198 354/220/199
f 352/218/197 353/221/200 356/222/201 355/219/198
f 354/220/199 355/219/198 358/223/202 357/224/203
f 355/219/198 356/222/201 359/225/204 358/223/202
f 3/226/93 43/227/95 351/217/196 113/228/205
f 43/227/95 42/229/92 352/218/197 351/217/196
f 42/229/92 41/230/90 353/221/200 352/218/197
f 41/230/90 7/93/89 79/231/206 353/221/200
f 353/221/200 79/231/206 78/232/207 356/222/201
f 356/222/201 78/232/207 77/233/208 359/225/204
f 359/225/204 77/233/208 15/211/190 119/210/189
f 358/223/202 359/225/204 119/210/189 120/209/188
f 357/224/203 358/223/202 120/209/188 121/207/186
f 115/234/209 357/224/203 121/207/186 17/206/185
f 114/235/210 354/220/199 357/224/203 115/234/209
f 113/228/205 351/217/196 354/220/199 114/235/210
f 360/236/211 361/237/212 364/238/213 363/239/214
f 361/237/212 362/240/215 365/241/216 364/238/213
f 363/239/214 364/238/213 367/242/217 366/243/218
f 364/238/213 365/241/216 368/244/219 367/242/217
f 8/89/85 46/245/87 360/236/211 116/246/220
f 46/245/87 45/247/84 361/237/212 360/236/211
f 45/247/84 44/248/82 362/240/215 361/237/212
f 44/248/82 4/249/81 85/250/221 362/240/215
f 362/240/215 85/250/221 84/251/222 365/241/216
f 365/241/216 84/251/222 83/252/223 368/244/219
f 368/244/219 83/252/223 16/166/158 122/165/157
f 367/242/217 368/244/219 122/165/157 123/164/156
f 366/243/218 367/242/217 123/164/156 124/162/154
f 118/253/224 366/243/218 124/162/154 18/161/153
f 117/254/225 363/239/214 366/243/218 118/253/224
f 116/246/220 360/236/211 363/239/214 117/254/225
f 369/255/226 370/256/227 373/257/228 372/258/229
f 370/256/227 371/259/230 374/260/231 373/257/228
f 372/258/229 373/257/228 376/261/232 375/262/233
f 373/257/228 374/260/231 377/263/234 376/261/232
f 11/195/10 103/193/175 369/255/226 88/264/194
f 103/193/175 102/192/174 370/256/227 369/255/226
f 102/192/174 101/191/173 371/259/230 370/256/227
f 101/191/173 14/190/114 110/265/161 371/259/230
f 371/259/230 110/265/161 111/266/160 374/260/231
f 374/260/231 111/266/160 112/267/159 377/263/234
f 377/263/234 112/267/159 16/268/158 125/269/235
f 376/261/232 377/263/234 125/269/235 126/270/236
f 375/262/233 376/261/232 126/270/236 127/271/237
f 86/272/187 375/262/233 127/271/237 17/273/185
f 87/274/195 372/258/229 375/262/233 86/272/187
f 88/264/194 369/255/226 372/258/229 87/274/195
f 380/275/238 381/276/239 132/277/240 133/278/241
f 379/279/242 380/275/238 133/278/241 134/280/243
f 131/281/244 379/279/242 134/280/243 21/282/245
f 130/283/246 378/284/247 379/279/242 131/281/244
f 382/285/248 383/286/249 386/287/250 385/288/251
f 383/286/249 384/289/252 387/290/253 386/287/250
f 384/289/252 130/283/246 131/281/244 387/290/253
f 387/290/253 131/281/244 21/282/245 135/291/254
f 386/287/250 387/290/253 135/291/254 136/292/255
f 385/288/251 386/287/250 136/292/255 137/293/256
f 129/294/257 385/288/251 137/293/256 20/295/258
f 128/296/259 382/285/248 385/288/251 129/294/257
f 388/297/260 128/296/259 129/294/257 391/298/261
f 391/298/261 129/294/257 20/295/258 138/299/262
f 390/300/263 391/298/261 138/299/262 139/301/264
f 389/302/265 390/300/263 139/301/264 140/303/266
f 392/304/267 393/305/268 396/306/269 395/307/270
f 393/305/268 394/308/271 397/309/272 396/306/269
f 395/307/270 396/306/269 399/310/273 398/311/274
f 396/306/269 397/309/272 400/312/275 399/310/273
f 164/313/276 392/304/267 655/314/277 654/315/278 653/316/279
f 164/313/276 163/317/280 393/305/268 392/304/267
f 163/317/280 162/318/281 394/308/271 393/305/268
f 162/318/281 24/319/282 144/320/283 394/308/271
f 394/308/271 144/320/283 145/321/284 397/309/272
f 397/309/272 145/321/284 146/322/285 400/312/275
f 400/312/275 146/322/285 9/81/77 59/83/79
f 399/310/273 400/312/275 59/83/79 60/78/74
f 398/311/274 399/310/273 60/78/74 61/76/72
f 656/323/286 657/324/287 398/311/274 61/76/72 641/75/71
f 658/325/288 659/326/289 395/307/270 398/311/274 657/324/287
f 392/304/267 395/307/270 659/326/289 660/327/290 655/314/277
f 401/328/291 402/329/292 405/330/293 404/331/294
f 402/329/292 403/332/295 406/333/296 405/330/293
f 23/137/129 161/334/297 401/328/291 149/335/298
f 161/334/297 160/336/299 402/329/292 401/328/291
f 160/336/299 159/337/300 403/332/295 402/329/292
f 159/337/300 24/319/282 158/338/301 403/332/295
f 403/332/295 158/338/301 157/339/302 406/333/296
f 406/333/296 157/339/302 156/340/303 408/341/304
f 148/342/305 404/331/294 407/343/306 147/344/307
f 149/335/298 401/328/291 404/331/294 148/342/305
f 410/345/308 411/346/309 409/347/310 425/348/311
f 412/349/312 413/350/313 409/347/310 411/346/309
f 414/351/314 415/352/315 409/347/310 413/350/313
f 416/353/316 417/354/317 409/347/310 415/352/315
f 418/355/318 419/356/319 409/347/310 417/354/317
f 420/357/320 421/358/321 409/347/310 419/356/319
f 422/359/322 423/360/323 409/347/310 421/358/321
f 424/361/324 425/348/311 409/347/310 423/360/323
f 17/273/185 127/271/237 410/345/308 115/362/209
f 127/271/237 126/270/236 411/346/309 410/345/308
f 115/362/209 410/345/308 425/348/311 114/363/210
f 16/268/158 83/364/223 412/349/312 125/269/235
f 83/364/223 84/365/222 413/350/313 412/349/312
f 125/269/235 412/349/312 411/346/309 126/270/236
f 4/85/81 56/87/83 414/351/314 85/366/221
f 56/87/83 57/84/80 415/352/315 414/351/314
f 85/366/221 414/351/314 413/350/313 84/365/222
f 9/81/77 146/322/285 416/353/316 58/82/78
f 146/322/285 145/321/284 417/354/317 416/353/316
f 58/82/78 416/353/316 415/352/315 57/84/80
f 24/319/282 159/337/300 418/355/318 144/320/283
f 159/337/300 160/336/299 419/356/319 418/355/318
f 144/320/283 418/355/318 417/354/317 145/321/284
f 23/137/129 141/139/131 420/357/320 161/334/297
f 141/139/131 142/151/143 421/358/321 420/357/320
f 161/334/297 420/357/320 419/356/319 160/336/299
f 10/101/97 65/103/99 422/359/322 143/150/142
f 65/103/99 66/100/96 423/360/323 422/359/322
f 143/150/142 422/359/322 421/358/321 142/151/143
f 3/97/93 113/367/205 424/361/324 67/98/94
f 113/367/205 114/363/210 425/348/311 424/361/324
f 67/98/94 424/361/324 423/360/323 66/100/96
f 426/368/325 427/369/326 430/370/327 429/371/328
f 427/369/326 428/372/329 431/373/330 430/370/327
f 429/371/328 430/370/327 433/374/331 432/375/332
f 430/370/327 431/373/330 434/376/333 433/374/331
f 21/282/245 134/280/243 426/368/325 153/377/334
f 134/280/243 133/278/241 427/369/326 426/368/325
f 133/278/241 132/277/240 428/372/329 427/369/326
f 132/277/240 22/378/335 156/340/303 428/372/329
f 428/372/329 156/340/303 157/339/302 431/373/330
f 431/373/330 157/339/302 158/338/301 434/376/333
f 434/376/333 158/338/301 24/319/282 162/318/281
f 433/374/331 434/376/333 162/318/281 163/317/280
f 432/375/332 433/374/331 163/317/280 164/313/276
f 155/379/336 432/375/332 164/313/276 653/316/279 661/380/337
f 154/381/338 429/371/328 432/375/332 155/379/336
f 153/377/334 426/368/325 429/371/328 154/381/338
f 435/382/339 436/383/340 439/384/341 438/385/342
f 436/383/340 437/386/343 440/387/344 439/384/341
f 438/385/342 439/384/341 442/388/345 441/389/346
f 439/384/341 440/387/344 443/390/347 442/388/345
f 20/295/258 137/293/256 435/382/339 150/391/348
f 137/293/256 136/292/255 436/383/340 435/382/339
f 136/292/255 135/291/254 437/386/343 436/383/340
f 135/291/254 21/282/245 153/377/334 437/386/343
f 437/386/343 153/377/334 154/381/338 440/387/344
f 440/387/344 154/381/338 155/379/336 443/390/347
f 443/390/347 155/379/336 661/380/337 662/392/349 663/393/350
f 442/388/345 443/390/347 663/393/350 664/394/351 666/395/351 665/395/352
f 667/396/353 668/397/354 441/389/346 442/388/345 665/395/352
f 669/398/355 670/399/356 152/400/357 441/389/346 668/397/354
f 151/401/358 438/385/342 441/389/346 152/400/357
f 150/391/348 435/382/339 438/385/342 151/401/358
f 444/402/359 445/403/360 448/404/361 447/405/362
f 445/403/360 446/406/363 449/407/364 448/404/361
f 447/405/362 448/404/361 451/408/365 450/409/366
f 448/404/361 449/407/364 452/410/367 451/408/365
f 19/411/368 140/303/266 444/402/359 147/344/307
f 140/303/266 139/301/264 445/403/360 444/402/359
f 139/301/264 138/299/262 446/406/363 445/403/360
f 138/299/262 20/295/258 150/391/348 446/406/363
f 446/406/363 150/391/348 151/401/358 449/407/364
f 449/407/364 151/401/358 152/400/357 452/410/367
f 646/143/135 165/141/133 452/410/367 152/400/357 670/399/356 671/412/369
f 451/408/365 452/410/367 165/141/133 166/140/132
f 450/409/366 451/408/365 166/140/132 167/138/130
f 149/335/298 450/409/366 167/138/130 23/137/129
f 148/342/305 447/405/362 450/409/366 149/335/298
f 147/344/307 444/402/359 447/405/362 148/342/305
f 453/413/370 454/414/371 457/415/372 456/416/373
f 454/414/371 455/417/374 458/418/375 457/415/372
f 456/416/373 457/415/372 460/6/376 459/5/377
f 457/415/372 458/418/375 461/419/378 460/6/376
f 31/10/379 195/12/380 453/413/370 215/420/381
f 195/12/380 196/25/382 454/414/371 453/413/370
f 196/25/382 197/23/383 455/417/374 454/414/371
f 197/23/383 25/24/384 174/22/385 455/417/374
f 455/417/374 174/22/385 175/21/386 458/418/375
f 458/418/375 175/21/386 176/20/387 461/419/378
f 461/419/378 176/20/387 5/19/19 89/18/18
f 460/6/376 461/419/378 89/18/18 90/17/17
f 459/5/377 460/6/376 90/17/17 91/16/16
f 213/421/388 459/5/377 91/16/16 12/15/15
f 214/13/389 456/416/373 459/5/377 213/421/388
f 215/420/381 453/413/370 456/416/373 214/13/389
f 462/422/390 463/423/391 466/28/392 465/424/393
f 463/423/391 464/425/394 467/426/395 466/28/392
f 465/424/393 466/28/392 469/31/396 468/427/397
f 466/28/392 467/426/395 470/428/398 469/31/396
f 5/19/19 176/36/387 462/422/390 73/35/35
f 176/36/387 175/49/386 463/423/391 462/422/390
f 175/49/386 174/47/385 464/425/394 463/423/391
f 174/47/385 25/48/384 180/46/399 464/425/394
f 464/425/394 180/46/399 181/45/400 467/426/395
f 467/426/395 181/45/400 182/44/401 470/428/398
f 470/428/398 182/44/401 26/43/402 179/42/403
f 469/31/396 470/428/398 179/42/403 178/41/404
f 468/427/397 469/31/396 178/41/404 177/40/405
f 71/38/37 468/427/397 177/40/405 6/39/38
f 72/37/36 465/424/393 468/427/397 71/38/37
f 73/35/35 462/422/390 465/424/393 72/37/36
f 472/429/406 473/430/407 471/431/408 487/432/409
f 474/433/410 475/434/411 471/431/408 473/430/407
f 476/435/412 477/436/413 471/431/408 475/434/411
f 478/437/414 479/438/415 471/431/408 477/436/413
f 480/439/416 481/440/417 471/431/408 479/438/415
f 482/441/418 483/57/419 471/431/408 481/440/417
f 484/56/420 485/442/421 471/431/408 483/57/419
f 486/443/422 487/432/409 471/431/408 485/442/421
f 189/444/423 472/429/406 674/445/424 673/446/425 672/447/426
f 189/444/423 190/448/427 473/430/407 472/429/406
f 472/429/406 487/432/409 677/449/428 676/449/429 675/450/429 674/445/424
f 30/451/430 192/103/431 474/433/410 191/452/432
f 192/103/431 193/453/433 475/434/411 474/433/410
f 191/452/432 474/433/410 473/430/407 190/448/427
f 27/97/434 170/99/435 476/435/412 194/454/436
f 170/99/435 169/455/437 477/436/413 476/435/412
f 194/454/436 476/435/412 475/434/411 193/453/433
f 7/93/89 70/95/91 478/437/414 168/94/438
f 70/95/91 69/92/88 479/438/415 478/437/414
f 168/94/438 478/437/414 477/436/413 169/455/437
f 8/89/85 173/91/439 480/439/416 68/90/86
f 173/91/439 172/456/440 481/440/417 480/439/416
f 68/90/86 480/439/416 479/438/415 69/92/88
f 28/85/441 183/457/442 482/441/418 171/86/443
f 183/457/442 184/458/444 483/57/419 482/441/418
f 171/86/443 482/441/418 481/440/417 172/456/440
f 29/459/445 186/460/446 484/56/420 185/461/447
f 186/460/446 187/462/448 485/442/421 484/56/420
f 185/461/447 484/56/420 483/57/419 184/458/444
f 486/443/422 188/463/449 680/464/450 678/74/451 679/77/452
f 487/432/409 486/443/422 679/77/452 681/80/453 677/449/428
f 188/463/449 486/443/422 485/442/421 187/462/448
f 488/104/454 489/465/455 492/466/456 491/467/457
f 489/465/455 490/468/458 493/469/459 492/466/456
f 491/467/457 492/466/456 495/470/460 494/471/461
f 492/466/456 493/469/459 496/472/462 495/470/460
f 13/113/109 80/115/111 488/104/454 209/114/463
f 80/115/111 81/127/119 489/465/455 488/104/454
f 81/127/119 82/126/118 490/468/458 489/465/455
f 82/126/118 6/39/38 177/125/405 490/468/458
f 490/468/458 177/125/405 178/124/404 493/469/459
f 493/469/459 178/124/404 179/123/403 496/472/462
f 496/472/462 179/123/403 26/122/402 204/121/464
f 495/470/460 496/472/462 204/121/464 205/120/465
f 494/471/461 495/470/460 205/120/465 206/119/466
f 207/473/467 494/471/461 206/119/466 32/118/468
f 208/116/469 491/467/457 494/471/461 207/473/467
f 209/114/463 488/104/454 491/467/457 208/116/469
f 497/128/470 498/474/471 501/475/472 500/129/473
f 498/474/471 499/476/474 502/477/475 501/475/472
f 500/129/473 501/475/472 504/478/476 503/479/477
f 501/475/472 502/477/475 505/480/478 504/478/476
f 39/137/479 244/481/480 497/128/470 270/482/481
f 244/481/480 245/151/482 498/474/471 497/128/470
f 245/151/482 246/150/483 499/476/474 498/474/471
f 246/150/483 30/451/430 191/452/432 499/476/474
f 499/476/474 191/452/432 190/448/427 502/477/475
f 502/477/475 190/448/427 189/444/423 505/480/478
f 505/480/478 189/444/423 672/447/426 682/483/484 683/484/485
f 504/478/476 505/480/478 683/484/485 684/485/486 685/486/487
f 503/479/477 504/478/476 685/486/487 686/487/488 687/488/489
f 268/489/490 503/479/477 687/488/489 688/490/491 689/491/492
f 269/492/493 500/129/473 503/479/477 268/489/490
f 270/482/481 497/128/470 500/129/473 269/492/493
f 506/152/494 507/155/495 510/154/496 509/153/497
f 507/155/495 508/159/498 511/493/499 510/154/496
f 509/153/497 510/154/496 513/494/500 512/495/501
f 510/154/496 511/493/499 514/496/502 513/494/500
f 18/161/153 92/163/155 506/152/494 227/162/503
f 92/163/155 93/171/163 507/155/495 506/152/494
f 93/171/163 94/170/162 508/159/498 507/155/495
f 94/170/162 13/113/109 209/114/463 508/159/498
f 508/159/498 209/114/463 208/116/469 511/493/499
f 511/493/499 208/116/469 207/473/467 514/496/502
f 514/496/502 207/473/467 32/118/468 216/169/504
f 513/494/500 514/496/502 216/169/504 217/168/505
f 512/495/501 513/494/500 217/168/505 218/167/506
f 225/165/507 512/495/501 218/167/506 33/166/508
f 226/164/509 509/153/497 512/495/501 225/165/507
f 227/162/503 506/152/494 509/153/497 226/164/509
f 515/497/510 516/498/511 519/174/512 518/173/513
f 516/498/511 517/499/514 520/178/515 519/174/512
f 518/173/513 519/174/512 522/177/516 521/176/517
f 519/174/512 520/178/515 523/500/518 522/177/516
f 25/181/384 197/183/383 515/497/510 180/182/399
f 197/183/383 196/196/382 516/498/511 515/497/510
f 196/196/382 195/194/380 517/499/514 516/498/511
f 195/194/380 31/195/379 212/501/519 517/499/514
f 517/499/514 212/501/519 211/502/520 520/178/515
f 520/178/515 211/502/520 210/503/521 523/500/518
f 523/500/518 210/503/521 32/190/468 206/189/466
f 522/177/516 523/500/518 206/189/466 205/188/465
f 521/176/517 522/177/516 205/188/465 204/187/464
f 182/185/401 521/176/517 204/187/464 26/186/402
f 181/184/400 518/173/513 521/176/517 182/185/401
f 180/182/399 515/497/510 518/173/513 181/184/400
f 524/504/522 525/505/523 528/199/524 527/198/525
f 525/505/523 526/506/526 529/507/527 528/199/524
f 527/198/525 528/199/524 531/202/528 530/201/529
f 528/199/524 529/507/527 532/508/530 531/202/528
f 34/206/531 201/208/532 524/504/522 224/509/533
f 201/208/532 202/216/534 525/505/523 524/504/522
f 202/216/534 203/215/535 526/506/526 525/505/523
f 203/215/535 31/10/379 215/420/381 526/506/526
f 526/506/526 215/420/381 214/13/389 529/507/527
f 529/507/527 214/13/389 213/421/388 532/508/530
f 532/508/530 213/421/388 12/15/15 107/214/193
f 531/202/528 532/508/530 107/214/193 108/213/192
f 530/201/529 531/202/528 108/213/192 109/212/191
f 222/210/536 530/201/529 109/212/191 15/211/190
f 223/209/537 527/198/525 530/201/529 222/210/536
f 224/509/533 524/504/522 527/198/525 223/209/537
f 533/510/538 534/511/539 537/219/540 536/218/541
f 534/511/539 535/512/542 538/513/543 537/219/540
f 536/218/541 537/219/540 540/222/544 539/221/545
f 537/219/540 538/513/543 541/225/546 540/222/544
f 27/226/434 219/228/547 533/510/538 170/227/435
f 219/228/547 220/235/548 534/511/539 533/510/538
f 220/235/548 221/234/549 535/512/542 534/511/539
f 221/234/549 34/206/531 224/509/533 535/512/542
f 535/512/542 224/509/533 223/209/537 538/513/543
f 538/513/543 223/209/537 222/210/536 541/225/546
f 541/225/546 222/210/536 15/211/190 77/233/208
f 540/222/544 541/225/546 77/233/208 78/232/207
f 539/221/545 540/222/544 78/232/207 79/231/206
f 168/230/438 539/221/545 79/231/206 7/93/89
f 169/229/437 536/218/541 539/221/545 168/230/438
f 170/227/435 533/510/538 536/218/541 169/229/437
f 542/514/550 543/239/551 546/238/552 545/237/553
f 543/239/551 544/515/554 547/516/555 546/238/552
f 545/237/553 546/238/552 549/517/556 548/518/557
f 546/238/552 547/516/555 550/244/558 549/517/556
f 8/89/85 116/246/220 542/514/550 173/245/439
f 116/246/220 117/254/225 543/239/551 542/514/550
f 117/254/225 118/253/224 544/515/554 543/239/551
f 118/253/224 18/161/153 227/162/503 544/515/554
f 544/515/554 227/162/503 226/164/509 547/516/555
f 547/516/555 226/164/509 225/165/507 550/244/558
f 550/244/558 225/165/507 33/166/508 198/252/559
f 549/517/556 550/244/558 198/252/559 199/251/560
f 548/518/557 549/517/556 199/251/560 200/250/561
f 171/248/443 548/518/557 200/250/561 28/249/441
f 172/247/440 545/237/553 548/518/557 171/248/443
f 173/245/439 542/514/550 545/237/553 172/247/440
f 551/519/562 552/520/563 555/257/564 554/521/565
f 552/520/563 553/522/566 556/261/567 555/257/564
f 554/521/565 555/257/564 558/523/568 557/524/569
f 555/257/564 556/261/567 559/525/570 558/523/568
f 31/195/379 203/264/535 551/519/562 212/501/519
f 203/264/535 202/274/534 552/520/563 551/519/562
f 202/274/534 201/272/532 553/522/566 552/520/563
f 201/272/532 34/273/531 230/526/571 553/522/566
f 553/522/566 230/526/571 229/270/572 556/261/567
f 556/261/567 229/270/572 228/527/573 559/525/570
f 559/525/570 228/527/573 33/268/508 218/267/506
f 558/523/568 559/525/570 218/267/506 217/266/505
f 557/524/569 558/523/568 217/266/505 216/265/504
f 210/503/521 557/524/569 216/265/504 32/190/468
f 211/502/520 554/521/565 557/524/569 210/503/521
f 212/501/519 551/519/562 554/521/565 211/502/520
f 233/528/574 234/529/575 561/530/576 560/531/577
f 234/529/575 37/532/578 237/533/579 561/530/576
f 561/530/576 237/533/579 236/534/580 562/275/581
f 562/275/581 236/534/580 235/535/582 563/536/583
f 564/537/584 565/538/585 567/287/586 566/539/587
f 566/539/587 567/287/586 569/540/588 568/289/589
f 231/541/590 232/542/591 565/538/585 564/537/584
f 232/542/591 36/543/592 240/544/593 565/538/585
f 565/538/585 240/544/593 239/545/594 567/287/586
f 567/287/586 239/545/594 238/546/595 569/540/588
f 569/540/588 238/546/595 37/532/578 234/529/575
f 568/289/589 569/540/588 234/529/575 233/528/574
f 570/547/596 243/548/597 242/301/598 571/300/599
f 571/300/599 242/301/598 241/549/600 573/550/601
f 573/550/601 241/549/600 36/543/592 232/542/591
f 572/551/602 573/550/601 232/542/591 231/541/590
f 574/304/603 575/307/604 578/552/605 577/553/606
f 575/307/604 576/311/607 579/554/608 578/552/605
f 577/553/606 578/552/605 581/555/609 580/308/610
f 578/552/605 579/554/608 582/312/611 581/555/609
f 574/304/603 267/556/612 692/557/613 690/558/614 691/559/615
f 575/307/604 574/304/603 691/559/615 693/560/616 694/561/617
f 576/311/607 575/307/604 694/561/617 695/562/618 696/563/619
f 188/463/449 576/311/607 696/563/619 697/323/620 680/464/450
f 576/311/607 188/463/449 187/462/448 579/554/608
f 579/554/608 187/462/448 186/460/446 582/312/611
f 582/312/611 186/460/446 29/459/445 249/564/621
f 581/555/609 582/312/611 249/564/621 248/565/622
f 580/308/610 581/555/609 248/565/622 247/566/623
f 265/318/624 580/308/610 247/566/623 40/319/625
f 266/567/626 577/553/606 580/308/610 265/318/624
f 267/556/612 574/304/603 577/553/606 266/567/626
f 583/568/627 584/331/628 587/569/629 586/570/630
f 586/570/630 587/569/629 589/571/631 588/332/632
f 39/137/479 252/335/633 583/568/627 264/334/634
f 252/335/633 251/342/635 584/331/628 583/568/627
f 251/342/635 250/344/636 585/572/637 584/331/628
f 589/571/631 590/341/638 259/340/639 260/339/640
f 588/332/632 589/571/631 260/339/640 261/338/641
f 262/337/642 588/332/632 261/338/641 40/319/625
f 263/336/643 586/570/630 588/332/632 262/337/642
f 264/334/634 583/568/627 586/570/630 263/336/643
f 592/573/644 593/348/645 591/347/646 607/574/647
f 594/361/648 595/360/649 591/347/646 593/348/645
f 596/575/650 597/576/651 591/347/646 595/360/649
f 598/577/652 599/578/653 591/347/646 597/576/651
f 600/579/654 601/580/655 591/347/646 599/578/653
f 602/581/656 603/582/657 591/347/646 601/580/655
f 604/583/658 605/350/659 591/347/646 603/582/657
f 606/584/660 607/574/647 591/347/646 605/350/659
f 34/273/531 221/362/549 592/573/644 230/526/571
f 221/362/549 220/363/548 593/348/645 592/573/644
f 230/526/571 592/573/644 607/574/647 229/270/572
f 27/97/434 194/454/436 594/361/648 219/367/547
f 194/454/436 193/453/433 595/360/649 594/361/648
f 219/367/547 594/361/648 593/348/645 220/363/548
f 30/451/430 246/150/483 596/575/650 192/103/431
f 246/150/483 245/151/482 597/576/651 596/575/650
f 192/103/431 596/575/650 595/360/649 193/453/433
f 39/137/479 264/334/634 598/577/652 244/481/480
f 264/334/634 263/336/643 599/578/653 598/577/652
f 244/481/480 598/577/652 597/576/651 245/151/482
f 40/319/625 247/566/623 600/579/654 262/337/642
f 247/566/623 248/565/622 601/580/655 600/579/654
f 262/337/642 600/579/654 599/578/653 263/336/643
f 29/459/445 185/461/447 602/581/656 249/564/621
f 185/461/447 184/458/444 603/582/657 602/581/656
f 249/564/621 602/581/656 601/580/655 248/565/622
f 28/85/441 200/366/561 604/583/658 183/457/442
f 200/366/561 199/365/560 605/350/659 604/583/658
f 183/457/442 604/583/658 603/582/657 184/458/444
f 33/268/508 228/527/573 606/584/660 198/364/559
f 228/527/573 229/270/572 607/574/647 606/584/660
f 198/364/559 606/584/660 605/350/659 199/365/560
f 608/585/661 609/371/662 612/586/663 611/369/664
f 609/371/662 610/587/665 613/588/666 612/586/663
f 611/369/664 612/586/663 615/589/667 614/372/668
f 612/586/663 613/588/666 616/590/669 615/589/667
f 37/532/578 256/591/670 608/585/661 237/533/579
f 256/591/670 257/381/671 609/371/662 608/585/661
f 257/381/671 258/592/672 610/587/665 609/371/662
f 267/556/612 610/587/665 258/592/672 698/593/673 692/557/613
f 610/587/665 267/556/612 266/567/626 613/588/666
f 613/588/666 266/567/626 265/318/624 616/590/669
f 616/590/669 265/318/624 40/319/625 261/338/641
f 615/589/667 616/590/669 261/338/641 260/339/640
f 614/372/668 615/589/667 260/339/640 259/340/639
f 235/535/582 614/372/668 259/340/639 38/378/674
f 236/534/580 611/369/664 614/372/668 235/535/582
f 237/533/579 608/585/661 611/369/664 236/534/580
f 617/594/675 618/595/676 621/596/677 620/597/678
f 618/595/676 619/389/679 622/598/680 621/596/677
f 620/597/678 621/596/677 624/599/681 623/600/682
f 621/596/677 622/598/680 625/601/683 624/599/681
f 36/543/592 253/391/684 617/594/675 240/544/593
f 253/391/684 254/602/685 618/595/676 617/594/675
f 254/602/685 255/603/686 619/389/679 618/595/676
f 255/603/686 700/604/687 699/605/688 701/606/689 619/389/679
f 619/389/679 701/606/689 702/607/690 704/608/690 703/608/691 622/598/680
f 705/609/692 706/610/693 625/601/683 622/598/680 703/608/691
f 258/592/672 625/601/683 706/610/693 707/611/694 698/593/673
f 624/599/681 625/601/683 258/592/672 257/381/671
f 623/600/682 624/599/681 257/381/671 256/591/670
f 238/546/595 623/600/682 256/591/670 37/532/578
f 239/545/594 620/597/678 623/600/682 238/546/595
f 240/544/593 617/594/675 620/597/678 239/545/594
f 626/612/695 627/613/696 630/404/697 629/614/698
f 627/613/696 628/615/699 631/616/700 630/404/697
f 629/614/698 630/404/697 633/407/701 632/617/702
f 630/404/697 631/616/700 634/618/703 633/407/701
f 35/411/704 250/344/636 626/612/695 243/548/597
f 250/344/636 251/342/635 627/613/696 626/612/695
f 251/342/635 252/335/633 628/615/699 627/613/696
f 252/335/633 39/137/479 270/482/481 628/615/699
f 628/615/699 270/482/481 269/492/493 631/616/700
f 631/616/700 269/492/493 268/489/490 634/618/703
f 634/618/703 268/489/490 689/491/492 708/619/705 700/604/687 255/603/686
f 633/407/701 634/618/703 255/603/686 254/602/685
f 632/617/702 633/407/701 254/602/685 253/391/684
f 241/549/600 632/617/702 253/391/684 36/543/592
f 242/301/598 629/614/698 632/617/702 241/549/600
f 243/548/597 626/612/695 629/614/698 242/301/598
f 672/620/426 673/621/425 674/622/424 675/623/429 676/624/429 704/625/690 702/626/690 701/627/689 699/628/688 700/629/687 708/630/705 689/631/492 688/632/491 687/633/489 686/634/488 685/635/487 684/636/486 683/637/485 682/638/484
f 704/625/690 676/624/429 677/624/428 681/639/453 679/640/452 678/641/451 680/642/450 697/643/620 696/644/619 695/645/618 694/646/617 693/647/616 691/648/615 690/649/614 692/650/613 698/651/673 707/652/694 706/653/693 705/654/692 703/655/691
f 667/656/353 665/657/352 666/657/351 644/658/75 638/624/68 639/623/67 635/659/66 636/660/65 637/661/64 652/662/141 651/663/139 650/636/140 649/664/137 648/665/138 647/633/134 645/666/136 646/631/135 671/667/369 670/668/356 669/669/355 668/670/354
f 663/671/350 662/672/349 661/673/337 653/674/279 654/675/278 655/676/277 660/677/290 659/678/289 658/679/288 657/680/287 656/681/286 641/682/71 640/683/70 642/640/73 643/639/76 644/658/75 666/657/351 664/684/351
s 0
f 717/685/706 710/686/706 712/85/706 718/687/706
f 718/687/88 712/85/88 716/89/88 719/92/88
f 719/92/707 716/89/707 714/39/707 720/37/707
f 720/37/708 714/39/708 710/688/708 717/689/708
f 711/690/709 715/93/709 713/19/709 709/691/709
f 716/89/710 712/692/710 710/693/710 714/39/710
f 713/19/711 720/37/711 717/689/711 709/694/711
f 715/93/707 719/92/707 720/37/707 713/19/707
f 711/97/88 718/687/88 719/92/88 715/93/88
f 709/695/706 717/685/706 718/687/706 711/97/706
f 729/685/707 730/687/707 724/85/707 722/686/707
f 730/687/88 731/92/88 728/89/88 724/85/88
f 731/92/706 732/37/706 726/39/706 728/89/706
f 732/37/708 729/689/708 722/688/708 726/39/708
f 723/690/709 721/691/709 725/19/709 727/93/709
f 728/89/710 726/39/710 722/693/710 724/692/710
f 725/19/711 721/694/711 729/689/711 732/37/711
f 727/93/706 725/19/706 732/37/706 731/92/706
f 723/97/88 727/93/88 731/92/88 730/687/88
f 721/695/707 723/97/707 730/687/707 729/685/707
