# Blender 4.2.0
# www.blender.org
mtllib moji_hashi.mtl
o Text
v -0.207329 -0.040106 -1.043601
v -0.242718 -0.102658 -1.043601
v -0.278087 -0.142548 -1.043601
v -0.282613 -0.138796 -1.043601
v -0.265151 -0.103441 -1.043601
v -0.235679 -0.024045 -1.043601
v -0.213820 0.056721 -1.043601
v -0.205934 0.100400 -1.043601
v -0.086092 0.105018 -1.043601
v -0.244543 0.103746 -1.043601
v -0.266115 0.100866 -1.043601
v -0.272296 0.122052 -1.043601
v -0.241006 0.117933 -1.043601
v -0.198232 0.117694 -1.043601
v -0.198388 0.200544 -1.043601
v -0.200968 0.253785 -1.043601
v -0.137851 0.244256 -1.043601
v -0.128734 0.237311 -1.043601
v -0.130777 0.227694 -1.043601
v -0.148276 0.216558 -1.043601
v -0.148602 0.117694 -1.043601
v -0.142493 0.117898 -1.043601
v -0.122555 0.148679 -1.043601
v -0.111330 0.145196 -1.043601
v -0.087484 0.119733 -1.043601
v -0.082909 0.109885 -1.043601
v -0.148590 0.050842 -1.043601
v -0.121591 0.038771 -1.043601
v -0.101316 0.021891 -1.043601
v -0.091087 0.005578 -1.043601
v -0.088294 -0.015480 -1.043601
v -0.091813 -0.025071 -1.043601
v -0.041093 -0.053975 -1.043601
v 0.185651 -0.053926 -1.043601
v 0.213290 -0.027777 -1.043601
v 0.227609 -0.034917 -1.043601
v 0.256255 -0.061311 -1.043601
v 0.256226 -0.071078 -1.043601
v 0.240998 -0.084662 -1.043601
v 0.241403 -0.248976 -1.043601
v 0.230494 -0.271559 -1.043601
v 0.208271 -0.284315 -1.043601
v 0.186992 -0.285770 -1.043601
v 0.179170 -0.281551 -1.043601
v 0.174671 -0.263654 -1.043601
v 0.162815 -0.249836 -1.043601
v 0.122740 -0.235046 -1.043601
v 0.121887 -0.229020 -1.043601
v 0.183229 -0.230433 -1.043601
v 0.190639 -0.227384 -1.043601
v 0.191386 -0.067417 -1.043601
v -0.046492 -0.067417 -1.043601
v -0.046882 -0.271351 -1.043601
v -0.052154 -0.280776 -1.043601
v -0.063658 -0.286189 -1.043601
v -0.087695 -0.285902 -1.043601
v -0.096793 -0.276018 -1.043601
v -0.094935 -0.122273 -1.043601
v -0.095424 -0.058496 -1.043601
v -0.096171 -0.032201 -1.043601
v -0.109724 -0.039005 -1.043601
v -0.119670 -0.037326 -1.043601
v -0.126707 -0.028233 -1.043601
v -0.135501 0.013847 -1.043601
v -0.148588 0.038510 -1.043601
v -0.146709 -0.273326 -1.043601
v -0.156000 -0.284585 -1.043601
v -0.189610 -0.285882 -1.043601
v -0.199374 -0.274986 -1.043601
v -0.194255 -0.007443 -1.043601
v -0.024531 0.054616 -1.043601
v -0.056151 0.034338 -1.043601
v -0.091272 0.016724 -1.043601
v -0.091320 0.016724 -1.043601
v -0.091367 0.016724 -1.043601
v -0.091415 0.016724 -1.043601
v -0.091462 0.016724 -1.043601
v -0.091510 0.016724 -1.043601
v -0.091557 0.016724 -1.043601
v -0.091605 0.016724 -1.043601
v -0.091652 0.016724 -1.043601
v -0.091700 0.016724 -1.043601
v -0.091747 0.016724 -1.043601
v -0.091795 0.016724 -1.043601
v -0.091843 0.016724 -1.043601
v -0.095180 0.017765 -1.043601
v -0.096006 0.024147 -1.043601
v -0.053302 0.060498 -1.043601
v -0.018160 0.099283 -1.043601
v 0.001141 0.127106 -1.043601
v -0.050770 0.127106 -1.043601
v -0.052761 0.127083 -1.043601
v -0.055850 0.126966 -1.043601
v -0.062565 0.126431 -1.043601
v -0.080165 0.123797 -1.043601
v -0.086315 0.144856 -1.043601
v -0.060057 0.140754 -1.043601
v 0.009404 0.140552 -1.043601
v 0.030778 0.186908 -1.043601
v -0.075752 0.185203 -1.043601
v -0.076435 0.193499 -1.043601
v 0.049545 0.215439 -1.043601
v 0.119603 0.237858 -1.043601
v 0.163112 0.258895 -1.043601
v 0.200708 0.232644 -1.043601
v 0.217156 0.215051 -1.043601
v 0.208450 0.207640 -1.043601
v 0.186716 0.210479 -1.043601
v 0.075631 0.190190 -1.043601
v 0.099675 0.182424 -1.043601
v 0.101304 0.173523 -1.043601
v 0.077933 0.165104 -1.043601
v 0.062069 0.140538 -1.043601
v 0.165344 0.140603 -1.043601
v 0.197495 0.173312 -1.043601
v 0.209464 0.169581 -1.043601
v 0.242474 0.142688 -1.043601
v 0.248323 0.133760 -1.043601
v 0.246120 0.127974 -1.043601
v 0.240730 0.127106 -1.043601
v 0.120936 0.127106 -1.043601
v 0.132676 0.115305 -1.043601
v 0.161185 0.094471 -1.043601
v 0.195364 0.078863 -1.043601
v 0.240603 0.066279 -1.043601
v 0.280712 0.061088 -1.043601
v 0.280830 0.056268 -1.043601
v 0.263370 0.046101 -1.043601
v 0.254824 0.033141 -1.043601
v 0.249889 0.015226 -1.043601
v 0.243392 0.009132 -1.043601
v 0.216846 0.018835 -1.043601
v 0.184469 0.037854 -1.043601
v 0.164996 0.052747 -1.043601
v 0.164795 -0.013058 -1.043601
v 0.156062 -0.024726 -1.043601
v 0.126163 -0.026161 -1.043601
v 0.118236 -0.017195 -1.043601
v 0.117798 -0.007235 -1.043601
v 0.022653 -0.009286 -1.043601
v 0.012630 -0.026037 -1.043601
v -0.017645 -0.027343 -1.043601
v -0.025229 -0.019475 -1.043601
v -0.025587 -0.012296 -1.043601
v 0.011226 0.082610 -1.043601
v 0.026843 0.073200 -1.043601
v 0.115990 0.073212 -1.043601
v 0.132336 0.087837 -1.043601
v 0.113969 0.114612 -1.043601
v 0.106959 0.127106 -1.043601
v 0.051911 0.127106 -1.043601
v 0.035984 0.107571 -1.043601
v 0.117798 0.006171 -1.043601
v 0.117798 0.059793 -1.043601
v 0.021677 0.059793 -1.043601
v 0.021677 0.006171 -1.043601
v 0.107408 -0.196127 -1.043601
v 0.034227 -0.194913 -1.043601
v 0.033889 -0.209519 -1.043601
v 0.026109 -0.219562 -1.043601
v -0.001312 -0.220804 -1.043601
v -0.008751 -0.212921 -1.043601
v -0.007685 -0.136094 -1.043601
v -0.008093 -0.119361 -1.043601
v -0.009644 -0.088194 -1.043601
v 0.036140 -0.109611 -1.043601
v 0.104403 -0.109541 -1.043601
v 0.128349 -0.090329 -1.043601
v 0.140904 -0.095892 -1.043601
v 0.163676 -0.117120 -1.043601
v 0.162590 -0.125898 -1.043601
v 0.150149 -0.136667 -1.043601
v 0.148492 -0.206168 -1.043601
v 0.127719 -0.215708 -1.043601
v 0.111449 -0.211336 -1.043601
v 0.108100 -0.181507 -1.043601
v 0.108100 -0.123036 -1.043601
v 0.034227 -0.123036 -1.043601
v 0.034227 -0.181507 -1.043601
v -0.137851 0.244255 0.956399
v -0.128734 0.237311 0.956399
v 0.099675 0.182424 0.956399
v 0.101304 0.173523 0.956399
v 0.165344 0.140603 0.956399
v 0.197495 0.173312 0.956399
v -0.062565 0.126431 0.956399
v -0.080165 0.123797 0.956399
v -0.142493 0.117897 0.956399
v -0.111330 0.145196 0.956399
v 0.001141 0.127106 0.956399
v -0.050770 0.127106 0.956399
v 0.240730 0.127106 0.956399
v 0.051911 0.127106 0.956399
v 0.132676 0.115305 0.956399
v 0.113969 0.114611 0.956399
v -0.053302 0.060498 0.956399
v 0.021677 0.059793 0.956399
v 0.117798 0.059793 0.956399
v 0.280712 0.061088 0.956399
v 0.280830 0.056268 0.956399
v 0.263370 0.046101 0.956399
v 0.164996 0.052746 0.956399
v -0.194255 -0.007443 0.956399
v -0.148588 0.038510 0.956399
v -0.213820 0.056721 0.956399
v 0.164795 -0.013058 0.956399
v 0.117798 0.006171 0.956399
v -0.121591 0.038771 0.956399
v -0.135501 0.013847 0.956399
v 0.254824 0.033141 0.956399
v 0.216846 0.018834 0.956399
v 0.249889 0.015226 0.956399
v -0.091272 0.016724 0.956399
v -0.095180 0.017765 0.956399
v -0.091843 0.016724 0.956399
v -0.091795 0.016724 0.956399
v -0.091747 0.016724 0.956399
v -0.091700 0.016724 0.956399
v -0.091652 0.016724 0.956399
v -0.091605 0.016724 0.956399
v -0.091557 0.016724 0.956399
v -0.091510 0.016724 0.956399
v -0.091462 0.016724 0.956399
v -0.091415 0.016724 0.956399
v -0.091367 0.016724 0.956399
v -0.091320 0.016724 0.956399
v 0.243392 0.009132 0.956399
v 0.117798 -0.007235 0.956399
v -0.235679 -0.024045 0.956399
v 0.118236 -0.017195 0.956399
v -0.207329 -0.040106 0.956399
v 0.012630 -0.026037 0.956399
v -0.017645 -0.027343 0.956399
v -0.119670 -0.037326 0.956399
v -0.126707 -0.028233 0.956399
v 0.227609 -0.034917 0.956399
v 0.256255 -0.061311 0.956399
v -0.041093 -0.053976 0.956399
v 0.185651 -0.053926 0.956399
v 0.191386 -0.067417 0.956399
v -0.046492 -0.067417 0.956399
v -0.242718 -0.102658 0.956399
v -0.265151 -0.103441 0.956399
v 0.104403 -0.109541 0.956399
v 0.140904 -0.095892 0.956399
v -0.282613 -0.138796 0.956399
v 0.148492 -0.206168 0.956399
v 0.108100 -0.181508 0.956399
v 0.033889 -0.209519 0.956399
v -0.008751 -0.212921 0.956399
v 0.026109 -0.219562 0.956399
v 0.127719 -0.215708 0.956399
v 0.111449 -0.211336 0.956399
v -0.001312 -0.220804 0.956399
v 0.241403 -0.248976 0.956399
v 0.162815 -0.249836 0.956399
v -0.156000 -0.284585 0.956399
v -0.199374 -0.274986 0.956399
v 0.208271 -0.284315 0.956399
v 0.186992 -0.285771 0.956399
v -0.130777 0.227694 0.956399
v 0.049545 0.215439 0.956399
v 0.186716 0.210479 0.956399
v 0.030778 0.186908 0.956399
v 0.077933 0.165104 0.956399
v 0.009404 0.140552 0.956399
v -0.052761 0.127082 0.956399
v 0.248323 0.133760 0.956399
v 0.246120 0.127974 0.956399
v 0.106959 0.127106 0.956399
v -0.086092 0.105017 0.956399
v -0.244543 0.103746 0.956399
v 0.161185 0.094471 0.956399
v 0.195364 0.078863 0.956399
v 0.026843 0.073200 0.956399
v 0.115990 0.073212 0.956399
v 0.240603 0.066279 0.956399
v 0.021677 0.006171 0.956399
v 0.184469 0.037854 0.956399
v -0.101316 0.021890 0.956399
v 0.022653 -0.009287 0.956399
v -0.096171 -0.032202 0.956399
v -0.095424 -0.058496 0.956399
v -0.046882 -0.271351 0.956399
v 0.240998 -0.084662 0.956399
v 0.190639 -0.227384 0.956399
v -0.007685 -0.136094 0.956399
v -0.008093 -0.119362 0.956399
v -0.189610 -0.285882 0.956399
v -0.052154 -0.280776 0.956399
v -0.063658 -0.286189 0.956399
v 0.119603 0.237857 0.956399
v 0.200708 0.232644 0.956399
v 0.209464 0.169581 0.956399
v -0.086315 0.144856 0.956399
v -0.060057 0.140754 0.956399
v -0.055850 0.126966 0.956399
v 0.242474 0.142688 0.956399
v -0.122555 0.148679 0.956399
v -0.272296 0.122052 0.956399
v -0.241006 0.117933 0.956399
v -0.198232 0.117694 0.956399
v 0.132336 0.087837 0.956399
v -0.018160 0.099282 0.956399
v 0.011226 0.082610 0.956399
v -0.148590 0.050842 0.956399
v -0.091087 0.005578 0.956399
v -0.025587 -0.012296 0.956399
v -0.088294 -0.015481 0.956399
v -0.025229 -0.019475 0.956399
v -0.091813 -0.025071 0.956399
v -0.094935 -0.122273 0.956399
v 0.034227 -0.123036 0.956399
v 0.034227 -0.181508 0.956399
v -0.096793 -0.276019 0.956399
v 0.162590 -0.125898 0.956399
v 0.150149 -0.136667 0.956399
v 0.122740 -0.235046 0.956399
v 0.174671 -0.263654 0.956399
v 0.230494 -0.271559 0.956399
v -0.198388 0.200544 0.956399
v -0.200968 0.253785 0.956399
v -0.148276 0.216558 0.956399
v 0.217156 0.215051 0.956399
v 0.208450 0.207640 0.956399
v 0.075631 0.190190 0.956399
v -0.076435 0.193499 0.956399
v -0.148602 0.117694 0.956399
v 0.062069 0.140538 0.956399
v 0.035984 0.107571 0.956399
v -0.146709 -0.273326 0.956399
v -0.056151 0.034338 0.956399
v -0.096006 0.024147 0.956399
v 0.156062 -0.024726 0.956399
v 0.126163 -0.026161 0.956399
v -0.109724 -0.039005 0.956399
v 0.128349 -0.090329 0.956399
v 0.163676 -0.117120 0.956399
v -0.278087 -0.142548 0.956399
v 0.107408 -0.196127 0.956399
v 0.034227 -0.194913 0.956399
v 0.183229 -0.230433 0.956399
v 0.121887 -0.229021 0.956399
v -0.087695 -0.285902 0.956399
v 0.120936 0.127106 0.956399
v -0.266115 0.100866 0.956399
v -0.024531 0.054616 0.956399
v 0.108100 -0.123036 0.956399
v -0.087484 0.119732 0.956399
v -0.082909 0.109884 0.956399
v 0.213290 -0.027777 0.956399
v 0.256226 -0.071078 0.956399
v -0.009644 -0.088194 0.956399
v 0.036140 -0.109611 0.956399
v 0.163112 0.258894 0.956399
v -0.075752 0.185203 0.956399
v -0.205934 0.100399 0.956399
v 0.179170 -0.281551 0.956399
vn -0.0000 -0.0000 -1.0000
vn -0.0000 -0.0003 -1.0000
vn -0.0000 1.0000 -0.0000
vn -0.0000 -0.0001 -1.0000
vn -0.0000 0.0002 -1.0000
vn -0.0000 -1.0000 -0.0000
vn -0.0000 0.0001 -1.0000
vn -0.0000 -0.0000 1.0000
vn -0.0000 0.0001 1.0000
vn -0.0000 -0.0003 1.0000
vn 0.0001 -0.0005 1.0000
vn -0.0000 -0.0001 1.0000
vn -0.0001 0.0043 1.0000
vn 0.0001 -0.0097 1.0000
vn -0.0000 -0.0008 1.0000
vn 0.7100 -0.7042 -0.0000
vn -0.9901 -0.1400 -0.0000
vn 0.7906 -0.6124 -0.0000
vn -0.1664 -0.9861 -0.0000
vn 0.5161 0.8565 -0.0000
vn -0.2595 -0.9657 -0.0000
vn 0.8365 0.5480 -0.0000
vn -0.6873 0.7264 -0.0000
vn 0.1305 0.9914 -0.0000
vn 0.1283 0.9917 -0.0000
vn -0.4747 -0.8801 -0.0000
vn -0.7273 -0.6863 -0.0000
vn 0.1590 -0.9873 -0.0000
vn -0.9996 -0.0284 -0.0000
vn 0.0056 1.0000 -0.0000
vn 0.5725 0.8199 -0.0000
vn 0.7751 -0.6319 -0.0000
vn 0.6059 0.7955 -0.0000
vn 0.5900 0.8074 -0.0000
vn 0.5369 -0.8436 -0.0000
vn 0.9837 0.1800 -0.0000
vn -0.8246 -0.5657 -0.0000
vn -0.1716 0.9852 -0.0000
vn 0.0682 -0.9977 -0.0000
vn 1.0000 -0.0030 -0.0000
vn -0.7132 0.7010 -0.0000
vn -0.9999 0.0158 -0.0000
vn 0.9782 -0.2078 -0.0000
vn -0.9988 -0.0497 -0.0000
vn 0.1480 -0.9890 -0.0000
vn -0.7410 0.6715 -0.0000
vn 0.8348 -0.5505 -0.0000
vn -0.2978 -0.9546 -0.0000
vn 0.3073 0.9516 -0.0000
vn -0.9081 0.4187 -0.0000
vn -0.6075 -0.7943 -0.0000
vn -0.3433 -0.9392 -0.0000
vn 0.0120 -0.9999 -0.0000
vn 1.0000 0.0060 -0.0000
vn -0.8217 0.5700 -0.0000
vn -1.0000 -0.0000 -0.0000
vn 0.4081 0.9129 -0.0000
vn -0.9999 0.0139 -0.0000
vn 0.8704 -0.4924 -0.0000
vn 0.6539 0.7566 -0.0000
vn 0.4051 0.9143 -0.0000
vn -0.8721 -0.4893 -0.0000
vn 0.9997 0.0245 -0.0000
vn 0.0080 -1.0000 -0.0000
vn 0.9924 -0.1228 -0.0000
vn 0.5032 -0.8642 -0.0000
vn 0.4154 0.9096 -0.0000
vn 0.8727 -0.4883 -0.0000
vn -0.6382 -0.7699 -0.0000
vn 1.0000 -0.0031 -0.0000
vn -0.0001 1.0000 -0.0000
vn -0.7357 -0.6773 -0.0000
vn -0.9653 0.2612 -0.0000
vn -0.4353 0.9003 -0.0000
vn -0.9988 -0.0499 -0.0000
vn -0.9917 -0.1284 -0.0000
vn 1.0000 -0.0000 -0.0000
vn 0.8006 -0.5992 -0.0000
vn 0.1493 0.9888 -0.0000
vn 0.9388 -0.3444 -0.0000
vn -0.7492 -0.6623 -0.0000
vn -0.3048 0.9524 -0.0000
vn 0.9997 -0.0232 -0.0000
vn 0.4483 -0.8939 -0.0000
vn 0.4486 -0.8937 -0.0000
vn 0.9641 -0.2656 -0.0000
vn 0.4951 0.8688 -0.0000
vn -0.9966 -0.0820 -0.0000
vn -0.9665 -0.2568 -0.0000
vn 0.8472 0.5312 -0.0000
vn 1.0000 0.0025 -0.0000
vn -0.8834 -0.4687 -0.0000
vn -0.6258 0.7800 -0.0000
vn 0.0160 -0.9999 -0.0000
vn -0.9789 -0.2046 -0.0000
vn 0.6398 0.7685 -0.0000
vn 0.7482 -0.6634 -0.0000
vn -0.9999 0.0121 -0.0000
vn -0.9599 -0.2803 -0.0000
vn 0.0216 -0.9998 -0.0000
vn -0.0166 -0.9999 -0.0000
vn 0.6545 -0.7561 -0.0000
vn 0.8369 -0.5473 -0.0000
vn 0.0453 -0.9990 -0.0000
vn -0.9841 0.1777 -0.0000
vn -0.3462 -0.9382 -0.0000
vn 0.7299 0.6835 -0.0000
vn -0.9375 0.3480 -0.0000
vn -0.9998 0.0191 -0.0000
vn -0.6668 0.7452 -0.0000
vn -1.0000 0.0047 -0.0000
vn 0.9004 -0.4350 -0.0000
vn -1.0000 -0.0077 -0.0000
vn 0.4978 -0.8673 -0.0000
vn 0.7089 0.7053 -0.0000
vn 0.4237 0.9058 -0.0000
vn -0.9988 -0.0484 -0.0000
vn -0.9600 -0.2801 -0.0000
vn 1.0000 -0.0019 -0.0000
vn -0.0119 -0.9999 -0.0000
vn -0.6482 0.7615 -0.0000
vn 0.6841 -0.7294 -0.0000
vn 1.0000 -0.0033 -0.0000
vn 0.7305 0.6829 -0.0000
vn -0.0333 0.9994 -0.0000
vn -0.9997 -0.0244 -0.0000
vn -0.1295 -0.9916 -0.0000
vn 0.9997 -0.0238 -0.0000
vn -0.9990 -0.0440 -0.0000
vn 0.0385 -0.9993 -0.0000
vn 0.8581 -0.5135 -0.0000
vn 0.9284 -0.3716 -0.0000
vn 0.6482 -0.7615 -0.0000
vn 0.9069 0.4213 -0.0000
vn 0.4173 -0.9087 -0.0000
vn 0.4258 -0.9048 -0.0000
vn 0.2963 0.9551 -0.0000
vn -0.7200 -0.6940 -0.0000
vn 0.0431 -0.9991 -0.0000
vn 0.1797 -0.9837 -0.0000
vn 0.2680 0.9634 -0.0000
vn -0.7589 -0.6512 -0.0000
vn 0.0794 -0.9968 -0.0000
vn 0.4462 0.8949 -0.0000
vn -0.7908 -0.6120 -0.0000
vn -0.9698 -0.2438 -0.0000
vn 0.3389 -0.9408 -0.0000
vn 0.6776 0.7354 -0.0000
vn -1.0000 -0.0019 -0.0000
vn 0.2977 0.9547 -0.0000
vn 0.6657 -0.7462 -0.0000
vn -0.0002 1.0000 -0.0000
vn 0.1543 0.9880 -0.0000
vn 0.6819 0.7315 -0.0000
vn 0.5398 -0.8418 -0.0000
vn 0.7713 -0.6365 -0.0000
vn 0.0029 1.0000 -0.0000
vn -0.0010 1.0000 -0.0000
vn 0.8401 -0.5425 -0.0000
vn 0.0377 -0.9993 -0.0000
vn 0.1324 -0.9912 -0.0000
vn 0.6316 0.7753 -0.0000
vn -0.5065 -0.8622 -0.0000
vn -0.7448 -0.6673 -0.0000
vn -0.8966 0.4428 -0.0000
vn -0.3805 0.9248 -0.0000
vn -0.0006 1.0000 -0.0000
vn 0.9913 0.1315 -0.0000
vn -0.8393 0.5436 -0.0000
vn 0.0230 0.9997 -0.0000
vn 0.0479 -0.9989 -0.0000
vn 0.9346 -0.3558 -0.0000
vt 0.576627 0.000000
vt 0.583627 0.000000
vt 0.588477 0.000000
vt 0.094579 0.000000
vt 0.105813 0.000000
vt 0.112549 0.000000
vt 0.118275 0.000000
vt 0.570277 0.000000
vt 0.087483 0.000000
vt 0.124964 0.000000
vt 0.594221 0.000000
vt 0.125845 0.000000
vt 0.614024 0.000000
vt 0.601589 0.000000
vt 0.559525 0.000000
vt 0.624011 0.000000
vt 0.546349 0.000000
vt 0.533010 0.000000
vt 0.636664 0.000000
vt 0.646067 0.000000
vt 0.083615 0.000000
vt 0.654639 0.000000
vt 0.665517 0.000000
vt 0.674680 0.000000
vt 0.679496 0.000000
vt 0.522835 0.000000
vt 0.664654 0.000000
vt 0.689569 0.000000
vt 0.510979 0.000000
vt 0.511864 0.000000
vt 0.518998 0.000000
vt 0.505406 0.000000
vt 0.502931 0.000000
vt 0.501689 0.000000
vt 0.695335 0.000000
vt 0.126687 0.000000
vt 0.135478 0.000000
vt 0.140671 0.000000
vt 0.500845 0.000000
vt 0.701332 0.000000
vt 0.150587 0.000000
vt 0.706081 0.000000
vt 0.500000 0.000000
vt 0.497487 0.000000
vt 0.867399 0.000000
vt 0.871624 0.000000
vt 0.866554 0.000000
vt 0.863282 0.000000
vt 0.706926 0.000000
vt 0.709438 0.000000
vt 0.071791 0.000000
vt 0.072663 0.000000
vt 0.079838 0.000000
vt 0.066220 0.000000
vt 0.157531 0.000000
vt 0.714595 0.000000
vt 0.163038 0.000000
vt 0.856415 0.000000
vt 0.056668 0.000000
vt 0.060253 0.000000
vt 0.168911 0.000000
vt 0.835450 0.000000
vt 0.719138 0.000000
vt 0.493688 0.000000
vt 0.846262 0.000000
vt 0.845454 0.000000
vt 0.723700 0.000000
vt 0.879223 0.000000
vt 0.731658 0.000000
vt 0.878378 0.000000
vt 0.449328 0.000000
vt 0.880068 0.000000
vt 0.877534 0.000000
vt 0.788213 0.000000
vt 0.742779 0.000000
vt 0.833654 0.000000
vt 0.751698 0.000000
vt 0.454533 0.000000
vt 0.784234 0.000000
vt 0.485221 0.000000
vt 0.174138 0.000000
vt 0.407956 0.000000
vt 0.755415 0.000000
vt -0.006344 0.000000
vt 0.410271 0.000000
vt 0.792032 0.000000
vt 0.402871 0.000000
vt 0.179569 0.000000
vt 0.778271 0.000000
vt 0.761400 0.000000
vt 0.050115 0.000000
vt 0.473987 0.000000
vt 0.459459 0.000000
vt 0.469595 0.000000
vt 0.468750 0.000000
vt 0.467905 0.000000
vt 0.467061 0.000000
vt 0.466216 0.000000
vt 0.465372 0.000000
vt 0.464527 0.000000
vt 0.463682 0.000000
vt 0.462838 0.000000
vt 0.461993 0.000000
vt 0.461149 0.000000
vt 0.460304 0.000000
vt 0.184610 0.000000
vt 0.767256 0.000000
vt 0.813068 0.000000
vt 0.811655 0.000000
vt 0.192681 0.000000
vt 0.808831 0.000000
vt 0.002134 0.000000
vt 0.394775 0.000000
vt 0.831397 0.000000
vt 0.796295 0.000000
vt 0.819021 0.000000
vt 0.804209 0.000000
vt 0.827051 0.000000
vt 0.199336 0.000000
vt 0.377694 0.000000
vt 0.390545 0.000000
vt 0.385590 0.000000
vt 0.210279 0.000000
vt 0.219859 0.000000
vt 0.225876 0.000000
vt 0.374030 0.000000
vt 0.209492 0.000000
vt 0.237435 0.000000
vt 0.006775 0.000000
vt 0.043757 0.000000
vt 0.345439 0.000000
vt 0.344595 0.000000
vt 0.243417 0.000000
vt 0.347810 0.000000
vt 0.340214 0.000000
vt 0.250893 0.000000
vt 0.367896 0.000000
vt 0.924802 0.000000
vt 0.934301 0.000000
vt 0.940476 0.000000
vt 0.952244 0.000000
vt 0.908257 0.000000
vt 0.913814 0.000000
vt 0.924018 0.000000
vt 0.255743 0.000000
vt 0.999155 0.000000
vt 0.998311 0.000000
vt 0.958483 0.000000
vt 1.000000 0.000000
vt 0.997466 0.000000
vt 0.965382 0.000000
vt 0.904389 0.000000
vt 0.364611 0.000000
vt 0.032528 0.000000
vt 0.017683 0.000000
vt 0.969423 0.000000
vt 0.900942 0.000000
vt 0.881757 0.000000
vt 0.897033 0.000000
vt 0.884112 0.000000
vt 0.986041 0.000000
vt 0.976657 0.000000
vt 0.888329 0.000000
vt 0.896318 0.000000
vt 0.427487 0.000000
vt 0.334746 0.000000
vt 0.318927 0.000000
vt 0.306276 0.000000
vt 0.293744 0.000000
vt 0.286925 0.000000
vt 0.262346 0.000000
vt 0.279115 0.000000
vt 0.350861 0.000000
vt 0.414456 0.000000
vt 0.268764 0.000000
vt 0.422500 0.000000
vt 0.359978 0.000000
vt 0.354113 0.000000
vt 0.274264 0.000000
s 0
usemtl Material.001
f 103/1/1 104/2/1 105/3/1
f 16/4/1 17/5/1 18/6/1
f 16/4/1 18/6/1 19/7/1
f 102/8/1 103/1/1 105/3/1
f 15/9/1 16/4/1 19/7/1
f 15/9/1 19/7/1 20/10/1
f 102/8/1 105/3/1 106/11/1
f 15/9/1 20/10/1 21/12/1
f 102/8/1 106/11/1 108/13/1
f 108/13/1 106/11/1 107/14/1
f 101/15/1 102/8/1 108/13/1
f 101/15/1 108/13/1 109/16/1
f 100/17/1 101/15/1 109/16/1
f 100/17/1 109/16/1 99/18/1
f 99/18/1 109/16/1 110/19/1
f 99/18/1 110/19/1 111/20/1
f 14/21/1 15/9/1 21/12/1
f 99/18/1 111/20/1 112/22/1
f 114/23/1 115/24/1 116/25/1
f 98/26/1 99/18/1 112/22/1
f 98/26/1 112/22/1 113/27/1
f 114/23/1 116/25/1 117/28/1
f 95/29/1 96/30/1 97/31/1
f 95/29/1 97/31/1 98/26/1
f 95/29/1 98/26/1 94/32/1
f 94/32/1 98/26/1 113/27/1
f 94/32/1 113/27/1 93/33/1
f 93/33/1 113/27/1 114/23/1
f 93/33/1 114/23/1 117/28/1
f 93/33/1 117/28/1 92/34/1
f 92/34/1 117/28/1 118/35/1
f 22/36/1 23/37/1 24/38/1
f 92/34/1 118/35/1 91/39/1
f 91/39/1 118/35/1 119/40/1
f 22/36/1 24/38/1 25/41/1
f 91/39/2 119/40/2 120/42/2
f 90/43/3 91/39/3 120/42/3
f 89/44/1 90/43/1 151/45/1
f 151/45/3 90/43/3 120/42/3
f 89/44/1 151/45/1 152/46/1
f 150/47/3 151/45/3 120/42/3
f 149/48/1 150/47/1 121/49/1
f 121/49/3 150/47/3 120/42/3
f 149/48/1 121/49/1 122/50/1
f 11/51/1 12/52/1 13/53/1
f 11/51/1 13/53/1 14/21/1
f 11/51/1 14/21/1 10/54/1
f 10/54/1 14/21/1 21/12/1
f 10/54/4 21/12/4 22/36/4
f 10/54/1 22/36/1 25/41/1
f 10/54/1 25/41/1 26/55/1
f 149/48/1 122/50/1 123/56/1
f 10/54/1 26/55/1 9/57/1
f 148/58/1 149/48/1 123/56/1
f 7/59/1 8/60/1 27/61/1
f 89/44/1 152/46/1 145/62/1
f 148/58/1 123/56/1 124/63/1
f 88/64/1 89/44/1 145/62/1
f 147/65/1 148/58/1 124/63/1
f 88/64/1 145/62/1 146/66/1
f 147/65/1 124/63/1 125/67/1
f 88/64/1 146/66/1 147/65/1
f 88/64/1 147/65/1 125/67/1
f 155/68/4 88/64/4 125/67/4
f 155/68/1 125/67/1 126/69/1
f 155/68/5 126/69/5 154/70/5
f 88/64/1 155/68/1 71/71/1
f 71/71/1 155/68/1 156/72/1
f 153/73/1 154/70/1 134/74/1
f 134/74/1 154/70/1 126/69/1
f 134/74/1 126/69/1 127/75/1
f 144/76/1 71/71/1 156/72/1
f 134/74/1 127/75/1 128/77/1
f 88/64/1 71/71/1 72/78/1
f 133/79/1 134/74/1 128/77/1
f 87/80/1 88/64/1 72/78/1
f 7/59/1 27/61/1 28/81/1
f 7/59/1 28/81/1 65/82/1
f 133/79/1 128/77/1 129/83/1
f 7/59/1 65/82/1 70/84/1
f 70/84/1 65/82/1 66/85/1
f 153/73/1 134/74/1 135/86/1
f 64/87/1 65/82/1 28/81/1
f 64/87/1 28/81/1 29/88/1
f 132/89/1 133/79/1 129/83/1
f 132/89/1 129/83/1 130/90/1
f 6/91/1 7/59/1 70/84/1
f 86/92/1 87/80/1 72/78/1
f 86/92/1 72/78/1 73/93/1
f 85/94/1 86/92/1 73/93/1
f 84/95/3 85/94/3 73/93/3
f 83/96/3 84/95/3 73/93/3
f 82/97/6 83/96/6 73/93/6
f 81/98/3 82/97/3 73/93/3
f 80/99/3 81/98/3 73/93/3
f 79/100/3 80/99/3 73/93/3
f 78/101/3 79/100/3 73/93/3
f 77/102/3 78/101/3 73/93/3
f 76/103/3 77/102/3 73/93/3
f 75/104/3 76/103/3 73/93/3
f 74/105/3 75/104/3 73/93/3
f 64/87/1 29/88/1 30/106/1
f 131/107/1 132/89/1 130/90/1
f 144/76/1 156/72/1 153/73/1
f 144/76/1 153/73/1 140/108/1
f 140/108/1 153/73/1 139/109/1
f 139/109/1 153/73/1 135/86/1
f 64/87/1 30/106/1 31/110/1
f 138/111/1 139/109/1 135/86/1
f 6/91/1 70/84/1 1/112/1
f 63/113/1 64/87/1 31/110/1
f 143/114/1 144/76/1 140/108/1
f 138/111/1 135/86/1 136/115/1
f 143/114/1 140/108/1 141/116/1
f 137/117/1 138/111/1 136/115/1
f 142/118/1 143/114/1 141/116/1
f 63/113/1 31/110/1 32/119/1
f 63/113/1 32/119/1 60/120/1
f 62/121/1 63/113/1 60/120/1
f 62/121/1 60/120/1 61/122/1
f 34/123/1 35/124/1 36/125/1
f 59/126/1 60/120/1 32/119/1
f 59/126/1 32/119/1 33/127/1
f 34/123/1 36/125/1 37/128/1
f 59/126/1 33/127/1 34/123/1
f 59/126/1 34/123/1 37/128/1
f 6/91/1 1/112/1 2/129/1
f 5/130/1 6/91/1 2/129/1
f 52/131/1 59/126/1 37/128/1
f 52/131/7 37/128/7 51/132/7
f 51/132/1 37/128/1 38/133/1
f 59/126/1 52/131/1 53/134/1
f 50/135/1 51/132/1 39/136/1
f 39/136/1 51/132/1 38/133/1
f 58/137/1 59/126/1 53/134/1
f 167/138/1 168/139/1 169/140/1
f 167/138/1 169/140/1 170/141/1
f 164/142/1 165/143/1 166/144/1
f 50/135/1 39/136/1 40/145/1
f 164/142/1 166/144/1 167/138/1
f 164/142/1 167/138/1 170/141/1
f 178/146/1 164/142/1 170/141/1
f 178/146/1 170/141/1 177/147/1
f 177/147/1 170/141/1 171/148/1
f 164/142/1 178/146/1 179/149/1
f 176/150/1 177/147/1 172/151/1
f 172/151/1 177/147/1 171/148/1
f 163/152/1 164/142/1 179/149/1
f 57/153/1 58/137/1 53/134/1
f 4/154/1 5/130/1 2/129/1
f 4/154/1 2/129/1 3/155/1
f 176/150/1 172/151/1 173/156/1
f 162/157/1 163/152/1 179/149/1
f 162/157/1 179/149/1 158/158/1
f 158/158/1 179/149/1 176/150/1
f 158/158/1 176/150/1 157/159/1
f 157/159/1 176/150/1 173/156/1
f 162/157/1 158/158/1 159/160/1
f 175/161/1 157/159/1 173/156/1
f 175/161/1 173/156/1 174/162/1
f 162/157/1 159/160/1 160/163/1
f 161/164/1 162/157/1 160/163/1
f 69/165/1 70/84/1 66/85/1
f 49/166/1 50/135/1 40/145/1
f 48/167/1 49/166/1 40/145/1
f 47/168/1 48/167/1 40/145/1
f 46/169/1 47/168/1 40/145/1
f 45/170/1 46/169/1 40/145/1
f 45/170/1 40/145/1 41/171/1
f 44/172/1 45/170/1 41/171/1
f 57/153/1 53/134/1 54/173/1
f 69/165/1 66/85/1 67/174/1
f 44/172/1 41/171/1 42/175/1
f 68/176/1 69/165/1 67/174/1
f 56/177/1 57/153/1 54/173/1
f 56/177/1 54/173/1 55/178/1
f 43/179/1 44/172/1 42/175/1
f 292/1/8 293/3/8 355/2/8
f 322/4/8 181/6/8 180/5/8
f 322/4/8 261/7/8 181/6/8
f 262/8/8 293/3/8 292/1/8
f 321/9/8 261/7/8 322/4/8
f 321/9/8 323/10/8 261/7/8
f 262/8/8 324/11/8 293/3/8
f 321/9/8 328/12/8 323/10/8
f 262/8/8 263/13/8 324/11/8
f 263/13/8 325/14/8 324/11/8
f 327/15/8 263/13/8 262/8/8
f 327/15/8 326/16/8 263/13/8
f 356/17/8 326/16/8 327/15/8
f 356/17/9 264/18/9 326/16/9
f 264/18/8 182/19/8 326/16/8
f 264/18/9 183/20/9 182/19/9
f 302/21/8 328/12/8 321/9/8
f 264/18/8 265/22/8 183/20/8
f 184/23/8 294/25/8 185/24/8
f 266/26/8 265/22/8 264/18/8
f 266/26/8 329/27/8 265/22/8
f 184/23/8 298/28/8 294/25/8
f 187/29/8 296/31/8 295/30/8
f 187/29/8 266/26/8 296/31/8
f 187/29/10 186/32/10 266/26/10
f 186/32/8 329/27/8 266/26/8
f 186/32/11 297/33/11 329/27/11
f 297/33/8 184/23/8 329/27/8
f 297/33/12 298/28/12 184/23/12
f 297/33/13 267/34/13 298/28/13
f 267/34/8 268/35/8 298/28/8
f 188/36/8 189/38/8 299/37/8
f 267/34/14 191/39/14 268/35/14
f 191/39/8 269/40/8 268/35/8
f 188/36/8 349/41/8 189/38/8
f 191/39/8 192/42/8 269/40/8
f 190/43/3 192/42/3 191/39/3
f 304/44/8 193/45/8 190/43/8
f 193/45/3 192/42/3 190/43/3
f 304/44/8 330/46/8 193/45/8
f 270/47/3 192/42/3 193/45/3
f 195/48/8 345/49/8 270/47/8
f 345/49/6 192/42/6 270/47/6
f 195/48/8 194/50/8 345/49/8
f 346/51/8 301/53/8 300/52/8
f 346/51/8 302/21/8 301/53/8
f 346/51/9 272/54/9 302/21/9
f 272/54/8 328/12/8 302/21/8
f 272/54/9 188/36/9 328/12/9
f 272/54/8 349/41/8 188/36/8
f 272/54/8 350/55/8 349/41/8
f 195/48/8 273/56/8 194/50/8
f 272/54/12 271/57/12 350/55/12
f 303/58/8 273/56/8 195/48/8
f 205/59/8 306/61/8 357/60/8
f 304/44/8 305/62/8 330/46/8
f 303/58/8 274/63/8 273/56/8
f 196/64/8 305/62/8 304/44/8
f 276/65/8 274/63/8 303/58/8
f 196/64/8 275/66/8 305/62/8
f 276/65/8 277/67/8 274/63/8
f 196/64/8 276/65/8 275/66/8
f 196/64/8 277/67/8 276/65/8
f 197/68/8 277/67/8 196/64/8
f 197/68/8 199/69/8 277/67/8
f 197/68/8 198/70/8 199/69/8
f 196/64/8 347/71/8 197/68/8
f 347/71/8 278/72/8 197/68/8
f 207/73/8 202/74/8 198/70/8
f 202/74/8 199/69/8 198/70/8
f 202/74/8 200/75/8 199/69/8
f 308/76/8 278/72/8 347/71/8
f 202/74/8 201/77/8 200/75/8
f 196/64/8 332/78/8 347/71/8
f 279/79/8 201/77/8 202/74/8
f 333/80/8 332/78/8 196/64/8
f 205/59/8 208/81/8 306/61/8
f 205/59/8 204/82/8 208/81/8
f 279/79/8 210/83/8 201/77/8
f 205/59/8 203/84/8 204/82/8
f 203/84/8 331/85/8 204/82/8
f 207/73/8 206/86/8 202/74/8
f 209/87/8 208/81/8 204/82/8
f 209/87/8 280/88/8 208/81/8
f 211/89/8 210/83/8 279/79/8
f 211/89/8 212/90/8 210/83/8
f 229/91/8 203/84/8 205/59/8
f 214/92/8 332/78/8 333/80/8
f 214/92/12 213/93/12 332/78/12
f 215/94/15 213/93/15 214/92/15
f 216/95/3 213/93/3 215/94/3
f 217/96/3 213/93/3 216/95/3
f 218/97/3 213/93/3 217/96/3
f 219/98/6 213/93/6 218/97/6
f 220/99/3 213/93/3 219/98/3
f 221/100/3 213/93/3 220/99/3
f 222/101/3 213/93/3 221/100/3
f 223/102/6 213/93/6 222/101/6
f 224/103/3 213/93/3 223/102/3
f 225/104/3 213/93/3 224/103/3
f 226/105/3 213/93/3 225/104/3
f 209/87/8 307/106/8 280/88/8
f 227/107/8 212/90/8 211/89/8
f 308/76/8 207/73/8 278/72/8
f 308/76/8 281/108/8 207/73/8
f 281/108/8 228/109/8 207/73/8
f 228/109/8 206/86/8 207/73/8
f 209/87/8 309/110/8 307/106/8
f 230/111/8 206/86/8 228/109/8
f 229/91/8 231/112/8 203/84/8
f 235/113/8 309/110/8 209/87/8
f 310/114/8 281/108/8 308/76/8
f 230/111/8 334/115/8 206/86/8
f 310/114/8 232/116/8 281/108/8
f 335/117/8 334/115/8 230/111/8
f 233/118/8 232/116/8 310/114/8
f 235/113/8 311/119/8 309/110/8
f 235/113/8 282/120/8 311/119/8
f 234/121/8 282/120/8 235/113/8
f 234/121/8 336/122/8 282/120/8
f 239/123/8 236/125/8 351/124/8
f 283/126/8 311/119/8 282/120/8
f 283/126/8 238/127/8 311/119/8
f 239/123/8 237/128/8 236/125/8
f 283/126/12 239/123/12 238/127/12
f 283/126/8 237/128/8 239/123/8
f 229/91/8 242/129/8 231/112/8
f 243/130/8 242/129/8 229/91/8
f 241/131/8 237/128/8 283/126/8
f 241/131/8 240/132/8 237/128/8
f 240/132/8 352/133/8 237/128/8
f 283/126/8 284/134/8 241/131/8
f 286/135/8 285/136/8 240/132/8
f 285/136/8 352/133/8 240/132/8
f 312/137/8 284/134/8 283/126/8
f 244/138/8 245/140/8 337/139/8
f 244/138/8 338/141/8 245/140/8
f 288/142/8 354/144/8 353/143/8
f 286/135/8 255/145/8 285/136/8
f 288/142/8 244/138/8 354/144/8
f 288/142/8 338/141/8 244/138/8
f 313/146/8 338/141/8 288/142/8
f 313/146/8 348/147/8 338/141/8
f 348/147/8 316/148/8 338/141/8
f 288/142/8 314/149/8 313/146/8
f 248/150/8 317/151/8 348/147/8
f 317/151/8 316/148/8 348/147/8
f 287/152/8 314/149/8 288/142/8
f 315/153/8 284/134/8 312/137/8
f 246/154/8 242/129/8 243/130/8
f 246/154/8 339/155/8 242/129/8
f 248/150/8 247/156/8 317/151/8
f 250/157/8 314/149/8 287/152/8
f 250/157/8 341/158/8 314/149/8
f 341/158/8 248/150/8 314/149/8
f 341/158/8 340/159/8 248/150/8
f 340/159/8 247/156/8 248/150/8
f 250/157/8 249/160/8 341/158/8
f 253/161/8 247/156/8 340/159/8
f 253/161/8 252/162/8 247/156/8
f 250/157/8 251/163/8 249/160/8
f 254/164/8 251/163/8 250/157/8
f 258/165/8 331/85/8 203/84/8
f 342/166/8 255/145/8 286/135/8
f 343/167/8 255/145/8 342/166/8
f 318/168/8 255/145/8 343/167/8
f 256/169/8 255/145/8 318/168/8
f 319/170/8 255/145/8 256/169/8
f 319/170/8 320/171/8 255/145/8
f 358/172/8 320/171/8 319/170/8
f 315/153/8 290/173/8 284/134/8
f 258/165/8 257/174/8 331/85/8
f 358/172/8 259/175/8 320/171/8
f 289/176/8 257/174/8 258/165/8
f 344/177/8 290/173/8 315/153/8
f 344/177/8 291/178/8 290/173/8
f 260/179/8 259/175/8 358/172/8
f 145/62/16 152/46/16 330/46/16 305/62/16
f 48/167/17 47/168/17 318/168/17 343/167/17
f 160/163/18 159/160/18 249/160/18 251/163/18
f 62/121/19 61/122/19 336/122/19 234/121/19
f 151/45/6 150/47/6 270/47/6 193/45/6
f 146/66/20 145/62/20 305/62/20 275/66/20
f 175/161/21 174/162/21 252/162/21 253/161/21
f 118/35/22 117/28/22 298/28/22 268/35/22
f 35/124/23 34/123/23 239/123/23 351/124/23
f 13/53/24 12/52/24 300/52/24 301/53/24
f 126/69/25 125/67/25 277/67/25 199/69/25
f 44/172/26 43/179/26 260/179/26 358/172/26
f 162/157/27 161/164/27 254/164/27 250/157/27
f 120/42/28 119/40/28 269/40/28 192/42/28
f 60/120/29 59/126/29 283/126/29 282/120/29
f 14/21/30 13/53/30 301/53/30 302/21/30
f 105/3/31 104/2/31 355/2/31 293/3/31
f 152/46/32 151/45/32 193/45/32 330/46/32
f 18/6/33 17/5/33 180/5/33 181/6/33
f 123/56/34 122/50/34 194/50/34 273/56/34
f 20/10/35 19/7/35 261/7/35 323/10/35
f 111/20/36 110/19/36 182/19/36 183/20/36
f 149/48/37 148/58/37 303/58/37 195/48/37
f 102/8/38 101/15/38 327/15/38 262/8/38
f 43/179/39 42/175/39 259/175/39 260/179/39
f 38/133/40 37/128/40 237/128/40 352/133/40
f 115/24/41 114/23/41 184/23/41 185/24/41
f 71/71/42 144/76/42 308/76/42 347/71/42
f 19/7/43 18/6/43 181/6/43 261/7/43
f 165/143/44 164/142/44 288/142/44 353/143/44
f 95/29/45 94/32/45 186/32/45 187/29/45
f 89/44/46 88/64/46 196/64/46 304/44/46
f 129/83/47 128/77/47 201/77/47 210/83/47
f 86/92/48 85/94/48 215/94/48 214/92/48
f 110/19/49 109/16/49 326/16/49 182/19/49
f 91/39/6 90/43/6 190/43/6 191/39/6
f 78/101/6 77/102/6 223/102/6 222/101/6
f 99/18/50 98/26/50 266/26/50 264/18/50
f 134/74/51 133/79/51 279/79/51 202/74/51
f 132/89/52 131/107/52 227/107/52 211/89/52
f 92/34/53 91/39/53 191/39/53 267/34/53
f 66/85/54 65/82/54 204/82/54 331/85/54
f 90/43/55 89/44/55 304/44/55 190/43/55
f 177/147/56 176/150/56 248/150/56 348/147/56
f 28/81/57 27/61/57 306/61/57 208/81/57
f 163/152/58 162/157/58 250/157/58 287/152/58
f 84/95/6 83/96/6 217/96/6 216/95/6
f 2/129/59 1/112/59 231/112/59 242/129/59
f 27/61/60 8/60/60 357/60/60 306/61/60
f 155/68/6 154/70/6 198/70/6 197/68/6
f 76/103/6 75/104/6 225/104/6 224/103/6
f 169/140/61 168/139/61 337/139/61 245/140/61
f 154/70/56 153/73/56 207/73/56 198/70/56
f 150/47/62 149/48/62 195/48/62 270/47/62
f 176/150/3 179/149/3 314/149/3 248/150/3
f 127/75/63 126/69/63 199/69/63 200/75/63
f 10/54/64 9/57/64 271/57/64 272/54/64
f 85/94/6 84/95/6 216/95/6 215/94/6
f 171/148/65 170/141/65 338/141/65 316/148/65
f 128/77/66 127/75/66 200/75/66 201/77/66
f 124/63/67 123/56/67 273/56/67 274/63/67
f 77/102/6 76/103/6 224/103/6 223/102/6
f 54/173/68 53/134/68 284/134/68 290/173/68
f 4/154/69 3/155/69 339/155/69 246/154/69
f 135/86/70 134/74/70 202/74/70 206/86/70
f 147/65/71 146/66/71 275/66/71 276/65/71
f 57/153/72 56/177/72 344/177/72 315/153/72
f 7/59/73 6/91/73 229/91/73 205/59/73
f 104/2/74 103/1/74 292/1/74 355/2/74
f 144/76/75 143/114/75 310/114/75 308/76/75
f 87/80/76 86/92/76 214/92/76 333/80/76
f 156/72/77 155/68/77 197/68/77 278/72/77
f 136/115/78 135/86/78 206/86/78 334/115/78
f 17/5/79 16/4/79 322/4/79 180/5/79
f 32/119/80 31/110/80 309/110/80 311/119/80
f 138/111/81 137/117/81 335/117/81 230/111/81
f 103/1/82 102/8/82 262/8/82 292/1/82
f 159/160/83 158/158/83 341/158/83 249/160/83
f 73/93/84 72/78/84 332/78/84 213/93/84
f 61/122/85 60/120/85 282/120/85 336/122/85
f 130/90/86 129/83/86 210/83/86 212/90/86
f 81/98/6 80/99/6 220/99/6 219/98/6
f 33/127/87 32/119/87 311/119/87 238/127/87
f 101/15/88 100/17/88 356/17/88 327/15/88
f 157/159/89 175/161/89 253/161/89 340/159/89
f 30/106/90 29/88/90 280/88/90 307/106/90
f 40/145/91 39/136/91 285/136/91 255/145/91
f 153/73/3 156/72/3 278/72/3 207/73/3
f 65/82/92 64/87/92 209/87/92 204/82/92
f 168/139/93 167/138/93 244/138/93 337/139/93
f 100/17/94 99/18/94 264/18/94 356/17/94
f 64/87/95 63/113/95 235/113/95 209/87/95
f 29/88/96 28/81/96 208/81/96 280/88/96
f 83/96/6 82/97/6 218/97/6 217/96/6
f 75/104/6 74/105/6 226/105/6 225/104/6
f 3/155/97 2/129/97 242/129/97 339/155/97
f 82/97/6 81/98/6 219/98/6 218/97/6
f 58/137/98 57/153/98 315/153/98 312/137/98
f 96/30/99 95/29/99 187/29/99 295/30/99
f 140/108/100 139/109/100 228/109/100 281/108/100
f 158/158/101 157/159/101 340/159/101 341/158/101
f 172/151/102 171/148/102 316/148/102 317/151/102
f 9/57/103 26/55/103 350/55/103 271/57/103
f 161/164/104 160/163/104 251/163/104 254/164/104
f 8/60/105 7/59/105 205/59/105 357/60/105
f 47/168/106 46/169/106 256/169/106 318/168/106
f 25/41/107 24/38/107 189/38/107 349/41/107
f 6/91/108 5/130/108 243/130/108 229/91/108
f 70/84/109 69/165/109 258/165/109 203/84/109
f 148/58/110 147/65/110 276/65/110 303/58/110
f 51/132/111 50/135/111 286/135/111 240/132/111
f 41/171/112 40/145/112 255/145/112 320/171/112
f 59/126/113 58/137/113 312/137/113 283/126/113
f 42/175/114 41/171/114 320/171/114 259/175/114
f 122/50/115 121/49/115 345/49/115 194/50/115
f 166/144/116 165/143/116 353/143/116 354/144/116
f 16/4/117 15/9/117 321/9/117 322/4/117
f 12/52/118 11/51/118 346/51/118 300/52/118
f 53/134/119 52/131/119 241/131/119 284/134/119
f 56/177/120 55/178/120 291/178/120 344/177/120
f 88/64/121 87/80/121 333/80/121 196/64/121
f 74/105/6 73/93/6 213/93/6 226/105/6
f 179/149/77 178/146/77 313/146/77 314/149/77
f 131/107/122 130/90/122 212/90/122 227/107/122
f 21/12/123 20/10/123 323/10/123 328/12/123
f 80/99/6 79/100/6 221/100/6 220/99/6
f 106/11/124 105/3/124 293/3/124 324/11/124
f 22/36/125 21/12/125 328/12/125 188/36/125
f 164/142/126 163/152/126 287/152/126 288/142/126
f 108/13/127 107/14/127 325/14/127 263/13/127
f 173/156/128 172/151/128 317/151/128 247/156/128
f 139/109/129 138/111/129 230/111/129 228/109/129
f 68/176/130 67/174/130 257/174/130 289/176/130
f 141/116/131 140/108/131 281/108/131 232/116/131
f 1/112/132 70/84/132 203/84/132 231/112/132
f 107/14/133 106/11/133 324/11/133 325/14/133
f 26/55/134 25/41/134 349/41/134 350/55/134
f 174/162/135 173/156/135 247/156/135 252/162/135
f 55/178/136 54/173/136 290/173/136 291/178/136
f 24/38/137 23/37/137 299/37/137 189/38/137
f 143/114/138 142/118/138 233/118/138 310/114/138
f 142/118/139 141/116/139 232/116/139 233/118/139
f 109/16/140 108/13/140 263/13/140 326/16/140
f 125/67/141 124/63/141 274/63/141 277/67/141
f 46/169/142 45/170/142 319/170/142 256/169/142
f 94/32/143 93/33/143 297/33/143 186/32/143
f 36/125/144 35/124/144 351/124/144 236/125/144
f 63/113/145 62/121/145 234/121/145 235/113/145
f 45/170/146 44/172/146 358/172/146 319/170/146
f 112/22/147 111/20/147 183/20/147 265/22/147
f 37/128/148 36/125/148 236/125/148 237/128/148
f 15/9/149 14/21/149 302/21/149 321/9/149
f 116/25/150 115/24/150 185/24/150 294/25/150
f 39/136/151 38/133/151 352/133/151 285/136/151
f 34/123/152 33/127/152 238/127/152 239/123/152
f 97/31/153 96/30/153 295/30/153 296/31/153
f 170/141/154 169/140/154 245/140/154 338/141/154
f 52/131/6 51/132/6 240/132/6 241/131/6
f 72/78/155 71/71/155 347/71/155 332/78/155
f 67/174/156 66/85/156 331/85/156 257/174/156
f 98/26/157 97/31/157 296/31/157 266/26/157
f 121/49/6 120/42/6 192/42/6 345/49/6
f 167/138/158 166/144/158 354/144/158 244/138/158
f 113/27/159 112/22/159 265/22/159 329/27/159
f 93/33/160 92/34/160 267/34/160 297/33/160
f 11/51/161 10/54/161 272/54/161 346/51/161
f 178/146/6 177/147/6 348/147/6 313/146/6
f 117/28/162 116/25/162 294/25/162 298/28/162
f 133/79/163 132/89/163 211/89/163 279/79/163
f 69/165/164 68/176/164 289/176/164 258/165/164
f 5/130/165 4/154/165 246/154/165 243/130/165
f 79/100/6 78/101/6 222/101/6 221/100/6
f 50/135/166 49/166/166 342/166/166 286/135/166
f 114/23/167 113/27/167 329/27/167 184/23/167
f 31/110/168 30/106/168 307/106/168 309/110/168
f 23/37/169 22/36/169 188/36/169 299/37/169
f 49/166/170 48/167/170 343/167/170 342/166/170
f 137/117/171 136/115/171 334/115/171 335/117/171
f 119/40/172 118/35/172 268/35/172 269/40/172
