# Blender 4.2.0
# www.blender.org
mtllib moji_hashira.mtl
o Text
v -0.106841 0.000000 0.018919
v -0.124182 0.000000 0.040981
v -0.135705 0.000000 0.052060
v -0.137703 0.000000 0.050287
v -0.128191 0.000000 0.032441
v -0.111510 0.000000 -0.009305
v -0.099539 0.000000 -0.052497
v -0.095550 0.000000 -0.072804
v -0.110525 0.000000 -0.072804
v -0.031201 0.000000 -0.073520
v -0.129916 0.000000 -0.071475
v -0.133290 0.000000 -0.081821
v -0.117650 0.000000 -0.079633
v -0.092698 0.000000 -0.079507
v -0.092788 0.000000 -0.123794
v -0.094037 0.000000 -0.147311
v -0.067839 0.000000 -0.144556
v -0.059961 0.000000 -0.142481
v -0.057365 0.000000 -0.138944
v -0.059524 0.000000 -0.134882
v -0.067450 0.000000 -0.129801
v -0.066306 0.000000 -0.079140
v -0.056298 0.000000 -0.093547
v -0.051129 0.000000 -0.097155
v -0.037755 0.000000 -0.086020
v -0.030608 0.000000 -0.077120
v -0.034370 0.000000 -0.072804
v -0.067598 0.000000 -0.072804
v -0.067598 0.000000 -0.043853
v -0.053952 0.000000 -0.038036
v -0.038384 0.000000 -0.025747
v -0.033570 0.000000 -0.014500
v -0.033215 0.000000 -0.005932
v -0.035429 0.000000 -0.000632
v -0.039567 0.000000 0.003346
v -0.045300 0.000000 0.004993
v -0.052370 0.000000 0.003332
v -0.055457 0.000000 -0.002608
v -0.057235 0.000000 -0.014544
v -0.061641 0.000000 -0.028980
v -0.067588 0.000000 -0.038643
v -0.066656 0.000000 0.114451
v -0.069474 0.000000 0.118803
v -0.075709 0.000000 0.121325
v -0.088399 0.000000 0.121158
v -0.093270 0.000000 0.115889
v -0.090746 0.000000 -0.014898
v 0.021677 0.000000 0.098759
v 0.021677 0.000000 0.009341
v -0.009840 0.000000 0.009341
v -0.010907 0.000000 0.009353
v -0.014782 0.000000 0.009536
v -0.025394 0.000000 0.010995
v -0.028468 0.000000 0.000467
v -0.015938 0.000000 0.002517
v 0.021677 0.000000 0.002638
v 0.021677 0.000000 -0.071948
v -0.008699 0.000000 -0.071948
v -0.010326 0.000000 -0.071925
v -0.014470 0.000000 -0.071684
v -0.024824 0.000000 -0.070294
v -0.027895 0.000000 -0.080820
v -0.015254 0.000000 -0.078773
v 0.081518 0.000000 -0.078696
v 0.099167 0.000000 -0.097640
v 0.103546 0.000000 -0.096424
v 0.117287 0.000000 -0.085573
v 0.126124 0.000000 -0.075735
v 0.124664 0.000000 -0.072307
v 0.122076 0.000000 -0.071948
v 0.048774 0.000000 -0.071948
v 0.048774 0.000000 0.002638
v 0.072821 0.000000 0.002591
v 0.089447 0.000000 -0.015484
v 0.093830 0.000000 -0.014326
v 0.112785 0.000000 0.000878
v 0.116063 0.000000 0.006920
v 0.114442 0.000000 0.009056
v 0.112094 0.000000 0.009341
v 0.048774 0.000000 0.009341
v 0.048774 0.000000 0.098759
v 0.088350 0.000000 0.098708
v 0.106015 0.000000 0.078933
v 0.112352 0.000000 0.081028
v 0.131143 0.000000 0.096822
v 0.134854 0.000000 0.102595
v 0.133054 0.000000 0.105256
v -0.037471 0.000000 0.105542
v -0.049638 0.000000 0.107119
v -0.052714 0.000000 0.096584
v -0.039697 0.000000 0.098639
v 0.059037 0.000000 -0.110266
v 0.057273 0.000000 -0.100384
v 0.049179 0.000000 -0.092919
v 0.039339 0.000000 -0.092267
v 0.033965 0.000000 -0.095243
v 0.029521 0.000000 -0.102187
v 0.017457 0.000000 -0.127080
v 0.001492 0.000000 -0.141902
v 0.001881 0.000000 -0.144377
v 0.025568 0.000000 -0.139664
v 0.048268 0.000000 -0.129149
v 0.056616 0.000000 -0.119137
v -0.106841 1.000000 0.018919
v -0.124182 1.000000 0.040981
v -0.135705 1.000000 0.052060
v -0.137703 1.000000 0.050287
v -0.128191 1.000000 0.032441
v -0.111510 1.000000 -0.009305
v -0.099539 1.000000 -0.052497
v -0.095550 1.000000 -0.072804
v -0.110525 1.000000 -0.072804
v -0.031201 1.000000 -0.073520
v -0.129916 1.000000 -0.071475
v -0.133290 1.000000 -0.081821
v -0.117650 1.000000 -0.079633
v -0.092698 1.000000 -0.079507
v -0.092788 1.000000 -0.123794
v -0.094037 1.000000 -0.147311
v -0.067839 1.000000 -0.144556
v -0.059961 1.000000 -0.142481
v -0.057365 1.000000 -0.138944
v -0.059524 1.000000 -0.134882
v -0.067450 1.000000 -0.129801
v -0.066306 1.000000 -0.079140
v -0.056298 1.000000 -0.093547
v -0.051129 1.000000 -0.097155
v -0.037755 1.000000 -0.086020
v -0.030608 1.000000 -0.077120
v -0.034370 1.000000 -0.072804
v -0.067598 1.000000 -0.072804
v -0.067598 1.000000 -0.043853
v -0.053952 1.000000 -0.038036
v -0.038384 1.000000 -0.025747
v -0.033570 1.000000 -0.014500
v -0.033215 1.000000 -0.005932
v -0.035429 1.000000 -0.000632
v -0.039567 1.000000 0.003346
v -0.045300 1.000000 0.004993
v -0.052370 1.000000 0.003332
v -0.055457 1.000000 -0.002608
v -0.057235 1.000000 -0.014544
v -0.061641 1.000000 -0.028980
v -0.067588 1.000000 -0.038643
v -0.066656 1.000000 0.114451
v -0.069474 1.000000 0.118803
v -0.075709 1.000000 0.121325
v -0.088399 1.000000 0.121158
v -0.093270 1.000000 0.115889
v -0.090746 1.000000 -0.014898
v 0.021677 1.000000 0.098759
v 0.021677 1.000000 0.009341
v -0.009840 1.000000 0.009341
v -0.010907 1.000000 0.009353
v -0.014782 1.000000 0.009536
v -0.025394 1.000000 0.010995
v -0.028468 1.000000 0.000467
v -0.015938 1.000000 0.002517
v 0.021677 1.000000 0.002638
v 0.021677 1.000000 -0.071948
v -0.008699 1.000000 -0.071948
v -0.010326 1.000000 -0.071925
v -0.014470 1.000000 -0.071684
v -0.024824 1.000000 -0.070294
v -0.027895 1.000000 -0.080820
v -0.015254 1.000000 -0.078773
v 0.081518 1.000000 -0.078696
v 0.099167 1.000000 -0.097640
v 0.103546 1.000000 -0.096424
v 0.117287 1.000000 -0.085573
v 0.126124 1.000000 -0.075735
v 0.124664 1.000000 -0.072307
v 0.122076 1.000000 -0.071948
v 0.048774 1.000000 -0.071948
v 0.048774 1.000000 0.002638
v 0.072821 1.000000 0.002591
v 0.089447 1.000000 -0.015484
v 0.093830 1.000000 -0.014326
v 0.112785 1.000000 0.000878
v 0.116063 1.000000 0.006920
v 0.114442 1.000000 0.009056
v 0.112094 1.000000 0.009341
v 0.048774 1.000000 0.009341
v 0.048774 1.000000 0.098759
v 0.088350 1.000000 0.098708
v 0.106015 1.000000 0.078933
v 0.112352 1.000000 0.081028
v 0.131143 1.000000 0.096822
v 0.134854 1.000000 0.102595
v 0.133054 1.000000 0.105256
v -0.037471 1.000000 0.105542
v -0.049638 1.000000 0.107119
v -0.052714 1.000000 0.096584
v -0.039697 1.000000 0.098639
v 0.059037 1.000000 -0.110266
v 0.057273 1.000000 -0.100384
v 0.049179 1.000000 -0.092919
v 0.039339 1.000000 -0.092267
v 0.033965 1.000000 -0.095243
v 0.029521 1.000000 -0.102187
v 0.017457 1.000000 -0.127080
v 0.001492 1.000000 -0.141902
v 0.001881 1.000000 -0.144377
v 0.025568 1.000000 -0.139664
v 0.048268 1.000000 -0.129149
v 0.056616 1.000000 -0.119137
vn -0.0000 -1.0000 -0.0000
vn -0.0000 1.0000 -0.0000
vn 0.3922 -0.0000 -0.9199
vn -0.8213 -0.0000 -0.5705
vn 0.7966 -0.0000 0.6045
vn 0.7797 -0.0000 -0.6261
vn 0.1205 -0.0000 0.9927
vn 0.7439 -0.0000 -0.6683
vn -0.0000 -0.0000 1.0000
vn 1.0000 -0.0000 -0.0061
vn -0.9507 -0.0000 0.3101
vn -0.9637 -0.0000 -0.2671
vn -1.0000 -0.0000 -0.0000
vn -0.8516 -0.0000 0.5242
vn -0.9600 -0.0000 0.2801
vn 0.1046 -0.0000 -0.9945
vn 0.6196 -0.0000 -0.7849
vn 0.1385 -0.0000 -0.9904
vn 0.2546 -0.0000 -0.9670
vn 0.1951 -0.0000 -0.9808
vn -0.9565 -0.0000 0.2919
vn 0.1598 -0.0000 -0.9871
vn 1.0000 -0.0000 -0.0000
vn -0.9879 -0.0000 -0.1553
vn 0.0051 -0.0000 -1.0000
vn -0.9286 -0.0000 -0.3711
vn 0.9193 -0.0000 -0.3935
vn 0.7862 -0.0000 0.6180
vn 0.8063 -0.0000 -0.5915
vn 0.9991 -0.0000 -0.0414
vn 0.1331 -0.0000 0.9911
vn -0.6804 -0.0000 0.7329
vn -0.8825 -0.0000 -0.4704
vn 0.2555 -0.0000 -0.9668
vn 0.0008 -0.0000 -1.0000
vn -0.9986 -0.0000 0.0531
vn 0.6931 -0.0000 0.7209
vn 0.6257 -0.0000 -0.7801
vn 0.0581 -0.0000 0.9983
vn -0.6637 -0.0000 0.7480
vn 0.8831 -0.0000 0.4693
vn -0.9891 -0.0000 0.1474
vn 0.3138 -0.0000 -0.9495
vn 0.4203 -0.0000 -0.9074
vn -0.7458 -0.0000 -0.6662
vn -0.7360 -0.0000 -0.6770
vn 0.0207 -0.0000 0.9998
vn -0.9998 -0.0000 -0.0193
vn 0.5397 -0.0000 0.8419
vn 0.9867 -0.0000 0.1624
vn 0.9997 -0.0000 -0.0226
vn 0.9228 -0.0000 0.3853
vn -0.0090 -0.0000 -1.0000
vn 0.6434 -0.0000 -0.7655
vn 0.0142 -0.0000 0.9999
vn 0.7681 -0.0000 -0.6404
vn -0.8873 -0.0000 0.4612
vn -0.9599 -0.0000 0.2803
vn 0.9029 -0.0000 0.4298
vn -0.8999 -0.0000 0.4361
vn 0.9200 -0.0000 0.3919
vn 0.1559 -0.0000 -0.9878
vn 0.1285 -0.0000 0.9917
vn 0.9647 -0.0000 -0.2632
vn 0.6930 -0.0000 0.7210
vn 0.2203 -0.0000 0.9754
vn 0.0020 -0.0000 -1.0000
vn 0.1615 -0.0000 -0.9869
vn -1.0000 -0.0000 0.0020
vn 0.0032 -0.0000 -1.0000
vn -0.9813 -0.0000 -0.1927
vn -0.0013 -0.0000 -1.0000
vn 0.9844 -0.0000 0.1757
vn 0.1361 -0.0000 0.9907
vn -0.8423 -0.0000 0.5391
vn -0.0020 -0.0000 -1.0000
vn 0.8412 -0.0000 -0.5407
vn 0.6780 -0.0000 0.7351
vn 0.1373 -0.0000 0.9905
vn 0.0017 -0.0000 1.0000
vn -0.5723 -0.0000 -0.8200
vn 0.8283 -0.0000 0.5603
vn 0.2676 -0.0000 -0.9635
vn -0.2288 -0.0000 0.9735
vn 0.8394 -0.0000 0.5436
vn -0.4845 -0.0000 0.8748
vn 0.2762 -0.0000 0.9611
vn 0.0661 -0.0000 0.9978
vn 0.0473 -0.0000 0.9989
vn -0.7342 -0.0000 0.6789
vn 0.6197 -0.0000 -0.7848
vn 0.3750 -0.0000 0.9270
vn 0.6398 -0.0000 -0.7685
vn 0.8790 -0.0000 -0.4769
vn -0.0131 -0.0000 0.9999
vn -0.7317 -0.0000 -0.6816
vn 0.0111 -0.0000 0.9999
vt 0.191050 0.000000
vt 0.204947 0.000000
vt 0.216145 0.000000
vt 0.954483 0.000000
vt 0.974766 0.000000
vt 0.987276 0.000000
vt 0.227263 0.000000
vt 0.936850 0.000000
vt 0.178637 0.000000
vt 0.236127 0.000000
vt 0.993444 0.000000
vt 0.246485 0.000000
vt 0.249162 0.000000
vt 0.997727 0.000000
vt 0.919908 0.000000
vt 0.915183 0.000000
vt 0.171032 0.000000
vt 0.864568 0.000000
vt 0.907628 0.000000
vt 0.880444 0.000000
vt 0.896329 0.000000
vt 0.597759 0.000000
vt 0.604783 0.000000
vt 0.617352 0.000000
vt 0.260198 0.000000
vt 0.268632 0.000000
vt 0.285848 0.000000
vt 0.580854 0.000000
vt 0.301656 0.000000
vt 0.634830 0.000000
vt 0.149294 0.000000
vt 0.151059 0.000000
vt 0.164145 0.000000
vt 0.559322 0.000000
vt 0.560942 0.000000
vt 0.573917 0.000000
vt 0.548303 0.000000
vt 0.543096 0.000000
vt 0.312285 0.000000
vt 0.540832 0.000000
vt 0.646957 0.000000
vt 0.130971 0.000000
vt 0.314050 0.000000
vt 0.323575 0.000000
vt 0.129430 0.000000
vt 0.123313 0.000000
vt 0.325116 0.000000
vt 0.326656 0.000000
vt 0.654854 0.000000
vt 0.539291 0.000000
vt 0.537750 0.000000
vt 0.656394 0.000000
vt 0.657935 0.000000
vt 0.330801 0.000000
vt 0.419136 0.000000
vt -0.008344 0.000000
vt 0.423370 0.000000
vt 0.110597 0.000000
vt 0.412440 0.000000
vt 0.337740 0.000000
vt 0.404613 0.000000
vt 0.342824 0.000000
vt 0.349824 0.000000
vt 0.676248 0.000000
vt 0.683386 0.000000
vt 0.703889 0.000000
vt 0.397507 0.000000
vt 0.659437 0.000000
vt 0.358987 0.000000
vt 0.389768 0.000000
vt 0.015433 0.000000
vt 0.369152 0.000000
vt 0.516178 0.000000
vt 0.517797 0.000000
vt 0.530815 0.000000
vt 0.504308 0.000000
vt 0.380212 0.000000
vt 0.499230 0.000000
vt 0.716544 0.000000
vt 0.497689 0.000000
vt 0.726442 0.000000
vt 0.733436 0.000000
vt 0.496148 0.000000
vt 0.494607 0.000000
vt 0.734977 0.000000
vt 0.736518 0.000000
vt 0.098356 0.000000
vt 0.029722 0.000000
vt 0.079458 0.000000
vt 0.052205 0.000000
vt 0.738021 0.000000
vt 0.754815 0.000000
vt 0.763372 0.000000
vt 0.454777 0.000000
vt 0.781847 0.000000
vt 0.832049 0.000000
vt 0.833660 0.000000
vt 0.846718 0.000000
vt 0.818524 0.000000
vt 0.794029 0.000000
vt 0.805474 0.000000
vt 0.428897 0.000000
vt 0.445705 0.000000
vt 0.434906 0.000000
s 0
usemtl Material.002
f 16/1/1 17/2/1 18/3/1
f 99/4/1 100/5/1 101/6/1
f 16/1/1 18/3/1 19/7/1
f 98/8/1 99/4/1 101/6/1
f 15/9/1 16/1/1 19/7/1
f 15/9/1 19/7/1 20/10/1
f 98/8/1 101/6/1 102/11/1
f 15/9/1 20/10/1 21/12/1
f 15/9/1 21/12/1 22/13/1
f 98/8/1 102/11/1 103/14/1
f 97/15/1 98/8/1 103/14/1
f 97/15/1 103/14/1 92/16/1
f 14/17/1 15/9/1 22/13/1
f 97/15/1 92/16/1 93/18/1
f 96/19/1 97/15/1 93/18/1
f 96/19/1 93/18/1 94/20/1
f 95/21/1 96/19/1 94/20/1
f 65/22/1 66/23/1 67/24/1
f 23/25/1 24/26/1 25/27/1
f 64/28/1 65/22/1 67/24/1
f 22/13/1 23/25/1 25/27/1
f 22/13/1 25/27/1 26/29/1
f 64/28/1 67/24/1 68/30/1
f 11/31/1 12/32/1 13/33/1
f 61/34/1 62/35/1 63/36/1
f 11/31/1 13/33/1 14/17/1
f 11/31/1 14/17/1 22/13/1
f 11/31/1 22/13/1 26/29/1
f 61/34/1 63/36/1 60/37/1
f 60/37/1 63/36/1 64/28/1
f 60/37/1 64/28/1 59/38/1
f 59/38/1 64/28/1 68/30/1
f 11/31/1 26/29/1 10/39/1
f 59/38/1 68/30/1 58/40/1
f 58/40/1 68/30/1 69/41/1
f 9/42/1 10/43/1 27/44/1
f 8/45/2 9/42/2 27/44/2
f 7/46/1 8/45/1 28/47/1
f 28/47/2 8/45/2 27/44/2
f 7/46/1 28/47/1 29/48/1
f 58/40/1 69/41/1 70/49/1
f 57/50/2 58/40/2 70/49/2
f 56/51/1 57/50/1 71/52/1
f 71/52/2 57/50/2 70/49/2
f 56/51/1 71/52/1 72/53/1
f 7/46/1 29/48/1 30/54/1
f 7/46/1 30/54/1 41/55/1
f 7/46/1 41/55/1 47/56/1
f 47/56/1 41/55/1 42/57/1
f 6/58/1 7/46/1 47/56/1
f 40/59/1 41/55/1 30/54/1
f 40/59/1 30/54/1 31/60/1
f 39/61/1 40/59/1 31/60/1
f 39/61/1 31/60/1 32/62/1
f 39/61/1 32/62/1 33/63/1
f 74/64/1 75/65/1 76/66/1
f 38/67/1 39/61/1 33/63/1
f 73/68/1 74/64/1 76/66/1
f 38/67/1 33/63/1 34/69/1
f 37/70/1 38/67/1 34/69/1
f 6/58/1 47/56/1 1/71/1
f 37/70/1 34/69/1 35/72/1
f 53/73/1 54/74/1 55/75/1
f 53/73/1 55/75/1 56/51/1
f 53/73/1 56/51/1 52/76/1
f 52/76/1 56/51/1 72/53/1
f 52/76/1 72/53/1 73/68/1
f 52/76/1 73/68/1 76/66/1
f 37/70/1 35/72/1 36/77/1
f 52/76/1 76/66/1 51/78/1
f 51/78/1 76/66/1 77/79/1
f 51/78/1 77/79/1 50/80/1
f 50/80/1 77/79/1 78/81/1
f 50/80/1 78/81/1 79/82/1
f 49/83/2 50/80/2 79/82/2
f 48/84/1 49/83/1 80/85/1
f 80/85/2 49/83/2 79/82/2
f 48/84/1 80/85/1 81/86/1
f 5/87/1 6/58/1 1/71/1
f 5/87/1 1/71/1 2/88/1
f 4/89/1 5/87/1 2/88/1
f 4/89/1 2/88/1 3/90/1
f 82/91/1 83/92/1 84/93/1
f 46/94/1 47/56/1 42/57/1
f 82/91/1 84/93/1 85/95/1
f 89/96/1 90/97/1 91/98/1
f 89/96/1 91/98/1 88/99/1
f 88/99/1 91/98/1 48/84/1
f 88/99/1 48/84/1 81/86/1
f 88/99/1 81/86/1 82/91/1
f 88/99/1 82/91/1 85/95/1
f 88/99/1 85/95/1 86/100/1
f 88/99/1 86/100/1 87/101/1
f 46/94/1 42/57/1 43/102/1
f 45/103/1 46/94/1 43/102/1
f 45/103/1 43/102/1 44/104/1
f 119/1/2 121/3/2 120/2/2
f 202/4/2 204/6/2 203/5/2
f 119/1/2 122/7/2 121/3/2
f 201/8/2 204/6/2 202/4/2
f 118/9/2 122/7/2 119/1/2
f 118/9/2 123/10/2 122/7/2
f 201/8/2 205/11/2 204/6/2
f 118/9/2 124/12/2 123/10/2
f 118/9/2 125/13/2 124/12/2
f 201/8/2 206/14/2 205/11/2
f 200/15/2 206/14/2 201/8/2
f 200/15/2 195/16/2 206/14/2
f 117/17/2 125/13/2 118/9/2
f 200/15/2 196/18/2 195/16/2
f 199/19/2 196/18/2 200/15/2
f 199/19/2 197/20/2 196/18/2
f 198/21/2 197/20/2 199/19/2
f 168/22/2 170/24/2 169/23/2
f 126/25/2 128/27/2 127/26/2
f 167/28/2 170/24/2 168/22/2
f 125/13/2 128/27/2 126/25/2
f 125/13/2 129/29/2 128/27/2
f 167/28/2 171/30/2 170/24/2
f 114/31/2 116/33/2 115/32/2
f 164/34/2 166/36/2 165/35/2
f 114/31/2 117/17/2 116/33/2
f 114/31/2 125/13/2 117/17/2
f 114/31/2 129/29/2 125/13/2
f 164/34/2 163/37/2 166/36/2
f 163/37/2 167/28/2 166/36/2
f 163/37/2 162/38/2 167/28/2
f 162/38/2 171/30/2 167/28/2
f 114/31/2 113/39/2 129/29/2
f 162/38/2 161/40/2 171/30/2
f 161/40/2 172/41/2 171/30/2
f 112/42/2 130/44/2 113/43/2
f 111/45/2 130/44/2 112/42/2
f 110/46/2 131/47/2 111/45/2
f 131/47/2 130/44/2 111/45/2
f 110/46/2 132/48/2 131/47/2
f 161/40/2 173/49/2 172/41/2
f 160/50/1 173/49/1 161/40/1
f 159/51/2 174/52/2 160/50/2
f 174/52/2 173/49/2 160/50/2
f 159/51/2 175/53/2 174/52/2
f 110/46/2 133/54/2 132/48/2
f 110/46/2 144/55/2 133/54/2
f 110/46/2 150/56/2 144/55/2
f 150/56/2 145/57/2 144/55/2
f 109/58/2 150/56/2 110/46/2
f 143/59/2 133/54/2 144/55/2
f 143/59/2 134/60/2 133/54/2
f 142/61/2 134/60/2 143/59/2
f 142/61/2 135/62/2 134/60/2
f 142/61/2 136/63/2 135/62/2
f 177/64/2 179/66/2 178/65/2
f 141/67/2 136/63/2 142/61/2
f 176/68/2 179/66/2 177/64/2
f 141/67/2 137/69/2 136/63/2
f 140/70/2 137/69/2 141/67/2
f 109/58/2 104/71/2 150/56/2
f 140/70/2 138/72/2 137/69/2
f 156/73/2 158/75/2 157/74/2
f 156/73/2 159/51/2 158/75/2
f 156/73/2 155/76/2 159/51/2
f 155/76/2 175/53/2 159/51/2
f 155/76/2 176/68/2 175/53/2
f 155/76/2 179/66/2 176/68/2
f 140/70/2 139/77/2 138/72/2
f 155/76/2 154/78/2 179/66/2
f 154/78/2 180/79/2 179/66/2
f 154/78/2 153/80/2 180/79/2
f 153/80/2 181/81/2 180/79/2
f 153/80/2 182/82/2 181/81/2
f 152/83/2 182/82/2 153/80/2
f 151/84/2 183/85/2 152/83/2
f 183/85/2 182/82/2 152/83/2
f 151/84/2 184/86/2 183/85/2
f 108/87/2 104/71/2 109/58/2
f 108/87/2 105/88/2 104/71/2
f 107/89/2 105/88/2 108/87/2
f 107/89/2 106/90/2 105/88/2
f 185/91/2 187/93/2 186/92/2
f 149/94/2 145/57/2 150/56/2
f 185/91/2 188/95/2 187/93/2
f 192/96/2 194/98/2 193/97/2
f 192/96/2 191/99/2 194/98/2
f 191/99/2 151/84/2 194/98/2
f 191/99/2 184/86/2 151/84/2
f 191/99/2 185/91/2 184/86/2
f 191/99/2 188/95/2 185/91/2
f 191/99/2 189/100/2 188/95/2
f 191/99/2 190/101/2 189/100/2
f 149/94/2 146/102/2 145/57/2
f 148/103/2 146/102/2 149/94/2
f 148/103/2 147/104/2 146/102/2
f 30/54/3 29/48/3 132/48/3 133/54/3
f 23/25/4 22/13/4 125/13/4 126/25/4
f 78/81/5 77/79/5 180/79/5 181/81/5
f 26/29/6 25/27/6 128/27/6 129/29/6
f 79/82/7 78/81/7 181/81/7 182/82/7
f 68/30/8 67/24/8 170/24/8 171/30/8
f 50/80/9 49/83/9 152/83/9 153/80/9
f 42/57/10 41/55/10 144/55/10 145/57/10
f 12/32/11 11/31/11 114/31/11 115/32/11
f 7/46/12 6/58/12 109/58/12 110/46/12
f 49/83/13 48/84/13 151/84/13 152/83/13
f 41/55/14 40/59/14 143/59/14 144/55/14
f 62/35/15 61/34/15 164/34/15 165/35/15
f 17/2/16 16/1/16 119/1/16 120/2/16
f 31/60/17 30/54/17 133/54/17 134/60/17
f 13/33/18 12/32/18 115/32/18 116/33/18
f 80/85/9 79/82/9 182/82/9 183/85/9
f 18/3/19 17/2/19 120/2/19 121/3/19
f 101/6/20 100/5/20 203/5/20 204/6/20
f 40/59/21 39/61/21 142/61/21 143/59/21
f 63/36/22 62/35/22 165/35/22 166/36/22
f 81/86/23 80/85/23 183/85/23 184/86/23
f 100/5/24 99/4/24 202/4/24 203/5/24
f 14/17/25 13/33/25 116/33/25 117/17/25
f 6/58/26 5/87/26 108/87/26 109/58/26
f 32/62/27 31/60/27 134/60/27 135/62/27
f 2/88/28 1/71/28 104/71/28 105/88/28
f 19/7/29 18/3/29 121/3/29 122/7/29
f 33/63/30 32/62/30 135/62/30 136/63/30
f 61/34/31 60/37/31 163/37/31 164/34/31
f 99/4/32 98/8/32 201/8/32 202/4/32
f 5/87/33 4/89/33 107/89/33 108/87/33
f 75/65/34 74/64/34 177/64/34 178/65/34
f 64/28/35 63/36/35 166/36/35 167/28/35
f 16/1/36 15/9/36 118/9/36 119/1/36
f 3/90/37 2/88/37 105/88/37 106/90/37
f 76/66/38 75/65/38 178/65/38 179/66/38
f 60/37/39 59/38/39 162/38/39 163/37/39
f 4/89/40 3/90/40 106/90/40 107/89/40
f 20/10/41 19/7/41 122/7/41 123/10/41
f 39/61/42 38/67/42 141/67/42 142/61/42
f 84/93/43 83/92/43 186/92/43 187/93/43
f 102/11/44 101/6/44 204/6/44 205/11/44
f 83/92/45 82/91/45 185/91/45 186/92/45
f 74/64/46 73/68/46 176/68/46 177/64/46
f 11/31/47 10/39/47 113/39/47 114/31/47
f 47/56/48 46/94/48 149/94/48 150/56/48
f 21/12/49 20/10/49 123/10/49 124/12/49
f 10/39/50 26/29/50 129/29/50 113/39/50
f 22/13/51 21/12/51 124/12/51 125/13/51
f 34/69/52 33/63/52 136/63/52 137/69/52
f 10/43/53 9/42/53 112/42/53 113/43/53
f 85/95/54 84/93/54 187/93/54 188/95/54
f 59/38/55 58/40/55 161/40/55 162/38/55
f 103/14/56 102/11/56 205/11/56 206/14/56
f 38/67/57 37/70/57 140/70/57 141/67/57
f 90/97/58 89/96/58 192/96/58 193/97/58
f 1/71/59 47/56/59 150/56/59 104/71/59
f 98/8/60 97/15/60 200/15/60 201/8/60
f 69/41/61 68/30/61 171/30/61 172/41/61
f 91/98/62 90/97/62 193/97/62 194/98/62
f 54/74/58 53/73/58 156/73/58 157/74/58
f 89/96/63 88/99/63 191/99/63 192/96/63
f 92/16/64 103/14/64 206/14/64 195/16/64
f 35/72/65 34/69/65 137/69/65 138/72/65
f 27/44/66 10/43/66 113/43/66 130/44/66
f 9/42/9 8/45/9 111/45/9 112/42/9
f 48/84/67 91/98/67 194/98/67 151/84/67
f 55/75/68 54/74/68 157/74/68 158/75/68
f 15/9/69 14/17/69 117/17/69 118/9/69
f 56/51/70 55/75/70 158/75/70 159/51/70
f 8/45/71 7/46/71 110/46/71 111/45/71
f 82/91/72 81/86/72 184/86/72 185/91/72
f 93/18/73 92/16/73 195/16/73 196/18/73
f 53/73/74 52/76/74 155/76/74 156/73/74
f 28/47/9 27/44/9 130/44/9 131/47/9
f 97/15/75 96/19/75 199/19/75 200/15/75
f 29/48/23 28/47/23 131/47/23 132/48/23
f 73/68/76 72/53/76 175/53/76 176/68/76
f 86/100/77 85/95/77 188/95/77 189/100/77
f 94/20/78 93/18/78 196/18/78 197/20/78
f 70/49/79 69/41/79 172/41/79 173/49/79
f 88/99/80 87/101/80 190/101/80 191/99/80
f 24/26/81 23/25/81 126/25/81 127/26/81
f 58/40/9 57/50/9 160/50/9 161/40/9
f 87/101/82 86/100/82 189/100/82 190/101/82
f 66/23/83 65/22/83 168/22/83 169/23/83
f 37/70/84 36/77/84 139/77/84 140/70/84
f 57/50/13 56/51/13 159/51/13 160/50/13
f 43/102/85 42/57/85 145/57/85 146/102/85
f 96/19/86 95/21/86 198/21/86 199/19/86
f 36/77/87 35/72/87 138/72/87 139/77/87
f 95/21/88 94/20/88 197/20/88 198/21/88
f 52/76/89 51/78/89 154/78/89 155/76/89
f 46/94/90 45/103/90 148/103/90 149/94/90
f 67/24/91 66/23/91 169/23/91 170/24/91
f 71/52/9 70/49/9 173/49/9 174/52/9
f 44/104/92 43/102/92 146/102/92 147/104/92
f 25/27/93 24/26/93 127/26/93 128/27/93
f 77/79/94 76/66/94 179/66/94 180/79/94
f 72/53/23 71/52/23 174/52/23 175/53/23
f 45/103/95 44/104/95 147/104/95 148/103/95
f 65/22/96 64/28/96 167/28/96 168/22/96
f 51/78/97 50/80/97 153/80/97 154/78/97
