# Blender 4.2.0
# www.blender.org
mtllib moji_kuzu.mtl
o Text
v -0.099970 0.000000 -0.047332
v -0.065347 0.000000 -0.029183
v 0.010268 0.000000 -0.028665
v 0.010000 0.000000 -0.115957
v 0.005804 0.000000 -0.156363
v 0.070293 0.000000 -0.146131
v 0.083886 0.000000 -0.139215
v 0.081674 0.000000 -0.130613
v 0.065522 0.000000 -0.118981
v 0.065317 0.000000 -0.028665
v 0.148643 0.000000 -0.028758
v 0.174819 0.000000 -0.053184
v 0.191397 0.000000 -0.044877
v 0.217650 0.000000 -0.020647
v 0.223672 0.000000 -0.007947
v 0.207903 0.000000 0.007946
v 0.208477 0.000000 0.197557
v 0.199619 0.000000 0.219840
v 0.180767 0.000000 0.234281
v 0.160694 0.000000 0.239847
v 0.140287 0.000000 0.240145
v 0.136204 0.000000 0.236424
v 0.133008 0.000000 0.222321
v 0.121470 0.000000 0.202801
v 0.094029 0.000000 0.190843
v 0.069218 0.000000 0.184321
v 0.070348 0.000000 0.178928
v 0.148764 0.000000 0.182121
v 0.154106 0.000000 0.178721
v 0.154592 0.000000 0.121934
v -0.071226 0.000000 0.121938
v -0.070846 0.000000 0.224281
v -0.077873 0.000000 0.234939
v -0.092120 0.000000 0.240388
v -0.111953 0.000000 0.240906
v -0.122609 0.000000 0.236515
v -0.125780 0.000000 0.227235
v -0.123834 0.000000 0.051293
v -0.124281 0.000000 0.012934
v -0.125118 0.000000 -0.019831
v -0.125637 0.000000 -0.031035
v -0.169315 0.000000 -0.008306
v -0.184589 0.000000 0.072203
v -0.208882 0.000000 0.137923
v -0.245756 0.000000 0.199677
v -0.271871 0.000000 0.231513
v -0.276717 0.000000 0.227096
v -0.252999 0.000000 0.169636
v -0.233106 0.000000 0.086305
v -0.224459 0.000000 0.017057
v -0.218762 0.000000 -0.090012
v -0.218010 0.000000 -0.224742
v -0.218825 0.000000 -0.265892
v -0.220098 0.000000 -0.301856
v -0.152959 0.000000 -0.267695
v 0.169688 0.000000 -0.267820
v 0.199371 0.000000 -0.296781
v 0.221519 0.000000 -0.284530
v 0.246712 0.000000 -0.259514
v 0.243881 0.000000 -0.250423
v 0.230004 0.000000 -0.238040
v 0.231888 0.000000 -0.168426
v 0.228824 0.000000 -0.155955
v 0.211216 0.000000 -0.148050
v 0.191371 0.000000 -0.147568
v 0.180612 0.000000 -0.151382
v 0.175619 0.000000 -0.160467
v 0.174558 0.000000 -0.168426
v -0.160582 0.000000 -0.168426
v -0.162810 0.000000 -0.100062
v -0.168131 0.000000 -0.021113
v -0.140298 0.000000 -0.048115
v -0.096684 0.000000 -0.108166
v -0.079894 0.000000 -0.145026
v -0.025579 0.000000 -0.119540
v -0.017138 0.000000 -0.109321
v -0.021776 0.000000 -0.103592
v -0.038413 0.000000 -0.098962
v -0.060708 0.000000 -0.077663
v 0.154592 0.000000 0.038933
v 0.154592 0.000000 -0.015260
v -0.071306 0.000000 -0.015260
v -0.071306 0.000000 0.038933
v -0.071306 0.000000 0.052339
v -0.071306 0.000000 0.108528
v 0.154592 0.000000 0.108528
v 0.154592 0.000000 0.052339
v 0.174558 0.000000 -0.181831
v 0.174558 0.000000 -0.254278
v -0.160011 0.000000 -0.254278
v -0.160351 0.000000 -0.181863
v 0.248345 0.000000 -0.064543
v 0.246002 0.000000 -0.048053
v 0.236247 0.000000 -0.034830
v 0.223515 0.000000 -0.031268
v 0.210536 0.000000 -0.034919
v 0.184544 0.000000 -0.067117
v 0.159019 0.000000 -0.092773
v 0.111612 0.000000 -0.123988
v 0.112345 0.000000 -0.129142
v 0.165284 0.000000 -0.124004
v 0.209903 0.000000 -0.109584
v 0.230124 0.000000 -0.097286
v 0.243668 0.000000 -0.081894
v -0.100332 0.150000 -0.047530
v -0.065595 0.150000 -0.029110
v 0.010268 0.150000 -0.028665
v 0.010056 0.150000 -0.114770
v 0.005843 0.150000 -0.156231
v 0.068790 0.150000 -0.146548
v 0.083725 0.150000 -0.139555
v 0.082007 0.150000 -0.131069
v 0.065858 0.150000 -0.119093
v 0.065317 0.150000 -0.028665
v 0.148639 0.150000 -0.028699
v 0.174606 0.150000 -0.053117
v 0.190416 0.150000 -0.045624
v 0.217204 0.150000 -0.021166
v 0.223427 0.150000 -0.009980
v 0.218539 0.150000 -0.000785
v 0.207884 0.150000 0.007592
v 0.208605 0.150000 0.196681
v 0.200291 0.150000 0.218858
v 0.181998 0.150000 0.233695
v 0.162282 0.150000 0.239616
v 0.141539 0.150000 0.240374
v 0.136643 0.150000 0.237371
v 0.133078 0.150000 0.222717
v 0.122007 0.150000 0.203258
v 0.095326 0.150000 0.191214
v 0.069282 0.150000 0.184455
v 0.070467 0.150000 0.178774
v 0.147824 0.150000 0.182329
v 0.153998 0.150000 0.178946
v 0.154592 0.150000 0.121934
v -0.071233 0.150000 0.121935
v -0.070812 0.150000 0.223806
v -0.077146 0.150000 0.234368
v -0.090872 0.150000 0.240159
v -0.115481 0.150000 0.240507
v -0.125227 0.150000 0.232099
v -0.123770 0.150000 0.068039
v -0.123924 0.150000 0.040382
v -0.124323 0.150000 0.011324
v -0.125074 0.150000 -0.018366
v -0.125500 0.150000 -0.031439
v -0.169904 0.150000 -0.007673
v -0.181479 0.150000 0.060583
v -0.206862 0.150000 0.133644
v -0.243089 0.150000 0.195899
v -0.272348 0.150000 0.231691
v -0.276583 0.150000 0.226544
v -0.257234 0.150000 0.180164
v -0.240232 0.150000 0.121770
v -0.225809 0.150000 0.035108
v -0.217400 0.150000 -0.145328
v -0.218783 0.150000 -0.264348
v -0.220103 0.150000 -0.301221
v -0.153022 0.150000 -0.268265
v 0.169677 0.150000 -0.267733
v 0.198210 0.150000 -0.296116
v 0.208015 0.150000 -0.293660
v 0.234159 0.150000 -0.273673
v 0.246624 0.150000 -0.259464
v 0.244200 0.150000 -0.250860
v 0.230126 0.150000 -0.238061
v 0.231888 0.150000 -0.168426
v 0.231182 0.150000 -0.162137
v 0.225699 0.150000 -0.153768
v 0.212422 0.150000 -0.148267
v 0.192034 0.150000 -0.147486
v 0.180876 0.150000 -0.151162
v 0.175742 0.150000 -0.160006
v 0.174558 0.150000 -0.168426
v -0.160582 0.150000 -0.168426
v -0.163213 0.150000 -0.089626
v -0.168254 0.150000 -0.020910
v -0.132984 0.150000 -0.056272
v -0.093420 0.150000 -0.114508
v -0.079867 0.150000 -0.144994
v -0.026049 0.150000 -0.119832
v -0.017170 0.150000 -0.109620
v -0.023642 0.150000 -0.102337
v -0.037900 0.150000 -0.099412
v -0.074484 0.150000 -0.065972
v 0.154592 0.150000 0.038933
v 0.154592 0.150000 -0.015260
v -0.071306 0.150000 -0.015260
v -0.071306 0.150000 0.038933
v -0.071306 0.150000 0.052339
v -0.071306 0.150000 0.108528
v 0.154592 0.150000 0.108528
v 0.154592 0.150000 0.052339
v 0.174558 0.150000 -0.181831
v 0.174558 0.150000 -0.254278
v -0.159789 0.150000 -0.254267
v -0.160537 0.150000 -0.181834
v 0.248315 0.150000 -0.065491
v 0.246224 0.150000 -0.048656
v 0.239143 0.150000 -0.037606
v 0.229835 0.150000 -0.031979
v 0.217380 0.150000 -0.032089
v 0.206708 0.150000 -0.038159
v 0.184086 0.150000 -0.068063
v 0.148683 0.150000 -0.101602
v 0.111774 0.150000 -0.123371
v 0.112259 0.150000 -0.129050
v 0.162360 0.150000 -0.124563
v 0.211353 0.150000 -0.109049
v 0.232828 0.150000 -0.094989
v 0.243892 0.150000 -0.081148
vn -0.0000 -1.0000 -0.0000
vn -0.0000 1.0000 -0.0000
vn -0.9994 -0.0001 0.0356
vn 0.4535 -0.0032 -0.8913
vn 0.7098 -0.0093 0.7043
vn 0.7046 -0.0080 -0.7096
vn -0.7781 -0.0063 0.6281
vn 0.5196 -0.0020 -0.8544
vn -0.5499 0.0113 0.8352
vn -0.9999 0.0003 0.0117
vn 0.2681 -0.0047 0.9634
vn 0.9825 -0.0059 0.1864
vn 1.0000 -0.0015 0.0047
vn -0.9923 0.0060 -0.1239
vn -0.6736 -0.0027 0.7391
vn -0.9999 0.0017 -0.0111
vn 0.6908 -0.0002 0.7231
vn 0.7507 -0.0034 -0.6606
vn -0.3810 -0.0065 0.9246
vn -0.2708 -0.0058 0.9626
vn -0.9726 0.0087 -0.2322
vn -0.9243 -0.0006 -0.3816
vn 0.2694 -0.0068 0.9630
vn -0.9986 -0.0026 -0.0531
vn -0.8091 0.0075 -0.5876
vn -1.0000 0.0070 -0.0056
vn 0.6113 -0.0055 0.7913
vn 0.9977 -0.0020 0.0672
vn -0.6963 0.0004 -0.7177
vn 0.4840 -0.0097 -0.8750
vn 0.4616 -0.0019 0.8871
vn -0.9462 -0.0070 0.3234
vn -0.6736 -0.0030 0.7391
vn 0.0407 0.0016 -0.9992
vn 0.4643 -0.0000 -0.8857
vn -0.6837 -0.0002 -0.7298
vn 0.0314 0.0003 0.9995
vn 0.8217 -0.0021 0.5699
vn 0.4685 0.0012 -0.8835
vn 0.6181 0.0019 0.7861
vn 0.4383 0.0002 -0.8989
vn 0.0006 -0.0016 -1.0000
vn 0.7517 0.0007 -0.6595
vn -0.9735 0.0006 0.2289
vn 0.7605 0.0027 0.6493
vn 0.9973 0.0007 0.0732
vn -0.2527 -0.0005 0.9675
vn -0.9999 -0.0015 0.0137
vn 0.9859 0.0032 0.1672
vn -0.9999 -0.0001 0.0137
vn 1.0000 -0.0004 -0.0034
vn -0.0000 -0.0000 -1.0000
vn 0.5478 0.0029 -0.8366
vn -0.9948 -0.0001 0.1022
vn 0.9746 -0.0000 0.2241
vn -0.0000 -0.0000 1.0000
vn -1.0000 0.0002 0.0028
vn 0.4242 -0.0002 -0.9056
vn 0.9586 -0.0004 0.2847
vn -1.0000 -0.0002 0.0055
vn 0.2774 -0.0000 0.9608
vn -0.9117 0.0014 -0.4108
vn 0.2010 0.0023 0.9796
vn -0.4054 -0.0000 0.9141
vn -1.0000 -0.0000 -0.0000
vn 0.3728 -0.0000 0.9279
vn -0.6532 0.0109 0.7571
vn 1.0000 -0.0000 -0.0000
vn 0.6694 0.0002 0.7429
vn -0.9229 0.0010 -0.3850
vn 0.5174 0.0059 0.8557
vn -0.4944 0.0062 0.8692
vn 0.0930 -0.0006 -0.9957
vn 0.9415 0.0018 0.3370
vn -0.8272 -0.0058 -0.5619
vn -1.0000 0.0040 -0.0089
vn -0.7080 -0.0039 -0.7062
vn -0.5229 0.0031 0.8524
vn -0.9864 -0.0080 -0.1642
vn 0.7811 0.0019 -0.6244
vn 0.9328 -0.0003 0.3603
vn -0.6968 -0.0017 0.7172
vn 0.6747 0.0044 0.7381
vn 0.9997 -0.0004 -0.0262
vn 0.6762 0.0001 -0.7367
vn -0.8650 0.0003 0.5017
vn -1.0000 -0.0004 -0.0095
vn 0.5901 0.0002 0.8074
vn 0.0256 -0.0002 0.9997
vn 0.9640 -0.0008 -0.2658
vn 0.7737 0.0020 0.6335
vn 0.9999 0.0012 0.0103
vn -0.9937 0.0005 -0.1118
vn -0.0089 0.0051 0.9999
vn -0.9601 -0.0075 -0.2795
vn -0.9992 0.0005 0.0389
vn 0.0195 0.0022 0.9998
vn 0.0001 0.0001 -1.0000
vn 0.0064 0.0002 -1.0000
vn 0.9995 0.0002 0.0330
vn 0.8615 0.0002 0.5078
vn -0.0008 0.0002 -1.0000
vn -0.9907 0.0002 0.1358
vn 0.9804 -0.0036 0.1970
vn 1.0000 -0.0001 -0.0039
vn -0.7975 0.0014 0.6033
vn 0.4719 0.0019 0.8817
vn 0.9913 -0.0000 0.1319
vn -0.8707 -0.0000 0.4918
vn 0.8364 0.0094 0.5480
vn 0.2429 0.0062 -0.9700
vn -0.5080 -0.0030 0.8613
vn -0.9789 0.0006 -0.2046
vn 0.8899 -0.0018 -0.4562
vn -0.9997 -0.0000 0.0254
vn 0.6190 0.0002 0.7854
vn 0.5808 0.0025 0.8140
vn 1.0000 -0.0011 0.0041
vn -0.9989 -0.0081 -0.0466
vn -0.5075 -0.0005 -0.8617
vn 0.0459 -0.0011 -0.9989
vn 0.4385 -0.0003 -0.8987
vn 0.8462 -0.0003 0.5328
vn 0.3981 -0.0035 0.9173
vn 0.4409 0.0038 -0.8975
vn -0.7722 0.0030 0.6353
vn 0.3046 0.0014 -0.9525
vn -0.7017 -0.0010 -0.7124
vn 0.1544 -0.0002 -0.9880
vn 0.7628 -0.0000 -0.6466
vn 0.6074 0.0063 -0.7944
vn -0.3234 -0.0000 0.9463
vn 0.8829 0.0078 0.4694
vt 0.573421 0.000000
vt 0.589608 0.000000
vt 0.602570 0.000000
vt 0.548892 0.000000
vt 0.555003 0.000000
vt 0.572074 0.000000
vt 0.621986 0.000000
vt 0.542855 0.000000
vt 0.829096 0.000000
vt 0.827684 0.000000
vt 0.631030 0.000000
vt 0.847443 0.000000
vt 0.826271 0.000000
vt 0.641333 0.000000
vt 0.644068 0.000000
vt 0.532161 0.000000
vt 0.696328 0.000000
vt 0.703402 0.000000
vt 0.694915 0.000000
vt 0.688063 0.000000
vt 0.649764 0.000000
vt 0.555054 0.000000
vt 0.548644 0.000000
vt 0.676770 0.000000
vt 0.657339 0.000000
vt 0.666053 0.000000
vt 0.036686 0.000000
vt 0.046739 0.000000
vt 0.052683 0.000000
vt 0.024871 0.000000
vt 0.059638 0.000000
vt 0.732559 0.000000
vt 0.747160 0.000000
vt 0.767048 0.000000
vt 0.070619 0.000000
vt 0.941232 0.000000
vt 0.960477 0.000000
vt 0.974693 0.000000
vt 0.072034 0.000000
vt 0.982714 0.000000
vt 0.780784 0.000000
vt 0.788588 0.000000
vt 0.988383 0.000000
vt 0.924592 0.000000
vt 0.798167 0.000000
vt 0.018362 0.000000
vt 0.804588 0.000000
vt 0.994699 0.000000
vt 0.917722 0.000000
vt 0.719173 0.000000
vt 0.926140 0.000000
vt 0.012369 0.000000
vt 0.713254 0.000000
vt 0.858472 0.000000
vt 0.016932 0.000000
vt 0.073417 0.000000
vt 0.089565 0.000000
vt 0.099828 0.000000
vt 0.871165 0.000000
vt 0.896441 0.000000
vt 0.402667 0.000000
vt 0.883365 0.000000
vt 0.113644 0.000000
vt 0.524120 0.000000
vt 0.400551 0.000000
vt 0.817797 0.000000
vt 0.419429 0.000000
vt 0.816384 0.000000
vt 0.125655 0.000000
vt 0.819209 0.000000
vt 0.814972 0.000000
vt 0.395015 0.000000
vt 0.141327 0.000000
vt 0.149714 0.000000
vt 0.388601 0.000000
vt 0.824859 0.000000
vt 0.436868 0.000000
vt 0.820621 0.000000
vt 0.517801 0.000000
vt 0.822034 0.000000
vt 0.823446 0.000000
vt 0.379483 0.000000
vt 0.443689 0.000000
vt 0.316385 0.000000
vt 0.314972 0.000000
vt 0.509989 0.000000
vt 0.308190 0.000000
vt 0.450018 0.000000
vt 0.335543 0.000000
vt 0.299693 0.000000
vt 0.255378 0.000000
vt 0.274814 0.000000
vt 0.238813 0.000000
vt 0.225702 0.000000
vt 0.161038 0.000000
vt 0.488453 0.000000
vt 0.213883 0.000000
vt 0.466513 0.000000
vt 0.168865 0.000000
vt 0.341092 0.000000
vt 0.367058 0.000000
vt 0.198438 0.000000
vt 0.174454 0.000000
vt 0.346607 0.000000
vt 0.186770 0.000000
vt 0.355343 0.000000
vt 0.573402 0.000000
vt 0.596007 0.000000
vt 0.588545 0.000000
vt 0.608455 0.000000
vt 0.571999 0.000000
vt 0.621878 0.000000
vt 0.536440 0.000000
vt 0.829098 0.000000
vt 0.630616 0.000000
vt 0.641332 0.000000
vt 0.847456 0.000000
vt 0.704653 0.000000
vt 0.687615 0.000000
vt 0.646811 0.000000
vt 0.651428 0.000000
vt 0.676389 0.000000
vt 0.656949 0.000000
vt 0.665558 0.000000
vt 0.036679 0.000000
vt 0.052435 0.000000
vt 0.046367 0.000000
vt 0.024499 0.000000
vt 0.059224 0.000000
vt 0.734038 0.000000
vt 0.766645 0.000000
vt 0.747157 0.000000
vt 0.070459 0.000000
vt 0.940491 0.000000
vt 0.974241 0.000000
vt 0.960401 0.000000
vt 0.926845 0.000000
vt 0.983073 0.000000
vt 0.780413 0.000000
vt 0.789930 0.000000
vt 0.989388 0.000000
vt 0.797973 0.000000
vt 0.720838 0.000000
vt 0.994934 0.000000
vt 0.808361 0.000000
vt 0.918457 0.000000
vt 0.930460 0.000000
vt 0.900703 0.000000
vt 0.858032 0.000000
vt 0.000022 0.000000
vt 0.522447 0.000000
vt 0.073403 0.000000
vt 0.099366 0.000000
vt 0.089369 0.000000
vt 0.016863 0.000000
vt 0.867645 0.000000
vt 0.713262 0.000000
vt 0.877515 0.000000
vt 0.889151 0.000000
vt 0.402556 0.000000
vt 0.113218 0.000000
vt 0.400302 0.000000
vt 0.419567 0.000000
vt 0.123909 0.000000
vt 0.395284 0.000000
vt 0.133437 0.000000
vt 0.141245 0.000000
vt 0.434427 0.000000
vt 0.390415 0.000000
vt 0.149302 0.000000
vt 0.385827 0.000000
vt 0.372233 0.000000
vt 0.514580 0.000000
vt 0.443266 0.000000
vt 0.316385 0.000000
vt 0.307848 0.000000
vt 0.508940 0.000000
vt 0.449618 0.000000
vt 0.335355 0.000000
vt 0.254919 0.000000
vt 0.299280 0.000000
vt 0.275155 0.000000
vt 0.238357 0.000000
vt 0.225365 0.000000
vt 0.490117 0.000000
vt 0.160557 0.000000
vt 0.213530 0.000000
vt 0.467519 0.000000
vt 0.168469 0.000000
vt 0.340704 0.000000
vt 0.196177 0.000000
vt 0.174058 0.000000
vt 0.358607 0.000000
vt 0.346216 0.000000
vt 0.184452 0.000000
s 0
usemtl Material.001
f 56/1/1 57/2/1 58/3/1
f 53/4/1 54/5/1 55/6/1
f 56/1/1 58/3/1 59/7/1
f 53/4/1 55/6/1 56/1/1
f 53/4/1 56/1/1 59/7/1
f 52/8/1 53/4/1 90/9/1
f 90/9/1 53/4/1 59/7/1
f 90/9/1 59/7/1 89/10/1
f 89/10/1 59/7/1 60/11/1
f 52/8/1 90/9/1 91/12/1
f 88/13/1 89/10/1 61/14/1
f 61/14/1 89/10/1 60/11/1
f 88/13/1 61/14/1 62/15/1
f 51/16/1 52/8/1 91/12/1
f 51/16/1 91/12/1 69/17/1
f 69/17/1 91/12/1 88/13/1
f 69/17/1 88/13/1 62/15/1
f 51/16/1 69/17/1 70/18/1
f 68/19/2 69/17/2 62/15/2
f 67/20/1 68/19/1 62/15/1
f 67/20/1 62/15/1 63/21/1
f 158/22/3 54/5/3 53/4/3 157/23/3
f 66/24/1 67/20/1 63/21/1
f 66/24/1 63/21/1 64/25/1
f 65/26/1 66/24/1 64/25/1
f 5/27/1 6/28/1 7/29/1
f 4/30/1 5/27/1 7/29/1
f 4/30/1 7/29/1 8/31/1
f 73/32/1 74/33/1 75/34/1
f 4/30/1 8/31/1 9/35/1
f 99/36/1 100/37/1 101/38/1
f 4/30/1 9/35/1 10/39/1
f 99/36/1 101/38/1 102/40/1
f 73/32/1 75/34/1 76/41/1
f 73/32/1 76/41/1 77/42/1
f 99/36/1 102/40/1 103/43/1
f 98/44/1 99/36/1 103/43/1
f 73/32/1 77/42/1 78/45/1
f 3/46/1 4/30/1 10/39/1
f 73/32/1 78/45/1 79/47/1
f 98/44/1 103/43/1 104/48/1
f 97/49/1 98/44/1 104/48/1
f 72/50/1 73/32/1 79/47/1
f 97/49/1 104/48/1 92/51/1
f 72/50/1 79/47/1 1/52/1
f 51/16/1 70/18/1 71/53/1
f 97/49/1 92/51/1 93/54/1
f 72/50/1 1/52/1 2/55/1
f 11/56/1 12/57/1 13/58/1
f 97/49/1 93/54/1 94/59/1
f 96/60/1 97/49/1 94/59/1
f 41/61/1 72/50/1 2/55/1
f 95/62/1 96/60/1 94/59/1
f 11/56/1 13/58/1 14/63/1
f 50/64/1 51/16/1 71/53/1
f 40/65/1 41/61/1 2/55/1
f 40/65/1 2/55/1 3/46/1
f 40/65/1 3/46/1 10/39/1
f 40/65/1 10/39/1 11/56/1
f 40/65/1 11/56/1 14/63/1
f 71/53/1 72/50/1 41/61/1
f 50/64/1 71/53/1 41/61/1
f 40/65/1 14/63/1 82/66/1
f 50/64/1 41/61/1 42/67/1
f 82/66/1 14/63/1 81/68/1
f 81/68/1 14/63/1 15/69/1
f 40/65/1 82/66/1 83/70/1
f 80/71/1 81/68/1 15/69/1
f 39/72/1 40/65/1 83/70/1
f 80/71/1 15/69/1 16/73/1
f 80/71/1 16/73/1 17/74/1
f 38/75/1 39/72/1 83/70/1
f 38/75/1 83/70/1 80/71/1
f 38/75/1 80/71/1 87/76/1
f 87/76/1 80/71/1 17/74/1
f 50/64/1 42/67/1 43/77/1
f 84/78/1 38/75/1 87/76/1
f 49/79/1 50/64/1 43/77/1
f 38/75/1 84/78/1 85/80/1
f 86/81/1 87/76/1 17/74/1
f 37/82/1 38/75/1 85/80/1
f 49/79/1 43/77/1 44/83/1
f 37/82/1 85/80/1 31/84/1
f 31/84/1 85/80/1 86/81/1
f 31/84/1 86/81/1 30/85/1
f 30/85/1 86/81/1 17/74/1
f 48/86/1 49/79/1 44/83/1
f 29/87/1 30/85/1 17/74/1
f 48/86/1 44/83/1 45/88/1
f 37/82/1 31/84/1 32/89/1
f 28/90/1 29/87/1 17/74/1
f 26/91/1 27/92/1 28/90/1
f 26/91/1 28/90/1 17/74/1
f 25/93/1 26/91/1 17/74/1
f 24/94/1 25/93/1 17/74/1
f 24/94/1 17/74/1 18/95/1
f 47/96/1 48/86/1 45/88/1
f 23/97/1 24/94/1 18/95/1
f 47/96/1 45/88/1 46/98/1
f 23/97/1 18/95/1 19/99/1
f 37/82/1 32/89/1 33/100/1
f 36/101/1 37/82/1 33/100/1
f 22/102/1 23/97/1 19/99/1
f 22/102/1 19/99/1 20/103/1
f 36/101/1 33/100/1 34/104/1
f 21/105/1 22/102/1 20/103/1
f 35/106/1 36/101/1 34/104/1
f 160/107/2 162/108/2 161/109/2
f 160/107/2 163/110/2 162/108/2
f 157/23/2 159/111/2 158/22/2
f 160/107/2 164/112/2 163/110/2
f 157/23/2 160/107/2 159/111/2
f 157/23/2 164/112/2 160/107/2
f 156/113/2 196/114/2 157/23/2
f 196/114/2 164/112/2 157/23/2
f 196/114/2 195/10/2 164/112/2
f 195/10/2 165/115/2 164/112/2
f 194/13/2 166/116/2 195/10/2
f 166/116/2 165/115/2 195/10/2
f 194/13/2 167/15/2 166/116/2
f 156/113/2 197/117/2 196/114/2
f 156/113/2 175/17/2 197/117/2
f 175/17/2 194/13/2 197/117/2
f 175/17/2 167/15/2 194/13/2
f 156/113/2 176/118/2 175/17/2
f 174/19/2 167/15/2 175/17/2
f 173/119/2 167/15/2 174/19/2
f 173/119/2 168/120/2 167/15/2
f 173/119/2 169/121/2 168/120/2
f 172/122/2 169/121/2 173/119/2
f 172/122/2 170/123/2 169/121/2
f 171/124/2 170/123/2 172/122/2
f 109/125/2 111/126/2 110/127/2
f 108/128/2 111/126/2 109/125/2
f 108/128/2 112/129/2 111/126/2
f 179/130/2 181/131/2 180/132/2
f 108/128/2 113/133/2 112/129/2
f 206/134/2 208/135/2 207/136/2
f 205/137/2 208/135/2 206/134/2
f 108/128/2 114/39/2 113/133/2
f 205/137/2 209/138/2 208/135/2
f 179/130/2 182/139/2 181/131/2
f 179/130/2 183/140/2 182/139/2
f 205/137/2 210/141/2 209/138/2
f 107/46/2 114/39/2 108/128/2
f 179/130/2 184/142/2 183/140/2
f 178/143/2 184/142/2 179/130/2
f 205/137/2 211/144/2 210/141/2
f 178/143/2 185/145/2 184/142/2
f 204/146/2 211/144/2 205/137/2
f 204/146/2 198/147/2 211/144/2
f 203/148/2 198/147/2 204/146/2
f 203/148/2 199/149/2 198/147/2
f 178/143/2 105/150/2 185/145/2
f 155/151/2 176/118/2 156/113/2
f 115/152/2 117/153/2 116/154/2
f 178/143/2 106/155/2 105/150/2
f 203/148/2 200/156/2 199/149/2
f 155/151/2 177/157/2 176/118/2
f 203/148/2 201/158/2 200/156/2
f 202/159/2 201/158/2 203/148/2
f 177/157/2 146/160/2 178/143/2
f 146/160/2 106/155/2 178/143/2
f 115/152/2 118/161/2 117/153/2
f 145/162/2 106/155/2 146/160/2
f 145/162/2 107/46/2 106/155/2
f 145/162/2 114/39/2 107/46/2
f 145/162/2 115/152/2 114/39/2
f 145/162/2 118/161/2 115/152/2
f 177/157/2 147/163/2 146/160/2
f 155/151/2 147/163/2 177/157/2
f 145/162/2 188/66/2 118/161/2
f 188/66/2 187/68/2 118/161/2
f 187/68/2 119/164/2 118/161/2
f 145/162/2 189/70/2 188/66/2
f 186/71/2 119/164/2 187/68/2
f 144/165/2 189/70/2 145/162/2
f 186/71/2 120/166/2 119/164/2
f 186/71/2 121/167/2 120/166/2
f 155/151/2 148/168/2 147/163/2
f 143/169/2 189/70/2 144/165/2
f 186/71/2 122/170/2 121/167/2
f 143/169/2 186/71/2 189/70/2
f 143/169/2 193/76/2 186/71/2
f 193/76/2 122/170/2 186/71/2
f 142/171/2 190/78/2 143/169/2
f 190/78/2 193/76/2 143/169/2
f 142/171/2 191/80/2 190/78/2
f 192/81/2 122/170/2 193/76/2
f 141/172/2 191/80/2 142/171/2
f 154/173/2 148/168/2 155/151/2
f 154/173/2 149/174/2 148/168/2
f 141/172/2 136/175/2 191/80/2
f 136/175/2 192/81/2 191/80/2
f 136/175/2 135/85/2 192/81/2
f 135/85/2 122/170/2 192/81/2
f 134/176/2 122/170/2 135/85/2
f 153/177/2 149/174/2 154/173/2
f 153/177/2 150/178/2 149/174/2
f 141/172/2 137/179/2 136/175/2
f 131/180/2 133/181/2 132/182/2
f 133/181/2 122/170/2 134/176/2
f 131/180/2 122/170/2 133/181/2
f 130/183/2 122/170/2 131/180/2
f 129/184/2 122/170/2 130/183/2
f 152/185/2 150/178/2 153/177/2
f 129/184/2 123/186/2 122/170/2
f 128/187/2 123/186/2 129/184/2
f 152/185/2 151/188/2 150/178/2
f 128/187/2 124/189/2 123/186/2
f 141/172/2 138/190/2 137/179/2
f 127/191/2 124/189/2 128/187/2
f 127/191/2 125/192/2 124/189/2
f 140/193/2 138/190/2 141/172/2
f 140/193/2 139/194/2 138/190/2
f 126/195/2 125/192/2 127/191/2
f 54/5/4 159/111/4 55/6/4
f 15/69/5 120/166/5 16/73/5
f 58/3/6 163/110/6 59/7/6
f 96/60/7 203/148/7 97/49/7
f 102/40/8 209/138/8 103/43/8
f 98/44/9 205/137/9 99/36/9
f 38/75/10 143/169/10 39/72/10
f 77/42/11 183/140/11 78/45/11
f 42/67/12 148/168/12 43/77/12
f 90/9/13 196/114/13 91/12/13
f 49/79/14 155/151/14 50/64/14
f 21/105/15 127/191/15 22/102/15
f 37/82/16 142/171/16 38/75/16
f 78/45/17 184/142/17 79/47/17
f 103/43/18 210/141/18 104/48/18
f 35/106/19 140/193/19 36/101/19
f 95/62/20 202/159/20 96/60/20
f 48/86/21 154/173/21 49/79/21
f 47/96/22 152/185/22 48/86/22
f 94/59/23 201/158/23 95/62/23
f 50/64/24 155/151/24 51/16/24
f 72/50/25 178/143/25 73/32/25
f 51/16/26 156/113/26 52/8/26
f 79/47/27 185/145/27 1/52/27
f 70/18/28 176/118/28 71/53/28
f 71/53/29 177/157/29 72/50/29
f 57/2/30 162/108/30 58/3/30
f 41/61/31 147/163/31 42/67/31
f 36/101/32 141/172/32 37/82/32
f 46/98/33 151/188/33 47/96/33
f 27/92/34 133/181/34 28/90/34
f 1/52/35 105/150/35 2/55/35
f 116/154/36 12/57/36 11/56/36 115/152/36
f 171/124/37 65/26/37 64/25/37 170/123/37
f 200/156/38 94/59/38 93/54/38 199/149/38
f 2/55/39 105/150/39 106/155/39
f 16/73/40 120/166/40 121/167/40
f 111/126/41 7/29/41 6/28/41 110/127/41
f 160/107/42 56/1/42 55/6/42 159/111/42
f 59/7/43 163/110/43 164/112/43
f 128/187/44 23/97/44 22/102/44 127/191/44
f 183/140/45 77/42/45 76/41/45 182/139/45
f 71/53/46 176/118/46 177/157/46
f 131/180/47 26/91/47 25/93/47 130/183/47
f 157/23/48 53/4/48 52/8/48 156/113/48
f 42/67/49 147/163/49 148/168/49
f 39/72/50 143/169/50 144/165/50
f 122/170/51 17/74/51 16/73/51 121/167/51
f 186/71/52 80/71/52 83/70/52 189/70/52
f 103/43/53 209/138/53 210/141/53
f 109/125/54 5/27/54 4/30/54 108/128/54
f 112/129/55 8/31/55 7/29/55 111/126/55
f 196/114/56 90/9/56 89/10/56 195/10/56
f 108/128/57 4/30/57 3/46/57 107/46/57
f 181/131/58 75/34/58 74/33/58 180/132/58
f 165/115/59 60/11/59 59/7/59 164/112/59
f 38/75/60 142/171/60 143/169/60
f 125/192/61 20/103/61 19/99/61 124/189/61
f 180/132/62 74/33/62 73/32/62 179/130/62
f 78/45/63 183/140/63 184/142/63
f 130/183/64 25/93/64 24/94/64 129/184/64
f 190/78/56 84/78/56 87/76/56 193/76/56
f 195/10/65 89/10/65 88/13/65 194/13/65
f 139/194/66 34/104/66 33/100/66 138/190/66
f 36/101/67 140/193/67 141/172/67
f 191/80/68 85/80/68 84/78/68 190/78/68
f 193/76/65 87/76/65 86/81/65 192/81/65
f 166/116/69 61/14/69 60/11/69 165/115/69
f 48/86/70 152/185/70 153/177/70
f 94/59/71 200/156/71 201/158/71
f 96/60/72 202/159/72 203/148/72
f 208/135/73 101/38/73 100/37/73 207/136/73
f 149/174/74 44/83/74 43/77/74 148/168/74
f 73/32/75 178/143/75 179/130/75
f 37/82/76 141/172/76 142/171/76
f 72/50/77 177/157/77 178/143/77
f 21/105/78 126/195/78 127/191/78
f 49/79/79 154/173/79 155/151/79
f 104/48/80 210/141/80 211/144/80
f 123/186/81 18/95/81 17/74/81 122/170/81
f 205/137/82 98/44/82 97/49/82 204/146/82
f 79/47/83 184/142/83 185/145/83
f 167/15/84 62/15/84 61/14/84 166/116/84
f 192/81/52 86/81/52 85/80/52 191/80/52
f 136/175/56 31/84/56 30/85/56 135/85/56
f 118/161/85 14/63/85 13/58/85 117/153/85
f 129/184/86 24/94/86 23/97/86 128/187/86
f 135/85/87 30/85/87 29/87/87 134/176/87
f 113/133/88 9/35/88 8/31/88 112/129/88
f 126/195/89 21/105/89 20/103/89 125/192/89
f 198/147/90 92/51/90 104/48/90 211/144/90
f 151/188/91 46/98/91 45/88/91 150/178/91
f 91/12/92 196/114/92 197/117/92
f 207/136/93 100/37/93 99/36/93 206/134/93
f 95/62/94 201/158/94 202/159/94
f 48/86/95 153/177/95 154/173/95
f 146/160/96 41/61/96 40/65/96 145/162/96
f 140/193/97 35/106/97 34/104/97 139/194/97
f 194/13/98 88/13/98 91/12/98 197/117/98
f 107/46/99 3/46/99 2/55/99 106/155/99
f 176/118/100 70/18/100 69/17/100 175/17/100
f 150/178/101 45/88/101 44/83/101 149/174/101
f 175/17/56 69/17/56 68/19/56 174/19/56
f 115/152/102 11/56/102 10/39/102 114/39/102
f 174/19/103 68/19/103 67/20/103 173/119/103
f 168/120/104 63/21/104 62/15/104 167/15/104
f 137/179/105 32/89/105 31/84/105 136/175/105
f 97/49/106 203/148/106 204/146/106
f 41/61/107 146/160/107 147/163/107
f 199/149/108 93/54/108 92/51/108 198/147/108
f 173/119/109 67/20/109 66/24/109 172/122/109
f 63/21/110 168/120/110 169/121/110
f 57/2/111 161/109/111 162/108/111
f 99/36/112 205/137/112 206/134/112
f 188/66/56 82/66/56 81/68/56 187/68/56
f 132/182/113 27/92/113 26/91/113 131/180/113
f 119/164/114 15/69/114 14/63/114 118/161/114
f 189/70/68 83/70/68 82/66/68 188/66/68
f 187/68/65 81/68/65 80/71/65 186/71/65
f 145/162/115 40/65/115 39/72/115 144/165/115
f 124/189/116 19/99/116 18/95/116 123/186/116
f 1/52/117 185/145/117 105/150/117
f 114/39/118 10/39/118 9/35/118 113/133/118
f 51/16/119 155/151/119 156/113/119
f 134/176/120 29/87/120 28/90/120 133/181/120
f 27/92/121 132/182/121 133/181/121
f 117/153/122 13/58/122 12/57/122 116/154/122
f 138/190/123 33/100/123 32/89/123 137/179/123
f 170/123/124 64/25/124 63/21/124 169/121/124
f 54/5/125 158/22/125 159/111/125
f 47/96/126 151/188/126 152/185/126
f 209/138/127 102/40/127 101/38/127 208/135/127
f 161/109/128 57/2/128 56/1/128 160/107/128
f 110/127/129 6/28/129 5/27/129 109/125/129
f 182/139/130 76/41/130 75/34/130 181/131/130
f 58/3/131 162/108/131 163/110/131
f 172/122/132 66/24/132 65/26/132 171/124/132
f 15/69/133 119/164/133 120/166/133
