# Blender 4.2.0
# www.blender.org
mtllib moji_tou.mtl
o Text
v -0.017482 0.000000 -0.009596
v -0.050213 0.000000 0.010108
v -0.125009 0.000000 0.043074
v -0.129755 0.000000 0.042334
v -0.130525 0.000000 0.037780
v -0.095312 0.000000 0.014203
v -0.045850 0.000000 -0.027617
v -0.008127 0.000000 -0.069196
v 0.021555 0.000000 -0.110660
v 0.041617 0.000000 -0.151405
v 0.103873 0.000000 -0.134824
v 0.111661 0.000000 -0.129363
v 0.111459 0.000000 -0.121055
v 0.089819 0.000000 -0.111156
v 0.129210 0.000000 -0.076511
v 0.179781 0.000000 -0.048918
v 0.218826 0.000000 -0.034245
v 0.259019 0.000000 -0.024134
v 0.287202 0.000000 -0.019532
v 0.288193 0.000000 -0.016373
v 0.270064 0.000000 -0.001952
v 0.260726 0.000000 0.016135
v 0.256165 0.000000 0.036758
v 0.250435 0.000000 0.043768
v 0.222076 0.000000 0.032764
v 0.165371 0.000000 -0.004824
v 0.122617 0.000000 -0.043635
v 0.079220 0.000000 -0.101002
v 0.058240 0.000000 -0.076902
v 0.017302 0.000000 -0.035952
v 0.010223 0.000000 -0.006051
v 0.077503 0.000000 -0.005948
v 0.106471 0.000000 -0.036071
v 0.117719 0.000000 -0.032584
v 0.146336 0.000000 -0.007557
v 0.151865 0.000000 0.002057
v 0.148201 0.000000 0.007143
v 0.011579 0.000000 0.007818
v -0.012843 0.000000 0.010949
v -0.148317 0.000000 -0.098260
v -0.148314 0.000000 0.080078
v -0.085502 0.000000 0.059643
v -0.082562 0.000000 0.060257
v -0.082043 0.000000 0.065993
v -0.128740 0.000000 0.101809
v -0.192098 0.000000 0.138240
v -0.227595 0.000000 0.155745
v -0.233447 0.000000 0.174222
v -0.241004 0.000000 0.177861
v -0.247702 0.000000 0.174080
v -0.253466 0.000000 0.162139
v -0.273057 0.000000 0.107365
v -0.232856 0.000000 0.101350
v -0.201369 0.000000 0.093994
v -0.201369 0.000000 -0.098260
v -0.231318 0.000000 -0.098260
v -0.235655 0.000000 -0.098184
v -0.263164 0.000000 -0.095316
v -0.269710 0.000000 -0.116009
v -0.244255 0.000000 -0.111908
v -0.201369 0.000000 -0.111666
v -0.201536 0.000000 -0.239560
v -0.204093 0.000000 -0.294616
v -0.142182 0.000000 -0.284751
v -0.128327 0.000000 -0.277874
v -0.130388 0.000000 -0.270753
v -0.148120 0.000000 -0.259078
v -0.148317 0.000000 -0.111666
v -0.139279 0.000000 -0.111780
v -0.118090 0.000000 -0.136034
v -0.109758 0.000000 -0.141745
v -0.103156 0.000000 -0.139658
v -0.073965 0.000000 -0.117749
v -0.064966 0.000000 -0.106112
v -0.065148 0.000000 -0.101348
v -0.068264 0.000000 -0.098697
v -0.072447 0.000000 -0.098260
v 0.152596 0.000000 -0.193525
v 0.153334 0.000000 -0.151914
v 0.147264 0.000000 -0.142281
v 0.135014 0.000000 -0.137512
v 0.116671 0.000000 -0.136918
v 0.103319 0.000000 -0.141263
v 0.098840 0.000000 -0.150702
v 0.100114 0.000000 -0.193525
v 0.029949 0.000000 -0.193525
v 0.030675 0.000000 -0.145817
v 0.024508 0.000000 -0.136091
v 0.012025 0.000000 -0.131249
v -0.006562 0.000000 -0.130651
v -0.018795 0.000000 -0.134498
v -0.024364 0.000000 -0.143552
v -0.023103 0.000000 -0.193525
v -0.059327 0.000000 -0.193525
v -0.065119 0.000000 -0.193450
v -0.073365 0.000000 -0.193054
v 0.100028 0.000000 -0.207522
v -0.102704 0.000000 -0.190215
v -0.109148 0.000000 -0.211290
v -0.073183 0.000000 -0.207171
v -0.023103 0.000000 -0.206931
v -0.023229 0.000000 -0.247755
v -0.024982 0.000000 -0.292781
v 0.034572 0.000000 -0.285316
v 0.044336 0.000000 -0.279123
v 0.042905 0.000000 -0.271076
v 0.030233 0.000000 -0.262536
v 0.029949 0.000000 -0.206931
v 0.100008 0.000000 -0.248882
v 0.098502 0.000000 -0.292781
v 0.157798 0.000000 -0.285313
v 0.167562 0.000000 -0.279109
v 0.166070 0.000000 -0.271089
v 0.152876 0.000000 -0.262526
v 0.152596 0.000000 -0.206931
v 0.185005 0.000000 -0.207024
v 0.211122 0.000000 -0.235975
v 0.220587 0.000000 -0.242733
v 0.230449 0.000000 -0.238685
v 0.267843 0.000000 -0.206225
v 0.270760 0.000000 -0.197890
v 0.267675 0.000000 -0.194095
v 0.262978 0.000000 -0.193525
v 0.145180 0.000000 0.203794
v -0.007986 0.000000 0.203794
v -0.008391 0.000000 0.227905
v -0.013869 0.000000 0.237574
v -0.025836 0.000000 0.243135
v -0.043859 0.000000 0.243848
v -0.054962 0.000000 0.240387
v -0.061103 0.000000 0.232609
v -0.060021 0.000000 0.078938
v -0.061602 0.000000 0.042462
v -0.004757 0.000000 0.067978
v 0.137721 0.000000 0.068218
v 0.164234 0.000000 0.042116
v 0.173190 0.000000 0.043975
v 0.197699 0.000000 0.060304
v 0.211164 0.000000 0.073138
v 0.213159 0.000000 0.079477
v 0.210930 0.000000 0.085129
v 0.198731 0.000000 0.095066
v 0.200986 0.000000 0.224846
v 0.194920 0.000000 0.234677
v 0.181657 0.000000 0.240279
v 0.162408 0.000000 0.240952
v 0.150629 0.000000 0.236348
v 0.145503 0.000000 0.226731
v 0.145180 0.000000 0.190388
v 0.145180 0.000000 0.081717
v -0.007986 0.000000 0.081717
v -0.007986 0.000000 0.190388
v -0.017482 0.500000 -0.009596
v -0.050213 0.500000 0.010108
v -0.125009 0.500000 0.043074
v -0.129755 0.500000 0.042334
v -0.130525 0.500000 0.037780
v -0.095312 0.500000 0.014203
v -0.045850 0.500000 -0.027617
v -0.008127 0.500000 -0.069196
v 0.021555 0.500000 -0.110660
v 0.041617 0.500000 -0.151405
v 0.103873 0.500000 -0.134824
v 0.111661 0.500000 -0.129363
v 0.111459 0.500000 -0.121055
v 0.089819 0.500000 -0.111156
v 0.129210 0.500000 -0.076511
v 0.179781 0.500000 -0.048918
v 0.218826 0.500000 -0.034245
v 0.259019 0.500000 -0.024134
v 0.287202 0.500000 -0.019532
v 0.288193 0.500000 -0.016373
v 0.270064 0.500000 -0.001952
v 0.260726 0.500000 0.016135
v 0.256165 0.500000 0.036758
v 0.250435 0.500000 0.043768
v 0.222076 0.500000 0.032764
v 0.165371 0.500000 -0.004824
v 0.122617 0.500000 -0.043635
v 0.079220 0.500000 -0.101002
v 0.058240 0.500000 -0.076902
v 0.017302 0.500000 -0.035952
v 0.010223 0.500000 -0.006051
v 0.077503 0.500000 -0.005948
v 0.106471 0.500000 -0.036071
v 0.117719 0.500000 -0.032584
v 0.146336 0.500000 -0.007557
v 0.151865 0.500000 0.002057
v 0.148201 0.500000 0.007143
v 0.011579 0.500000 0.007818
v -0.012843 0.500000 0.010949
v -0.148317 0.500000 -0.098260
v -0.148314 0.500000 0.080078
v -0.085502 0.500000 0.059643
v -0.082562 0.500000 0.060257
v -0.082043 0.500000 0.065993
v -0.128740 0.500000 0.101809
v -0.192098 0.500000 0.138240
v -0.227595 0.500000 0.155745
v -0.233447 0.500000 0.174222
v -0.241004 0.500000 0.177861
v -0.247702 0.500000 0.174080
v -0.253466 0.500000 0.162139
v -0.273057 0.500000 0.107365
v -0.232856 0.500000 0.101350
v -0.201369 0.500000 0.093994
v -0.201369 0.500000 -0.098260
v -0.231318 0.500000 -0.098260
v -0.235655 0.500000 -0.098184
v -0.263164 0.500000 -0.095316
v -0.269710 0.500000 -0.116009
v -0.244255 0.500000 -0.111908
v -0.201369 0.500000 -0.111666
v -0.201536 0.500000 -0.239560
v -0.204093 0.500000 -0.294616
v -0.142182 0.500000 -0.284751
v -0.128327 0.500000 -0.277874
v -0.130388 0.500000 -0.270753
v -0.148120 0.500000 -0.259078
v -0.148317 0.500000 -0.111666
v -0.139279 0.500000 -0.111780
v -0.118090 0.500000 -0.136034
v -0.109758 0.500000 -0.141745
v -0.103156 0.500000 -0.139658
v -0.073965 0.500000 -0.117749
v -0.064966 0.500000 -0.106112
v -0.065148 0.500000 -0.101348
v -0.068264 0.500000 -0.098697
v -0.072447 0.500000 -0.098260
v 0.152596 0.500000 -0.193525
v 0.153334 0.500000 -0.151914
v 0.147264 0.500000 -0.142281
v 0.135014 0.500000 -0.137512
v 0.116671 0.500000 -0.136918
v 0.103319 0.500000 -0.141263
v 0.098840 0.500000 -0.150702
v 0.100114 0.500000 -0.193525
v 0.029949 0.500000 -0.193525
v 0.030675 0.500000 -0.145817
v 0.024508 0.500000 -0.136091
v 0.012025 0.500000 -0.131249
v -0.006562 0.500000 -0.130651
v -0.018795 0.500000 -0.134498
v -0.024364 0.500000 -0.143552
v -0.023103 0.500000 -0.193525
v -0.059327 0.500000 -0.193525
v -0.065119 0.500000 -0.193450
v -0.073365 0.500000 -0.193054
v 0.100028 0.500000 -0.207522
v -0.102704 0.500000 -0.190215
v -0.109148 0.500000 -0.211290
v -0.073183 0.500000 -0.207171
v -0.023103 0.500000 -0.206931
v -0.023229 0.500000 -0.247755
v -0.024982 0.500000 -0.292781
v 0.034572 0.500000 -0.285316
v 0.044336 0.500000 -0.279123
v 0.042905 0.500000 -0.271076
v 0.030233 0.500000 -0.262536
v 0.029949 0.500000 -0.206931
v 0.100008 0.500000 -0.248882
v 0.098502 0.500000 -0.292781
v 0.157798 0.500000 -0.285313
v 0.167562 0.500000 -0.279109
v 0.166070 0.500000 -0.271089
v 0.152876 0.500000 -0.262526
v 0.152596 0.500000 -0.206931
v 0.185005 0.500000 -0.207024
v 0.211122 0.500000 -0.235975
v 0.220587 0.500000 -0.242733
v 0.230449 0.500000 -0.238685
v 0.267843 0.500000 -0.206225
v 0.270760 0.500000 -0.197890
v 0.267675 0.500000 -0.194095
v 0.262978 0.500000 -0.193525
v 0.145180 0.500000 0.203794
v -0.007986 0.500000 0.203794
v -0.008391 0.500000 0.227905
v -0.013869 0.500000 0.237574
v -0.025836 0.500000 0.243135
v -0.043859 0.500000 0.243848
v -0.054962 0.500000 0.240387
v -0.061103 0.500000 0.232609
v -0.060021 0.500000 0.078938
v -0.061602 0.500000 0.042462
v -0.004757 0.500000 0.067978
v 0.137721 0.500000 0.068218
v 0.164234 0.500000 0.042116
v 0.173190 0.500000 0.043975
v 0.197699 0.500000 0.060304
v 0.211164 0.500000 0.073138
v 0.213159 0.500000 0.079477
v 0.210930 0.500000 0.085129
v 0.198731 0.500000 0.095066
v 0.200986 0.500000 0.224846
v 0.194920 0.500000 0.234677
v 0.181657 0.500000 0.240279
v 0.162408 0.500000 0.240952
v 0.150629 0.500000 0.236348
v 0.145503 0.500000 0.226731
v 0.145180 0.500000 0.190388
v 0.145180 0.500000 0.081717
v -0.007986 0.500000 0.081717
v -0.007986 0.500000 0.190388
vn -0.0000 -1.0000 -0.0000
vn -0.0000 1.0000 -0.0000
vn -0.0000 -0.0000 1.0000
vn -0.5654 -0.0000 -0.8248
vn -0.1480 -0.0000 -0.9890
vn -0.8518 -0.0000 0.5239
vn 0.8886 -0.0000 0.4587
vn -1.0000 -0.0000 0.0013
vn -1.0000 -0.0000 -0.0000
vn -1.0000 -0.0000 -0.0070
vn 0.2574 -0.0000 -0.9663
vn -0.5525 -0.0000 0.8335
vn -0.3095 -0.0000 0.9509
vn -0.9563 -0.0000 0.2924
vn 0.0324 -0.0000 0.9995
vn 0.9998 -0.0000 -0.0174
vn 0.4033 -0.0000 0.9151
vn 0.1138 -0.0000 -0.9935
vn 1.0000 -0.0000 -0.0000
vn 0.4985 -0.0000 0.8669
vn 0.9764 -0.0000 0.2160
vn -0.8131 -0.0000 -0.5821
vn 0.6003 -0.0000 -0.7998
vn 0.0048 -0.0000 -1.0000
vn -0.7975 -0.0000 0.6033
vn -0.9416 -0.0000 0.3368
vn -0.5564 -0.0000 -0.8309
vn 0.1574 -0.0000 -0.9875
vn 0.3617 -0.0000 0.9323
vn 0.0851 -0.0000 0.9964
vn 0.4423 -0.0000 0.8969
vn 0.1249 -0.0000 -0.9922
vn -0.9860 -0.0000 0.1666
vn -0.0084 -0.0000 -1.0000
vn 0.1244 -0.0000 -0.9922
vn -0.3618 -0.0000 0.9323
vn -0.0831 -0.0000 -0.9965
vn 0.7072 -0.0000 0.7070
vn -0.9006 -0.0000 0.4347
vn 0.5357 -0.0000 -0.8444
vn 0.5741 -0.0000 -0.8188
vn 0.7743 -0.0000 0.6328
vn 0.4790 -0.0000 -0.8778
vn 0.5363 -0.0000 -0.8440
vn -0.3000 -0.0000 0.9540
vn -0.1541 -0.0000 0.9881
vn -0.7406 -0.0000 -0.6719
vn 0.9533 -0.0000 0.3019
vn 0.0321 -0.0000 0.9995
vn -0.9991 -0.0000 0.0433
vn -0.0029 -0.0000 -1.0000
vn 0.4446 -0.0000 -0.8957
vn -0.7531 -0.0000 -0.6579
vn 0.2032 -0.0000 -0.9791
vn 0.0479 -0.0000 0.9988
vn -0.4916 -0.0000 0.8708
vn -0.8971 -0.0000 -0.4417
vn 0.4338 -0.0000 0.9010
vn 0.5544 -0.0000 -0.8322
vn 0.3518 -0.0000 -0.9361
vn 0.9997 -0.0000 0.0242
vn 0.4095 -0.0000 -0.9123
vn 0.2961 -0.0000 -0.9552
vn 0.9846 -0.0000 0.1750
vn -0.7016 -0.0000 -0.7126
vn 0.9438 -0.0000 -0.3304
vn 0.0130 -0.0000 0.9999
vn 0.2440 -0.0000 -0.9698
vn -0.0000 -0.0000 -1.0000
vn 0.9831 -0.0000 0.1829
vn 0.4160 -0.0000 0.9094
vn 0.2045 -0.0000 -0.9789
vn -0.6721 -0.0000 0.7404
vn -0.9534 -0.0000 0.3016
vn 0.9959 -0.0000 -0.0900
vn 0.9606 -0.0000 0.2780
vn 0.7759 -0.0000 0.6309
vn -0.7208 -0.0000 -0.6932
vn -0.9994 -0.0000 0.0343
vn 0.9999 -0.0000 0.0168
vn 0.1590 -0.0000 -0.9873
vn 0.1205 -0.0000 0.9927
vn 0.1612 -0.0000 -0.9869
vn -0.9999 -0.0000 0.0141
vn -0.9992 -0.0000 0.0389
vn 0.0056 -0.0000 -1.0000
vn 0.6900 -0.0000 -0.7238
vn 0.6039 -0.0000 0.7970
vn -0.9989 -0.0000 0.0464
vn 0.0017 -0.0000 -1.0000
vn -0.9997 -0.0000 -0.0252
vn 0.8510 -0.0000 0.5251
vn -0.0127 -0.0000 -0.9999
vn -0.3094 -0.0000 -0.9509
vn 0.9541 -0.0000 -0.2993
vn -0.8825 -0.0000 0.4703
vn 0.5589 -0.0000 0.8292
vn 0.6583 -0.0000 -0.7527
vn 0.8701 -0.0000 0.4929
vn 0.5444 -0.0000 0.8388
vn 0.1037 -0.0000 0.9946
vn 0.6086 -0.0000 0.7935
vn 0.9999 -0.0000 -0.0152
vn -0.6456 -0.0000 -0.7636
vn 0.7911 -0.0000 -0.6117
vn 0.9539 -0.0000 -0.3002
vn 0.6225 -0.0000 0.7826
vn -0.7848 -0.0000 0.6198
vn 0.5499 -0.0000 0.8352
vn -0.9996 -0.0000 -0.0297
vn 1.0000 -0.0000 0.0051
vn -0.9754 -0.0000 0.2202
vn 0.3891 -0.0000 0.9212
vn 1.0000 -0.0000 0.0050
vn 1.0000 -0.0000 0.0013
vn 0.9993 -0.0000 0.0383
vn -0.3640 -0.0000 0.9314
vn 0.3798 -0.0000 -0.9251
vn 0.7542 -0.0000 0.6566
vn 0.9998 -0.0000 -0.0177
vn 0.1269 -0.0000 -0.9919
vn 0.0349 -0.0000 0.9994
vn -0.5811 -0.0000 -0.8139
vn 0.0015 -0.0000 -1.0000
vn 0.4214 -0.0000 0.9069
vn 0.0175 -0.0000 0.9998
vn 0.9303 -0.0000 0.3669
vn -0.9034 -0.0000 0.4287
vn 0.1271 -0.0000 0.9919
vn -0.2977 -0.0000 0.9547
vn -0.7425 -0.0000 -0.6698
vn 0.0396 -0.0000 0.9992
vn 0.8461 -0.0000 0.5331
vn 0.5158 -0.0000 0.8567
vn -1.0000 -0.0000 0.0005
vn 0.6479 -0.0000 0.7617
vn 0.6604 -0.0000 -0.7509
vn 0.6316 -0.0000 0.7753
vn 0.8445 -0.0000 0.5355
vn 0.8669 -0.0000 -0.4985
vn 0.6555 -0.0000 -0.7552
vn -0.2275 -0.0000 -0.9738
vn 0.3014 -0.0000 -0.9535
vn 0.0049 -0.0000 1.0000
vn -1.0000 -0.0000 0.0031
vn 0.1040 -0.0000 0.9946
vn 0.3628 -0.0000 0.9319
vn 0.8113 -0.0000 0.5846
vt 0.723410 0.000000
vt 0.737150 0.000000
vt 0.745521 0.000000
vt 0.776044 0.000000
vt 0.789785 0.000000
vt 0.798168 0.000000
vt 0.479860 0.000000
vt 0.487069 0.000000
vt 0.491521 0.000000
vt 0.752436 0.000000
vt 0.805044 0.000000
vt 0.496246 0.000000
vt 0.767689 0.000000
vt 0.715101 0.000000
vt 0.471365 0.000000
vt 0.760520 0.000000
vt 0.813154 0.000000
vt 0.504636 0.000000
vt 0.761610 0.000000
vt 0.814241 0.000000
vt 0.505676 0.000000
vt 0.822386 0.000000
vt 0.827122 0.000000
vt 0.832209 0.000000
vt 0.815246 0.000000
vt 0.762626 0.000000
vt 0.847111 0.000000
vt 0.710010 0.000000
vt 0.466460 0.000000
vt 0.695565 0.000000
vt 0.696623 0.000000
vt 0.705386 0.000000
vt 0.687793 0.000000
vt 0.685173 0.000000
vt 0.854045 0.000000
vt 0.683179 0.000000
vt 0.860124 0.000000
vt 0.864809 0.000000
vt 0.682147 0.000000
vt 0.656270 0.000000
vt 0.620227 0.000000
vt 0.633960 0.000000
vt 0.619195 0.000000
vt 0.593997 0.000000
vt 0.557276 0.000000
vt 0.570995 0.000000
vt 0.589017 0.000000
vt 0.575168 0.000000
vt 0.638119 0.000000
vt 0.579206 0.000000
vt 0.513796 0.000000
vt 0.518472 0.000000
vt 0.522767 0.000000
vt 0.651425 0.000000
vt 0.583836 0.000000
vt 0.533855 0.000000
vt 0.642157 0.000000
vt 0.074245 0.000000
vt 0.086991 0.000000
vt 0.094636 0.000000
vt 0.646791 0.000000
vt 0.506682 0.000000
vt 0.065066 0.000000
vt 0.101965 0.000000
vt 0.111328 0.000000
vt 0.451952 0.000000
vt 0.453096 0.000000
vt 0.461813 0.000000
vt 0.441628 0.000000
vt 0.541842 0.000000
vt 0.222869 0.000000
vt 0.547096 0.000000
vt 0.225573 0.000000
vt 0.439628 0.000000
vt 0.552180 0.000000
vt 0.118145 0.000000
vt 0.556244 0.000000
vt 0.438596 0.000000
vt 0.437563 0.000000
vt 0.312694 0.000000
vt 0.313722 0.000000
vt 0.059853 0.000000
vt 0.214493 0.000000
vt 0.230837 0.000000
vt 0.125102 0.000000
vt 0.056250 0.000000
vt 0.129482 0.000000
vt 0.133604 0.000000
vt 0.206759 0.000000
vt 0.248682 0.000000
vt 0.259796 0.000000
vt 0.265806 0.000000
vt 0.140309 0.000000
vt 0.165618 0.000000
vt 0.152217 0.000000
vt 0.277977 0.000000
vt 0.052135 0.000000
vt 0.166061 0.000000
vt 0.311662 0.000000
vt 0.244159 0.000000
vt 0.303468 0.000000
vt 0.004413 0.000000
vt 0.286249 0.000000
vt 0.293834 0.000000
vt 0.170678 0.000000
vt 0.196520 0.000000
vt 0.020355 0.000000
vt 0.177475 0.000000
vt 0.043862 0.000000
vt 0.030922 0.000000
vt 0.184497 0.000000
vt 0.930486 0.000000
vt 0.935660 0.000000
vt 0.943973 0.000000
vt 0.898842 0.000000
vt 0.906074 0.000000
vt 0.918511 0.000000
vt 0.919475 0.000000
vt 0.331993 0.000000
vt 0.343759 0.000000
vt 0.357990 0.000000
vt 0.951965 0.000000
vt 0.367782 0.000000
vt 0.957080 0.000000
vt 0.998968 0.000000
vt 0.997936 0.000000
vt 0.961506 0.000000
vt 1.000000 0.000000
vt 0.996904 0.000000
vt 0.969098 0.000000
vt 0.424957 0.000000
vt 0.412868 0.000000
vt 0.890307 0.000000
vt 0.972897 0.000000
vt 0.373005 0.000000
vt 0.402153 0.000000
vt 0.375760 0.000000
vt 0.395013 0.000000
vt 0.383194 0.000000
vt 0.388453 0.000000
vt 0.866873 0.000000
vt 0.865841 0.000000
vt 0.869768 0.000000
vt 0.993992 0.000000
vt 0.976649 0.000000
vt 0.989770 0.000000
vt 0.873493 0.000000
vt 0.886128 0.000000
vt 0.980659 0.000000
vt 0.985287 0.000000
vt 0.877470 0.000000
vt 0.882065 0.000000
s 0
usemtl Material.001
f 103/1/1 104/2/1 105/3/1
f 110/4/1 111/5/1 112/6/1
f 63/7/1 64/8/1 65/9/1
f 103/1/1 105/3/1 106/10/1
f 110/4/1 112/6/1 113/11/1
f 63/7/1 65/9/1 66/12/1
f 109/13/1 110/4/1 113/11/1
f 102/14/1 103/1/1 106/10/1
f 62/15/1 63/7/1 66/12/1
f 102/14/1 106/10/1 107/16/1
f 109/13/1 113/11/1 114/17/1
f 62/15/1 66/12/1 67/18/1
f 102/14/1 107/16/1 108/19/1
f 109/13/1 114/17/1 115/20/1
f 62/15/1 67/18/1 68/21/1
f 117/22/1 118/23/1 119/24/1
f 116/25/1 117/22/1 119/24/1
f 97/26/1 109/13/1 115/20/1
f 116/25/1 119/24/1 120/27/1
f 101/28/1 102/14/1 108/19/1
f 61/29/1 62/15/1 68/21/1
f 98/30/1 99/31/1 100/32/1
f 98/30/1 100/32/1 101/28/1
f 98/30/1 101/28/1 108/19/1
f 98/30/1 108/19/1 97/26/1
f 96/33/1 97/26/1 115/20/1
f 96/33/1 115/20/1 116/25/1
f 96/33/1 116/25/1 95/34/1
f 95/34/1 116/25/1 120/27/1
f 95/34/1 120/27/1 121/35/1
f 95/34/1 121/35/1 94/36/1
f 94/36/1 121/35/1 122/37/1
f 94/36/1 122/37/1 123/38/1
f 93/39/1 94/36/1 123/38/1
f 92/40/1 93/39/1 86/41/1
f 86/41/1 93/39/1 123/38/1
f 92/40/1 86/41/1 87/42/1
f 85/43/2 86/41/2 123/38/2
f 84/44/1 85/43/1 78/45/1
f 78/45/2 85/43/2 123/38/2
f 84/44/1 78/45/1 79/46/1
f 83/47/1 84/44/1 79/46/1
f 83/47/1 79/46/1 80/48/1
f 92/40/1 87/42/1 88/49/1
f 83/47/1 80/48/1 81/50/1
f 70/51/1 71/52/1 72/53/1
f 91/54/1 92/40/1 88/49/1
f 82/55/1 83/47/1 81/50/1
f 70/51/1 72/53/1 73/56/1
f 91/54/1 88/49/1 89/57/1
f 10/58/1 11/59/1 12/60/1
f 90/61/1 91/54/1 89/57/1
f 69/62/1 70/51/1 73/56/1
f 9/63/1 10/58/1 12/60/1
f 9/63/1 12/60/1 13/64/1
f 9/63/1 13/64/1 14/65/1
f 58/66/1 59/67/1 60/68/1
f 58/66/1 60/68/1 61/29/1
f 58/66/1 61/29/1 68/21/1
f 58/66/1 68/21/1 69/62/1
f 58/66/1 69/62/1 73/56/1
f 58/66/1 73/56/1 57/69/1
f 57/69/1 73/56/1 74/70/1
f 9/63/1 14/65/1 28/71/1
f 57/69/1 74/70/1 75/72/1
f 9/63/1 28/71/1 29/73/1
f 57/69/1 75/72/1 56/74/1
f 56/74/1 75/72/1 76/75/1
f 28/71/1 14/65/1 15/76/1
f 56/74/1 76/75/1 77/77/1
f 55/78/2 56/74/2 77/77/2
f 54/79/1 55/78/1 40/80/1
f 40/80/2 55/78/2 77/77/2
f 54/79/1 40/80/1 41/81/1
f 8/82/1 9/63/1 29/73/1
f 27/83/1 28/71/1 15/76/1
f 8/82/1 29/73/1 30/84/1
f 27/83/1 15/76/1 16/85/1
f 7/86/1 8/82/1 30/84/1
f 27/83/1 16/85/1 17/87/1
f 27/83/1 17/87/1 18/88/1
f 26/89/1 27/83/1 18/88/1
f 32/90/1 33/91/1 34/92/1
f 26/89/1 18/88/1 19/93/1
f 7/86/1 30/84/1 1/94/1
f 26/89/1 19/93/1 20/95/1
f 32/90/1 34/92/1 35/96/1
f 6/97/1 7/86/1 1/94/1
f 26/89/1 20/95/1 21/98/1
f 39/99/1 1/94/1 31/100/1
f 39/99/1 31/100/1 32/90/1
f 39/99/1 32/90/1 38/101/1
f 38/101/1 32/90/1 35/96/1
f 6/97/1 1/94/1 2/102/1
f 38/101/1 35/96/1 36/103/1
f 38/101/1 36/103/1 37/104/1
f 26/89/1 21/98/1 22/105/1
f 25/106/1 26/89/1 22/105/1
f 6/97/1 2/102/1 3/107/1
f 25/106/1 22/105/1 23/108/1
f 5/109/1 6/97/1 3/107/1
f 4/110/1 5/109/1 3/107/1
f 25/106/1 23/108/1 24/111/1
f 136/112/1 137/113/1 138/114/1
f 132/115/1 133/116/1 134/117/1
f 135/118/1 136/112/1 138/114/1
f 42/119/1 43/120/1 44/121/1
f 135/118/1 138/114/1 139/122/1
f 132/115/1 134/117/1 135/118/1
f 132/115/1 135/118/1 139/122/1
f 41/81/1 42/119/1 44/121/1
f 41/81/1 44/121/1 45/123/1
f 132/115/1 139/122/1 140/124/1
f 151/125/1 132/115/1 140/124/1
f 54/79/1 41/81/1 45/123/1
f 151/125/1 140/124/1 150/126/1
f 150/126/1 140/124/1 141/127/1
f 132/115/1 151/125/1 152/128/1
f 149/129/1 150/126/1 142/130/1
f 142/130/1 150/126/1 141/127/1
f 53/131/1 54/79/1 45/123/1
f 52/132/1 53/131/1 45/123/1
f 131/133/1 132/115/1 152/128/1
f 149/129/1 142/130/1 143/134/1
f 52/132/1 45/123/1 46/135/1
f 51/136/1 52/132/1 46/135/1
f 51/136/1 46/135/1 47/137/1
f 50/138/1 51/136/1 47/137/1
f 50/138/1 47/137/1 48/139/1
f 50/138/1 48/139/1 49/140/1
f 131/133/1 152/128/1 125/141/1
f 125/141/1 152/128/1 149/129/1
f 125/141/1 149/129/1 124/142/1
f 124/142/1 149/129/1 143/134/1
f 131/133/1 125/141/1 126/143/1
f 148/144/1 124/142/1 143/134/1
f 148/144/1 143/134/1 144/145/1
f 147/146/1 148/144/1 144/145/1
f 131/133/1 126/143/1 127/147/1
f 130/148/1 131/133/1 127/147/1
f 147/146/1 144/145/1 145/149/1
f 146/150/1 147/146/1 145/149/1
f 130/148/1 127/147/1 128/151/1
f 129/152/1 130/148/1 128/151/1
f 255/1/2 257/3/2 256/2/2
f 262/4/2 264/6/2 263/5/2
f 215/7/2 217/9/2 216/8/2
f 255/1/2 258/10/2 257/3/2
f 262/4/2 265/11/2 264/6/2
f 215/7/2 218/12/2 217/9/2
f 261/13/2 265/11/2 262/4/2
f 254/14/2 258/10/2 255/1/2
f 214/15/2 218/12/2 215/7/2
f 254/14/2 259/16/2 258/10/2
f 261/13/2 266/17/2 265/11/2
f 214/15/2 219/18/2 218/12/2
f 254/14/2 260/19/2 259/16/2
f 261/13/2 267/20/2 266/17/2
f 214/15/2 220/21/2 219/18/2
f 269/22/2 271/24/2 270/23/2
f 268/25/2 271/24/2 269/22/2
f 249/26/2 267/20/2 261/13/2
f 268/25/2 272/27/2 271/24/2
f 253/28/2 260/19/2 254/14/2
f 213/29/2 220/21/2 214/15/2
f 250/30/2 252/32/2 251/31/2
f 250/30/2 253/28/2 252/32/2
f 250/30/2 260/19/2 253/28/2
f 250/30/2 249/26/2 260/19/2
f 248/33/2 267/20/2 249/26/2
f 248/33/2 268/25/2 267/20/2
f 248/33/2 247/34/2 268/25/2
f 247/34/2 272/27/2 268/25/2
f 247/34/2 273/35/2 272/27/2
f 247/34/2 246/36/2 273/35/2
f 246/36/2 274/37/2 273/35/2
f 246/36/2 275/38/2 274/37/2
f 245/39/2 275/38/2 246/36/2
f 244/40/2 238/41/2 245/39/2
f 238/41/2 275/38/2 245/39/2
f 244/40/2 239/42/2 238/41/2
f 237/43/2 275/38/2 238/41/2
f 236/44/2 230/45/2 237/43/2
f 230/45/2 275/38/2 237/43/2
f 236/44/2 231/46/2 230/45/2
f 235/47/2 231/46/2 236/44/2
f 235/47/2 232/48/2 231/46/2
f 244/40/2 240/49/2 239/42/2
f 235/47/2 233/50/2 232/48/2
f 222/51/2 224/53/2 223/52/2
f 243/54/2 240/49/2 244/40/2
f 234/55/2 233/50/2 235/47/2
f 222/51/2 225/56/2 224/53/2
f 243/54/2 241/57/2 240/49/2
f 162/58/2 164/60/2 163/59/2
f 242/61/2 241/57/2 243/54/2
f 221/62/2 225/56/2 222/51/2
f 161/63/2 164/60/2 162/58/2
f 161/63/2 165/64/2 164/60/2
f 161/63/2 166/65/2 165/64/2
f 210/66/2 212/68/2 211/67/2
f 210/66/2 213/29/2 212/68/2
f 210/66/2 220/21/2 213/29/2
f 210/66/2 221/62/2 220/21/2
f 210/66/2 225/56/2 221/62/2
f 210/66/2 209/69/2 225/56/2
f 209/69/2 226/70/2 225/56/2
f 161/63/2 180/71/2 166/65/2
f 209/69/2 227/72/2 226/70/2
f 161/63/2 181/73/2 180/71/2
f 209/69/2 208/74/2 227/72/2
f 208/74/2 228/75/2 227/72/2
f 180/71/2 167/76/2 166/65/2
f 208/74/2 229/77/2 228/75/2
f 207/78/2 229/77/2 208/74/2
f 206/79/2 192/80/2 207/78/2
f 192/80/2 229/77/2 207/78/2
f 206/79/2 193/81/2 192/80/2
f 160/82/2 181/73/2 161/63/2
f 179/83/2 167/76/2 180/71/2
f 160/82/2 182/84/2 181/73/2
f 179/83/2 168/85/2 167/76/2
f 159/86/2 182/84/2 160/82/2
f 179/83/2 169/87/2 168/85/2
f 179/83/2 170/88/2 169/87/2
f 178/89/2 170/88/2 179/83/2
f 184/90/2 186/92/2 185/91/2
f 178/89/2 171/93/2 170/88/2
f 159/86/2 153/94/2 182/84/2
f 178/89/2 172/95/2 171/93/2
f 184/90/2 187/96/2 186/92/2
f 158/97/2 153/94/2 159/86/2
f 178/89/2 173/98/2 172/95/2
f 191/99/2 183/100/2 153/94/2
f 191/99/2 184/90/2 183/100/2
f 191/99/2 190/101/2 184/90/2
f 190/101/2 187/96/2 184/90/2
f 158/97/2 154/102/2 153/94/2
f 190/101/2 188/103/2 187/96/2
f 190/101/2 189/104/2 188/103/2
f 178/89/2 174/105/2 173/98/2
f 177/106/2 174/105/2 178/89/2
f 158/97/2 155/107/2 154/102/2
f 177/106/2 175/108/2 174/105/2
f 157/109/2 155/107/2 158/97/2
f 156/110/2 155/107/2 157/109/2
f 177/106/2 176/111/2 175/108/2
f 288/112/2 290/114/2 289/113/2
f 284/115/2 286/117/2 285/116/2
f 287/118/2 290/114/2 288/112/2
f 194/119/2 196/121/2 195/120/2
f 287/118/2 291/122/2 290/114/2
f 284/115/2 287/118/2 286/117/2
f 284/115/2 291/122/2 287/118/2
f 193/81/2 196/121/2 194/119/2
f 193/81/2 197/123/2 196/121/2
f 284/115/2 292/124/2 291/122/2
f 303/125/2 292/124/2 284/115/2
f 206/79/2 197/123/2 193/81/2
f 303/125/2 302/126/2 292/124/2
f 302/126/2 293/127/2 292/124/2
f 284/115/2 304/128/2 303/125/2
f 301/129/2 294/130/2 302/126/2
f 294/130/2 293/127/2 302/126/2
f 205/131/2 197/123/2 206/79/2
f 204/132/2 197/123/2 205/131/2
f 283/133/2 304/128/2 284/115/2
f 301/129/2 295/134/2 294/130/2
f 204/132/2 198/135/2 197/123/2
f 203/136/2 198/135/2 204/132/2
f 203/136/2 199/137/2 198/135/2
f 202/138/2 199/137/2 203/136/2
f 202/138/2 200/139/2 199/137/2
f 202/138/2 201/140/2 200/139/2
f 283/133/2 277/141/2 304/128/2
f 277/141/2 301/129/2 304/128/2
f 277/141/2 276/142/2 301/129/2
f 276/142/2 295/134/2 301/129/2
f 283/133/2 278/143/2 277/141/2
f 300/144/2 295/134/2 276/142/2
f 300/144/2 296/145/2 295/134/2
f 299/146/2 296/145/2 300/144/2
f 283/133/2 279/147/2 278/143/2
f 282/148/2 279/147/2 283/133/2
f 299/146/2 297/149/2 296/145/2
f 298/150/2 297/149/2 299/146/2
f 282/148/2 280/151/2 279/147/2
f 281/152/2 280/151/2 282/148/2
f 56/74/3 55/78/3 207/78/3 208/74/3
f 71/52/4 70/51/4 222/51/4 223/52/4
f 53/131/5 52/132/5 204/132/5 205/131/5
f 92/40/6 91/54/6 243/54/6 244/40/6
f 22/105/7 21/98/7 173/98/7 174/105/7
f 62/15/8 61/29/8 213/29/8 214/15/8
f 55/78/9 54/79/9 206/79/9 207/78/9
f 132/115/10 131/133/10 283/133/10 284/115/10
f 11/59/11 10/58/11 162/58/11 163/59/11
f 26/89/12 25/106/12 177/106/12 178/89/12
f 83/47/13 82/55/13 234/55/13 235/47/13
f 99/31/14 98/30/14 250/30/14 251/31/14
f 40/80/3 77/77/3 229/77/3 192/80/3
f 82/55/15 81/50/15 233/50/15 234/55/15
f 143/134/16 142/130/16 294/130/16 295/134/16
f 3/107/17 2/102/17 154/102/17 155/107/17
f 100/32/18 99/31/18 251/31/18 252/32/18
f 41/81/19 40/80/19 192/80/19 193/81/19
f 46/135/20 45/123/20 197/123/20 198/135/20
f 23/108/21 22/105/21 174/105/21 175/108/21
f 9/63/22 8/82/22 160/82/22 161/63/22
f 73/56/23 72/53/23 224/53/23 225/56/23
f 101/28/24 100/32/24 252/32/24 253/28/24
f 28/71/25 27/83/25 179/83/25 180/71/25
f 52/132/26 51/136/26 203/136/26 204/132/26
f 6/97/27 5/109/27 157/109/27 158/97/27
f 64/8/28 63/7/28 215/7/28 216/8/28
f 89/57/29 88/49/29 240/49/29 241/57/29
f 98/30/30 97/26/30 249/26/30 250/30/30
f 47/137/31 46/135/31 198/135/31 199/137/31
f 111/5/32 110/4/32 262/4/32 263/5/32
f 5/109/33 4/110/33 156/110/33 157/109/33
f 97/26/34 108/19/34 260/19/34 249/26/34
f 104/2/35 103/1/35 255/1/35 256/2/35
f 25/106/36 24/111/36 176/111/36 177/106/36
f 97/26/37 96/33/37 248/33/37 249/26/37
f 30/84/38 29/73/38 181/73/38 182/84/38
f 51/136/39 50/138/39 202/138/39 203/136/39
f 105/3/40 104/2/40 256/2/40 257/3/40
f 12/60/41 11/59/41 163/59/41 164/60/41
f 24/111/42 23/108/42 175/108/42 176/111/42
f 16/85/43 15/76/43 167/76/43 168/85/43
f 112/6/44 111/5/44 263/5/44 264/6/44
f 91/54/45 90/61/45 242/61/45 243/54/45
f 4/110/46 3/107/46 155/107/46 156/110/46
f 8/82/47 7/86/47 159/86/47 160/82/47
f 48/139/48 47/137/48 199/137/48 200/139/48
f 90/61/49 89/57/49 241/57/49 242/61/49
f 133/116/50 132/115/50 284/115/50 285/116/50
f 116/25/51 115/20/51 267/20/51 268/25/51
f 65/9/52 64/8/52 216/8/52 217/9/52
f 70/51/53 69/62/53 221/62/53 222/51/53
f 137/113/54 136/112/54 288/112/54 289/113/54
f 96/33/55 95/34/55 247/34/55 248/33/55
f 50/138/56 49/140/56 201/140/56 202/138/56
f 10/58/57 9/63/57 161/63/57 162/58/57
f 49/140/58 48/139/58 200/139/58 201/140/58
f 138/114/59 137/113/59 289/113/59 290/114/59
f 17/87/60 16/85/60 168/85/60 169/87/60
f 13/64/61 12/60/61 164/60/61 165/64/61
f 134/117/62 133/116/62 285/116/62 286/117/62
f 34/92/63 33/91/63 185/91/63 186/92/63
f 106/10/64 105/3/64 257/3/64 258/10/64
f 136/112/65 135/118/65 287/118/65 288/112/65
f 121/35/66 120/27/66 272/27/66 273/35/66
f 95/34/67 94/36/67 246/36/67 247/34/67
f 18/88/68 17/87/68 169/87/68 170/88/68
f 149/129/69 152/128/69 304/128/69 301/129/69
f 113/11/70 112/6/70 264/6/70 265/11/70
f 14/65/71 13/64/71 165/64/71 166/65/71
f 43/120/72 42/119/72 194/119/72 195/120/72
f 27/83/73 26/89/73 178/89/73 179/83/73
f 125/141/3 124/142/3 276/142/3 277/141/3
f 59/67/74 58/66/74 210/66/74 211/67/74
f 44/121/75 43/120/75 195/120/75 196/121/75
f 66/12/76 65/9/76 217/9/76 218/12/76
f 122/37/77 121/35/77 273/35/77 274/37/77
f 33/91/78 32/90/78 184/90/78 185/91/78
f 110/4/79 109/13/79 261/13/79 262/4/79
f 126/143/80 125/141/80 277/141/80 278/143/80
f 60/68/81 59/67/81 211/67/81 212/68/81
f 123/38/82 122/37/82 274/37/82 275/38/82
f 19/93/83 18/88/83 170/88/83 171/93/83
f 124/142/84 148/144/84 300/144/84 276/142/84
f 103/1/85 102/14/85 254/14/85 255/1/85
f 61/29/86 60/68/86 212/68/86 213/29/86
f 139/122/87 138/114/87 290/114/87 291/122/87
f 94/36/3 93/39/3 245/39/3 246/36/3
f 1/94/88 30/84/88 182/84/88 153/94/88
f 63/7/89 62/15/89 214/15/89 215/7/89
f 135/118/90 134/117/90 286/117/90 287/118/90
f 93/39/91 92/40/91 244/40/91 245/39/91
f 144/145/92 143/134/92 295/134/92 296/145/92
f 69/62/93 68/21/93 220/21/93 221/62/93
f 42/119/94 41/81/94 193/81/94 194/119/94
f 20/95/95 19/93/95 171/93/95 172/95/95
f 148/144/96 147/146/96 299/146/96 300/144/96
f 107/16/97 106/10/97 258/10/97 259/16/97
f 35/96/98 34/92/98 186/92/98 187/96/98
f 127/147/99 126/143/99 278/143/99 279/147/99
f 114/17/100 113/11/100 265/11/100 266/17/100
f 58/66/101 57/69/101 209/69/101 210/66/101
f 45/123/102 44/121/102 196/121/102 197/123/102
f 87/42/103 86/41/103 238/41/103 239/42/103
f 7/86/104 6/97/104 158/97/104 159/86/104
f 86/41/3 85/43/3 237/43/3 238/41/3
f 74/70/105 73/56/105 225/56/105 226/70/105
f 140/124/106 139/122/106 291/122/106 292/124/106
f 21/98/107 20/95/107 172/95/107 173/98/107
f 131/133/108 130/148/108 282/148/108 283/133/108
f 67/18/109 66/12/109 218/12/109 219/18/109
f 85/43/110 84/44/110 236/44/110 237/43/110
f 108/19/111 107/16/111 259/16/111 260/19/111
f 1/94/112 39/99/112 191/99/112 153/94/112
f 145/149/113 144/145/113 296/145/113 297/149/113
f 115/20/114 114/17/114 266/17/114 267/20/114
f 68/21/115 67/18/115 219/18/115 220/21/115
f 75/72/116 74/70/116 226/70/116 227/72/116
f 78/45/3 123/38/3 275/38/3 230/45/3
f 147/146/117 146/150/117 298/150/117 299/146/117
f 119/24/118 118/23/118 270/23/118 271/24/118
f 29/73/119 28/71/119 180/71/119 181/73/119
f 151/125/3 150/126/3 302/126/3 303/125/3
f 79/46/120 78/45/120 230/45/120 231/46/120
f 31/100/121 1/94/121 153/94/121 183/100/121
f 146/150/122 145/149/122 297/149/122 298/150/122
f 118/23/123 117/22/123 269/22/123 270/23/123
f 32/90/124 31/100/124 183/100/124 184/90/124
f 128/151/125 127/147/125 279/147/125 280/151/125
f 57/69/126 56/74/126 208/74/126 209/69/126
f 141/127/127 140/124/127 292/124/127 293/127/127
f 84/44/128 83/47/128 235/47/128 236/44/128
f 39/99/129 38/101/129 190/101/129 191/99/129
f 130/148/130 129/152/130 281/152/130 282/148/130
f 117/22/131 116/25/131 268/25/131 269/22/131
f 152/128/19 151/125/19 303/125/19 304/128/19
f 129/152/132 128/151/132 280/151/132 281/152/132
f 150/126/9 149/129/9 301/129/9 302/126/9
f 80/48/133 79/46/133 231/46/133 232/48/133
f 2/102/134 1/94/134 153/94/134 154/102/134
f 109/13/135 97/26/135 249/26/135 261/13/135
f 76/75/136 75/72/136 227/72/136 228/75/136
f 15/76/137 14/65/137 166/65/137 167/76/137
f 142/130/138 141/127/138 293/127/138 294/130/138
f 88/49/139 87/42/139 239/42/139 240/49/139
f 36/103/140 35/96/140 187/96/140 188/103/140
f 120/27/141 119/24/141 271/24/141 272/27/141
f 54/79/142 53/131/142 205/131/142 206/79/142
f 72/53/143 71/52/143 223/52/143 224/53/143
f 38/101/144 37/104/144 189/104/144 190/101/144
f 102/14/145 101/28/145 253/28/145 254/14/145
f 77/77/146 76/75/146 228/75/146 229/77/146
f 81/50/147 80/48/147 232/48/147 233/50/147
f 37/104/148 36/103/148 188/103/148 189/104/148
