# Blender 4.2.0
# www.blender.org
mtllib toy_terrain.mtl
o Plane
v -50.000000 0.000000 50.000000
v 50.000000 0.916727 50.000000
v -50.000000 0.000000 -50.000000
v 50.000000 7.939618 -50.000000
v -50.000000 -0.536382 -40.909092
v -50.000000 -1.559021 -31.818182
v -50.000000 -2.032579 -22.727272
v -50.000000 -1.559021 -13.636362
v -50.000000 -0.536382 -4.545453
v -50.000000 0.000000 4.545455
v -50.000000 0.000000 13.636364
v -50.000000 0.000000 22.727274
v -50.000000 0.000000 31.818182
v -50.000000 0.000000 40.909092
v -40.909092 0.000000 50.000000
v -31.818182 0.000000 50.000000
v -22.727272 0.000000 50.000000
v -13.636362 0.000000 50.000000
v -4.545453 0.000000 50.000000
v 4.545455 0.000000 50.000000
v 13.636364 0.916727 50.000000
v 22.727274 2.664511 50.000000
v 31.818182 3.473866 50.000000
v 40.909092 2.664511 50.000000
v 50.000000 4.406461 40.909092
v 50.000000 8.027184 31.818182
v 50.000000 9.547053 22.727272
v 50.000000 8.027184 13.636362
v 50.000000 5.056553 4.545453
v 50.000000 4.761935 -4.545455
v 50.000000 7.939620 -13.636364
v 50.000000 11.319658 -22.727274
v 50.000000 12.636417 -31.818182
v 50.000000 11.319658 -40.909092
v 40.909092 11.319658 -50.000000
v 31.818182 12.636417 -50.000000
v 22.727272 11.319658 -50.000000
v 13.636362 7.939620 -50.000000
v 4.545453 3.551834 -50.000000
v -4.545455 -1.292529 -50.000000
v -13.636364 -2.162874 -50.000000
v -22.727274 -2.032579 -50.000000
v -31.818182 -1.559021 -50.000000
v -40.909092 -0.536382 -50.000000
v -40.909092 0.000000 40.909092
v -40.909092 0.000000 31.818182
v -40.909092 -0.133492 22.727272
v -40.909092 -1.071916 13.636362
v -40.909092 -1.631703 4.545453
v -40.909092 -7.756467 -4.545455
v -40.909092 -6.133268 -13.636364
v -40.909092 -5.586037 -22.727274
v -40.909092 -4.696753 -31.818182
v -40.909092 -2.578246 -40.909092
v -31.818182 0.000000 40.909092
v -31.818182 -0.133493 31.818182
v -31.818182 -6.078255 22.727272
v -31.818182 -10.579924 13.636362
v -31.818182 -12.505674 4.545453
v -31.818182 -18.331936 -4.545455
v -31.818182 -12.613579 -13.636364
v -31.818182 -8.986241 -22.727274
v -31.818182 -7.707319 -31.818182
v -31.818182 -4.696753 -40.909092
v -22.727272 0.000000 40.909092
v -22.727272 -1.071916 31.818182
v -22.727272 -10.574635 22.727272
v -22.727272 -17.306673 13.636362
v -22.727272 -12.557210 4.545453
v -22.727272 -11.546347 -4.545455
v -22.727272 -9.910306 -13.636364
v -22.727272 -10.697931 -22.727274
v -22.727272 -10.036821 -31.818182
v -22.727272 -6.126741 -40.909092
v -13.636362 0.000000 40.909092
v -13.636362 -0.133492 31.818182
v -13.636362 -6.078253 22.727272
v -13.636362 -10.579922 13.636362
v -13.636362 -7.535976 4.545453
v -13.636362 -4.734572 -4.545455
v -13.636362 -8.117548 -13.636364
v -13.636362 -13.026474 -22.727274
v -13.636362 -14.677697 -31.818182
v -13.636362 -9.702374 -40.909092
v -4.545454 0.000000 40.909092
v -4.545454 0.008970 31.818182
v -4.545454 -0.039155 22.727272
v -4.545454 -1.150771 13.636362
v -4.545455 -0.668548 4.545453
v -4.545455 -2.573385 -4.545455
v -4.545455 -5.605534 -13.636364
v -4.545455 -11.870663 -22.727274
v -4.545455 -14.508048 -31.818182
v -4.545455 -8.693688 -40.909092
v 4.545455 0.916728 40.909092
v 4.545455 2.652070 31.818182
v 4.545455 0.063312 22.727272
v 4.545455 -3.136839 13.636362
v 4.545455 -1.740977 4.545453
v 4.545454 0.797194 -4.545455
v 4.545454 1.853859 -13.636364
v 4.545454 0.086828 -22.727274
v 4.545454 -0.272842 -31.818182
v 4.545453 2.162186 -40.909092
v 13.636364 4.406463 40.909092
v 13.636364 7.322321 31.818182
v 13.636364 2.691655 22.727272
v 13.636364 -3.316466 13.636362
v 13.636364 -1.527748 4.545453
v 13.636364 4.171567 -4.545455
v 13.636364 7.934372 -13.636364
v 13.636364 11.264485 -22.727274
v 13.636364 12.631172 -31.818182
v 13.636362 11.319661 -40.909092
v 22.727274 8.027185 40.909092
v 22.727274 13.156610 31.818182
v 22.727274 12.769971 22.727272
v 22.727274 7.284885 13.636362
v 22.727274 5.505971 4.545453
v 22.727274 8.600013 -4.545455
v 22.727274 11.328630 -13.636364
v 22.727274 15.625688 -22.727274
v 22.727274 17.346897 -31.818182
v 22.727272 15.625685 -40.909092
v 31.818182 9.547053 40.909092
v 31.818182 15.358316 31.818182
v 31.818182 17.952173 22.727272
v 31.818182 15.123982 13.636362
v 31.818182 11.177230 4.545453
v 31.818182 10.319582 -4.545455
v 31.818182 12.730497 -13.636364
v 31.818182 17.346897 -22.727274
v 31.818182 19.315950 -31.818182
v 31.818182 17.346895 -40.909092
v 40.909092 8.027185 40.909092
v 40.909092 13.172522 31.818182
v 40.909092 15.358314 22.727272
v 40.909092 13.172522 13.636362
v 40.909092 9.443583 4.545453
v 40.909092 8.686148 -4.545455
v 40.909092 11.328629 -13.636364
v 40.909092 15.625685 -22.727274
v 40.909092 17.346895 -31.818182
v 40.909092 15.625686 -40.909092
vn 0.3628 0.8583 -0.3628
vn 0.1390 0.9805 0.1390
vn 0.1639 0.9487 0.2703
vn 0.0968 0.9248 0.3679
vn 0.1692 0.8302 0.5312
vn -0.0796 0.7702 0.6329
vn -0.6138 0.7108 0.3437
vn -0.5951 0.7989 -0.0875
vn -0.3628 0.8583 -0.3628
vn -0.1480 0.8860 -0.4394
vn 0.1480 0.8860 -0.4394
vn -0.0000 1.0000 -0.0000
vn 0.0073 0.9999 -0.0073
vn 0.0661 0.9965 -0.0514
vn 0.1470 0.9887 -0.0304
vn 0.4158 0.8540 -0.3129
vn 0.5440 0.8386 0.0277
vn 0.4081 0.9129 0.0037
vn 0.3445 0.9362 0.0702
vn 0.2703 0.9487 0.1639
vn 0.3022 0.9041 -0.3022
vn 0.6314 0.7429 -0.2223
vn 0.7432 0.6629 -0.0906
vn 0.7020 0.5951 -0.3912
vn 0.6563 0.6996 0.2825
vn 0.4681 0.8613 0.1978
vn 0.3304 0.9372 0.1118
vn 0.2620 0.9288 0.2620
vn 0.0514 0.9965 -0.0661
vn 0.2221 0.7431 -0.6313
vn 0.4649 0.7532 -0.4654
vn 0.3457 0.9272 0.1440
vn -0.3371 0.9101 -0.2410
vn -0.4355 0.8345 0.3375
vn -0.0538 0.9866 0.1541
vn 0.2158 0.9709 0.1036
vn 0.1897 0.9176 0.3493
vn -0.0514 0.9965 -0.0661
vn -0.2221 0.7431 -0.6313
vn -0.4649 0.7532 -0.4654
vn -0.5106 0.7903 0.3387
vn -0.5372 0.8255 0.1731
vn -0.4262 0.9005 -0.0865
vn 0.0281 0.9539 -0.2989
vn 0.3575 0.9325 -0.0508
vn 0.3762 0.8325 0.4068
vn -0.0078 0.9999 -0.0068
vn -0.3073 0.9038 -0.2979
vn -0.6308 0.7414 -0.2289
vn -0.6606 0.7370 0.1429
vn -0.4443 0.8948 0.0441
vn -0.2356 0.9165 -0.3234
vn -0.1694 0.8397 -0.5160
vn -0.0708 0.9709 -0.2290
vn -0.0556 0.8586 0.5095
vn -0.0503 0.9975 0.0503
vn -0.1913 0.9770 0.0937
vn -0.1478 0.9788 -0.1420
vn 0.1003 0.9681 -0.2296
vn 0.1650 0.9811 0.1013
vn -0.1253 0.9915 0.0345
vn -0.5095 0.8554 -0.0929
vn -0.6988 0.6543 -0.2891
vn -0.8179 0.5677 -0.0936
vn -0.7825 0.5670 0.2573
vn -0.2293 0.9460 0.2293
vn -0.3987 0.8885 0.2273
vn -0.3496 0.8708 -0.3458
vn -0.1193 0.8857 -0.4486
vn -0.0018 0.9850 0.1725
vn -0.1769 0.8965 0.4062
vn -0.4491 0.8636 0.2289
vn -0.6871 0.7239 0.0622
vn -0.7976 0.6022 0.0334
vn -0.7711 0.6355 0.0393
vn -0.2566 0.8690 0.4231
vn -0.4295 0.8258 0.3654
vn -0.6448 0.7368 -0.2033
vn -0.6931 0.6093 -0.3852
vn -0.6962 0.7178 0.0004
vn -0.4936 0.7829 0.3787
vn -0.3755 0.8728 0.3116
vn -0.3660 0.8581 0.3600
vn -0.4416 0.8845 0.1502
vn -0.4396 0.8860 -0.1478
vn -0.1078 0.8416 0.5293
vn -0.1727 0.8440 0.5078
vn -0.3739 0.9207 0.1118
vn -0.5458 0.7621 -0.3484
vn -0.5782 0.7782 -0.2451
vn -0.3742 0.9204 0.1132
vn -0.1630 0.9494 0.2684
vn -0.1524 0.8874 0.4350
vn -0.1951 0.9612 0.1951
vn -0.1951 0.9612 -0.1951
vn 0.1078 0.8415 0.5293
vn 0.1720 0.8437 0.5085
vn 0.2464 0.9373 0.2464
vn 0.2343 0.9372 -0.2584
vn 0.1836 0.9056 -0.3823
vn 0.1814 0.9796 -0.0870
vn 0.1588 0.9513 0.2644
vn 0.1524 0.8874 0.4350
vn 0.1951 0.9612 0.1951
vn 0.1951 0.9612 -0.1951
vn 0.2566 0.8690 0.4231
vn 0.3983 0.8262 0.3983
vn 0.5085 0.8437 0.1720
vn 0.5085 0.8437 -0.1720
vn 0.4414 0.8420 -0.3102
vn 0.4152 0.9082 -0.0526
vn 0.3577 0.8894 0.2847
vn 0.3633 0.8583 0.3624
vn 0.4394 0.8860 0.1480
vn 0.4394 0.8860 -0.1480
vt 0.909091 0.909091
vt 1.000000 0.909091
vt 1.000000 1.000000
vt 0.909091 1.000000
vt 0.000000 0.909091
vt 0.090909 0.909091
vt 0.090909 1.000000
vt 0.000000 1.000000
vt 0.181818 0.909091
vt 0.181818 1.000000
vt 0.272727 0.909091
vt 0.272727 1.000000
vt 0.363636 0.909091
vt 0.363636 1.000000
vt 0.454545 0.909091
vt 0.454545 1.000000
vt 0.545455 0.909091
vt 0.545455 1.000000
vt 0.636364 0.909091
vt 0.636364 1.000000
vt 0.727273 0.909091
vt 0.727273 1.000000
vt 0.818182 0.909091
vt 0.818182 1.000000
vt 0.000000 0.000000
vt 0.090909 0.000000
vt 0.090909 0.090909
vt 0.000000 0.090909
vt 0.090909 0.181818
vt 0.000000 0.181818
vt 0.090909 0.272727
vt 0.000000 0.272727
vt 0.090909 0.363636
vt 0.000000 0.363636
vt 0.090909 0.454545
vt 0.000000 0.454545
vt 0.090909 0.545455
vt 0.000000 0.545455
vt 0.090909 0.636364
vt 0.000000 0.636364
vt 0.090909 0.727273
vt 0.000000 0.727273
vt 0.090909 0.818182
vt 0.000000 0.818182
vt 0.181818 0.000000
vt 0.181818 0.090909
vt 0.181818 0.181818
vt 0.181818 0.272727
vt 0.181818 0.363636
vt 0.181818 0.454545
vt 0.181818 0.545455
vt 0.181818 0.636364
vt 0.181818 0.727273
vt 0.181818 0.818182
vt 0.272727 0.000000
vt 0.272727 0.090909
vt 0.272727 0.181818
vt 0.272727 0.272727
vt 0.272727 0.363636
vt 0.272727 0.454545
vt 0.272727 0.545455
vt 0.272727 0.636364
vt 0.272727 0.727273
vt 0.272727 0.818182
vt 0.363636 0.000000
vt 0.363636 0.090909
vt 0.363636 0.181818
vt 0.363636 0.272727
vt 0.363636 0.363636
vt 0.363636 0.454545
vt 0.363636 0.545455
vt 0.363636 0.636364
vt 0.363636 0.727273
vt 0.363636 0.818182
vt 0.454545 0.000000
vt 0.454545 0.090909
vt 0.454545 0.181818
vt 0.454545 0.272727
vt 0.454545 0.363636
vt 0.454545 0.454545
vt 0.454545 0.545455
vt 0.454545 0.636364
vt 0.454545 0.727273
vt 0.454545 0.818182
vt 0.545455 0.000000
vt 0.545455 0.090909
vt 0.545455 0.181818
vt 0.545455 0.272727
vt 0.545455 0.363636
vt 0.545455 0.454545
vt 0.545455 0.545455
vt 0.545455 0.636364
vt 0.545455 0.727273
vt 0.545455 0.818182
vt 0.636364 0.000000
vt 0.636364 0.090909
vt 0.636364 0.181818
vt 0.636364 0.272727
vt 0.636364 0.363636
vt 0.636364 0.454545
vt 0.636364 0.545455
vt 0.636364 0.636364
vt 0.636364 0.727273
vt 0.636364 0.818182
vt 0.727273 0.000000
vt 0.727273 0.090909
vt 0.727273 0.181818
vt 0.727273 0.272727
vt 0.727273 0.363636
vt 0.727273 0.454545
vt 0.727273 0.545455
vt 0.727273 0.636364
vt 0.727273 0.727273
vt 0.727273 0.818182
vt 0.818182 0.000000
vt 0.818182 0.090909
vt 0.818182 0.181818
vt 0.818182 0.272727
vt 0.818182 0.363636
vt 0.818182 0.454545
vt 0.818182 0.545455
vt 0.818182 0.636364
vt 0.818182 0.727273
vt 0.818182 0.818182
vt 0.909091 0.000000
vt 0.909091 0.090909
vt 0.909091 0.181818
vt 0.909091 0.272727
vt 0.909091 0.363636
vt 0.909091 0.454545
vt 0.909091 0.545455
vt 0.909091 0.636364
vt 0.909091 0.727273
vt 0.909091 0.818182
vt 1.000000 0.000000
vt 1.000000 0.090909
vt 1.000000 0.181818
vt 1.000000 0.272727
vt 1.000000 0.363636
vt 1.000000 0.454545
vt 1.000000 0.545455
vt 1.000000 0.636364
vt 1.000000 0.727273
vt 1.000000 0.818182
s 0
usemtl Material.001
f 144/1/1 34/2/1 4/3/1 35/4/1
f 5/5/2 54/6/2 44/7/2 3/8/2
f 54/6/3 64/9/3 43/10/3 44/7/3
f 64/9/4 74/11/4 42/12/4 43/10/4
f 74/11/5 84/13/5 41/14/5 42/12/5
f 84/13/6 94/15/6 40/16/6 41/14/6
f 94/15/7 104/17/7 39/18/7 40/16/7
f 104/17/8 114/19/8 38/20/8 39/18/8
f 114/19/9 124/21/9 37/22/9 38/20/9
f 124/21/10 134/23/10 36/24/10 37/22/10
f 134/23/11 144/1/11 35/4/11 36/24/11
f 1/25/12 15/26/12 45/27/12 14/28/12
f 14/28/12 45/27/12 46/29/12 13/30/12
f 13/30/13 46/29/13 47/31/13 12/32/13
f 12/32/14 47/31/14 48/33/14 11/34/14
f 11/34/15 48/33/15 49/35/15 10/36/15
f 10/36/16 49/35/16 50/37/16 9/38/16
f 9/38/17 50/37/17 51/39/17 8/40/17
f 8/40/18 51/39/18 52/41/18 7/42/18
f 7/42/19 52/41/19 53/43/19 6/44/19
f 6/44/20 53/43/20 54/6/20 5/5/20
f 15/26/12 16/45/12 55/46/12 45/27/12
f 45/27/13 55/46/13 56/47/13 46/29/13
f 46/29/21 56/47/21 57/48/21 47/31/21
f 47/31/22 57/48/22 58/49/22 48/33/22
f 48/33/23 58/49/23 59/50/23 49/35/23
f 49/35/24 59/50/24 60/51/24 50/37/24
f 50/37/25 60/51/25 61/52/25 51/39/25
f 51/39/26 61/52/26 62/53/26 52/41/26
f 52/41/27 62/53/27 63/54/27 53/43/27
f 53/43/28 63/54/28 64/9/28 54/6/28
f 16/45/12 17/55/12 65/56/12 55/46/12
f 55/46/29 65/56/29 66/57/29 56/47/29
f 56/47/30 66/57/30 67/58/30 57/48/30
f 57/48/31 67/58/31 68/59/31 58/49/31
f 58/49/32 68/59/32 69/60/32 59/50/32
f 59/50/33 69/60/33 70/61/33 60/51/33
f 60/51/34 70/61/34 71/62/34 61/52/34
f 61/52/35 71/62/35 72/63/35 62/53/35
f 62/53/36 72/63/36 73/64/36 63/54/36
f 63/54/37 73/64/37 74/11/37 64/9/37
f 17/55/12 18/65/12 75/66/12 65/56/12
f 65/56/38 75/66/38 76/67/38 66/57/38
f 66/57/39 76/67/39 77/68/39 67/58/39
f 67/58/40 77/68/40 78/69/40 68/59/40
f 68/59/41 78/69/41 79/70/41 69/60/41
f 69/60/42 79/70/42 80/71/42 70/61/42
f 70/61/43 80/71/43 81/72/43 71/62/43
f 71/62/44 81/72/44 82/73/44 72/63/44
f 72/63/45 82/73/45 83/74/45 73/64/45
f 73/64/46 83/74/46 84/13/46 74/11/46
f 18/65/12 19/75/12 85/76/12 75/66/12
f 75/66/47 85/76/47 86/77/47 76/67/47
f 76/67/48 86/77/48 87/78/48 77/68/48
f 77/68/49 87/78/49 88/79/49 78/69/49
f 78/69/50 88/79/50 89/80/50 79/70/50
f 79/70/51 89/80/51 90/81/51 80/71/51
f 80/71/52 90/81/52 91/82/52 81/72/52
f 81/72/53 91/82/53 92/83/53 82/73/53
f 82/73/54 92/83/54 93/84/54 83/74/54
f 83/74/55 93/84/55 94/15/55 84/13/55
f 19/75/56 20/85/56 95/86/56 85/76/56
f 85/76/57 95/86/57 96/87/57 86/77/57
f 86/77/58 96/87/58 97/88/58 87/78/58
f 87/78/59 97/88/59 98/89/59 88/79/59
f 88/79/60 98/89/60 99/90/60 89/80/60
f 89/80/61 99/90/61 100/91/61 90/81/61
f 90/81/62 100/91/62 101/92/62 91/82/62
f 91/82/63 101/92/63 102/93/63 92/83/63
f 92/83/64 102/93/64 103/94/64 93/84/64
f 93/84/65 103/94/65 104/17/65 94/15/65
f 20/85/66 21/95/66 105/96/66 95/86/66
f 95/86/67 105/96/67 106/97/67 96/87/67
f 96/87/68 106/97/68 107/98/68 97/88/68
f 97/88/69 107/98/69 108/99/69 98/89/69
f 98/89/70 108/99/70 109/100/70 99/90/70
f 99/90/71 109/100/71 110/101/71 100/91/71
f 100/91/72 110/101/72 111/102/72 101/92/72
f 101/92/73 111/102/73 112/103/73 102/93/73
f 102/93/74 112/103/74 113/104/74 103/94/74
f 103/94/75 113/104/75 114/19/75 104/17/75
f 21/95/76 22/105/76 115/106/76 105/96/76
f 105/96/77 115/106/77 116/107/77 106/97/77
f 106/97/78 116/107/78 117/108/78 107/98/78
f 107/98/79 117/108/79 118/109/79 108/99/79
f 108/99/80 118/109/80 119/110/80 109/100/80
f 109/100/81 119/110/81 120/111/81 110/101/81
f 110/101/82 120/111/82 121/112/82 111/102/82
f 111/102/83 121/112/83 122/113/83 112/103/83
f 112/103/84 122/113/84 123/114/84 113/104/84
f 113/104/85 123/114/85 124/21/85 114/19/85
f 22/105/86 23/115/86 125/116/86 115/106/86
f 115/106/87 125/116/87 126/117/87 116/107/87
f 116/107/88 126/117/88 127/118/88 117/108/88
f 117/108/89 127/118/89 128/119/89 118/109/89
f 118/109/90 128/119/90 129/120/90 119/110/90
f 119/110/91 129/120/91 130/121/91 120/111/91
f 120/111/92 130/121/92 131/122/92 121/112/92
f 121/112/93 131/122/93 132/123/93 122/113/93
f 122/113/94 132/123/94 133/124/94 123/114/94
f 123/114/95 133/124/95 134/23/95 124/21/95
f 23/115/96 24/125/96 135/126/96 125/116/96
f 125/116/97 135/126/97 136/127/97 126/117/97
f 126/117/98 136/127/98 137/128/98 127/118/98
f 127/118/99 137/128/99 138/129/99 128/119/99
f 128/119/100 138/129/100 139/130/100 129/120/100
f 129/120/101 139/130/101 140/131/101 130/121/101
f 130/121/102 140/131/102 141/132/102 131/122/102
f 131/122/103 141/132/103 142/133/103 132/123/103
f 132/123/104 142/133/104 143/134/104 133/124/104
f 133/124/105 143/134/105 144/1/105 134/23/105
f 24/125/106 2/135/106 25/136/106 135/126/106
f 135/126/107 25/136/107 26/137/107 136/127/107
f 136/127/108 26/137/108 27/138/108 137/128/108
f 137/128/109 27/138/109 28/139/109 138/129/109
f 138/129/110 28/139/110 29/140/110 139/130/110
f 139/130/111 29/140/111 30/141/111 140/131/111
f 140/131/112 30/141/112 31/142/112 141/132/112
f 141/132/113 31/142/113 32/143/113 142/133/113
f 142/133/114 32/143/114 33/144/114 143/134/114
f 143/134/115 33/144/115 34/2/115 144/1/115
o Plane.001
v 15.000000 10.000000 20.000000
v 65.000000 10.458364 20.000000
v 15.000000 10.000000 -30.000000
v 65.000000 13.969809 -30.000000
v 15.000000 9.731809 -25.454546
v 15.000000 9.220490 -20.909092
v 15.000000 8.983710 -16.363636
v 15.000000 9.220490 -11.818181
v 15.000000 9.731809 -7.272727
v 15.000000 10.000000 -2.727272
v 15.000000 10.000000 1.818182
v 15.000000 10.000000 6.363637
v 15.000000 10.000000 10.909091
v 15.000000 10.000000 15.454546
v 19.545454 10.000000 20.000000
v 24.090908 10.000000 20.000000
v 28.636364 10.000000 20.000000
v 33.181820 10.000000 20.000000
v 37.727272 10.000000 20.000000
v 42.272728 10.000000 20.000000
v 46.818184 10.458364 20.000000
v 51.363636 11.332255 20.000000
v 55.909092 11.736933 20.000000
v 60.454544 11.332255 20.000000
v 65.000000 12.203230 15.454546
v 65.000000 14.013592 10.909091
v 65.000000 14.773527 6.363636
v 65.000000 14.013592 1.818181
v 65.000000 12.528276 -2.727273
v 65.000000 12.380967 -7.272728
v 65.000000 13.969810 -11.818182
v 65.000000 15.659829 -16.363636
v 65.000000 16.318209 -20.909092
v 65.000000 15.659829 -25.454546
v 60.454544 15.659829 -30.000000
v 55.909092 16.318209 -30.000000
v 51.363636 15.659829 -30.000000
v 46.818180 13.969810 -30.000000
v 42.272728 11.775917 -30.000000
v 37.727272 9.353735 -30.000000
v 33.181816 8.918563 -30.000000
v 28.636364 8.983710 -30.000000
v 24.090908 9.220490 -30.000000
v 19.545454 9.731809 -30.000000
v 19.545454 10.000000 15.454546
v 19.545454 10.000000 10.909091
v 19.545454 9.933254 6.363636
v 19.545454 9.464043 1.818181
v 19.545454 9.184149 -2.727273
v 19.545454 6.121766 -7.272728
v 19.545454 6.933366 -11.818182
v 19.545454 7.206982 -16.363636
v 19.545454 7.651624 -20.909092
v 19.545454 8.710876 -25.454546
v 24.090908 10.000000 15.454546
v 24.090908 9.933253 10.909091
v 24.090908 6.960873 6.363636
v 24.090908 4.710038 1.818181
v 24.090908 3.747163 -2.727273
v 24.090908 0.834032 -7.272728
v 24.090908 3.693211 -11.818182
v 24.090908 5.506879 -16.363636
v 24.090908 6.146340 -20.909092
v 24.090908 7.651624 -25.454546
v 28.636364 10.000000 15.454546
v 28.636364 9.464043 10.909091
v 28.636364 4.712683 6.363636
v 28.636364 1.346663 1.818181
v 28.636364 3.721395 -2.727273
v 28.636364 4.226827 -7.272728
v 28.636364 5.044847 -11.818182
v 28.636364 4.651034 -16.363636
v 28.636364 4.981589 -20.909092
v 28.636364 6.936629 -25.454546
v 33.181820 10.000000 15.454546
v 33.181820 9.933254 10.909091
v 33.181820 6.960874 6.363636
v 33.181820 4.710039 1.818181
v 33.181820 6.232012 -2.727273
v 33.181820 7.632714 -7.272728
v 33.181820 5.941226 -11.818182
v 33.181820 3.486763 -16.363636
v 33.181820 2.661151 -20.909092
v 33.181820 5.148813 -25.454546
v 37.727272 10.000000 15.454546
v 37.727272 10.004485 10.909091
v 37.727272 9.980422 6.363636
v 37.727272 9.424615 1.818181
v 37.727272 9.665726 -2.727273
v 37.727272 8.713307 -7.272728
v 37.727272 7.197233 -11.818182
v 37.727272 4.064669 -16.363636
v 37.727272 2.745976 -20.909092
v 37.727272 5.653156 -25.454546
v 42.272728 10.458364 15.454546
v 42.272728 11.326035 10.909091
v 42.272728 10.031656 6.363636
v 42.272728 8.431581 1.818181
v 42.272728 9.129512 -2.727273
v 42.272728 10.398597 -7.272728
v 42.272728 10.926929 -11.818182
v 42.272728 10.043414 -16.363636
v 42.272728 9.863579 -20.909092
v 42.272728 11.081093 -25.454546
v 46.818184 12.203232 15.454546
v 46.818184 13.661160 10.909091
v 46.818184 11.345827 6.363636
v 46.818184 8.341767 1.818181
v 46.818184 9.236126 -2.727273
v 46.818184 12.085784 -7.272728
v 46.818184 13.967186 -11.818182
v 46.818184 15.632242 -16.363636
v 46.818184 16.315586 -20.909092
v 46.818180 15.659830 -25.454546
v 51.363636 14.013593 15.454546
v 51.363636 16.578304 10.909091
v 51.363636 16.384985 6.363636
v 51.363636 13.642443 1.818181
v 51.363636 12.752985 -2.727273
v 51.363636 14.300007 -7.272728
v 51.363636 15.664315 -11.818182
v 51.363636 17.812843 -16.363636
v 51.363636 18.673449 -20.909092
v 51.363636 17.812843 -25.454546
v 55.909092 14.773527 15.454546
v 55.909092 17.679157 10.909091
v 55.909092 18.976086 6.363636
v 55.909092 17.561991 1.818181
v 55.909092 15.588615 -2.727273
v 55.909092 15.159791 -7.272728
v 55.909092 16.365250 -11.818182
v 55.909092 18.673449 -16.363636
v 55.909092 19.657974 -20.909092
v 55.909092 18.673447 -25.454546
v 60.454544 14.013593 15.454546
v 60.454544 16.586262 10.909091
v 60.454544 17.679157 6.363636
v 60.454544 16.586262 1.818181
v 60.454544 14.721792 -2.727273
v 60.454544 14.343074 -7.272728
v 60.454544 15.664314 -11.818182
v 60.454544 17.812843 -16.363636
v 60.454544 18.673447 -20.909092
v 60.454544 17.812843 -25.454546
vn 0.3628 0.8583 -0.3628
vn 0.1390 0.9805 0.1390
vn 0.1639 0.9487 0.2703
vn 0.0968 0.9248 0.3679
vn 0.1692 0.8302 0.5312
vn -0.0796 0.7702 0.6329
vn -0.6138 0.7108 0.3437
vn -0.5951 0.7989 -0.0875
vn -0.3628 0.8583 -0.3628
vn -0.1480 0.8860 -0.4394
vn 0.1480 0.8860 -0.4394
vn -0.0000 1.0000 -0.0000
vn 0.0073 0.9999 -0.0073
vn 0.0661 0.9965 -0.0514
vn 0.1470 0.9887 -0.0304
vn 0.4158 0.8540 -0.3129
vn 0.5440 0.8386 0.0277
vn 0.4081 0.9129 0.0037
vn 0.3445 0.9362 0.0702
vn 0.2703 0.9487 0.1639
vn 0.3022 0.9041 -0.3022
vn 0.6314 0.7429 -0.2223
vn 0.7432 0.6629 -0.0906
vn 0.7020 0.5951 -0.3912
vn 0.6563 0.6996 0.2825
vn 0.4681 0.8613 0.1978
vn 0.3304 0.9372 0.1118
vn 0.2620 0.9288 0.2620
vn 0.0514 0.9965 -0.0661
vn 0.2221 0.7431 -0.6313
vn 0.4649 0.7532 -0.4654
vn 0.3457 0.9272 0.1440
vn -0.3371 0.9101 -0.2410
vn -0.4355 0.8345 0.3375
vn -0.0538 0.9866 0.1541
vn 0.2158 0.9709 0.1036
vn 0.1897 0.9176 0.3493
vn -0.0514 0.9965 -0.0661
vn -0.2221 0.7431 -0.6313
vn -0.4649 0.7532 -0.4654
vn -0.5106 0.7903 0.3387
vn -0.5372 0.8255 0.1731
vn -0.4262 0.9005 -0.0865
vn 0.0281 0.9539 -0.2989
vn 0.3575 0.9325 -0.0508
vn 0.3762 0.8325 0.4068
vn -0.0078 0.9999 -0.0068
vn -0.3073 0.9038 -0.2979
vn -0.6308 0.7414 -0.2289
vn -0.6606 0.7370 0.1429
vn -0.4443 0.8948 0.0441
vn -0.2356 0.9165 -0.3234
vn -0.1694 0.8397 -0.5160
vn -0.0708 0.9709 -0.2290
vn -0.0556 0.8586 0.5095
vn -0.0503 0.9975 0.0503
vn -0.1913 0.9770 0.0937
vn -0.1478 0.9788 -0.1420
vn 0.1003 0.9681 -0.2296
vn 0.1650 0.9811 0.1013
vn -0.1253 0.9915 0.0345
vn -0.5095 0.8554 -0.0929
vn -0.6988 0.6543 -0.2891
vn -0.8179 0.5677 -0.0936
vn -0.7825 0.5670 0.2573
vn -0.2293 0.9460 0.2293
vn -0.3987 0.8885 0.2273
vn -0.3496 0.8708 -0.3458
vn -0.1193 0.8857 -0.4486
vn -0.0018 0.9850 0.1725
vn -0.1769 0.8965 0.4062
vn -0.4491 0.8636 0.2289
vn -0.6871 0.7239 0.0622
vn -0.7976 0.6022 0.0334
vn -0.7711 0.6355 0.0393
vn -0.2566 0.8690 0.4231
vn -0.4295 0.8258 0.3654
vn -0.6448 0.7368 -0.2033
vn -0.6931 0.6093 -0.3852
vn -0.6962 0.7178 0.0004
vn -0.4936 0.7829 0.3787
vn -0.3755 0.8728 0.3116
vn -0.3660 0.8581 0.3600
vn -0.4416 0.8845 0.1502
vn -0.4396 0.8860 -0.1478
vn -0.1078 0.8416 0.5293
vn -0.1727 0.8440 0.5078
vn -0.3739 0.9207 0.1118
vn -0.5458 0.7621 -0.3484
vn -0.5782 0.7782 -0.2451
vn -0.3742 0.9204 0.1132
vn -0.1630 0.9494 0.2684
vn -0.1524 0.8874 0.4350
vn -0.1951 0.9612 0.1951
vn -0.1951 0.9612 -0.1951
vn 0.1078 0.8415 0.5293
vn 0.1720 0.8437 0.5085
vn 0.2464 0.9373 0.2464
vn 0.2343 0.9372 -0.2584
vn 0.1836 0.9056 -0.3823
vn 0.1814 0.9796 -0.0870
vn 0.1588 0.9513 0.2644
vn 0.1524 0.8874 0.4350
vn 0.1951 0.9612 0.1951
vn 0.1951 0.9612 -0.1951
vn 0.2566 0.8690 0.4231
vn 0.3983 0.8262 0.3983
vn 0.5085 0.8437 0.1720
vn 0.5085 0.8437 -0.1720
vn 0.4414 0.8420 -0.3102
vn 0.4152 0.9082 -0.0526
vn 0.3577 0.8894 0.2847
vn 0.3633 0.8583 0.3624
vn 0.4394 0.8860 0.1480
vn 0.4394 0.8860 -0.1480
vt 0.909091 0.909091
vt 1.000000 0.909091
vt 1.000000 1.000000
vt 0.909091 1.000000
vt 0.000000 0.909091
vt 0.090909 0.909091
vt 0.090909 1.000000
vt 0.000000 1.000000
vt 0.181818 0.909091
vt 0.181818 1.000000
vt 0.272727 0.909091
vt 0.272727 1.000000
vt 0.363636 0.909091
vt 0.363636 1.000000
vt 0.454545 0.909091
vt 0.454545 1.000000
vt 0.545455 0.909091
vt 0.545455 1.000000
vt 0.636364 0.909091
vt 0.636364 1.000000
vt 0.727273 0.909091
vt 0.727273 1.000000
vt 0.818182 0.909091
vt 0.818182 1.000000
vt 0.000000 0.000000
vt 0.090909 0.000000
vt 0.090909 0.090909
vt 0.000000 0.090909
vt 0.090909 0.181818
vt 0.000000 0.181818
vt 0.090909 0.272727
vt 0.000000 0.272727
vt 0.090909 0.363636
vt 0.000000 0.363636
vt 0.090909 0.454545
vt 0.000000 0.454545
vt 0.090909 0.545455
vt 0.000000 0.545455
vt 0.090909 0.636364
vt 0.000000 0.636364
vt 0.090909 0.727273
vt 0.000000 0.727273
vt 0.090909 0.818182
vt 0.000000 0.818182
vt 0.181818 0.000000
vt 0.181818 0.090909
vt 0.181818 0.181818
vt 0.181818 0.272727
vt 0.181818 0.363636
vt 0.181818 0.454545
vt 0.181818 0.545455
vt 0.181818 0.636364
vt 0.181818 0.727273
vt 0.181818 0.818182
vt 0.272727 0.000000
vt 0.272727 0.090909
vt 0.272727 0.181818
vt 0.272727 0.272727
vt 0.272727 0.363636
vt 0.272727 0.454545
vt 0.272727 0.545455
vt 0.272727 0.636364
vt 0.272727 0.727273
vt 0.272727 0.818182
vt 0.363636 0.000000
vt 0.363636 0.090909
vt 0.363636 0.181818
vt 0.363636 0.272727
vt 0.363636 0.363636
vt 0.363636 0.454545
vt 0.363636 0.545455
vt 0.363636 0.636364
vt 0.363636 0.727273
vt 0.363636 0.818182
vt 0.454545 0.000000
vt 0.454545 0.090909
vt 0.454545 0.181818
vt 0.454545 0.272727
vt 0.454545 0.363636
vt 0.454545 0.454545
vt 0.454545 0.545455
vt 0.454545 0.636364
vt 0.454545 0.727273
vt 0.454545 0.818182
vt 0.545455 0.000000
vt 0.545455 0.090909
vt 0.545455 0.181818
vt 0.545455 0.272727
vt 0.545455 0.363636
vt 0.545455 0.454545
vt 0.545455 0.545455
vt 0.545455 0.636364
vt 0.545455 0.727273
vt 0.545455 0.818182
vt 0.636364 0.000000
vt 0.636364 0.090909
vt 0.636364 0.181818
vt 0.636364 0.272727
vt 0.636364 0.363636
vt 0.636364 0.454545
vt 0.636364 0.545455
vt 0.636364 0.636364
vt 0.636364 0.727273
vt 0.636364 0.818182
vt 0.727273 0.000000
vt 0.727273 0.090909
vt 0.727273 0.181818
vt 0.727273 0.272727
vt 0.727273 0.363636
vt 0.727273 0.454545
vt 0.727273 0.545455
vt 0.727273 0.636364
vt 0.727273 0.727273
vt 0.727273 0.818182
vt 0.818182 0.000000
vt 0.818182 0.090909
vt 0.818182 0.181818
vt 0.818182 0.272727
vt 0.818182 0.363636
vt 0.818182 0.454545
vt 0.818182 0.545455
vt 0.818182 0.636364
vt 0.818182 0.727273
vt 0.818182 0.818182
vt 0.909091 0.000000
vt 0.909091 0.090909
vt 0.909091 0.181818
vt 0.909091 0.272727
vt 0.909091 0.363636
vt 0.909091 0.454545
vt 0.909091 0.545455
vt 0.909091 0.636364
vt 0.909091 0.727273
vt 0.909091 0.818182
vt 1.000000 0.000000
vt 1.000000 0.090909
vt 1.000000 0.181818
vt 1.000000 0.272727
vt 1.000000 0.363636
vt 1.000000 0.454545
vt 1.000000 0.545455
vt 1.000000 0.636364
vt 1.000000 0.727273
vt 1.000000 0.818182
s 0
usemtl Material.003
f 288/145/116 178/146/116 148/147/116 179/148/116
f 149/149/117 198/150/117 188/151/117 147/152/117
f 198/150/118 208/153/118 187/154/118 188/151/118
f 208/153/119 218/155/119 186/156/119 187/154/119
f 218/155/120 228/157/120 185/158/120 186/156/120
f 228/157/121 238/159/121 184/160/121 185/158/121
f 238/159/122 248/161/122 183/162/122 184/160/122
f 248/161/123 258/163/123 182/164/123 183/162/123
f 258/163/124 268/165/124 181/166/124 182/164/124
f 268/165/125 278/167/125 180/168/125 181/166/125
f 278/167/126 288/145/126 179/148/126 180/168/126
f 145/169/127 159/170/127 189/171/127 158/172/127
f 158/172/127 189/171/127 190/173/127 157/174/127
f 157/174/128 190/173/128 191/175/128 156/176/128
f 156/176/129 191/175/129 192/177/129 155/178/129
f 155/178/130 192/177/130 193/179/130 154/180/130
f 154/180/131 193/179/131 194/181/131 153/182/131
f 153/182/132 194/181/132 195/183/132 152/184/132
f 152/184/133 195/183/133 196/185/133 151/186/133
f 151/186/134 196/185/134 197/187/134 150/188/134
f 150/188/135 197/187/135 198/150/135 149/149/135
f 159/170/127 160/189/127 199/190/127 189/171/127
f 189/171/128 199/190/128 200/191/128 190/173/128
f 190/173/136 200/191/136 201/192/136 191/175/136
f 191/175/137 201/192/137 202/193/137 192/177/137
f 192/177/138 202/193/138 203/194/138 193/179/138
f 193/179/139 203/194/139 204/195/139 194/181/139
f 194/181/140 204/195/140 205/196/140 195/183/140
f 195/183/141 205/196/141 206/197/141 196/185/141
f 196/185/142 206/197/142 207/198/142 197/187/142
f 197/187/143 207/198/143 208/153/143 198/150/143
f 160/189/127 161/199/127 209/200/127 199/190/127
f 199/190/144 209/200/144 210/201/144 200/191/144
f 200/191/145 210/201/145 211/202/145 201/192/145
f 201/192/146 211/202/146 212/203/146 202/193/146
f 202/193/147 212/203/147 213/204/147 203/194/147
f 203/194/148 213/204/148 214/205/148 204/195/148
f 204/195/149 214/205/149 215/206/149 205/196/149
f 205/196/150 215/206/150 216/207/150 206/197/150
f 206/197/151 216/207/151 217/208/151 207/198/151
f 207/198/152 217/208/152 218/155/152 208/153/152
f 161/199/127 162/209/127 219/210/127 209/200/127
f 209/200/153 219/210/153 220/211/153 210/201/153
f 210/201/154 220/211/154 221/212/154 211/202/154
f 211/202/155 221/212/155 222/213/155 212/203/155
f 212/203/156 222/213/156 223/214/156 213/204/156
f 213/204/157 223/214/157 224/215/157 214/205/157
f 214/205/158 224/215/158 225/216/158 215/206/158
f 215/206/159 225/216/159 226/217/159 216/207/159
f 216/207/160 226/217/160 227/218/160 217/208/160
f 217/208/161 227/218/161 228/157/161 218/155/161
f 162/209/127 163/219/127 229/220/127 219/210/127
f 219/210/162 229/220/162 230/221/162 220/211/162
f 220/211/163 230/221/163 231/222/163 221/212/163
f 221/212/164 231/222/164 232/223/164 222/213/164
f 222/213/165 232/223/165 233/224/165 223/214/165
f 223/214/166 233/224/166 234/225/166 224/215/166
f 224/215/167 234/225/167 235/226/167 225/216/167
f 225/216/168 235/226/168 236/227/168 226/217/168
f 226/217/169 236/227/169 237/228/169 227/218/169
f 227/218/170 237/228/170 238/159/170 228/157/170
f 163/219/171 164/229/171 239/230/171 229/220/171
f 229/220/172 239/230/172 240/231/172 230/221/172
f 230/221/173 240/231/173 241/232/173 231/222/173
f 231/222/174 241/232/174 242/233/174 232/223/174
f 232/223/175 242/233/175 243/234/175 233/224/175
f 233/224/176 243/234/176 244/235/176 234/225/176
f 234/225/177 244/235/177 245/236/177 235/226/177
f 235/226/178 245/236/178 246/237/178 236/227/178
f 236/227/179 246/237/179 247/238/179 237/228/179
f 237/228/180 247/238/180 248/161/180 238/159/180
f 164/229/181 165/239/181 249/240/181 239/230/181
f 239/230/182 249/240/182 250/241/182 240/231/182
f 240/231/183 250/241/183 251/242/183 241/232/183
f 241/232/184 251/242/184 252/243/184 242/233/184
f 242/233/185 252/243/185 253/244/185 243/234/185
f 243/234/186 253/244/186 254/245/186 244/235/186
f 244/235/187 254/245/187 255/246/187 245/236/187
f 245/236/188 255/246/188 256/247/188 246/237/188
f 246/237/189 256/247/189 257/248/189 247/238/189
f 247/238/190 257/248/190 258/163/190 248/161/190
f 165/239/191 166/249/191 259/250/191 249/240/191
f 249/240/192 259/250/192 260/251/192 250/241/192
f 250/241/193 260/251/193 261/252/193 251/242/193
f 251/242/194 261/252/194 262/253/194 252/243/194
f 252/243/195 262/253/195 263/254/195 253/244/195
f 253/244/196 263/254/196 264/255/196 254/245/196
f 254/245/197 264/255/197 265/256/197 255/246/197
f 255/246/198 265/256/198 266/257/198 256/247/198
f 256/247/199 266/257/199 267/258/199 257/248/199
f 257/248/200 267/258/200 268/165/200 258/163/200
f 166/249/201 167/259/201 269/260/201 259/250/201
f 259/250/202 269/260/202 270/261/202 260/251/202
f 260/251/203 270/261/203 271/262/203 261/252/203
f 261/252/204 271/262/204 272/263/204 262/253/204
f 262/253/205 272/263/205 273/264/205 263/254/205
f 263/254/206 273/264/206 274/265/206 264/255/206
f 264/255/207 274/265/207 275/266/207 265/256/207
f 265/256/208 275/266/208 276/267/208 266/257/208
f 266/257/209 276/267/209 277/268/209 267/258/209
f 267/258/210 277/268/210 278/167/210 268/165/210
f 167/259/211 168/269/211 279/270/211 269/260/211
f 269/260/212 279/270/212 280/271/212 270/261/212
f 270/261/213 280/271/213 281/272/213 271/262/213
f 271/262/214 281/272/214 282/273/214 272/263/214
f 272/263/215 282/273/215 283/274/215 273/264/215
f 273/264/216 283/274/216 284/275/216 274/265/216
f 274/265/217 284/275/217 285/276/217 275/266/217
f 275/266/218 285/276/218 286/277/218 276/267/218
f 276/267/219 286/277/219 287/278/219 277/268/219
f 277/268/220 287/278/220 288/145/220 278/167/220
f 168/269/221 146/279/221 169/280/221 279/270/221
f 279/270/222 169/280/222 170/281/222 280/271/222
f 280/271/223 170/281/223 171/282/223 281/272/223
f 281/272/224 171/282/224 172/283/224 282/273/224
f 282/273/225 172/283/225 173/284/225 283/274/225
f 283/274/226 173/284/226 174/285/226 284/275/226
f 284/275/227 174/285/227 175/286/227 285/276/227
f 285/276/228 175/286/228 176/287/228 286/277/228
f 286/277/229 176/287/229 177/288/229 287/278/229
f 287/278/230 177/288/230 178/146/230 288/145/230
o Plane.002
v -100.000000 10.000000 135.355347
v -64.644661 10.458364 100.000000
v -135.355347 10.000000 100.000000
v -100.000000 13.969809 64.644661
v -132.141220 9.731809 103.214119
v -128.927094 9.220490 106.428246
v -125.712975 8.983710 109.642365
v -122.498856 9.220490 112.856491
v -119.284729 9.731809 116.070610
v -116.070610 10.000000 119.284729
v -112.856491 10.000000 122.498856
v -109.642365 10.000000 125.712975
v -106.428246 10.000000 128.927094
v -103.214119 10.000000 132.141220
v -96.785881 10.000000 132.141220
v -93.571754 10.000000 128.927094
v -90.357635 10.000000 125.712975
v -87.143509 10.000000 122.498856
v -83.929390 10.000000 119.284729
v -80.715271 10.000000 116.070610
v -77.501144 10.458364 112.856491
v -74.287025 11.332255 109.642365
v -71.072906 11.736933 106.428246
v -67.858780 11.332255 103.214119
v -67.858780 12.203230 96.785881
v -71.072906 14.013592 93.571754
v -74.287025 14.773527 90.357635
v -77.501144 14.013592 87.143509
v -80.715271 12.528276 83.929390
v -83.929390 12.380967 80.715271
v -87.143509 13.969810 77.501144
v -90.357635 15.659829 74.287025
v -93.571754 16.318209 71.072906
v -96.785881 15.659829 67.858780
v -103.214119 15.659829 67.858780
v -106.428246 16.318209 71.072906
v -109.642365 15.659829 74.287025
v -112.856491 13.969810 77.501144
v -116.070610 11.775917 80.715271
v -119.284729 9.353735 83.929390
v -122.498856 8.918563 87.143509
v -125.712975 8.983710 90.357635
v -128.927094 9.220490 93.571754
v -132.141220 9.731809 96.785881
v -100.000000 10.000000 128.927094
v -103.214119 10.000000 125.712975
v -106.428246 9.933254 122.498856
v -109.642365 9.464043 119.284729
v -112.856491 9.184149 116.070610
v -116.070610 6.121766 112.856483
v -119.284729 6.933366 109.642365
v -122.498856 7.206982 106.428246
v -125.712975 7.651624 103.214119
v -128.927094 8.710876 100.000000
v -96.785881 10.000000 125.712975
v -100.000000 9.933253 122.498856
v -103.214119 6.960873 119.284729
v -106.428246 4.710038 116.070610
v -109.642365 3.747163 112.856483
v -112.856491 0.834032 109.642365
v -116.070610 3.693211 106.428246
v -119.284729 5.506879 103.214119
v -122.498856 6.146340 100.000000
v -125.712975 7.651624 96.785881
v -93.571754 10.000000 122.498856
v -96.785881 9.464043 119.284729
v -100.000000 4.712683 116.070610
v -103.214119 1.346663 112.856483
v -106.428246 3.721395 109.642365
v -109.642365 4.226827 106.428246
v -112.856491 5.044847 103.214119
v -116.070610 4.651034 100.000000
v -119.284729 4.981589 96.785881
v -122.498856 6.936629 93.571754
v -90.357635 10.000000 119.284729
v -93.571754 9.933254 116.070610
v -96.785881 6.960874 112.856483
v -100.000000 4.710039 109.642365
v -103.214119 6.232012 106.428246
v -106.428246 7.632714 103.214119
v -109.642365 5.941226 100.000000
v -112.856491 3.486763 96.785873
v -116.070610 2.661151 93.571754
v -119.284729 5.148813 90.357635
v -87.143509 10.000000 116.070610
v -90.357635 10.004485 112.856483
v -93.571754 9.980422 109.642365
v -96.785881 9.424615 106.428246
v -100.000000 9.665726 103.214119
v -103.214119 8.713307 100.000000
v -106.428246 7.197233 96.785881
v -109.642365 4.064669 93.571754
v -112.856491 2.745976 90.357635
v -116.070610 5.653156 87.143517
v -83.929390 10.458364 112.856483
v -87.143509 11.326035 109.642365
v -90.357635 10.031656 106.428246
v -93.571754 8.431581 103.214119
v -96.785881 9.129512 100.000000
v -100.000000 10.398597 96.785881
v -103.214119 10.926929 93.571754
v -106.428246 10.043414 90.357635
v -109.642365 9.863579 87.143517
v -112.856491 11.081093 83.929390
v -80.715271 12.203232 109.642365
v -83.929390 13.661160 106.428246
v -87.143509 11.345827 103.214119
v -90.357635 8.341767 100.000000
v -93.571754 9.236126 96.785881
v -96.785881 12.085784 93.571754
v -100.000000 13.967186 90.357635
v -103.214119 15.632242 87.143509
v -106.428246 16.315586 83.929390
v -109.642365 15.659830 80.715271
v -77.501144 14.013593 106.428246
v -80.715271 16.578304 103.214119
v -83.929390 16.384985 100.000000
v -87.143509 13.642443 96.785873
v -90.357635 12.752985 93.571754
v -93.571754 14.300007 90.357635
v -96.785881 15.664315 87.143509
v -100.000000 17.812843 83.929390
v -103.214119 18.673449 80.715271
v -106.428246 17.812843 77.501144
v -74.287025 14.773527 103.214119
v -77.501144 17.679157 100.000000
v -80.715271 18.976086 96.785881
v -83.929390 17.561991 93.571754
v -87.143517 15.588615 90.357635
v -90.357635 15.159791 87.143509
v -93.571754 16.365250 83.929390
v -96.785881 18.673449 80.715271
v -100.000000 19.657974 77.501144
v -103.214119 18.673447 74.287025
v -71.072906 14.013593 100.000000
v -74.287025 16.586262 96.785881
v -77.501144 17.679157 93.571754
v -80.715271 16.586262 90.357635
v -83.929390 14.721792 87.143509
v -87.143517 14.343074 83.929390
v -90.357635 15.664314 80.715271
v -93.571754 17.812843 77.501144
v -96.785881 18.673447 74.287025
v -100.000000 17.812843 71.072906
vn -0.0000 0.8583 -0.5131
vn 0.1966 0.9805 -0.0000
vn 0.3070 0.9487 0.0752
vn 0.3286 0.9248 0.1916
vn 0.4953 0.8302 0.2560
vn 0.3912 0.7702 0.5038
vn -0.1910 0.7108 0.6770
vn -0.4827 0.7989 0.3590
vn -0.5131 0.8583 -0.0000
vn -0.4154 0.8860 -0.2060
vn -0.2060 0.8860 -0.4154
vn -0.0000 1.0000 -0.0000
vn -0.0000 0.9999 -0.0104
vn 0.0103 0.9965 -0.0831
vn 0.0824 0.9887 -0.1255
vn 0.0728 0.8540 -0.5152
vn 0.4043 0.8386 -0.3651
vn 0.2912 0.9129 -0.2860
vn 0.2932 0.9362 -0.1940
vn 0.3070 0.9487 -0.0752
vn -0.0000 0.9041 -0.4274
vn 0.2893 0.7429 -0.6036
vn 0.4614 0.6629 -0.5896
vn 0.2198 0.5951 -0.7730
vn 0.6638 0.6996 -0.2643
vn 0.4708 0.8613 -0.1911
vn 0.3127 0.9372 -0.1546
vn 0.3705 0.9288 -0.0000
vn -0.0103 0.9965 -0.0831
vn -0.2893 0.7431 -0.6035
vn -0.0003 0.7532 -0.6578
vn 0.3463 0.9272 -0.1426
vn -0.4088 0.9101 0.0679
vn -0.0693 0.8345 0.5466
vn 0.0709 0.9866 0.1470
vn 0.2259 0.9709 -0.0793
vn 0.3811 0.9176 0.1128
vn -0.0831 0.9965 -0.0103
vn -0.6035 0.7431 -0.2893
vn -0.6578 0.7532 -0.0003
vn -0.1215 0.7903 0.6006
vn -0.2575 0.8255 0.5023
vn -0.3625 0.9005 0.2402
vn -0.1915 0.9539 -0.2312
vn 0.2169 0.9325 -0.2887
vn 0.5537 0.8325 0.0217
vn -0.0104 0.9999 0.0007
vn -0.4279 0.9038 0.0066
vn -0.6079 0.7414 0.2842
vn -0.3660 0.7370 0.5682
vn -0.2830 0.8948 0.3454
vn -0.3952 0.9165 -0.0621
vn -0.4847 0.8397 -0.2451
vn -0.2120 0.9709 -0.1119
vn 0.3210 0.8586 0.3997
vn -0.0000 0.9975 0.0711
vn -0.0690 0.9770 0.2015
vn -0.2049 0.9788 0.0041
vn -0.0914 0.9681 -0.2333
vn 0.1884 0.9811 -0.0450
vn -0.0642 0.9915 0.1130
vn -0.4260 0.8554 0.2946
vn -0.6985 0.6543 0.2897
vn -0.6445 0.5677 0.5122
vn -0.3714 0.5670 0.7352
vn -0.0000 0.9460 0.3242
vn -0.1212 0.8885 0.4427
vn -0.4917 0.8708 0.0027
vn -0.4016 0.8857 -0.2328
vn 0.1207 0.9850 0.1233
vn 0.1621 0.8965 0.4123
vn -0.1557 0.8636 0.4794
vn -0.4419 0.7239 0.5299
vn -0.5404 0.6022 0.5876
vn -0.5175 0.6355 0.5730
vn 0.1177 0.8690 0.4806
vn -0.0453 0.8258 0.5621
vn -0.5997 0.7368 0.3122
vn -0.7624 0.6093 0.2177
vn -0.4920 0.7178 0.4926
vn -0.0813 0.7829 0.6168
vn -0.0452 0.8728 0.4859
vn -0.0043 0.8581 0.5134
vn -0.2060 0.8845 0.4185
vn -0.4153 0.8860 0.2064
vn 0.2980 0.8416 0.4505
vn 0.2369 0.8440 0.4812
vn -0.1854 0.9207 0.3434
vn -0.6323 0.7621 0.1395
vn -0.5822 0.7782 0.2356
vn -0.1845 0.9204 0.3446
vn 0.0745 0.9494 0.3050
vn 0.1998 0.8874 0.4154
vn -0.0000 0.9612 0.2759
vn -0.2759 0.9612 -0.0000
vn 0.4505 0.8415 0.2980
vn 0.4811 0.8437 0.2379
vn 0.3485 0.9373 -0.0000
vn -0.0171 0.9372 -0.3484
vn -0.1405 0.9056 -0.4001
vn 0.0667 0.9796 -0.1898
vn 0.2992 0.9513 0.0747
vn 0.4154 0.8874 0.1998
vn 0.2759 0.9612 -0.0000
vn -0.0000 0.9612 -0.2759
vn 0.4806 0.8690 0.1177
vn 0.5633 0.8262 -0.0000
vn 0.4811 0.8437 -0.2379
vn 0.2379 0.8437 -0.4811
vn 0.0928 0.8420 -0.5315
vn 0.2564 0.9082 -0.3307
vn 0.4543 0.8894 -0.0516
vn 0.5131 0.8583 -0.0006
vn 0.4154 0.8860 -0.2060
vn 0.2060 0.8860 -0.4154
vt 0.909091 0.909091
vt 1.000000 0.909091
vt 1.000000 1.000000
vt 0.909091 1.000000
vt 0.000000 0.909091
vt 0.090909 0.909091
vt 0.090909 1.000000
vt 0.000000 1.000000
vt 0.181818 0.909091
vt 0.181818 1.000000
vt 0.272727 0.909091
vt 0.272727 1.000000
vt 0.363636 0.909091
vt 0.363636 1.000000
vt 0.454545 0.909091
vt 0.454545 1.000000
vt 0.545455 0.909091
vt 0.545455 1.000000
vt 0.636364 0.909091
vt 0.636364 1.000000
vt 0.727273 0.909091
vt 0.727273 1.000000
vt 0.818182 0.909091
vt 0.818182 1.000000
vt 0.000000 0.000000
vt 0.090909 0.000000
vt 0.090909 0.090909
vt 0.000000 0.090909
vt 0.090909 0.181818
vt 0.000000 0.181818
vt 0.090909 0.272727
vt 0.000000 0.272727
vt 0.090909 0.363636
vt 0.000000 0.363636
vt 0.090909 0.454545
vt 0.000000 0.454545
vt 0.090909 0.545455
vt 0.000000 0.545455
vt 0.090909 0.636364
vt 0.000000 0.636364
vt 0.090909 0.727273
vt 0.000000 0.727273
vt 0.090909 0.818182
vt 0.000000 0.818182
vt 0.181818 0.000000
vt 0.181818 0.090909
vt 0.181818 0.181818
vt 0.181818 0.272727
vt 0.181818 0.363636
vt 0.181818 0.454545
vt 0.181818 0.545455
vt 0.181818 0.636364
vt 0.181818 0.727273
vt 0.181818 0.818182
vt 0.272727 0.000000
vt 0.272727 0.090909
vt 0.272727 0.181818
vt 0.272727 0.272727
vt 0.272727 0.363636
vt 0.272727 0.454545
vt 0.272727 0.545455
vt 0.272727 0.636364
vt 0.272727 0.727273
vt 0.272727 0.818182
vt 0.363636 0.000000
vt 0.363636 0.090909
vt 0.363636 0.181818
vt 0.363636 0.272727
vt 0.363636 0.363636
vt 0.363636 0.454545
vt 0.363636 0.545455
vt 0.363636 0.636364
vt 0.363636 0.727273
vt 0.363636 0.818182
vt 0.454545 0.000000
vt 0.454545 0.090909
vt 0.454545 0.181818
vt 0.454545 0.272727
vt 0.454545 0.363636
vt 0.454545 0.454545
vt 0.454545 0.545455
vt 0.454545 0.636364
vt 0.454545 0.727273
vt 0.454545 0.818182
vt 0.545455 0.000000
vt 0.545455 0.090909
vt 0.545455 0.181818
vt 0.545455 0.272727
vt 0.545455 0.363636
vt 0.545455 0.454545
vt 0.545455 0.545455
vt 0.545455 0.636364
vt 0.545455 0.727273
vt 0.545455 0.818182
vt 0.636364 0.000000
vt 0.636364 0.090909
vt 0.636364 0.181818
vt 0.636364 0.272727
vt 0.636364 0.363636
vt 0.636364 0.454545
vt 0.636364 0.545455
vt 0.636364 0.636364
vt 0.636364 0.727273
vt 0.636364 0.818182
vt 0.727273 0.000000
vt 0.727273 0.090909
vt 0.727273 0.181818
vt 0.727273 0.272727
vt 0.727273 0.363636
vt 0.727273 0.454545
vt 0.727273 0.545455
vt 0.727273 0.636364
vt 0.727273 0.727273
vt 0.727273 0.818182
vt 0.818182 0.000000
vt 0.818182 0.090909
vt 0.818182 0.181818
vt 0.818182 0.272727
vt 0.818182 0.363636
vt 0.818182 0.454545
vt 0.818182 0.545455
vt 0.818182 0.636364
vt 0.818182 0.727273
vt 0.818182 0.818182
vt 0.909091 0.000000
vt 0.909091 0.090909
vt 0.909091 0.181818
vt 0.909091 0.272727
vt 0.909091 0.363636
vt 0.909091 0.454545
vt 0.909091 0.545455
vt 0.909091 0.636364
vt 0.909091 0.727273
vt 0.909091 0.818182
vt 1.000000 0.000000
vt 1.000000 0.090909
vt 1.000000 0.181818
vt 1.000000 0.272727
vt 1.000000 0.363636
vt 1.000000 0.454545
vt 1.000000 0.545455
vt 1.000000 0.636364
vt 1.000000 0.727273
vt 1.000000 0.818182
s 0
usemtl Material.002
f 432/289/231 322/290/231 292/291/231 323/292/231
f 293/293/232 342/294/232 332/295/232 291/296/232
f 342/294/233 352/297/233 331/298/233 332/295/233
f 352/297/234 362/299/234 330/300/234 331/298/234
f 362/299/235 372/301/235 329/302/235 330/300/235
f 372/301/236 382/303/236 328/304/236 329/302/236
f 382/303/237 392/305/237 327/306/237 328/304/237
f 392/305/238 402/307/238 326/308/238 327/306/238
f 402/307/239 412/309/239 325/310/239 326/308/239
f 412/309/240 422/311/240 324/312/240 325/310/240
f 422/311/241 432/289/241 323/292/241 324/312/241
f 289/313/242 303/314/242 333/315/242 302/316/242
f 302/316/242 333/315/242 334/317/242 301/318/242
f 301/318/243 334/317/243 335/319/243 300/320/243
f 300/320/244 335/319/244 336/321/244 299/322/244
f 299/322/245 336/321/245 337/323/245 298/324/245
f 298/324/246 337/323/246 338/325/246 297/326/246
f 297/326/247 338/325/247 339/327/247 296/328/247
f 296/328/248 339/327/248 340/329/248 295/330/248
f 295/330/249 340/329/249 341/331/249 294/332/249
f 294/332/250 341/331/250 342/294/250 293/293/250
f 303/314/242 304/333/242 343/334/242 333/315/242
f 333/315/243 343/334/243 344/335/243 334/317/243
f 334/317/251 344/335/251 345/336/251 335/319/251
f 335/319/252 345/336/252 346/337/252 336/321/252
f 336/321/253 346/337/253 347/338/253 337/323/253
f 337/323/254 347/338/254 348/339/254 338/325/254
f 338/325/255 348/339/255 349/340/255 339/327/255
f 339/327/256 349/340/256 350/341/256 340/329/256
f 340/329/257 350/341/257 351/342/257 341/331/257
f 341/331/258 351/342/258 352/297/258 342/294/258
f 304/333/242 305/343/242 353/344/242 343/334/242
f 343/334/259 353/344/259 354/345/259 344/335/259
f 344/335/260 354/345/260 355/346/260 345/336/260
f 345/336/261 355/346/261 356/347/261 346/337/261
f 346/337/262 356/347/262 357/348/262 347/338/262
f 347/338/263 357/348/263 358/349/263 348/339/263
f 348/339/264 358/349/264 359/350/264 349/340/264
f 349/340/265 359/350/265 360/351/265 350/341/265
f 350/341/266 360/351/266 361/352/266 351/342/266
f 351/342/267 361/352/267 362/299/267 352/297/267
f 305/343/242 306/353/242 363/354/242 353/344/242
f 353/344/268 363/354/268 364/355/268 354/345/268
f 354/345/269 364/355/269 365/356/269 355/346/269
f 355/346/270 365/356/270 366/357/270 356/347/270
f 356/347/271 366/357/271 367/358/271 357/348/271
f 357/348/272 367/358/272 368/359/272 358/349/272
f 358/349/273 368/359/273 369/360/273 359/350/273
f 359/350/274 369/360/274 370/361/274 360/351/274
f 360/351/275 370/361/275 371/362/275 361/352/275
f 361/352/276 371/362/276 372/301/276 362/299/276
f 306/353/242 307/363/242 373/364/242 363/354/242
f 363/354/277 373/364/277 374/365/277 364/355/277
f 364/355/278 374/365/278 375/366/278 365/356/278
f 365/356/279 375/366/279 376/367/279 366/357/279
f 366/357/280 376/367/280 377/368/280 367/358/280
f 367/358/281 377/368/281 378/369/281 368/359/281
f 368/359/282 378/369/282 379/370/282 369/360/282
f 369/360/283 379/370/283 380/371/283 370/361/283
f 370/361/284 380/371/284 381/372/284 371/362/284
f 371/362/285 381/372/285 382/303/285 372/301/285
f 307/363/286 308/373/286 383/374/286 373/364/286
f 373/364/287 383/374/287 384/375/287 374/365/287
f 374/365/288 384/375/288 385/376/288 375/366/288
f 375/366/289 385/376/289 386/377/289 376/367/289
f 376/367/290 386/377/290 387/378/290 377/368/290
f 377/368/291 387/378/291 388/379/291 378/369/291
f 378/369/292 388/379/292 389/380/292 379/370/292
f 379/370/293 389/380/293 390/381/293 380/371/293
f 380/371/294 390/381/294 391/382/294 381/372/294
f 381/372/295 391/382/295 392/305/295 382/303/295
f 308/373/296 309/383/296 393/384/296 383/374/296
f 383/374/297 393/384/297 394/385/297 384/375/297
f 384/375/298 394/385/298 395/386/298 385/376/298
f 385/376/299 395/386/299 396/387/299 386/377/299
f 386/377/300 396/387/300 397/388/300 387/378/300
f 387/378/301 397/388/301 398/389/301 388/379/301
f 388/379/302 398/389/302 399/390/302 389/380/302
f 389/380/303 399/390/303 400/391/303 390/381/303
f 390/381/304 400/391/304 401/392/304 391/382/304
f 391/382/305 401/392/305 402/307/305 392/305/305
f 309/383/306 310/393/306 403/394/306 393/384/306
f 393/384/307 403/394/307 404/395/307 394/385/307
f 394/385/308 404/395/308 405/396/308 395/386/308
f 395/386/309 405/396/309 406/397/309 396/387/309
f 396/387/310 406/397/310 407/398/310 397/388/310
f 397/388/311 407/398/311 408/399/311 398/389/311
f 398/389/312 408/399/312 409/400/312 399/390/312
f 399/390/313 409/400/313 410/401/313 400/391/313
f 400/391/314 410/401/314 411/402/314 401/392/314
f 401/392/315 411/402/315 412/309/315 402/307/315
f 310/393/316 311/403/316 413/404/316 403/394/316
f 403/394/317 413/404/317 414/405/317 404/395/317
f 404/395/318 414/405/318 415/406/318 405/396/318
f 405/396/319 415/406/319 416/407/319 406/397/319
f 406/397/320 416/407/320 417/408/320 407/398/320
f 407/398/321 417/408/321 418/409/321 408/399/321
f 408/399/322 418/409/322 419/410/322 409/400/322
f 409/400/323 419/410/323 420/411/323 410/401/323
f 410/401/324 420/411/324 421/412/324 411/402/324
f 411/402/325 421/412/325 422/311/325 412/309/325
f 311/403/326 312/413/326 423/414/326 413/404/326
f 413/404/327 423/414/327 424/415/327 414/405/327
f 414/405/328 424/415/328 425/416/328 415/406/328
f 415/406/329 425/416/329 426/417/329 416/407/329
f 416/407/330 426/417/330 427/418/330 417/408/330
f 417/408/331 427/418/331 428/419/331 418/409/331
f 418/409/332 428/419/332 429/420/332 419/410/332
f 419/410/333 429/420/333 430/421/333 420/411/333
f 420/411/334 430/421/334 431/422/334 421/412/334
f 421/412/335 431/422/335 432/289/335 422/311/335
f 312/413/336 290/423/336 313/424/336 423/414/336
f 423/414/337 313/424/337 314/425/337 424/415/337
f 424/415/338 314/425/338 315/426/338 425/416/338
f 425/416/339 315/426/339 316/427/339 426/417/339
f 426/417/340 316/427/340 317/428/340 427/418/340
f 427/418/341 317/428/341 318/429/341 428/419/341
f 428/419/342 318/429/342 319/430/342 429/420/342
f 429/420/343 319/430/343 320/431/343 430/421/343
f 430/421/344 320/431/344 321/432/344 431/422/344
f 431/422/345 321/432/345 322/290/345 432/289/345
o Plane.003
v -37.924683 9.150634 174.575317
v -24.440695 0.442744 127.219589
v -85.618622 0.000001 162.677673
v -72.589050 -5.316093 114.534874
v -81.248100 0.572824 163.819382
v -76.846123 0.910803 165.015594
v -72.479668 1.513968 166.150269
v -68.174492 2.574555 167.178802
v -63.904854 3.900327 168.145813
v -59.603745 4.991255 169.167297
v -55.267933 5.823131 170.248901
v -50.932121 6.655006 171.330505
v -46.596306 7.486882 172.412109
v -42.260498 8.318758 173.493713
v -36.693474 8.318758 170.279587
v -35.462265 7.486882 165.983871
v -34.231056 6.655006 161.688141
v -32.999844 5.823130 157.392410
v -31.768635 4.991254 153.096680
v -30.537426 4.159379 148.800964
v -29.365532 3.770248 144.402496
v -28.247414 3.782487 139.910889
v -27.068573 3.341499 135.524460
v -25.784994 2.118735 131.319443
v -29.002310 1.296280 125.746887
v -33.572403 2.213079 124.259499
v -38.006554 2.115245 123.007561
v -42.244026 0.549328 122.096291
v -46.387627 -1.717252 121.347610
v -50.704376 -2.691417 120.299026
v -55.245796 -1.988590 118.861290
v -59.800316 -1.188031 117.400879
v -64.221329 -1.383962 116.171707
v -68.471939 -2.851783 115.237671
v -74.038963 -2.851783 118.451797
v -75.355377 -1.383962 122.599945
v -76.501381 -1.188031 127.043243
v -77.513885 -1.988589 131.717773
v -78.461182 -3.275851 136.505249
v -79.378937 -4.783622 141.343887
v -80.553833 -4.372090 145.737167
v -81.793472 -3.477287 150.018280
v -83.055328 -2.416700 154.260941
v -84.352707 -1.090928 158.442047
v -41.029285 7.486882 169.197983
v -45.365097 6.655006 168.116379
v -49.692276 5.758659 167.049744
v -53.967365 4.473559 166.073303
v -58.266956 3.371327 165.054443
v -62.206470 -0.418582 164.659241
v -66.647308 -0.466513 163.395721
v -71.018532 -1.034096 162.252792
v -75.411880 -1.436481 161.071533
v -79.884773 -1.245196 159.752502
v -39.798077 6.655006 164.902267
v -44.125252 5.758658 163.835617
v -48.076408 2.055683 163.420258
v -52.120945 -0.950331 162.843155
v -56.332150 -2.712274 161.977386
v -60.290977 -6.358017 161.548737
v -64.996796 -4.428139 159.826263
v -69.567314 -3.508145 158.338135
v -73.985878 -3.722349 157.113205
v -78.516487 -3.100233 155.694199
v -38.566868 5.823131 160.606537
v -42.833321 4.473559 159.645065
v -46.554264 -0.947777 159.628448
v -50.454483 -5.030977 159.301315
v -55.097607 -3.569039 157.687424
v -59.498829 -3.912705 156.492538
v -63.940498 -3.954434 155.227570
v -68.225349 -5.166703 154.234238
v -72.603943 -5.679287 153.078552
v -77.192749 -4.622740 151.558731
v -37.335655 4.991254 156.310806
v -41.662834 4.094907 155.244171
v -45.613991 0.391932 154.828796
v -49.658524 -2.614083 154.251709
v -54.191296 -1.975846 152.828964
v -58.708370 -1.454747 151.433395
v -62.825291 -3.920474 150.730927
v -66.843475 -7.123178 150.199478
v -71.072441 -8.752535 149.302933
v -75.730179 -7.181514 147.663727
v -36.104446 4.159379 152.015076
v -40.440842 3.331835 150.932480
v -44.773540 2.476717 149.856262
v -49.037426 1.107972 148.899231
v -53.404442 0.508992 147.763596
v -57.617001 -1.242850 146.895462
v -61.756618 -3.539140 146.153687
v -65.687050 -7.396841 145.774216
v -69.852211 -9.502476 144.988190
v -74.564240 -7.526232 143.254959
v -34.932556 3.770248 147.616623
v -39.380653 3.776478 146.340530
v -43.548962 1.694329 145.549057
v -47.677708 -0.683101 144.826096
v -52.103840 -0.840828 143.588058
v -56.603886 -0.446861 142.221985
v -61.008068 -0.768407 141.021973
v -65.229546 -2.453692 140.138397
v -69.542084 -3.459275 139.097107
v -74.035454 -3.115123 137.742599
v -33.927147 4.623785 142.929794
v -38.451630 5.200161 141.521393
v -42.487816 2.131845 140.958771
v -46.434875 -1.601730 140.550507
v -50.886429 -1.569721 139.268433
v -55.591011 0.350961 137.548096
v -60.170296 1.336380 136.044785
v -64.721581 2.112825 134.589966
v -69.145828 1.941009 133.355194
v -73.396774 0.475722 132.420578
v -32.930218 5.540584 138.228287
v -37.597927 7.186029 136.571808
v -41.908722 6.167422 135.533539
v -45.889626 2.686453 135.066666
v -50.110332 0.995427 134.184418
v -54.646343 1.657860 132.756058
v -59.158710 2.143805 131.368652
v -63.772564 3.387249 129.805466
v -68.219749 3.386653 128.530975
v -72.444183 1.723495 127.642265
v -31.797350 5.442748 133.762222
v -36.509178 7.417497 132.029343
v -41.012825 7.838357 130.657043
v -45.165642 5.640570 129.892395
v -49.246082 2.902559 129.253113
v -53.526398 1.656472 128.267624
v -58.018211 1.988979 126.915817
v -62.652725 3.386653 125.316849
v -67.115944 3.505756 124.014572
v -71.324348 1.722900 123.153641
v -30.467800 3.876832 129.636826
v -35.136539 5.529963 127.978577
v -39.613781 5.753743 126.652008
v -43.808163 3.866211 125.815369
v -47.902695 1.233396 125.151672
v -52.189499 0.035707 124.154961
v -56.696293 0.480052 122.777206
v -61.310146 1.723495 121.214020
v -65.757324 1.722900 119.939514
v -69.981766 0.059744 119.050812
vn -0.3589 0.6963 -0.6216
vn 0.0434 0.9471 -0.3181
vn 0.1794 0.9359 -0.3032
vn 0.2574 0.9429 -0.2113
vn 0.4451 0.8681 -0.2196
vn 0.4825 0.8743 0.0532
vn 0.0696 0.8618 0.5025
vn -0.3480 0.8645 0.3626
vn -0.5555 0.8291 0.0642
vn -0.5739 0.8025 -0.1632
vn -0.4937 0.7483 -0.4431
vn -0.1294 0.9659 -0.2241
vn -0.1344 0.9632 -0.2328
vn -0.1601 0.9410 -0.2980
vn -0.1172 0.9225 -0.3678
vn -0.2963 0.6915 -0.6588
vn 0.0652 0.7156 -0.6955
vn -0.0041 0.8078 -0.5894
vn 0.0391 0.8540 -0.5187
vn 0.1068 0.8969 -0.4291
vn -0.3234 0.7626 -0.5602
vn -0.1371 0.5614 -0.8161
vn 0.0291 0.4878 -0.8725
vn -0.2600 0.3747 -0.8899
vn 0.3567 0.6074 -0.7098
vn 0.2040 0.7825 -0.5883
vn 0.0748 0.8652 -0.4958
vn 0.2007 0.8972 -0.3935
vn -0.1780 0.9410 -0.2877
vn -0.6382 0.5615 -0.5267
vn -0.4154 0.5573 -0.7189
vn 0.1110 0.8587 -0.5003
vn -0.4390 0.8967 0.0572
vn 0.0960 0.9475 0.3049
vn 0.0047 0.9910 -0.1336
vn 0.0316 0.9173 -0.3969
vn 0.2658 0.9155 -0.3019
vn -0.2059 0.9599 -0.1905
vn -0.7585 0.6428 -0.1069
vn -0.6673 0.7274 0.1598
vn 0.0825 0.9188 0.3860
vn -0.0872 0.9274 0.3639
vn -0.3145 0.9320 0.1803
vn -0.4009 0.8615 -0.3115
vn -0.0723 0.8261 -0.5589
vn 0.3822 0.8097 -0.4453
vn -0.1381 0.9661 -0.2184
vn -0.4843 0.8747 0.0169
vn -0.4852 0.7897 0.3755
vn -0.1380 0.8590 0.4931
vn -0.1941 0.9537 0.2299
vn -0.4909 0.8692 -0.0598
vn -0.6468 0.7476 -0.1509
vn -0.3632 0.9088 -0.2052
vn 0.3599 0.9328 -0.0186
vn -0.0947 0.9819 -0.1641
vn -0.0888 0.9959 -0.0159
vn -0.3021 0.9465 -0.1135
vn -0.3171 0.8747 -0.3664
vn 0.0144 0.9360 -0.3518
vn -0.1293 0.9870 -0.0956
vn -0.3374 0.9025 0.2677
vn -0.5497 0.7070 0.4449
vn -0.3843 0.6809 0.6234
vn -0.0399 0.7380 0.6736
vn 0.0342 0.9977 0.0592
vn -0.0062 0.9728 0.2318
vn -0.5372 0.8418 0.0529
vn -0.5748 0.7953 -0.1925
vn 0.0366 0.9833 -0.1780
vn 0.2235 0.9727 0.0629
vn -0.0150 0.9583 0.2853
vn -0.2204 0.8364 0.5019
vn -0.2622 0.7338 0.6268
vn -0.2536 0.7622 0.5956
vn 0.2216 0.9638 0.1484
vn 0.1254 0.9432 0.3077
vn -0.4640 0.7925 0.3959
vn -0.6340 0.6449 0.4267
vn -0.2811 0.8208 0.4972
vn 0.1262 0.9159 0.3811
vn 0.0826 0.9689 0.2334
vn 0.1332 0.9618 0.2392
vn -0.0908 0.9627 0.2548
vn -0.3747 0.9092 0.1817
vn 0.3668 0.9295 0.0392
vn 0.3284 0.9398 0.0949
vn -0.1138 0.9782 0.1736
vn -0.5788 0.7722 0.2621
vn -0.4911 0.8126 0.3137
vn -0.1125 0.9783 0.1742
vn 0.0890 0.9960 0.0051
vn 0.2589 0.9647 0.0487
vn 0.0089 0.9998 0.0153
vn -0.3633 0.9284 -0.0775
vn 0.4252 0.8900 -0.1646
vn 0.4224 0.8766 -0.2306
vn 0.1805 0.9054 -0.3843
vn -0.3043 0.8151 -0.4930
vn -0.4322 0.7712 -0.4674
vn -0.1606 0.8971 -0.4117
vn 0.1721 0.9382 -0.3004
vn 0.3414 0.9089 -0.2394
vn 0.1145 0.9284 -0.3534
vn -0.2576 0.8570 -0.4462
vn 0.3606 0.8699 -0.3366
vn 0.3810 0.7981 -0.4669
vn 0.1926 0.7534 -0.6287
vn -0.1355 0.6905 -0.7106
vn -0.2853 0.6757 -0.6797
vn -0.0552 0.7917 -0.6084
vn 0.2534 0.8457 -0.4697
vn 0.3330 0.8289 -0.4495
vn 0.1456 0.8025 -0.5786
vn -0.1369 0.7483 -0.6491
vt 0.909091 0.909091
vt 1.000000 0.909091
vt 1.000000 1.000000
vt 0.909091 1.000000
vt 0.000000 0.909091
vt 0.090909 0.909091
vt 0.090909 1.000000
vt 0.000000 1.000000
vt 0.181818 0.909091
vt 0.181818 1.000000
vt 0.272727 0.909091
vt 0.272727 1.000000
vt 0.363636 0.909091
vt 0.363636 1.000000
vt 0.454545 0.909091
vt 0.454545 1.000000
vt 0.545455 0.909091
vt 0.545455 1.000000
vt 0.636364 0.909091
vt 0.636364 1.000000
vt 0.727273 0.909091
vt 0.727273 1.000000
vt 0.818182 0.909091
vt 0.818182 1.000000
vt 0.000000 0.000000
vt 0.090909 0.000000
vt 0.090909 0.090909
vt 0.000000 0.090909
vt 0.090909 0.181818
vt 0.000000 0.181818
vt 0.090909 0.272727
vt 0.000000 0.272727
vt 0.090909 0.363636
vt 0.000000 0.363636
vt 0.090909 0.454545
vt 0.000000 0.454545
vt 0.090909 0.545455
vt 0.000000 0.545455
vt 0.090909 0.636364
vt 0.000000 0.636364
vt 0.090909 0.727273
vt 0.000000 0.727273
vt 0.090909 0.818182
vt 0.000000 0.818182
vt 0.181818 0.000000
vt 0.181818 0.090909
vt 0.181818 0.181818
vt 0.181818 0.272727
vt 0.181818 0.363636
vt 0.181818 0.454545
vt 0.181818 0.545455
vt 0.181818 0.636364
vt 0.181818 0.727273
vt 0.181818 0.818182
vt 0.272727 0.000000
vt 0.272727 0.090909
vt 0.272727 0.181818
vt 0.272727 0.272727
vt 0.272727 0.363636
vt 0.272727 0.454545
vt 0.272727 0.545455
vt 0.272727 0.636364
vt 0.272727 0.727273
vt 0.272727 0.818182
vt 0.363636 0.000000
vt 0.363636 0.090909
vt 0.363636 0.181818
vt 0.363636 0.272727
vt 0.363636 0.363636
vt 0.363636 0.454545
vt 0.363636 0.545455
vt 0.363636 0.636364
vt 0.363636 0.727273
vt 0.363636 0.818182
vt 0.454545 0.000000
vt 0.454545 0.090909
vt 0.454545 0.181818
vt 0.454545 0.272727
vt 0.454545 0.363636
vt 0.454545 0.454545
vt 0.454545 0.545455
vt 0.454545 0.636364
vt 0.454545 0.727273
vt 0.454545 0.818182
vt 0.545455 0.000000
vt 0.545455 0.090909
vt 0.545455 0.181818
vt 0.545455 0.272727
vt 0.545455 0.363636
vt 0.545455 0.454545
vt 0.545455 0.545455
vt 0.545455 0.636364
vt 0.545455 0.727273
vt 0.545455 0.818182
vt 0.636364 0.000000
vt 0.636364 0.090909
vt 0.636364 0.181818
vt 0.636364 0.272727
vt 0.636364 0.363636
vt 0.636364 0.454545
vt 0.636364 0.545455
vt 0.636364 0.636364
vt 0.636364 0.727273
vt 0.636364 0.818182
vt 0.727273 0.000000
vt 0.727273 0.090909
vt 0.727273 0.181818
vt 0.727273 0.272727
vt 0.727273 0.363636
vt 0.727273 0.454545
vt 0.727273 0.545455
vt 0.727273 0.636364
vt 0.727273 0.727273
vt 0.727273 0.818182
vt 0.818182 0.000000
vt 0.818182 0.090909
vt 0.818182 0.181818
vt 0.818182 0.272727
vt 0.818182 0.363636
vt 0.818182 0.454545
vt 0.818182 0.545455
vt 0.818182 0.636364
vt 0.818182 0.727273
vt 0.818182 0.818182
vt 0.909091 0.000000
vt 0.909091 0.090909
vt 0.909091 0.181818
vt 0.909091 0.272727
vt 0.909091 0.363636
vt 0.909091 0.454545
vt 0.909091 0.545455
vt 0.909091 0.636364
vt 0.909091 0.727273
vt 0.909091 0.818182
vt 1.000000 0.000000
vt 1.000000 0.090909
vt 1.000000 0.181818
vt 1.000000 0.272727
vt 1.000000 0.363636
vt 1.000000 0.454545
vt 1.000000 0.545455
vt 1.000000 0.636364
vt 1.000000 0.727273
vt 1.000000 0.818182
s 0
usemtl Material.004
f 576/433/346 466/434/346 436/435/346 467/436/346
f 437/437/347 486/438/347 476/439/347 435/440/347
f 486/438/348 496/441/348 475/442/348 476/439/348
f 496/441/349 506/443/349 474/444/349 475/442/349
f 506/443/350 516/445/350 473/446/350 474/444/350
f 516/445/351 526/447/351 472/448/351 473/446/351
f 526/447/352 536/449/352 471/450/352 472/448/352
f 536/449/353 546/451/353 470/452/353 471/450/353
f 546/451/354 556/453/354 469/454/354 470/452/354
f 556/453/355 566/455/355 468/456/355 469/454/355
f 566/455/356 576/433/356 467/436/356 468/456/356
f 433/457/357 447/458/357 477/459/357 446/460/357
f 446/460/357 477/459/357 478/461/357 445/462/357
f 445/462/358 478/461/358 479/463/358 444/464/358
f 444/464/359 479/463/359 480/465/359 443/466/359
f 443/466/360 480/465/360 481/467/360 442/468/360
f 442/468/361 481/467/361 482/469/361 441/470/361
f 441/470/362 482/469/362 483/471/362 440/472/362
f 440/472/363 483/471/363 484/473/363 439/474/363
f 439/474/364 484/473/364 485/475/364 438/476/364
f 438/476/365 485/475/365 486/438/365 437/437/365
f 447/458/357 448/477/357 487/478/357 477/459/357
f 477/459/358 487/478/358 488/479/358 478/461/358
f 478/461/366 488/479/366 489/480/366 479/463/366
f 479/463/367 489/480/367 490/481/367 480/465/367
f 480/465/368 490/481/368 491/482/368 481/467/368
f 481/467/369 491/482/369 492/483/369 482/469/369
f 482/469/370 492/483/370 493/484/370 483/471/370
f 483/471/371 493/484/371 494/485/371 484/473/371
f 484/473/372 494/485/372 495/486/372 485/475/372
f 485/475/373 495/486/373 496/441/373 486/438/373
f 448/477/357 449/487/357 497/488/357 487/478/357
f 487/478/374 497/488/374 498/489/374 488/479/374
f 488/479/375 498/489/375 499/490/375 489/480/375
f 489/480/376 499/490/376 500/491/376 490/481/376
f 490/481/377 500/491/377 501/492/377 491/482/377
f 491/482/378 501/492/378 502/493/378 492/483/378
f 492/483/379 502/493/379 503/494/379 493/484/379
f 493/484/380 503/494/380 504/495/380 494/485/380
f 494/485/381 504/495/381 505/496/381 495/486/381
f 495/486/382 505/496/382 506/443/382 496/441/382
f 449/487/357 450/497/357 507/498/357 497/488/357
f 497/488/383 507/498/383 508/499/383 498/489/383
f 498/489/384 508/499/384 509/500/384 499/490/384
f 499/490/385 509/500/385 510/501/385 500/491/385
f 500/491/386 510/501/386 511/502/386 501/492/386
f 501/492/387 511/502/387 512/503/387 502/493/387
f 502/493/388 512/503/388 513/504/388 503/494/388
f 503/494/389 513/504/389 514/505/389 504/495/389
f 504/495/390 514/505/390 515/506/390 505/496/390
f 505/496/391 515/506/391 516/445/391 506/443/391
f 450/497/357 451/507/357 517/508/357 507/498/357
f 507/498/392 517/508/392 518/509/392 508/499/392
f 508/499/393 518/509/393 519/510/393 509/500/393
f 509/500/394 519/510/394 520/511/394 510/501/394
f 510/501/395 520/511/395 521/512/395 511/502/395
f 511/502/396 521/512/396 522/513/396 512/503/396
f 512/503/397 522/513/397 523/514/397 513/504/397
f 513/504/398 523/514/398 524/515/398 514/505/398
f 514/505/399 524/515/399 525/516/399 515/506/399
f 515/506/400 525/516/400 526/447/400 516/445/400
f 451/507/401 452/517/401 527/518/401 517/508/401
f 517/508/402 527/518/402 528/519/402 518/509/402
f 518/509/403 528/519/403 529/520/403 519/510/403
f 519/510/404 529/520/404 530/521/404 520/511/404
f 520/511/405 530/521/405 531/522/405 521/512/405
f 521/512/406 531/522/406 532/523/406 522/513/406
f 522/513/407 532/523/407 533/524/407 523/514/407
f 523/514/408 533/524/408 534/525/408 524/515/408
f 524/515/409 534/525/409 535/526/409 525/516/409
f 525/516/410 535/526/410 536/449/410 526/447/410
f 452/517/411 453/527/411 537/528/411 527/518/411
f 527/518/412 537/528/412 538/529/412 528/519/412
f 528/519/413 538/529/413 539/530/413 529/520/413
f 529/520/414 539/530/414 540/531/414 530/521/414
f 530/521/415 540/531/415 541/532/415 531/522/415
f 531/522/416 541/532/416 542/533/416 532/523/416
f 532/523/417 542/533/417 543/534/417 533/524/417
f 533/524/418 543/534/418 544/535/418 534/525/418
f 534/525/419 544/535/419 545/536/419 535/526/419
f 535/526/420 545/536/420 546/451/420 536/449/420
f 453/527/421 454/537/421 547/538/421 537/528/421
f 537/528/422 547/538/422 548/539/422 538/529/422
f 538/529/423 548/539/423 549/540/423 539/530/423
f 539/530/424 549/540/424 550/541/424 540/531/424
f 540/531/425 550/541/425 551/542/425 541/532/425
f 541/532/426 551/542/426 552/543/426 542/533/426
f 542/533/427 552/543/427 553/544/427 543/534/427
f 543/534/428 553/544/428 554/545/428 544/535/428
f 544/535/429 554/545/429 555/546/429 545/536/429
f 545/536/430 555/546/430 556/453/430 546/451/430
f 454/537/431 455/547/431 557/548/431 547/538/431
f 547/538/432 557/548/432 558/549/432 548/539/432
f 548/539/433 558/549/433 559/550/433 549/540/433
f 549/540/434 559/550/434 560/551/434 550/541/434
f 550/541/435 560/551/435 561/552/435 551/542/435
f 551/542/436 561/552/436 562/553/436 552/543/436
f 552/543/437 562/553/437 563/554/437 553/544/437
f 553/544/438 563/554/438 564/555/438 554/545/438
f 554/545/439 564/555/439 565/556/439 555/546/439
f 555/546/440 565/556/440 566/455/440 556/453/440
f 455/547/441 456/557/441 567/558/441 557/548/441
f 557/548/442 567/558/442 568/559/442 558/549/442
f 558/549/443 568/559/443 569/560/443 559/550/443
f 559/550/444 569/560/444 570/561/444 560/551/444
f 560/551/445 570/561/445 571/562/445 561/552/445
f 561/552/446 571/562/446 572/563/446 562/553/446
f 562/553/447 572/563/447 573/564/447 563/554/447
f 563/554/448 573/564/448 574/565/448 564/555/448
f 564/555/449 574/565/449 575/566/449 565/556/449
f 565/556/450 575/566/450 576/433/450 566/455/450
f 456/557/451 434/567/451 457/568/451 567/558/451
f 567/558/452 457/568/452 458/569/452 568/559/452
f 568/559/453 458/569/453 459/570/453 569/560/453
f 569/560/454 459/570/454 460/571/454 570/561/454
f 570/561/455 460/571/455 461/572/455 571/562/455
f 571/562/456 461/572/456 462/573/456 572/563/456
f 572/563/457 462/573/457 463/574/457 573/564/457
f 573/564/458 463/574/458 464/575/458 574/565/458
f 574/565/459 464/575/459 465/576/459 575/566/459
f 575/566/460 465/576/460 466/434/460 576/433/460
o Plane.004
v -52.189117 9.150631 -187.810883
v -99.942368 0.442743 -175.810486
v -38.645802 0.000002 -140.557907
v -86.853470 -5.316090 -127.770432
v -39.842308 0.572824 -144.913742
v -41.007347 0.910803 -149.324081
v -42.207916 1.513968 -153.672882
v -43.469769 2.574554 -157.915527
v -44.767151 3.900326 -162.096649
v -46.033066 4.991254 -166.332260
v -47.264275 5.823130 -170.627991
v -48.495483 6.655005 -174.923706
v -49.726696 7.486880 -179.219437
v -50.957909 8.318756 -183.515167
v -56.524929 8.318755 -186.729279
v -60.860741 7.486879 -185.647675
v -65.196556 6.655004 -184.566071
v -69.532364 5.823128 -183.484467
v -73.868179 4.991252 -182.402863
v -78.203995 4.159377 -181.321259
v -82.599121 3.770246 -180.136917
v -87.048019 3.782485 -178.859436
v -91.436203 3.341498 -177.687119
v -95.719650 2.118734 -176.696213
v -98.936958 1.296280 -171.123657
v -97.940025 2.213079 -166.422150
v -96.807159 2.115245 -161.956100
v -95.477608 0.549329 -157.830704
v -94.054184 -1.717251 -153.867905
v -92.803909 -2.691416 -149.605194
v -91.778313 -1.988588 -144.953339
v -90.765808 -1.188029 -140.278809
v -89.619797 -1.383959 -135.835510
v -88.303383 -2.851780 -131.687347
v -82.736359 -2.851779 -128.473236
v -78.485748 -1.383958 -129.407257
v -74.064735 -1.188028 -130.636444
v -69.510216 -1.988586 -132.096863
v -64.890495 -3.275848 -133.670212
v -60.241230 -4.783620 -135.294724
v -55.849102 -4.372089 -136.473877
v -51.521721 -3.477286 -137.540878
v -47.216553 -2.416699 -138.569412
v -42.946907 -1.090927 -139.536407
v -55.293716 7.486880 -182.433563
v -54.062508 6.655005 -178.137833
v -52.822659 5.758657 -173.857071
v -51.530727 4.473558 -169.666504
v -50.263298 3.371326 -165.433517
v -48.635784 -0.418583 -161.824203
v -47.509605 -0.466514 -157.346573
v -46.313805 -1.034097 -152.989517
v -45.140133 -1.436481 -148.594116
v -44.045998 -1.245196 -144.060974
v -59.629532 6.655005 -181.351959
v -58.389683 5.758657 -177.071182
v -56.773819 2.055681 -173.441696
v -55.251328 -0.950333 -169.650482
v -53.895515 -2.712275 -165.570587
v -52.287315 -6.358018 -161.927811
v -51.426109 -4.428139 -156.991226
v -50.429607 -3.508145 -152.288971
v -49.281151 -3.722348 -147.849915
v -48.244736 -3.100232 -143.216797
v -63.965343 5.823129 -180.270340
v -62.664776 4.473557 -176.094757
v -60.818695 -0.947779 -172.864014
v -59.151890 -5.030979 -169.322754
v -58.227993 -3.569040 -164.494751
v -57.062187 -3.912706 -160.085739
v -55.936836 -3.954434 -155.606659
v -54.654663 -5.166703 -151.399200
v -53.466232 -5.679287 -147.029388
v -52.488022 -4.622739 -142.295441
v -68.301155 4.991253 -179.188736
v -67.061310 4.094905 -174.907974
v -65.445442 0.391931 -171.278488
v -63.922955 -2.614084 -167.487274
v -62.888702 -1.975846 -162.850403
v -61.838753 -1.454747 -158.240723
v -60.388649 -3.920475 -154.324127
v -58.839809 -7.123179 -150.578552
v -57.501755 -8.752534 -146.467896
v -56.592472 -7.181513 -141.614563
v -72.636971 4.159377 -178.107132
v -71.406342 3.331834 -173.810410
v -70.172012 2.476716 -169.520065
v -68.868874 1.107971 -165.348923
v -67.668869 0.508991 -160.999161
v -66.314407 -1.242850 -156.916916
v -64.887001 -3.539140 -152.960999
v -63.250408 -7.396841 -149.367416
v -61.848545 -9.502476 -145.367279
v -60.993549 -7.526231 -140.419922
v -77.032097 3.770247 -176.922791
v -75.913170 3.776477 -172.432587
v -74.514458 1.694328 -168.426987
v -73.076180 -0.683102 -164.489899
v -71.935287 -0.840828 -160.037735
v -70.868309 -0.446860 -155.457550
v -69.705467 -0.768406 -151.043411
v -68.359924 -2.453692 -146.945709
v -67.105438 -3.459274 -142.690292
v -66.031792 -3.115121 -138.121674
v -81.593712 4.623784 -175.450089
v -80.551170 5.200160 -170.827576
v -79.020332 2.131845 -167.050812
v -77.400368 -1.601731 -163.428421
v -76.284897 -1.569721 -158.932236
v -75.422462 0.350961 -153.997772
v -74.434723 1.336381 -149.280350
v -73.418983 2.112827 -144.611404
v -72.276207 1.941011 -140.162521
v -70.960136 0.475724 -136.013779
v -86.163803 5.540583 -173.962692
v -85.264488 7.186029 -169.092102
v -84.008263 6.167422 -164.839706
v -82.422142 2.686453 -161.158707
v -81.075829 0.995428 -157.062347
v -80.044815 1.657860 -152.419861
v -78.990158 2.143806 -147.818344
v -78.036987 3.387250 -143.041031
v -76.917145 3.386656 -138.552414
v -75.574562 1.723498 -134.449585
v -90.597954 5.442747 -172.710754
v -89.742760 7.417497 -167.763748
v -88.679382 7.838357 -163.177322
v -87.265182 5.640571 -159.198563
v -85.778595 2.902560 -155.345154
v -84.491890 1.656473 -151.145554
v -83.416679 1.988980 -146.579620
v -82.484169 3.386655 -141.766525
v -81.380363 3.505759 -137.250122
v -80.021751 1.722903 -133.175079
v -94.835426 3.876832 -171.799484
v -93.937141 5.529963 -166.927109
v -92.847366 5.753744 -162.386414
v -91.474724 3.866212 -158.335663
v -90.002228 1.233398 -154.457840
v -88.722015 0.035709 -150.247009
v -87.661781 0.480054 -145.655136
v -86.708611 1.723497 -140.877823
v -85.588776 1.722903 -136.389206
v -84.246193 0.059747 -132.286377
vn -0.3589 0.6963 0.6216
vn -0.2972 0.9471 0.1215
vn -0.3523 0.9359 -0.0038
vn -0.3117 0.9429 -0.1173
vn -0.4127 0.8681 -0.2757
vn -0.1952 0.8743 -0.4444
vn 0.4004 0.8618 -0.3115
vn 0.4880 0.8645 0.1201
vn 0.3333 0.8291 0.4489
vn 0.1456 0.8025 0.5786
vn -0.1369 0.7483 0.6491
vn -0.1294 0.9659 0.2241
vn -0.1344 0.9632 0.2328
vn -0.1780 0.9410 0.2877
vn -0.2599 0.9225 0.2854
vn -0.4223 0.6915 0.5860
vn -0.6349 0.7156 0.2912
vn -0.5084 0.8078 0.2982
vn -0.4688 0.8540 0.2255
vn -0.4250 0.8969 0.1221
vn -0.3234 0.7626 0.5602
vn -0.6382 0.5614 0.5268
vn -0.7701 0.4878 0.4111
vn -0.6407 0.3747 0.6701
vn -0.7931 0.6074 0.0460
vn -0.6115 0.7825 0.1175
vn -0.4668 0.8652 0.1831
vn -0.4411 0.8972 0.0229
vn -0.1601 0.9410 0.2980
vn -0.1370 0.5615 0.8160
vn -0.4149 0.5573 0.7192
vn -0.4887 0.8587 0.1540
vn 0.2690 0.8967 0.3516
vn 0.2160 0.9475 -0.2356
vn -0.1181 0.9910 0.0627
vn -0.3596 0.9173 0.1711
vn -0.3943 0.9155 -0.0793
vn -0.0620 0.9599 0.2736
vn 0.2867 0.6428 0.7103
vn 0.4721 0.7274 0.4980
vn 0.2931 0.9188 -0.2645
vn 0.3588 0.9274 -0.1064
vn 0.3134 0.9320 0.1822
vn -0.0693 0.8615 0.5029
vn -0.4479 0.8261 0.3421
vn -0.5768 0.8097 -0.1084
vn -0.1201 0.9661 0.2287
vn 0.2568 0.8747 0.4110
vn 0.5677 0.7897 0.2324
vn 0.4960 0.8590 -0.1271
vn 0.2961 0.9537 0.0531
vn 0.1937 0.8692 0.4550
vn 0.1927 0.7476 0.6356
vn 0.0039 0.9088 0.4172
vn -0.1961 0.9328 -0.3023
vn -0.0947 0.9819 0.1641
vn 0.0306 0.9959 0.0849
vn 0.0528 0.9465 0.3184
vn -0.1588 0.8747 0.4578
vn -0.3118 0.9360 0.1634
vn -0.0181 0.9870 0.1598
vn 0.4005 0.9025 0.1583
vn 0.6602 0.7070 0.2536
vn 0.7320 0.6809 0.0211
vn 0.6033 0.7380 -0.3022
vn 0.0342 0.9977 -0.0592
vn 0.2038 0.9728 -0.1105
vn 0.3144 0.8418 0.4388
vn 0.1207 0.7953 0.5941
vn -0.1725 0.9833 0.0573
vn -0.0573 0.9727 -0.2250
vn 0.2546 0.9583 -0.1296
vn 0.5449 0.8364 -0.0601
vn 0.6739 0.7338 -0.0863
vn 0.6427 0.7622 -0.0782
vn 0.0177 0.9638 -0.2661
vn 0.2038 0.9432 -0.2624
vn 0.5748 0.7925 0.2039
vn 0.6866 0.6449 0.3357
vn 0.5711 0.8208 -0.0051
vn 0.2669 0.9159 -0.2998
vn 0.1609 0.9689 -0.1882
vn 0.1406 0.9618 -0.2350
vn 0.2661 0.9627 -0.0488
vn 0.3447 0.9092 0.2336
vn -0.1494 0.9295 -0.3373
vn -0.0820 0.9398 -0.3319
vn 0.2072 0.9782 0.0118
vn 0.5164 0.7722 0.3702
vn 0.5173 0.8126 0.2684
vn 0.2071 0.9783 0.0103
vn -0.0401 0.9960 -0.0796
vn -0.0873 0.9647 -0.2485
vn 0.0089 0.9998 -0.0153
vn 0.1145 0.9284 0.3534
vn -0.3551 0.8900 -0.2859
vn -0.4109 0.8766 -0.2505
vn -0.4231 0.9054 0.0359
vn -0.2748 0.8151 0.5101
vn -0.1887 0.7712 0.6080
vn -0.2762 0.8971 0.3450
vn -0.3462 0.9382 0.0011
vn -0.3781 0.9089 -0.1760
vn -0.3633 0.9284 0.0775
vn -0.2576 0.8570 0.4462
vn -0.4718 0.8699 -0.1440
vn -0.5948 0.7981 -0.0965
vn -0.6408 0.7534 0.1476
vn -0.5476 0.6905 0.4726
vn -0.4460 0.6757 0.5870
vn -0.4993 0.7917 0.3520
vn -0.5334 0.8457 0.0154
vn -0.5557 0.8289 -0.0637
vn -0.5739 0.8025 0.1632
vn -0.4937 0.7483 0.4431
vt 0.909091 0.909091
vt 1.000000 0.909091
vt 1.000000 1.000000
vt 0.909091 1.000000
vt 0.000000 0.909091
vt 0.090909 0.909091
vt 0.090909 1.000000
vt 0.000000 1.000000
vt 0.181818 0.909091
vt 0.181818 1.000000
vt 0.272727 0.909091
vt 0.272727 1.000000
vt 0.363636 0.909091
vt 0.363636 1.000000
vt 0.454545 0.909091
vt 0.454545 1.000000
vt 0.545455 0.909091
vt 0.545455 1.000000
vt 0.636364 0.909091
vt 0.636364 1.000000
vt 0.727273 0.909091
vt 0.727273 1.000000
vt 0.818182 0.909091
vt 0.818182 1.000000
vt 0.000000 0.000000
vt 0.090909 0.000000
vt 0.090909 0.090909
vt 0.000000 0.090909
vt 0.090909 0.181818
vt 0.000000 0.181818
vt 0.090909 0.272727
vt 0.000000 0.272727
vt 0.090909 0.363636
vt 0.000000 0.363636
vt 0.090909 0.454545
vt 0.000000 0.454545
vt 0.090909 0.545455
vt 0.000000 0.545455
vt 0.090909 0.636364
vt 0.000000 0.636364
vt 0.090909 0.727273
vt 0.000000 0.727273
vt 0.090909 0.818182
vt 0.000000 0.818182
vt 0.181818 0.000000
vt 0.181818 0.090909
vt 0.181818 0.181818
vt 0.181818 0.272727
vt 0.181818 0.363636
vt 0.181818 0.454545
vt 0.181818 0.545455
vt 0.181818 0.636364
vt 0.181818 0.727273
vt 0.181818 0.818182
vt 0.272727 0.000000
vt 0.272727 0.090909
vt 0.272727 0.181818
vt 0.272727 0.272727
vt 0.272727 0.363636
vt 0.272727 0.454545
vt 0.272727 0.545455
vt 0.272727 0.636364
vt 0.272727 0.727273
vt 0.272727 0.818182
vt 0.363636 0.000000
vt 0.363636 0.090909
vt 0.363636 0.181818
vt 0.363636 0.272727
vt 0.363636 0.363636
vt 0.363636 0.454545
vt 0.363636 0.545455
vt 0.363636 0.636364
vt 0.363636 0.727273
vt 0.363636 0.818182
vt 0.454545 0.000000
vt 0.454545 0.090909
vt 0.454545 0.181818
vt 0.454545 0.272727
vt 0.454545 0.363636
vt 0.454545 0.454545
vt 0.454545 0.545455
vt 0.454545 0.636364
vt 0.454545 0.727273
vt 0.454545 0.818182
vt 0.545455 0.000000
vt 0.545455 0.090909
vt 0.545455 0.181818
vt 0.545455 0.272727
vt 0.545455 0.363636
vt 0.545455 0.454545
vt 0.545455 0.545455
vt 0.545455 0.636364
vt 0.545455 0.727273
vt 0.545455 0.818182
vt 0.636364 0.000000
vt 0.636364 0.090909
vt 0.636364 0.181818
vt 0.636364 0.272727
vt 0.636364 0.363636
vt 0.636364 0.454545
vt 0.636364 0.545455
vt 0.636364 0.636364
vt 0.636364 0.727273
vt 0.636364 0.818182
vt 0.727273 0.000000
vt 0.727273 0.090909
vt 0.727273 0.181818
vt 0.727273 0.272727
vt 0.727273 0.363636
vt 0.727273 0.454545
vt 0.727273 0.545455
vt 0.727273 0.636364
vt 0.727273 0.727273
vt 0.727273 0.818182
vt 0.818182 0.000000
vt 0.818182 0.090909
vt 0.818182 0.181818
vt 0.818182 0.272727
vt 0.818182 0.363636
vt 0.818182 0.454545
vt 0.818182 0.545455
vt 0.818182 0.636364
vt 0.818182 0.727273
vt 0.818182 0.818182
vt 0.909091 0.000000
vt 0.909091 0.090909
vt 0.909091 0.181818
vt 0.909091 0.272727
vt 0.909091 0.363636
vt 0.909091 0.454545
vt 0.909091 0.545455
vt 0.909091 0.636364
vt 0.909091 0.727273
vt 0.909091 0.818182
vt 1.000000 0.000000
vt 1.000000 0.090909
vt 1.000000 0.181818
vt 1.000000 0.272727
vt 1.000000 0.363636
vt 1.000000 0.454545
vt 1.000000 0.545455
vt 1.000000 0.636364
vt 1.000000 0.727273
vt 1.000000 0.818182
s 0
usemtl Material.005
f 720/577/461 610/578/461 580/579/461 611/580/461
f 581/581/462 630/582/462 620/583/462 579/584/462
f 630/582/463 640/585/463 619/586/463 620/583/463
f 640/585/464 650/587/464 618/588/464 619/586/464
f 650/587/465 660/589/465 617/590/465 618/588/465
f 660/589/466 670/591/466 616/592/466 617/590/466
f 670/591/467 680/593/467 615/594/467 616/592/467
f 680/593/468 690/595/468 614/596/468 615/594/468
f 690/595/469 700/597/469 613/598/469 614/596/469
f 700/597/470 710/599/470 612/600/470 613/598/470
f 710/599/471 720/577/471 611/580/471 612/600/471
f 577/601/472 591/602/472 621/603/472 590/604/472
f 590/604/472 621/603/472 622/605/472 589/606/472
f 589/606/473 622/605/473 623/607/473 588/608/473
f 588/608/474 623/607/474 624/609/474 587/610/474
f 587/610/475 624/609/475 625/611/475 586/612/475
f 586/612/476 625/611/476 626/613/476 585/614/476
f 585/614/477 626/613/477 627/615/477 584/616/477
f 584/616/478 627/615/478 628/617/478 583/618/478
f 583/618/479 628/617/479 629/619/479 582/620/479
f 582/620/480 629/619/480 630/582/480 581/581/480
f 591/602/472 592/621/472 631/622/472 621/603/472
f 621/603/473 631/622/473 632/623/473 622/605/473
f 622/605/481 632/623/481 633/624/481 623/607/481
f 623/607/482 633/624/482 634/625/482 624/609/482
f 624/609/483 634/625/483 635/626/483 625/611/483
f 625/611/484 635/626/484 636/627/484 626/613/484
f 626/613/485 636/627/485 637/628/485 627/615/485
f 627/615/486 637/628/486 638/629/486 628/617/486
f 628/617/487 638/629/487 639/630/487 629/619/487
f 629/619/488 639/630/488 640/585/488 630/582/488
f 592/621/472 593/631/472 641/632/472 631/622/472
f 631/622/489 641/632/489 642/633/489 632/623/489
f 632/623/490 642/633/490 643/634/490 633/624/490
f 633/624/491 643/634/491 644/635/491 634/625/491
f 634/625/492 644/635/492 645/636/492 635/626/492
f 635/626/493 645/636/493 646/637/493 636/627/493
f 636/627/494 646/637/494 647/638/494 637/628/494
f 637/628/495 647/638/495 648/639/495 638/629/495
f 638/629/496 648/639/496 649/640/496 639/630/496
f 639/630/497 649/640/497 650/587/497 640/585/497
f 593/631/472 594/641/472 651/642/472 641/632/472
f 641/632/498 651/642/498 652/643/498 642/633/498
f 642/633/499 652/643/499 653/644/499 643/634/499
f 643/634/500 653/644/500 654/645/500 644/635/500
f 644/635/501 654/645/501 655/646/501 645/636/501
f 645/636/502 655/646/502 656/647/502 646/637/502
f 646/637/503 656/647/503 657/648/503 647/638/503
f 647/638/504 657/648/504 658/649/504 648/639/504
f 648/639/505 658/649/505 659/650/505 649/640/505
f 649/640/506 659/650/506 660/589/506 650/587/506
f 594/641/472 595/651/472 661/652/472 651/642/472
f 651/642/507 661/652/507 662/653/507 652/643/507
f 652/643/508 662/653/508 663/654/508 653/644/508
f 653/644/509 663/654/509 664/655/509 654/645/509
f 654/645/510 664/655/510 665/656/510 655/646/510
f 655/646/511 665/656/511 666/657/511 656/647/511
f 656/647/512 666/657/512 667/658/512 657/648/512
f 657/648/513 667/658/513 668/659/513 658/649/513
f 658/649/514 668/659/514 669/660/514 659/650/514
f 659/650/515 669/660/515 670/591/515 660/589/515
f 595/651/516 596/661/516 671/662/516 661/652/516
f 661/652/517 671/662/517 672/663/517 662/653/517
f 662/653/518 672/663/518 673/664/518 663/654/518
f 663/654/519 673/664/519 674/665/519 664/655/519
f 664/655/520 674/665/520 675/666/520 665/656/520
f 665/656/521 675/666/521 676/667/521 666/657/521
f 666/657/522 676/667/522 677/668/522 667/658/522
f 667/658/523 677/668/523 678/669/523 668/659/523
f 668/659/524 678/669/524 679/670/524 669/660/524
f 669/660/525 679/670/525 680/593/525 670/591/525
f 596/661/526 597/671/526 681/672/526 671/662/526
f 671/662/527 681/672/527 682/673/527 672/663/527
f 672/663/528 682/673/528 683/674/528 673/664/528
f 673/664/529 683/674/529 684/675/529 674/665/529
f 674/665/530 684/675/530 685/676/530 675/666/530
f 675/666/531 685/676/531 686/677/531 676/667/531
f 676/667/532 686/677/532 687/678/532 677/668/532
f 677/668/533 687/678/533 688/679/533 678/669/533
f 678/669/534 688/679/534 689/680/534 679/670/534
f 679/670/535 689/680/535 690/595/535 680/593/535
f 597/671/536 598/681/536 691/682/536 681/672/536
f 681/672/537 691/682/537 692/683/537 682/673/537
f 682/673/538 692/683/538 693/684/538 683/674/538
f 683/674/539 693/684/539 694/685/539 684/675/539
f 684/675/540 694/685/540 695/686/540 685/676/540
f 685/676/541 695/686/541 696/687/541 686/677/541
f 686/677/542 696/687/542 697/688/542 687/678/542
f 687/678/543 697/688/543 698/689/543 688/679/543
f 688/679/544 698/689/544 699/690/544 689/680/544
f 689/680/545 699/690/545 700/597/545 690/595/545
f 598/681/546 599/691/546 701/692/546 691/682/546
f 691/682/547 701/692/547 702/693/547 692/683/547
f 692/683/548 702/693/548 703/694/548 693/684/548
f 693/684/549 703/694/549 704/695/549 694/685/549
f 694/685/550 704/695/550 705/696/550 695/686/550
f 695/686/551 705/696/551 706/697/551 696/687/551
f 696/687/552 706/697/552 707/698/552 697/688/552
f 697/688/553 707/698/553 708/699/553 698/689/553
f 698/689/554 708/699/554 709/700/554 699/690/554
f 699/690/555 709/700/555 710/599/555 700/597/555
f 599/691/556 600/701/556 711/702/556 701/692/556
f 701/692/557 711/702/557 712/703/557 702/693/557
f 702/693/558 712/703/558 713/704/558 703/694/558
f 703/694/559 713/704/559 714/705/559 704/695/559
f 704/695/560 714/705/560 715/706/560 705/696/560
f 705/696/561 715/706/561 716/707/561 706/697/561
f 706/697/562 716/707/562 717/708/562 707/698/562
f 707/698/563 717/708/563 718/709/563 708/699/563
f 708/699/564 718/709/564 719/710/564 709/700/564
f 709/700/565 719/710/565 720/577/565 710/599/565
f 600/701/566 578/711/566 601/712/566 711/702/566
f 711/702/567 601/712/567 602/713/567 712/703/567
f 712/703/568 602/713/568 603/714/568 713/704/568
f 713/704/569 603/714/569 604/715/569 714/705/569
f 714/705/570 604/715/570 605/716/570 715/706/570
f 715/706/571 605/716/571 606/717/571 716/707/571
f 716/707/572 606/717/572 607/718/572 717/708/572
f 717/708/573 607/718/573 608/719/573 718/709/573
f 718/709/574 608/719/574 609/720/574 719/710/574
f 719/710/575 609/720/575 610/578/575 720/577/575
o Plane.005
v -55.116951 10.000000 -114.442101
v -103.413246 10.458364 -127.383049
v -68.057899 10.000000 -66.145805
v -116.354195 13.969809 -79.086754
v -66.881447 9.731809 -70.536377
v -65.705002 9.220490 -74.926956
v -64.528549 8.983710 -79.317520
v -63.352100 9.220490 -83.708099
v -62.175652 9.731809 -88.098671
v -60.999199 10.000000 -92.489243
v -59.822750 10.000000 -96.879814
v -58.646301 10.000000 -101.270386
v -57.469852 10.000000 -105.660957
v -56.293404 10.000000 -110.051529
v -59.507523 10.000000 -115.618553
v -63.898098 10.000000 -116.794998
v -68.288666 10.000000 -117.971451
v -72.679245 10.000000 -119.147903
v -77.069817 10.000000 -120.324348
v -81.460388 10.000000 -121.500801
v -85.850960 10.458364 -122.677246
v -90.241531 11.332255 -123.853699
v -94.632103 11.736933 -125.030151
v -99.022675 11.332255 -126.206596
v -104.589699 12.203230 -122.992477
v -105.766144 14.013592 -118.601898
v -106.942596 14.773527 -114.211334
v -108.119049 14.013592 -109.820755
v -109.295494 12.528276 -105.430183
v -110.471947 12.380967 -101.039612
v -111.648392 13.969810 -96.649040
v -112.824844 15.659829 -92.258469
v -114.001297 16.318209 -87.867897
v -115.177742 15.659829 -83.477325
v -111.963623 15.659829 -77.910301
v -107.573044 16.318209 -76.733856
v -103.182480 15.659829 -75.557404
v -98.791901 13.969810 -74.380951
v -94.401329 11.775917 -73.204506
v -90.010757 9.353735 -72.028053
v -85.620186 8.918563 -70.851608
v -81.229614 8.983710 -69.675156
v -76.839043 9.220490 -68.498703
v -72.448471 9.731809 -67.322258
v -60.683975 10.000000 -111.227982
v -61.860424 10.000000 -106.837402
v -63.036873 9.933254 -102.446831
v -64.213318 9.464043 -98.056259
v -65.389771 9.184149 -93.665688
v -66.566223 6.121766 -89.275116
v -67.742676 6.933366 -84.884544
v -68.919121 7.206982 -80.493973
v -70.095573 7.651624 -76.103401
v -71.272018 8.710876 -71.712830
v -65.074547 10.000000 -112.404427
v -66.250992 9.933253 -108.013855
v -67.427444 6.960873 -103.623283
v -68.603897 4.710038 -99.232712
v -69.780350 3.747163 -94.842140
v -70.956795 0.834032 -90.451569
v -72.133247 3.693211 -86.060997
v -73.309692 5.506879 -81.670425
v -74.486145 6.146340 -77.279846
v -75.662598 7.651624 -72.889282
v -69.465118 10.000000 -113.580879
v -70.641571 9.464043 -109.190308
v -71.818016 4.712683 -104.799736
v -72.994469 1.346663 -100.409164
v -74.170921 3.721395 -96.018585
v -75.347366 4.226827 -91.628014
v -76.523819 5.044847 -87.237442
v -77.700264 4.651034 -82.846870
v -78.876717 4.981589 -78.456299
v -80.053169 6.936629 -74.065727
v -73.855690 10.000000 -114.757324
v -75.032143 9.933254 -110.366753
v -76.208588 6.960874 -105.976181
v -77.385040 4.710039 -101.585609
v -78.561493 6.232012 -97.195038
v -79.737938 7.632714 -92.804466
v -80.914391 5.941226 -88.413895
v -82.090836 3.486763 -84.023323
v -83.267288 2.661151 -79.632751
v -84.443741 5.148813 -75.242172
v -78.246262 10.000000 -115.933777
v -79.422714 10.004485 -111.543205
v -80.599167 9.980422 -107.152634
v -81.775612 9.424615 -102.762062
v -82.952065 9.665726 -98.371490
v -84.128510 8.713307 -93.980919
v -85.304962 7.197233 -89.590347
v -86.481407 4.064669 -85.199768
v -87.657860 2.745976 -80.809204
v -88.834312 5.653156 -76.418625
v -82.636833 10.458364 -117.110229
v -83.813286 11.326035 -112.719650
v -84.989738 10.031656 -108.329086
v -86.166183 8.431581 -103.938507
v -87.342636 9.129512 -99.547935
v -88.519081 10.398597 -95.157364
v -89.695534 10.926929 -90.766792
v -90.871979 10.043414 -86.376221
v -92.048431 9.863579 -81.985649
v -93.224884 11.081093 -77.595078
v -87.027405 12.203232 -118.286682
v -88.203857 13.661160 -113.896103
v -89.380310 11.345827 -109.505531
v -90.556755 8.341767 -105.114960
v -91.733208 9.236126 -100.724388
v -92.909653 12.085784 -96.333817
v -94.086105 13.967186 -91.943245
v -95.262558 15.632242 -87.552673
v -96.439003 16.315586 -83.162102
v -97.615456 15.659830 -78.771530
v -91.417984 14.013593 -119.463127
v -92.594429 16.578304 -115.072556
v -93.770882 16.384985 -110.681984
v -94.947327 13.642443 -106.291412
v -96.123779 12.752985 -101.900833
v -97.300232 14.300007 -97.510262
v -98.476677 15.664315 -93.119690
v -99.653130 17.812843 -88.729118
v -100.829575 18.673449 -84.338547
v -102.006027 17.812843 -79.947975
v -95.808548 14.773527 -120.639572
v -96.985001 17.679157 -116.249008
v -98.161453 18.976086 -111.858429
v -99.337898 17.561991 -107.467857
v -100.514351 15.588615 -103.077286
v -101.690804 15.159791 -98.686714
v -102.867249 16.365250 -94.296143
v -104.043701 18.673449 -89.905571
v -105.220154 19.657974 -85.514999
v -106.396599 18.673447 -81.124428
v -100.199127 14.013593 -121.816025
v -101.375572 16.586262 -117.425453
v -102.552025 17.679157 -113.034882
v -103.728470 16.586262 -108.644310
v -104.904922 14.721792 -104.253738
v -106.081375 14.343074 -99.863167
v -107.257828 15.664314 -95.472595
v -108.434273 17.812843 -91.082016
v -109.610718 18.673447 -86.691452
v -110.787170 17.812843 -82.300873
vn -0.4444 0.8583 0.2566
vn -0.0983 0.9805 -0.1703
vn -0.0884 0.9487 -0.3035
vn 0.0017 0.9248 -0.3804
vn -0.0260 0.8302 -0.5569
vn 0.2407 0.7702 -0.5907
vn 0.6818 0.7108 -0.1731
vn 0.5522 0.7989 0.2385
vn 0.2566 0.8583 0.4444
vn 0.0293 0.8860 0.4627
vn -0.2567 0.8860 0.3861
vn -0.0000 1.0000 -0.0000
vn -0.0090 0.9999 0.0052
vn -0.0771 0.9965 0.0326
vn -0.1499 0.9887 -0.0086
vn -0.4826 0.8540 0.1946
vn -0.5183 0.8386 -0.1676
vn -0.3932 0.9129 -0.1092
vn -0.3146 0.9362 -0.1569
vn -0.2186 0.9487 -0.2283
vn -0.3702 0.9041 0.2137
vn -0.6674 0.7429 0.0513
vn -0.7413 0.6629 -0.1048
vn -0.7794 0.5951 0.1961
vn -0.5608 0.6996 -0.4427
vn -0.4009 0.8613 -0.3122
vn -0.2903 0.9372 -0.1935
vn -0.1853 0.9288 -0.3209
vn -0.0668 0.9965 0.0505
vn -0.3779 0.7431 0.5523
vn -0.5695 0.7532 0.3292
vn -0.2966 0.9272 -0.2286
vn 0.2632 0.9101 0.3201
vn 0.5080 0.8345 -0.2133
vn 0.0919 0.9866 -0.1349
vn -0.1816 0.9709 -0.1559
vn -0.0929 0.9176 -0.3865
vn 0.0326 0.9965 0.0771
vn 0.0511 0.7431 0.6673
vn 0.3286 0.7532 0.5698
vn 0.5809 0.7903 -0.1950
vn 0.5637 0.8255 -0.0281
vn 0.3892 0.9005 0.1939
vn -0.1045 0.9539 0.2814
vn -0.3584 0.9325 -0.0435
vn -0.2581 0.8325 -0.4903
vn 0.0058 0.9999 0.0086
vn 0.2197 0.9038 0.3673
vn 0.5500 0.7414 0.3844
vn 0.6751 0.7370 0.0329
vn 0.4406 0.8948 0.0724
vn 0.1438 0.9165 0.3733
vn 0.0301 0.8397 0.5423
vn 0.0091 0.9709 0.2395
vn 0.1856 0.8586 -0.4778
vn 0.0616 0.9975 -0.0356
vn 0.2090 0.9770 -0.0410
vn 0.1060 0.9788 0.1754
vn -0.1563 0.9681 0.1958
vn -0.1332 0.9811 -0.1406
vn 0.1300 0.9915 -0.0009
vn 0.4681 0.8554 0.2217
vn 0.6002 0.6543 0.4601
vn 0.7658 0.5677 0.3021
vn 0.8224 0.5670 -0.0460
vn 0.2808 0.9460 -0.1621
vn 0.4440 0.8885 -0.1163
vn 0.2482 0.8708 0.4244
vn -0.0009 0.8857 0.4642
vn 0.0464 0.9850 -0.1662
vn 0.2760 0.8965 -0.3465
vn 0.4931 0.8636 -0.1049
vn 0.6798 0.7239 0.1177
vn 0.7791 0.6022 0.1742
vn 0.7550 0.6355 0.1616
vn 0.3573 0.8690 -0.3423
vn 0.5094 0.8258 -0.2418
vn 0.5702 0.7368 0.3633
vn 0.5698 0.6093 0.5514
vn 0.6726 0.7178 0.1798
vn 0.5748 0.7829 -0.2380
vn 0.4434 0.8728 -0.2038
vn 0.4467 0.8581 -0.2530
vn 0.4654 0.8845 -0.0308
vn 0.3864 0.8860 0.2565
vn 0.2411 0.8416 -0.4834
vn 0.2983 0.8440 -0.4458
vn 0.3901 0.9207 -0.0112
vn 0.4370 0.7621 0.4778
vn 0.4951 0.7782 0.3864
vn 0.3907 0.9204 -0.0125
vn 0.2269 0.9494 -0.2170
vn 0.2598 0.8874 -0.3808
vn 0.2389 0.9612 -0.1379
vn 0.1379 0.9612 0.2389
vn 0.0329 0.8415 -0.5392
vn -0.0345 0.8437 -0.5356
vn -0.1742 0.9373 -0.3018
vn -0.2932 0.9372 0.1890
vn -0.2762 0.9056 0.3218
vn -0.1977 0.9796 0.0371
vn -0.0850 0.9513 -0.2965
vn -0.0346 0.8874 -0.4597
vn -0.1379 0.9612 -0.2389
vn -0.2389 0.9612 0.1379
vn -0.1383 0.8690 -0.4751
vn -0.2817 0.8262 -0.4879
vn -0.4466 0.8437 -0.2977
vn -0.5356 0.8437 0.0345
vn -0.5067 0.8420 0.1854
vn -0.4146 0.9082 -0.0567
vn -0.2719 0.8894 -0.3676
vn -0.2571 0.8583 -0.4441
vn -0.3861 0.8860 -0.2567
vn -0.4627 0.8860 0.0293
vt 0.909091 0.909091
vt 1.000000 0.909091
vt 1.000000 1.000000
vt 0.909091 1.000000
vt 0.000000 0.909091
vt 0.090909 0.909091
vt 0.090909 1.000000
vt 0.000000 1.000000
vt 0.181818 0.909091
vt 0.181818 1.000000
vt 0.272727 0.909091
vt 0.272727 1.000000
vt 0.363636 0.909091
vt 0.363636 1.000000
vt 0.454545 0.909091
vt 0.454545 1.000000
vt 0.545455 0.909091
vt 0.545455 1.000000
vt 0.636364 0.909091
vt 0.636364 1.000000
vt 0.727273 0.909091
vt 0.727273 1.000000
vt 0.818182 0.909091
vt 0.818182 1.000000
vt 0.000000 0.000000
vt 0.090909 0.000000
vt 0.090909 0.090909
vt 0.000000 0.090909
vt 0.090909 0.181818
vt 0.000000 0.181818
vt 0.090909 0.272727
vt 0.000000 0.272727
vt 0.090909 0.363636
vt 0.000000 0.363636
vt 0.090909 0.454545
vt 0.000000 0.454545
vt 0.090909 0.545455
vt 0.000000 0.545455
vt 0.090909 0.636364
vt 0.000000 0.636364
vt 0.090909 0.727273
vt 0.000000 0.727273
vt 0.090909 0.818182
vt 0.000000 0.818182
vt 0.181818 0.000000
vt 0.181818 0.090909
vt 0.181818 0.181818
vt 0.181818 0.272727
vt 0.181818 0.363636
vt 0.181818 0.454545
vt 0.181818 0.545455
vt 0.181818 0.636364
vt 0.181818 0.727273
vt 0.181818 0.818182
vt 0.272727 0.000000
vt 0.272727 0.090909
vt 0.272727 0.181818
vt 0.272727 0.272727
vt 0.272727 0.363636
vt 0.272727 0.454545
vt 0.272727 0.545455
vt 0.272727 0.636364
vt 0.272727 0.727273
vt 0.272727 0.818182
vt 0.363636 0.000000
vt 0.363636 0.090909
vt 0.363636 0.181818
vt 0.363636 0.272727
vt 0.363636 0.363636
vt 0.363636 0.454545
vt 0.363636 0.545455
vt 0.363636 0.636364
vt 0.363636 0.727273
vt 0.363636 0.818182
vt 0.454545 0.000000
vt 0.454545 0.090909
vt 0.454545 0.181818
vt 0.454545 0.272727
vt 0.454545 0.363636
vt 0.454545 0.454545
vt 0.454545 0.545455
vt 0.454545 0.636364
vt 0.454545 0.727273
vt 0.454545 0.818182
vt 0.545455 0.000000
vt 0.545455 0.090909
vt 0.545455 0.181818
vt 0.545455 0.272727
vt 0.545455 0.363636
vt 0.545455 0.454545
vt 0.545455 0.545455
vt 0.545455 0.636364
vt 0.545455 0.727273
vt 0.545455 0.818182
vt 0.636364 0.000000
vt 0.636364 0.090909
vt 0.636364 0.181818
vt 0.636364 0.272727
vt 0.636364 0.363636
vt 0.636364 0.454545
vt 0.636364 0.545455
vt 0.636364 0.636364
vt 0.636364 0.727273
vt 0.636364 0.818182
vt 0.727273 0.000000
vt 0.727273 0.090909
vt 0.727273 0.181818
vt 0.727273 0.272727
vt 0.727273 0.363636
vt 0.727273 0.454545
vt 0.727273 0.545455
vt 0.727273 0.636364
vt 0.727273 0.727273
vt 0.727273 0.818182
vt 0.818182 0.000000
vt 0.818182 0.090909
vt 0.818182 0.181818
vt 0.818182 0.272727
vt 0.818182 0.363636
vt 0.818182 0.454545
vt 0.818182 0.545455
vt 0.818182 0.636364
vt 0.818182 0.727273
vt 0.818182 0.818182
vt 0.909091 0.000000
vt 0.909091 0.090909
vt 0.909091 0.181818
vt 0.909091 0.272727
vt 0.909091 0.363636
vt 0.909091 0.454545
vt 0.909091 0.545455
vt 0.909091 0.636364
vt 0.909091 0.727273
vt 0.909091 0.818182
vt 1.000000 0.000000
vt 1.000000 0.090909
vt 1.000000 0.181818
vt 1.000000 0.272727
vt 1.000000 0.363636
vt 1.000000 0.454545
vt 1.000000 0.545455
vt 1.000000 0.636364
vt 1.000000 0.727273
vt 1.000000 0.818182
s 0
usemtl Material.006
f 864/721/576 754/722/576 724/723/576 755/724/576
f 725/725/577 774/726/577 764/727/577 723/728/577
f 774/726/578 784/729/578 763/730/578 764/727/578
f 784/729/579 794/731/579 762/732/579 763/730/579
f 794/731/580 804/733/580 761/734/580 762/732/580
f 804/733/581 814/735/581 760/736/581 761/734/581
f 814/735/582 824/737/582 759/738/582 760/736/582
f 824/737/583 834/739/583 758/740/583 759/738/583
f 834/739/584 844/741/584 757/742/584 758/740/584
f 844/741/585 854/743/585 756/744/585 757/742/585
f 854/743/586 864/721/586 755/724/586 756/744/586
f 721/745/587 735/746/587 765/747/587 734/748/587
f 734/748/587 765/747/587 766/749/587 733/750/587
f 733/750/588 766/749/588 767/751/588 732/752/588
f 732/752/589 767/751/589 768/753/589 731/754/589
f 731/754/590 768/753/590 769/755/590 730/756/590
f 730/756/591 769/755/591 770/757/591 729/758/591
f 729/758/592 770/757/592 771/759/592 728/760/592
f 728/760/593 771/759/593 772/761/593 727/762/593
f 727/762/594 772/761/594 773/763/594 726/764/594
f 726/764/595 773/763/595 774/726/595 725/725/595
f 735/746/587 736/765/587 775/766/587 765/747/587
f 765/747/588 775/766/588 776/767/588 766/749/588
f 766/749/596 776/767/596 777/768/596 767/751/596
f 767/751/597 777/768/597 778/769/597 768/753/597
f 768/753/598 778/769/598 779/770/598 769/755/598
f 769/755/599 779/770/599 780/771/599 770/757/599
f 770/757/600 780/771/600 781/772/600 771/759/600
f 771/759/601 781/772/601 782/773/601 772/761/601
f 772/761/602 782/773/602 783/774/602 773/763/602
f 773/763/603 783/774/603 784/729/603 774/726/603
f 736/765/587 737/775/587 785/776/587 775/766/587
f 775/766/604 785/776/604 786/777/604 776/767/604
f 776/767/605 786/777/605 787/778/605 777/768/605
f 777/768/606 787/778/606 788/779/606 778/769/606
f 778/769/607 788/779/607 789/780/607 779/770/607
f 779/770/608 789/780/608 790/781/608 780/771/608
f 780/771/609 790/781/609 791/782/609 781/772/609
f 781/772/610 791/782/610 792/783/610 782/773/610
f 782/773/611 792/783/611 793/784/611 783/774/611
f 783/774/612 793/784/612 794/731/612 784/729/612
f 737/775/587 738/785/587 795/786/587 785/776/587
f 785/776/613 795/786/613 796/787/613 786/777/613
f 786/777/614 796/787/614 797/788/614 787/778/614
f 787/778/615 797/788/615 798/789/615 788/779/615
f 788/779/616 798/789/616 799/790/616 789/780/616
f 789/780/617 799/790/617 800/791/617 790/781/617
f 790/781/618 800/791/618 801/792/618 791/782/618
f 791/782/619 801/792/619 802/793/619 792/783/619
f 792/783/620 802/793/620 803/794/620 793/784/620
f 793/784/621 803/794/621 804/733/621 794/731/621
f 738/785/587 739/795/587 805/796/587 795/786/587
f 795/786/622 805/796/622 806/797/622 796/787/622
f 796/787/623 806/797/623 807/798/623 797/788/623
f 797/788/624 807/798/624 808/799/624 798/789/624
f 798/789/625 808/799/625 809/800/625 799/790/625
f 799/790/626 809/800/626 810/801/626 800/791/626
f 800/791/627 810/801/627 811/802/627 801/792/627
f 801/792/628 811/802/628 812/803/628 802/793/628
f 802/793/629 812/803/629 813/804/629 803/794/629
f 803/794/630 813/804/630 814/735/630 804/733/630
f 739/795/631 740/805/631 815/806/631 805/796/631
f 805/796/632 815/806/632 816/807/632 806/797/632
f 806/797/633 816/807/633 817/808/633 807/798/633
f 807/798/634 817/808/634 818/809/634 808/799/634
f 808/799/635 818/809/635 819/810/635 809/800/635
f 809/800/636 819/810/636 820/811/636 810/801/636
f 810/801/637 820/811/637 821/812/637 811/802/637
f 811/802/638 821/812/638 822/813/638 812/803/638
f 812/803/639 822/813/639 823/814/639 813/804/639
f 813/804/640 823/814/640 824/737/640 814/735/640
f 740/805/641 741/815/641 825/816/641 815/806/641
f 815/806/642 825/816/642 826/817/642 816/807/642
f 816/807/643 826/817/643 827/818/643 817/808/643
f 817/808/644 827/818/644 828/819/644 818/809/644
f 818/809/645 828/819/645 829/820/645 819/810/645
f 819/810/646 829/820/646 830/821/646 820/811/646
f 820/811/647 830/821/647 831/822/647 821/812/647
f 821/812/648 831/822/648 832/823/648 822/813/648
f 822/813/649 832/823/649 833/824/649 823/814/649
f 823/814/650 833/824/650 834/739/650 824/737/650
f 741/815/651 742/825/651 835/826/651 825/816/651
f 825/816/652 835/826/652 836/827/652 826/817/652
f 826/817/653 836/827/653 837/828/653 827/818/653
f 827/818/654 837/828/654 838/829/654 828/819/654
f 828/819/655 838/829/655 839/830/655 829/820/655
f 829/820/656 839/830/656 840/831/656 830/821/656
f 830/821/657 840/831/657 841/832/657 831/822/657
f 831/822/658 841/832/658 842/833/658 832/823/658
f 832/823/659 842/833/659 843/834/659 833/824/659
f 833/824/660 843/834/660 844/741/660 834/739/660
f 742/825/661 743/835/661 845/836/661 835/826/661
f 835/826/662 845/836/662 846/837/662 836/827/662
f 836/827/663 846/837/663 847/838/663 837/828/663
f 837/828/664 847/838/664 848/839/664 838/829/664
f 838/829/665 848/839/665 849/840/665 839/830/665
f 839/830/666 849/840/666 850/841/666 840/831/666
f 840/831/667 850/841/667 851/842/667 841/832/667
f 841/832/668 851/842/668 852/843/668 842/833/668
f 842/833/669 852/843/669 853/844/669 843/834/669
f 843/834/670 853/844/670 854/743/670 844/741/670
f 743/835/671 744/845/671 855/846/671 845/836/671
f 845/836/672 855/846/672 856/847/672 846/837/672
f 846/837/673 856/847/673 857/848/673 847/838/673
f 847/838/674 857/848/674 858/849/674 848/839/674
f 848/839/675 858/849/675 859/850/675 849/840/675
f 849/840/676 859/850/676 860/851/676 850/841/676
f 850/841/677 860/851/677 861/852/677 851/842/677
f 851/842/678 861/852/678 862/853/678 852/843/678
f 852/843/679 862/853/679 863/854/679 853/844/679
f 853/844/680 863/854/680 864/721/680 854/743/680
f 744/845/681 722/855/681 745/856/681 855/846/681
f 855/846/682 745/856/682 746/857/682 856/847/682
f 856/847/683 746/857/683 747/858/683 857/848/683
f 857/848/684 747/858/684 748/859/684 858/849/684
f 858/849/685 748/859/685 749/860/685 859/850/685
f 859/850/686 749/860/686 750/861/686 860/851/686
f 860/851/687 750/861/687 751/862/687 861/852/687
f 861/852/688 751/862/688 752/863/688 862/853/688
f 862/853/689 752/863/689 753/864/689 863/854/689
f 863/854/690 753/864/690 754/722/690 864/721/690
